<?xml version="1.0" encoding="utf-8" standalone="no"?>
<!DOCTYPE svg PUBLIC "-//W3C//DTD SVG 1.1//EN"
  "http://www.w3.org/Graphics/SVG/1.1/DTD/svg11.dtd">
<!-- Created with matplotlib (https://matplotlib.org/) -->
<svg height="108pt" version="1.1" viewBox="0 0 216 108" width="216pt" xmlns="http://www.w3.org/2000/svg" xmlns:xlink="http://www.w3.org/1999/xlink">
 <metadata>
  <rdf:RDF xmlns:cc="http://creativecommons.org/ns#" xmlns:dc="http://purl.org/dc/elements/1.1/" xmlns:rdf="http://www.w3.org/1999/02/22-rdf-syntax-ns#">
   <cc:Work>
    <dc:type rdf:resource="http://purl.org/dc/dcmitype/StillImage"/>
    <dc:date>2023-07-05T11:16:06.732496</dc:date>
    <dc:format>image/svg+xml</dc:format>
    <dc:creator>
     <cc:Agent>
      <dc:title>Matplotlib v3.3.4, https://matplotlib.org/</dc:title>
     </cc:Agent>
    </dc:creator>
   </cc:Work>
  </rdf:RDF>
 </metadata>
 <defs>
  <style type="text/css">*{stroke-linecap:butt;stroke-linejoin:round;}</style>
 </defs>
 <g id="figure_1">
  <g id="patch_1">
   <path d="M 0 108 
L 216 108 
L 216 0 
L 0 0 
z
" style="fill:none;"/>
  </g>
  <g id="axes_1">
   <g id="patch_2">
    <path d="M 27 94.5 
L 194.4 94.5 
L 194.4 12.96 
L 27 12.96 
z
" style="fill:#ffffff;"/>
   </g>
   <g id="PathCollection_1">
    <defs>
     <path d="M 0 3.872983 
C 1.027127 3.872983 2.012324 3.464901 2.738613 2.738613 
C 3.464901 2.012324 3.872983 1.027127 3.872983 -0 
C 3.872983 -1.027127 3.464901 -2.012324 2.738613 -2.738613 
C 2.012324 -3.464901 1.027127 -3.872983 0 -3.872983 
C -1.027127 -3.872983 -2.012324 -3.464901 -2.738613 -2.738613 
C -3.464901 -2.012324 -3.872983 -1.027127 -3.872983 0 
C -3.872983 1.027127 -3.464901 2.012324 -2.738613 2.738613 
C -2.012324 3.464901 -1.027127 3.872983 0 3.872983 
z
" id="C0_0_c42a2a7f5f"/>
    </defs>
    <g clip-path="url(#p364d45ce89)">
     <use style="fill:none;stroke:#0000ff;" x="34.609091" xlink:href="#C0_0_c42a2a7f5f" y="58.335795"/>
    </g>
    <g clip-path="url(#p364d45ce89)">
     <use style="fill:none;stroke:#0000ff;" x="41.647665" xlink:href="#C0_0_c42a2a7f5f" y="58.442284"/>
    </g>
    <g clip-path="url(#p364d45ce89)">
     <use style="fill:none;stroke:#0000ff;" x="48.68624" xlink:href="#C0_0_c42a2a7f5f" y="58.620819"/>
    </g>
    <g clip-path="url(#p364d45ce89)">
     <use style="fill:none;stroke:#0000ff;" x="55.724814" xlink:href="#C0_0_c42a2a7f5f" y="58.854427"/>
    </g>
    <g clip-path="url(#p364d45ce89)">
     <use style="fill:none;stroke:#0000ff;" x="62.763389" xlink:href="#C0_0_c42a2a7f5f" y="59.164396"/>
    </g>
    <g clip-path="url(#p364d45ce89)">
     <use style="fill:none;stroke:#0000ff;" x="69.801963" xlink:href="#C0_0_c42a2a7f5f" y="59.65581"/>
    </g>
    <g clip-path="url(#p364d45ce89)">
     <use style="fill:none;stroke:#0000ff;" x="76.840538" xlink:href="#C0_0_c42a2a7f5f" y="60.304072"/>
    </g>
    <g clip-path="url(#p364d45ce89)">
     <use style="fill:none;stroke:#0000ff;" x="83.879112" xlink:href="#C0_0_c42a2a7f5f" y="61.175074"/>
    </g>
    <g clip-path="url(#p364d45ce89)">
     <use style="fill:none;stroke:#0000ff;" x="90.917687" xlink:href="#C0_0_c42a2a7f5f" y="62.285288"/>
    </g>
    <g clip-path="url(#p364d45ce89)">
     <use style="fill:none;stroke:#0000ff;" x="97.956261" xlink:href="#C0_0_c42a2a7f5f" y="63.837906"/>
    </g>
    <g clip-path="url(#p364d45ce89)">
     <use style="fill:none;stroke:#0000ff;" x="104.994835" xlink:href="#C0_0_c42a2a7f5f" y="65.799802"/>
    </g>
    <g clip-path="url(#p364d45ce89)">
     <use style="fill:none;stroke:#0000ff;" x="112.03341" xlink:href="#C0_0_c42a2a7f5f" y="68.137874"/>
    </g>
    <g clip-path="url(#p364d45ce89)">
     <use style="fill:none;stroke:#0000ff;" x="119.071984" xlink:href="#C0_0_c42a2a7f5f" y="70.90797"/>
    </g>
    <g clip-path="url(#p364d45ce89)">
     <use style="fill:none;stroke:#0000ff;" x="126.110559" xlink:href="#C0_0_c42a2a7f5f" y="74.042495"/>
    </g>
    <g clip-path="url(#p364d45ce89)">
     <use style="fill:none;stroke:#0000ff;" x="133.149133" xlink:href="#C0_0_c42a2a7f5f" y="76.930184"/>
    </g>
    <g clip-path="url(#p364d45ce89)">
     <use style="fill:none;stroke:#0000ff;" x="141.055357" xlink:href="#C0_0_c42a2a7f5f" y="82.2698"/>
    </g>
    <g clip-path="url(#p364d45ce89)">
     <use style="fill:none;stroke:#0000ff;" x="146.996626" xlink:href="#C0_0_c42a2a7f5f" y="86.190121"/>
    </g>
    <g clip-path="url(#p364d45ce89)">
     <use style="fill:none;stroke:#0000ff;" x="153.426471" xlink:href="#C0_0_c42a2a7f5f" y="90.793636"/>
    </g>
   </g>
   <g id="PathCollection_2">
    <defs>
     <path d="M -3.872983 3.872983 
L 3.872983 3.872983 
L 3.872983 -3.872983 
L -3.872983 -3.872983 
z
" id="C1_0_cc888f8aa1"/>
    </defs>
    <g clip-path="url(#p364d45ce89)">
     <use style="fill:none;stroke:#a2cffe;" x="51.29131" xlink:href="#C1_0_cc888f8aa1" y="37.450776"/>
    </g>
    <g clip-path="url(#p364d45ce89)">
     <use style="fill:none;stroke:#a2cffe;" x="58.329884" xlink:href="#C1_0_cc888f8aa1" y="37.544128"/>
    </g>
    <g clip-path="url(#p364d45ce89)">
     <use style="fill:none;stroke:#a2cffe;" x="65.368459" xlink:href="#C1_0_cc888f8aa1" y="37.661506"/>
    </g>
    <g clip-path="url(#p364d45ce89)">
     <use style="fill:none;stroke:#a2cffe;" x="72.407033" xlink:href="#C1_0_cc888f8aa1" y="37.878998"/>
    </g>
    <g clip-path="url(#p364d45ce89)">
     <use style="fill:none;stroke:#a2cffe;" x="79.445608" xlink:href="#C1_0_cc888f8aa1" y="38.191651"/>
    </g>
    <g clip-path="url(#p364d45ce89)">
     <use style="fill:none;stroke:#a2cffe;" x="86.484182" xlink:href="#C1_0_cc888f8aa1" y="38.636162"/>
    </g>
    <g clip-path="url(#p364d45ce89)">
     <use style="fill:none;stroke:#a2cffe;" x="93.522757" xlink:href="#C1_0_cc888f8aa1" y="39.321898"/>
    </g>
    <g clip-path="url(#p364d45ce89)">
     <use style="fill:none;stroke:#a2cffe;" x="100.561331" xlink:href="#C1_0_cc888f8aa1" y="40.241627"/>
    </g>
    <g clip-path="url(#p364d45ce89)">
     <use style="fill:none;stroke:#a2cffe;" x="107.599906" xlink:href="#C1_0_cc888f8aa1" y="41.466196"/>
    </g>
    <g clip-path="url(#p364d45ce89)">
     <use style="fill:none;stroke:#a2cffe;" x="114.63848" xlink:href="#C1_0_cc888f8aa1" y="43.015846"/>
    </g>
    <g clip-path="url(#p364d45ce89)">
     <use style="fill:none;stroke:#a2cffe;" x="121.677054" xlink:href="#C1_0_cc888f8aa1" y="45.003484"/>
    </g>
    <g clip-path="url(#p364d45ce89)">
     <use style="fill:none;stroke:#a2cffe;" x="128.715629" xlink:href="#C1_0_cc888f8aa1" y="47.453813"/>
    </g>
    <g clip-path="url(#p364d45ce89)">
     <use style="fill:none;stroke:#a2cffe;" x="135.754203" xlink:href="#C1_0_cc888f8aa1" y="50.442104"/>
    </g>
    <g clip-path="url(#p364d45ce89)">
     <use style="fill:none;stroke:#a2cffe;" x="142.792778" xlink:href="#C1_0_cc888f8aa1" y="53.936709"/>
    </g>
    <g clip-path="url(#p364d45ce89)">
     <use style="fill:none;stroke:#a2cffe;" x="149.831352" xlink:href="#C1_0_cc888f8aa1" y="58.140814"/>
    </g>
    <g clip-path="url(#p364d45ce89)">
     <use style="fill:none;stroke:#a2cffe;" x="157.737576" xlink:href="#C1_0_cc888f8aa1" y="62.158266"/>
    </g>
    <g clip-path="url(#p364d45ce89)">
     <use style="fill:none;stroke:#a2cffe;" x="163.678845" xlink:href="#C1_0_cc888f8aa1" y="66.606621"/>
    </g>
    <g clip-path="url(#p364d45ce89)">
     <use style="fill:none;stroke:#a2cffe;" x="170.10869" xlink:href="#C1_0_cc888f8aa1" y="72.017563"/>
    </g>
   </g>
   <g id="PathCollection_3">
    <path clip-path="url(#p364d45ce89)" d="M 67.973529 20.539347 
L 71.846512 12.79338 
L 64.100546 12.79338 
z
" style="fill:none;stroke:#2c6fbb;"/>
    <path clip-path="url(#p364d45ce89)" d="M 75.012103 20.650305 
L 78.885087 12.904338 
L 71.13912 12.904338 
z
" style="fill:none;stroke:#2c6fbb;"/>
    <path clip-path="url(#p364d45ce89)" d="M 82.050678 20.814495 
L 85.923661 13.068529 
L 78.177694 13.068529 
z
" style="fill:none;stroke:#2c6fbb;"/>
    <path clip-path="url(#p364d45ce89)" d="M 89.089252 21.089749 
L 92.962236 13.343783 
L 85.216269 13.343783 
z
" style="fill:none;stroke:#2c6fbb;"/>
    <path clip-path="url(#p364d45ce89)" d="M 96.127827 21.459864 
L 100.00081 13.713897 
L 92.254843 13.713897 
z
" style="fill:none;stroke:#2c6fbb;"/>
    <path clip-path="url(#p364d45ce89)" d="M 103.166401 21.996805 
L 107.039384 14.250839 
L 99.293418 14.250839 
z
" style="fill:none;stroke:#2c6fbb;"/>
    <path clip-path="url(#p364d45ce89)" d="M 110.204976 22.71214 
L 114.077959 14.966173 
L 106.331992 14.966173 
z
" style="fill:none;stroke:#2c6fbb;"/>
    <path clip-path="url(#p364d45ce89)" d="M 117.24355 23.790105 
L 121.116533 16.044138 
L 113.370567 16.044138 
z
" style="fill:none;stroke:#2c6fbb;"/>
    <path clip-path="url(#p364d45ce89)" d="M 124.282125 25.150644 
L 128.155108 17.404677 
L 120.409141 17.404677 
z
" style="fill:none;stroke:#2c6fbb;"/>
    <path clip-path="url(#p364d45ce89)" d="M 131.320699 26.860799 
L 135.193682 19.114832 
L 127.447716 19.114832 
z
" style="fill:none;stroke:#2c6fbb;"/>
    <path clip-path="url(#p364d45ce89)" d="M 138.359273 29.098292 
L 142.232257 21.352325 
L 134.48629 21.352325 
z
" style="fill:none;stroke:#2c6fbb;"/>
    <path clip-path="url(#p364d45ce89)" d="M 145.397848 31.787614 
L 149.270831 24.041647 
L 141.524865 24.041647 
z
" style="fill:none;stroke:#2c6fbb;"/>
    <path clip-path="url(#p364d45ce89)" d="M 152.436422 34.953395 
L 156.309406 27.207428 
L 148.563439 27.207428 
z
" style="fill:none;stroke:#2c6fbb;"/>
    <path clip-path="url(#p364d45ce89)" d="M 159.474997 38.792053 
L 163.34798 31.046086 
L 155.602013 31.046086 
z
" style="fill:none;stroke:#2c6fbb;"/>
    <path clip-path="url(#p364d45ce89)" d="M 166.513571 43.142157 
L 170.386555 35.39619 
L 162.640588 35.39619 
z
" style="fill:none;stroke:#2c6fbb;"/>
    <path clip-path="url(#p364d45ce89)" d="M 174.419795 45.705182 
L 178.292778 37.959215 
L 170.546812 37.959215 
z
" style="fill:none;stroke:#2c6fbb;"/>
    <path clip-path="url(#p364d45ce89)" d="M 180.361064 49.322457 
L 184.234047 41.57649 
L 176.488081 41.57649 
z
" style="fill:none;stroke:#2c6fbb;"/>
    <path clip-path="url(#p364d45ce89)" d="M 186.790909 53.401172 
L 190.663892 45.655205 
L 182.917926 45.655205 
z
" style="fill:none;stroke:#2c6fbb;"/>
   </g>
   <g id="matplotlib.axis_1">
    <g id="xtick_1">
     <g id="line2d_1">
      <defs>
       <path d="M 0 0 
L 0 3.5 
" id="m540f8951bc" style="stroke:#000000;stroke-width:0.8;"/>
      </defs>
      <g>
       <use style="stroke:#000000;stroke-width:0.8;" x="67.973529" xlink:href="#m540f8951bc" y="94.5"/>
      </g>
     </g>
     <g id="text_1">
      <!-- $\mathdefault{10^{0}}$ -->
      <g transform="translate(59.173529 109.098438)scale(0.1 -0.1)">
       <defs>
        <path d="M 12.40625 8.296875 
L 28.515625 8.296875 
L 28.515625 63.921875 
L 10.984375 60.40625 
L 10.984375 69.390625 
L 28.421875 72.90625 
L 38.28125 72.90625 
L 38.28125 8.296875 
L 54.390625 8.296875 
L 54.390625 0 
L 12.40625 0 
z
" id="DejaVuSans-49"/>
        <path d="M 31.78125 66.40625 
Q 24.171875 66.40625 20.328125 58.90625 
Q 16.5 51.421875 16.5 36.375 
Q 16.5 21.390625 20.328125 13.890625 
Q 24.171875 6.390625 31.78125 6.390625 
Q 39.453125 6.390625 43.28125 13.890625 
Q 47.125 21.390625 47.125 36.375 
Q 47.125 51.421875 43.28125 58.90625 
Q 39.453125 66.40625 31.78125 66.40625 
z
M 31.78125 74.21875 
Q 44.046875 74.21875 50.515625 64.515625 
Q 56.984375 54.828125 56.984375 36.375 
Q 56.984375 17.96875 50.515625 8.265625 
Q 44.046875 -1.421875 31.78125 -1.421875 
Q 19.53125 -1.421875 13.0625 8.265625 
Q 6.59375 17.96875 6.59375 36.375 
Q 6.59375 54.828125 13.0625 64.515625 
Q 19.53125 74.21875 31.78125 74.21875 
z
" id="DejaVuSans-48"/>
       </defs>
       <use transform="translate(0 0.765625)" xlink:href="#DejaVuSans-49"/>
       <use transform="translate(63.623047 0.765625)" xlink:href="#DejaVuSans-48"/>
       <use transform="translate(128.203125 39.046875)scale(0.7)" xlink:href="#DejaVuSans-48"/>
      </g>
     </g>
    </g>
    <g id="xtick_2">
     <g id="line2d_2">
      <g>
       <use style="stroke:#000000;stroke-width:0.8;" x="123.390661" xlink:href="#m540f8951bc" y="94.5"/>
      </g>
     </g>
     <g id="text_2">
      <!-- $\mathdefault{10^{1}}$ -->
      <g transform="translate(114.590661 109.098438)scale(0.1 -0.1)">
       <use transform="translate(0 0.684375)" xlink:href="#DejaVuSans-49"/>
       <use transform="translate(63.623047 0.684375)" xlink:href="#DejaVuSans-48"/>
       <use transform="translate(128.203125 38.965625)scale(0.7)" xlink:href="#DejaVuSans-49"/>
      </g>
     </g>
    </g>
    <g id="xtick_3">
     <g id="line2d_3">
      <g>
       <use style="stroke:#000000;stroke-width:0.8;" x="178.807793" xlink:href="#m540f8951bc" y="94.5"/>
      </g>
     </g>
     <g id="text_3">
      <!-- $\mathdefault{10^{2}}$ -->
      <g transform="translate(170.007793 109.098438)scale(0.1 -0.1)">
       <defs>
        <path d="M 19.1875 8.296875 
L 53.609375 8.296875 
L 53.609375 0 
L 7.328125 0 
L 7.328125 8.296875 
Q 12.9375 14.109375 22.625 23.890625 
Q 32.328125 33.6875 34.8125 36.53125 
Q 39.546875 41.84375 41.421875 45.53125 
Q 43.3125 49.21875 43.3125 52.78125 
Q 43.3125 58.59375 39.234375 62.25 
Q 35.15625 65.921875 28.609375 65.921875 
Q 23.96875 65.921875 18.8125 64.3125 
Q 13.671875 62.703125 7.8125 59.421875 
L 7.8125 69.390625 
Q 13.765625 71.78125 18.9375 73 
Q 24.125 74.21875 28.421875 74.21875 
Q 39.75 74.21875 46.484375 68.546875 
Q 53.21875 62.890625 53.21875 53.421875 
Q 53.21875 48.921875 51.53125 44.890625 
Q 49.859375 40.875 45.40625 35.40625 
Q 44.1875 33.984375 37.640625 27.21875 
Q 31.109375 20.453125 19.1875 8.296875 
z
" id="DejaVuSans-50"/>
       </defs>
       <use transform="translate(0 0.765625)" xlink:href="#DejaVuSans-49"/>
       <use transform="translate(63.623047 0.765625)" xlink:href="#DejaVuSans-48"/>
       <use transform="translate(128.203125 39.046875)scale(0.7)" xlink:href="#DejaVuSans-50"/>
      </g>
     </g>
    </g>
    <g id="xtick_4">
     <g id="line2d_4">
      <defs>
       <path d="M 0 0 
L 0 2 
" id="m02b5feaa02" style="stroke:#000000;stroke-width:0.6;"/>
      </defs>
      <g>
       <use style="stroke:#000000;stroke-width:0.6;" x="29.238616" xlink:href="#m02b5feaa02" y="94.5"/>
      </g>
     </g>
    </g>
    <g id="xtick_5">
     <g id="line2d_5">
      <g>
       <use style="stroke:#000000;stroke-width:0.6;" x="38.997088" xlink:href="#m02b5feaa02" y="94.5"/>
      </g>
     </g>
    </g>
    <g id="xtick_6">
     <g id="line2d_6">
      <g>
       <use style="stroke:#000000;stroke-width:0.6;" x="45.920835" xlink:href="#m02b5feaa02" y="94.5"/>
      </g>
     </g>
    </g>
    <g id="xtick_7">
     <g id="line2d_7">
      <g>
       <use style="stroke:#000000;stroke-width:0.6;" x="51.29131" xlink:href="#m02b5feaa02" y="94.5"/>
      </g>
     </g>
    </g>
    <g id="xtick_8">
     <g id="line2d_8">
      <g>
       <use style="stroke:#000000;stroke-width:0.6;" x="55.679307" xlink:href="#m02b5feaa02" y="94.5"/>
      </g>
     </g>
    </g>
    <g id="xtick_9">
     <g id="line2d_9">
      <g>
       <use style="stroke:#000000;stroke-width:0.6;" x="59.389307" xlink:href="#m02b5feaa02" y="94.5"/>
      </g>
     </g>
    </g>
    <g id="xtick_10">
     <g id="line2d_10">
      <g>
       <use style="stroke:#000000;stroke-width:0.6;" x="62.603054" xlink:href="#m02b5feaa02" y="94.5"/>
      </g>
     </g>
    </g>
    <g id="xtick_11">
     <g id="line2d_11">
      <g>
       <use style="stroke:#000000;stroke-width:0.6;" x="65.43778" xlink:href="#m02b5feaa02" y="94.5"/>
      </g>
     </g>
    </g>
    <g id="xtick_12">
     <g id="line2d_12">
      <g>
       <use style="stroke:#000000;stroke-width:0.6;" x="84.655748" xlink:href="#m02b5feaa02" y="94.5"/>
      </g>
     </g>
    </g>
    <g id="xtick_13">
     <g id="line2d_13">
      <g>
       <use style="stroke:#000000;stroke-width:0.6;" x="94.41422" xlink:href="#m02b5feaa02" y="94.5"/>
      </g>
     </g>
    </g>
    <g id="xtick_14">
     <g id="line2d_14">
      <g>
       <use style="stroke:#000000;stroke-width:0.6;" x="101.337967" xlink:href="#m02b5feaa02" y="94.5"/>
      </g>
     </g>
    </g>
    <g id="xtick_15">
     <g id="line2d_15">
      <g>
       <use style="stroke:#000000;stroke-width:0.6;" x="106.708442" xlink:href="#m02b5feaa02" y="94.5"/>
      </g>
     </g>
    </g>
    <g id="xtick_16">
     <g id="line2d_16">
      <g>
       <use style="stroke:#000000;stroke-width:0.6;" x="111.096439" xlink:href="#m02b5feaa02" y="94.5"/>
      </g>
     </g>
    </g>
    <g id="xtick_17">
     <g id="line2d_17">
      <g>
       <use style="stroke:#000000;stroke-width:0.6;" x="114.806438" xlink:href="#m02b5feaa02" y="94.5"/>
      </g>
     </g>
    </g>
    <g id="xtick_18">
     <g id="line2d_18">
      <g>
       <use style="stroke:#000000;stroke-width:0.6;" x="118.020186" xlink:href="#m02b5feaa02" y="94.5"/>
      </g>
     </g>
    </g>
    <g id="xtick_19">
     <g id="line2d_19">
      <g>
       <use style="stroke:#000000;stroke-width:0.6;" x="120.854912" xlink:href="#m02b5feaa02" y="94.5"/>
      </g>
     </g>
    </g>
    <g id="xtick_20">
     <g id="line2d_20">
      <g>
       <use style="stroke:#000000;stroke-width:0.6;" x="140.07288" xlink:href="#m02b5feaa02" y="94.5"/>
      </g>
     </g>
    </g>
    <g id="xtick_21">
     <g id="line2d_21">
      <g>
       <use style="stroke:#000000;stroke-width:0.6;" x="149.831352" xlink:href="#m02b5feaa02" y="94.5"/>
      </g>
     </g>
    </g>
    <g id="xtick_22">
     <g id="line2d_22">
      <g>
       <use style="stroke:#000000;stroke-width:0.6;" x="156.755099" xlink:href="#m02b5feaa02" y="94.5"/>
      </g>
     </g>
    </g>
    <g id="xtick_23">
     <g id="line2d_23">
      <g>
       <use style="stroke:#000000;stroke-width:0.6;" x="162.125574" xlink:href="#m02b5feaa02" y="94.5"/>
      </g>
     </g>
    </g>
    <g id="xtick_24">
     <g id="line2d_24">
      <g>
       <use style="stroke:#000000;stroke-width:0.6;" x="166.513571" xlink:href="#m02b5feaa02" y="94.5"/>
      </g>
     </g>
    </g>
    <g id="xtick_25">
     <g id="line2d_25">
      <g>
       <use style="stroke:#000000;stroke-width:0.6;" x="170.22357" xlink:href="#m02b5feaa02" y="94.5"/>
      </g>
     </g>
    </g>
    <g id="xtick_26">
     <g id="line2d_26">
      <g>
       <use style="stroke:#000000;stroke-width:0.6;" x="173.437318" xlink:href="#m02b5feaa02" y="94.5"/>
      </g>
     </g>
    </g>
    <g id="xtick_27">
     <g id="line2d_27">
      <g>
       <use style="stroke:#000000;stroke-width:0.6;" x="176.272044" xlink:href="#m02b5feaa02" y="94.5"/>
      </g>
     </g>
    </g>
    <g id="text_4">
     <!-- $r_0$ -->
     <g transform="translate(105.36 124.29625)scale(0.12 -0.12)">
      <defs>
       <path d="M 44.578125 46.390625 
Q 43.21875 47.125 41.453125 47.515625 
Q 39.703125 47.90625 37.703125 47.90625 
Q 30.515625 47.90625 25.140625 42.453125 
Q 19.78125 37.015625 18.015625 27.875 
L 12.5 0 
L 3.515625 0 
L 14.203125 54.6875 
L 23.1875 54.6875 
L 21.484375 46.1875 
Q 25.046875 50.921875 30 53.453125 
Q 34.96875 56 40.578125 56 
Q 42.046875 56 43.453125 55.828125 
Q 44.875 55.671875 46.296875 55.28125 
z
" id="DejaVuSans-Oblique-114"/>
      </defs>
      <use xlink:href="#DejaVuSans-Oblique-114"/>
      <use transform="translate(41.113281 -16.40625)scale(0.7)" xlink:href="#DejaVuSans-48"/>
     </g>
    </g>
   </g>
   <g id="matplotlib.axis_2">
    <g id="ytick_1">
     <g id="line2d_28">
      <defs>
       <path d="M 0 0 
L -3.5 0 
" id="m42a823466d" style="stroke:#000000;stroke-width:0.8;"/>
      </defs>
      <g>
       <use style="stroke:#000000;stroke-width:0.8;" x="27" xlink:href="#m42a823466d" y="61.074593"/>
      </g>
     </g>
     <g id="text_5">
      <!-- $\mathdefault{10^{-4}}$ -->
      <g transform="translate(-3.5 64.873812)scale(0.1 -0.1)">
       <defs>
        <path d="M 10.59375 35.5 
L 73.1875 35.5 
L 73.1875 27.203125 
L 10.59375 27.203125 
z
" id="DejaVuSans-8722"/>
        <path d="M 37.796875 64.3125 
L 12.890625 25.390625 
L 37.796875 25.390625 
z
M 35.203125 72.90625 
L 47.609375 72.90625 
L 47.609375 25.390625 
L 58.015625 25.390625 
L 58.015625 17.1875 
L 47.609375 17.1875 
L 47.609375 0 
L 37.796875 0 
L 37.796875 17.1875 
L 4.890625 17.1875 
L 4.890625 26.703125 
z
" id="DejaVuSans-52"/>
       </defs>
       <use transform="translate(0 0.684375)" xlink:href="#DejaVuSans-49"/>
       <use transform="translate(63.623047 0.684375)" xlink:href="#DejaVuSans-48"/>
       <use transform="translate(128.203125 38.965625)scale(0.7)" xlink:href="#DejaVuSans-8722"/>
       <use transform="translate(186.855469 38.965625)scale(0.7)" xlink:href="#DejaVuSans-52"/>
      </g>
     </g>
    </g>
    <g id="ytick_2">
     <g id="line2d_29">
      <g>
       <use style="stroke:#000000;stroke-width:0.8;" x="27" xlink:href="#m42a823466d" y="26.332825"/>
      </g>
     </g>
     <g id="text_6">
      <!-- $\mathdefault{10^{-3}}$ -->
      <g transform="translate(-3.5 30.132044)scale(0.1 -0.1)">
       <defs>
        <path d="M 40.578125 39.3125 
Q 47.65625 37.796875 51.625 33 
Q 55.609375 28.21875 55.609375 21.1875 
Q 55.609375 10.40625 48.1875 4.484375 
Q 40.765625 -1.421875 27.09375 -1.421875 
Q 22.515625 -1.421875 17.65625 -0.515625 
Q 12.796875 0.390625 7.625 2.203125 
L 7.625 11.71875 
Q 11.71875 9.328125 16.59375 8.109375 
Q 21.484375 6.890625 26.8125 6.890625 
Q 36.078125 6.890625 40.9375 10.546875 
Q 45.796875 14.203125 45.796875 21.1875 
Q 45.796875 27.640625 41.28125 31.265625 
Q 36.765625 34.90625 28.71875 34.90625 
L 20.21875 34.90625 
L 20.21875 43.015625 
L 29.109375 43.015625 
Q 36.375 43.015625 40.234375 45.921875 
Q 44.09375 48.828125 44.09375 54.296875 
Q 44.09375 59.90625 40.109375 62.90625 
Q 36.140625 65.921875 28.71875 65.921875 
Q 24.65625 65.921875 20.015625 65.03125 
Q 15.375 64.15625 9.8125 62.3125 
L 9.8125 71.09375 
Q 15.4375 72.65625 20.34375 73.4375 
Q 25.25 74.21875 29.59375 74.21875 
Q 40.828125 74.21875 47.359375 69.109375 
Q 53.90625 64.015625 53.90625 55.328125 
Q 53.90625 49.265625 50.4375 45.09375 
Q 46.96875 40.921875 40.578125 39.3125 
z
" id="DejaVuSans-51"/>
       </defs>
       <use transform="translate(0 0.765625)" xlink:href="#DejaVuSans-49"/>
       <use transform="translate(63.623047 0.765625)" xlink:href="#DejaVuSans-48"/>
       <use transform="translate(128.203125 39.046875)scale(0.7)" xlink:href="#DejaVuSans-8722"/>
       <use transform="translate(186.855469 39.046875)scale(0.7)" xlink:href="#DejaVuSans-51"/>
      </g>
     </g>
    </g>
    <g id="ytick_3">
     <g id="line2d_30">
      <defs>
       <path d="M 0 0 
L -2 0 
" id="me6c260ffe9" style="stroke:#000000;stroke-width:0.6;"/>
      </defs>
      <g>
       <use style="stroke:#000000;stroke-width:0.6;" x="27" xlink:href="#me6c260ffe9" y="85.358047"/>
      </g>
     </g>
    </g>
    <g id="ytick_4">
     <g id="line2d_31">
      <g>
       <use style="stroke:#000000;stroke-width:0.6;" x="27" xlink:href="#me6c260ffe9" y="79.240326"/>
      </g>
     </g>
    </g>
    <g id="ytick_5">
     <g id="line2d_32">
      <g>
       <use style="stroke:#000000;stroke-width:0.6;" x="27" xlink:href="#me6c260ffe9" y="74.899733"/>
      </g>
     </g>
    </g>
    <g id="ytick_6">
     <g id="line2d_33">
      <g>
       <use style="stroke:#000000;stroke-width:0.6;" x="27" xlink:href="#me6c260ffe9" y="71.532908"/>
      </g>
     </g>
    </g>
    <g id="ytick_7">
     <g id="line2d_34">
      <g>
       <use style="stroke:#000000;stroke-width:0.6;" x="27" xlink:href="#me6c260ffe9" y="68.782011"/>
      </g>
     </g>
    </g>
    <g id="ytick_8">
     <g id="line2d_35">
      <g>
       <use style="stroke:#000000;stroke-width:0.6;" x="27" xlink:href="#me6c260ffe9" y="66.456161"/>
      </g>
     </g>
    </g>
    <g id="ytick_9">
     <g id="line2d_36">
      <g>
       <use style="stroke:#000000;stroke-width:0.6;" x="27" xlink:href="#me6c260ffe9" y="64.441419"/>
      </g>
     </g>
    </g>
    <g id="ytick_10">
     <g id="line2d_37">
      <g>
       <use style="stroke:#000000;stroke-width:0.6;" x="27" xlink:href="#me6c260ffe9" y="62.664289"/>
      </g>
     </g>
    </g>
    <g id="ytick_11">
     <g id="line2d_38">
      <g>
       <use style="stroke:#000000;stroke-width:0.6;" x="27" xlink:href="#me6c260ffe9" y="50.616279"/>
      </g>
     </g>
    </g>
    <g id="ytick_12">
     <g id="line2d_39">
      <g>
       <use style="stroke:#000000;stroke-width:0.6;" x="27" xlink:href="#me6c260ffe9" y="44.498557"/>
      </g>
     </g>
    </g>
    <g id="ytick_13">
     <g id="line2d_40">
      <g>
       <use style="stroke:#000000;stroke-width:0.6;" x="27" xlink:href="#me6c260ffe9" y="40.157964"/>
      </g>
     </g>
    </g>
    <g id="ytick_14">
     <g id="line2d_41">
      <g>
       <use style="stroke:#000000;stroke-width:0.6;" x="27" xlink:href="#me6c260ffe9" y="36.791139"/>
      </g>
     </g>
    </g>
    <g id="ytick_15">
     <g id="line2d_42">
      <g>
       <use style="stroke:#000000;stroke-width:0.6;" x="27" xlink:href="#me6c260ffe9" y="34.040243"/>
      </g>
     </g>
    </g>
    <g id="ytick_16">
     <g id="line2d_43">
      <g>
       <use style="stroke:#000000;stroke-width:0.6;" x="27" xlink:href="#me6c260ffe9" y="31.714393"/>
      </g>
     </g>
    </g>
    <g id="ytick_17">
     <g id="line2d_44">
      <g>
       <use style="stroke:#000000;stroke-width:0.6;" x="27" xlink:href="#me6c260ffe9" y="29.69965"/>
      </g>
     </g>
    </g>
    <g id="ytick_18">
     <g id="line2d_45">
      <g>
       <use style="stroke:#000000;stroke-width:0.6;" x="27" xlink:href="#me6c260ffe9" y="27.922521"/>
      </g>
     </g>
    </g>
    <g id="ytick_19">
     <g id="line2d_46">
      <g>
       <use style="stroke:#000000;stroke-width:0.6;" x="27" xlink:href="#me6c260ffe9" y="15.87451"/>
      </g>
     </g>
    </g>
    <g id="text_7">
     <!-- $D^*$ -->
     <g transform="translate(-9.995625 62.73)rotate(-90)scale(0.12 -0.12)">
      <defs>
       <path d="M 16.890625 72.90625 
L 38.09375 72.90625 
Q 54.984375 72.90625 63.59375 65.75 
Q 72.21875 58.59375 72.21875 44.484375 
Q 72.21875 35.15625 68.9375 26.53125 
Q 65.671875 17.921875 59.90625 12.015625 
Q 54.109375 5.953125 45.171875 2.96875 
Q 36.234375 0 24.03125 0 
L 2.6875 0 
z
M 25.203125 64.796875 
L 14.203125 8.109375 
L 27.09375 8.109375 
Q 43.65625 8.109375 52.734375 17.625 
Q 61.8125 27.15625 61.8125 44.484375 
Q 61.8125 54.984375 55.953125 59.890625 
Q 50.09375 64.796875 37.59375 64.796875 
z
" id="DejaVuSans-Oblique-68"/>
       <path d="M 47.015625 60.890625 
L 29.5 51.421875 
L 47.015625 41.890625 
L 44.1875 37.109375 
L 27.78125 47.015625 
L 27.78125 28.609375 
L 22.21875 28.609375 
L 22.21875 47.015625 
L 5.8125 37.109375 
L 2.984375 41.890625 
L 20.515625 51.421875 
L 2.984375 60.890625 
L 5.8125 65.71875 
L 22.21875 55.8125 
L 22.21875 74.21875 
L 27.78125 74.21875 
L 27.78125 55.8125 
L 44.1875 65.71875 
z
" id="DejaVuSans-42"/>
      </defs>
      <use transform="translate(0 0.765625)" xlink:href="#DejaVuSans-Oblique-68"/>
      <use transform="translate(97.656419 39.046875)scale(0.7)" xlink:href="#DejaVuSans-42"/>
     </g>
    </g>
   </g>
   <g id="patch_3">
    <path d="M 27 94.5 
L 27 12.96 
" style="fill:none;stroke:#000000;stroke-linecap:square;stroke-linejoin:miter;stroke-width:0.8;"/>
   </g>
   <g id="patch_4">
    <path d="M 194.4 94.5 
L 194.4 12.96 
" style="fill:none;stroke:#000000;stroke-linecap:square;stroke-linejoin:miter;stroke-width:0.8;"/>
   </g>
   <g id="patch_5">
    <path d="M 27 94.5 
L 194.4 94.5 
" style="fill:none;stroke:#000000;stroke-linecap:square;stroke-linejoin:miter;stroke-width:0.8;"/>
   </g>
   <g id="patch_6">
    <path d="M 27 12.96 
L 194.4 12.96 
" style="fill:none;stroke:#000000;stroke-linecap:square;stroke-linejoin:miter;stroke-width:0.8;"/>
   </g>
  </g>
 </g>
 <defs>
  <clipPath id="p364d45ce89">
   <rect height="81.54" width="167.4" x="27" y="12.96"/>
  </clipPath>
 </defs>
</svg>
