<?xml version="1.0" encoding="utf-8" standalone="no"?>
<!DOCTYPE svg PUBLIC "-//W3C//DTD SVG 1.1//EN"
  "http://www.w3.org/Graphics/SVG/1.1/DTD/svg11.dtd">
<!-- Created with matplotlib (https://matplotlib.org/) -->
<svg height="288pt" version="1.1" viewBox="0 0 432 288" width="432pt" xmlns="http://www.w3.org/2000/svg" xmlns:xlink="http://www.w3.org/1999/xlink">
 <metadata>
  <rdf:RDF xmlns:cc="http://creativecommons.org/ns#" xmlns:dc="http://purl.org/dc/elements/1.1/" xmlns:rdf="http://www.w3.org/1999/02/22-rdf-syntax-ns#">
   <cc:Work>
    <dc:type rdf:resource="http://purl.org/dc/dcmitype/StillImage"/>
    <dc:date>2023-06-21T14:12:52.068658</dc:date>
    <dc:format>image/svg+xml</dc:format>
    <dc:creator>
     <cc:Agent>
      <dc:title>Matplotlib v3.3.4, https://matplotlib.org/</dc:title>
     </cc:Agent>
    </dc:creator>
   </cc:Work>
  </rdf:RDF>
 </metadata>
 <defs>
  <style type="text/css">*{stroke-linecap:butt;stroke-linejoin:round;}</style>
 </defs>
 <g id="figure_1">
  <g id="patch_1">
   <path d="M 0 288 
L 432 288 
L 432 0 
L 0 0 
z
" style="fill:none;"/>
  </g>
  <g id="axes_1">
   <g id="patch_2">
    <path d="M 54 252 
L 388.8 252 
L 388.8 34.56 
L 54 34.56 
z
" style="fill:#ffffff;"/>
   </g>
   <g id="PathCollection_1">
    <defs>
     <path d="M 0 5 
C 1.326016 5 2.597899 4.473168 3.535534 3.535534 
C 4.473168 2.597899 5 1.326016 5 -0 
C 5 -1.326016 4.473168 -2.597899 3.535534 -3.535534 
C 2.597899 -4.473168 1.326016 -5 0 -5 
C -1.326016 -5 -2.597899 -4.473168 -3.535534 -3.535534 
C -4.473168 -2.597899 -5 -1.326016 -5 0 
C -5 1.326016 -4.473168 2.597899 -3.535534 3.535534 
C -2.597899 4.473168 -1.326016 5 0 5 
z
" id="C0_0_3fa40e456c"/>
    </defs>
    <g clip-path="url(#p19dcbbff17)">
     <use style="fill:none;stroke:#ff0000;" x="69.218182" xlink:href="#C0_0_3fa40e456c" y="49.050518"/>
    </g>
    <g clip-path="url(#p19dcbbff17)">
     <use style="fill:none;stroke:#ff0000;" x="82.007148" xlink:href="#C0_0_3fa40e456c" y="49.672137"/>
    </g>
    <g clip-path="url(#p19dcbbff17)">
     <use style="fill:none;stroke:#ff0000;" x="94.796114" xlink:href="#C0_0_3fa40e456c" y="50.276397"/>
    </g>
    <g clip-path="url(#p19dcbbff17)">
     <use style="fill:none;stroke:#ff0000;" x="107.585079" xlink:href="#C0_0_3fa40e456c" y="51.270999"/>
    </g>
    <g clip-path="url(#p19dcbbff17)">
     <use style="fill:none;stroke:#ff0000;" x="120.374045" xlink:href="#C0_0_3fa40e456c" y="52.325771"/>
    </g>
    <g clip-path="url(#p19dcbbff17)">
     <use style="fill:none;stroke:#ff0000;" x="133.163011" xlink:href="#C0_0_3fa40e456c" y="53.880611"/>
    </g>
    <g clip-path="url(#p19dcbbff17)">
     <use style="fill:none;stroke:#ff0000;" x="145.951977" xlink:href="#C0_0_3fa40e456c" y="56.123056"/>
    </g>
    <g clip-path="url(#p19dcbbff17)">
     <use style="fill:none;stroke:#ff0000;" x="158.740943" xlink:href="#C0_0_3fa40e456c" y="58.795226"/>
    </g>
    <g clip-path="url(#p19dcbbff17)">
     <use style="fill:none;stroke:#ff0000;" x="171.529909" xlink:href="#C0_0_3fa40e456c" y="62.733672"/>
    </g>
    <g clip-path="url(#p19dcbbff17)">
     <use style="fill:none;stroke:#ff0000;" x="184.318874" xlink:href="#C0_0_3fa40e456c" y="67.524435"/>
    </g>
    <g clip-path="url(#p19dcbbff17)">
     <use style="fill:none;stroke:#ff0000;" x="197.10784" xlink:href="#C0_0_3fa40e456c" y="73.817591"/>
    </g>
    <g clip-path="url(#p19dcbbff17)">
     <use style="fill:none;stroke:#ff0000;" x="209.896806" xlink:href="#C0_0_3fa40e456c" y="80.698893"/>
    </g>
    <g clip-path="url(#p19dcbbff17)">
     <use style="fill:none;stroke:#ff0000;" x="222.685772" xlink:href="#C0_0_3fa40e456c" y="88.94247"/>
    </g>
    <g clip-path="url(#p19dcbbff17)">
     <use style="fill:none;stroke:#ff0000;" x="235.474738" xlink:href="#C0_0_3fa40e456c" y="98.894002"/>
    </g>
    <g clip-path="url(#p19dcbbff17)">
     <use style="fill:none;stroke:#ff0000;" x="248.263704" xlink:href="#C0_0_3fa40e456c" y="110.514838"/>
    </g>
    <g clip-path="url(#p19dcbbff17)">
     <use style="fill:none;stroke:#ff0000;" x="261.05267" xlink:href="#C0_0_3fa40e456c" y="123.43979"/>
    </g>
    <g clip-path="url(#p19dcbbff17)">
     <use style="fill:none;stroke:#ff0000;" x="273.841635" xlink:href="#C0_0_3fa40e456c" y="136.975993"/>
    </g>
    <g clip-path="url(#p19dcbbff17)">
     <use style="fill:none;stroke:#ff0000;" x="286.630601" xlink:href="#C0_0_3fa40e456c" y="151.592058"/>
    </g>
    <g clip-path="url(#p19dcbbff17)">
     <use style="fill:none;stroke:#ff0000;" x="299.419567" xlink:href="#C0_0_3fa40e456c" y="166.26963"/>
    </g>
    <g clip-path="url(#p19dcbbff17)">
     <use style="fill:none;stroke:#ff0000;" x="312.208533" xlink:href="#C0_0_3fa40e456c" y="180.667699"/>
    </g>
    <g clip-path="url(#p19dcbbff17)">
     <use style="fill:none;stroke:#ff0000;" x="326.0521" xlink:href="#C0_0_3fa40e456c" y="197.015083"/>
    </g>
    <g clip-path="url(#p19dcbbff17)">
     <use style="fill:none;stroke:#ff0000;" x="337.008126" xlink:href="#C0_0_3fa40e456c" y="208.364237"/>
    </g>
    <g clip-path="url(#p19dcbbff17)">
     <use style="fill:none;stroke:#ff0000;" x="348.782225" xlink:href="#C0_0_3fa40e456c" y="219.690386"/>
    </g>
    <g clip-path="url(#p19dcbbff17)">
     <use style="fill:none;stroke:#ff0000;" x="360.556324" xlink:href="#C0_0_3fa40e456c" y="229.782373"/>
    </g>
    <g clip-path="url(#p19dcbbff17)">
     <use style="fill:none;stroke:#ff0000;" x="373.581818" xlink:href="#C0_0_3fa40e456c" y="239.633733"/>
    </g>
   </g>
   <g id="PathCollection_2">
    <defs>
     <path d="M -5 0 
L 5 0 
M 0 5 
L 0 -5 
" id="mf509632c53" style="stroke:#1f77b4;stroke-width:1.5;"/>
    </defs>
    <g clip-path="url(#p19dcbbff17)">
     <use style="fill:#1f77b4;stroke:#1f77b4;stroke-width:1.5;" x="69.218182" xlink:href="#mf509632c53" y="49.090137"/>
     <use style="fill:#1f77b4;stroke:#1f77b4;stroke-width:1.5;" x="82.007148" xlink:href="#mf509632c53" y="49.525194"/>
     <use style="fill:#1f77b4;stroke:#1f77b4;stroke-width:1.5;" x="94.796114" xlink:href="#mf509632c53" y="50.103262"/>
     <use style="fill:#1f77b4;stroke:#1f77b4;stroke-width:1.5;" x="107.585079" xlink:href="#mf509632c53" y="50.81448"/>
     <use style="fill:#1f77b4;stroke:#1f77b4;stroke-width:1.5;" x="120.374045" xlink:href="#mf509632c53" y="52.00644"/>
     <use style="fill:#1f77b4;stroke:#1f77b4;stroke-width:1.5;" x="133.163011" xlink:href="#mf509632c53" y="53.555617"/>
     <use style="fill:#1f77b4;stroke:#1f77b4;stroke-width:1.5;" x="145.951977" xlink:href="#mf509632c53" y="55.695278"/>
     <use style="fill:#1f77b4;stroke:#1f77b4;stroke-width:1.5;" x="158.740943" xlink:href="#mf509632c53" y="58.605628"/>
     <use style="fill:#1f77b4;stroke:#1f77b4;stroke-width:1.5;" x="171.529909" xlink:href="#mf509632c53" y="62.497557"/>
     <use style="fill:#1f77b4;stroke:#1f77b4;stroke-width:1.5;" x="184.318874" xlink:href="#mf509632c53" y="67.545756"/>
     <use style="fill:#1f77b4;stroke:#1f77b4;stroke-width:1.5;" x="197.10784" xlink:href="#mf509632c53" y="73.856034"/>
     <use style="fill:#1f77b4;stroke:#1f77b4;stroke-width:1.5;" x="209.896806" xlink:href="#mf509632c53" y="81.185504"/>
     <use style="fill:#1f77b4;stroke:#1f77b4;stroke-width:1.5;" x="222.685772" xlink:href="#mf509632c53" y="90.258716"/>
     <use style="fill:#1f77b4;stroke:#1f77b4;stroke-width:1.5;" x="235.474738" xlink:href="#mf509632c53" y="100.790353"/>
     <use style="fill:#1f77b4;stroke:#1f77b4;stroke-width:1.5;" x="248.263704" xlink:href="#mf509632c53" y="112.975315"/>
     <use style="fill:#1f77b4;stroke:#1f77b4;stroke-width:1.5;" x="261.05267" xlink:href="#mf509632c53" y="125.943073"/>
     <use style="fill:#1f77b4;stroke:#1f77b4;stroke-width:1.5;" x="273.841635" xlink:href="#mf509632c53" y="140.171724"/>
     <use style="fill:#1f77b4;stroke:#1f77b4;stroke-width:1.5;" x="286.630601" xlink:href="#mf509632c53" y="154.743305"/>
     <use style="fill:#1f77b4;stroke:#1f77b4;stroke-width:1.5;" x="299.419567" xlink:href="#mf509632c53" y="169.685324"/>
     <use style="fill:#1f77b4;stroke:#1f77b4;stroke-width:1.5;" x="312.208533" xlink:href="#mf509632c53" y="184.5652"/>
     <use style="fill:#1f77b4;stroke:#1f77b4;stroke-width:1.5;" x="326.0521" xlink:href="#mf509632c53" y="198.694846"/>
     <use style="fill:#1f77b4;stroke:#1f77b4;stroke-width:1.5;" x="337.008126" xlink:href="#mf509632c53" y="210.102991"/>
     <use style="fill:#1f77b4;stroke:#1f77b4;stroke-width:1.5;" x="348.782225" xlink:href="#mf509632c53" y="221.376415"/>
     <use style="fill:#1f77b4;stroke:#1f77b4;stroke-width:1.5;" x="360.556324" xlink:href="#mf509632c53" y="231.712802"/>
     <use style="fill:#1f77b4;stroke:#1f77b4;stroke-width:1.5;" x="373.581818" xlink:href="#mf509632c53" y="242.116364"/>
    </g>
   </g>
   <g id="PathCollection_3">
    <path clip-path="url(#p19dcbbff17)" d="M 74.218182 49.456545 
L 64.218182 44.456545 
L 64.218182 54.456545 
z
" style="fill:none;stroke:#008000;"/>
    <path clip-path="url(#p19dcbbff17)" d="M 87.007148 49.84043 
L 77.007148 44.84043 
L 77.007148 54.84043 
z
" style="fill:none;stroke:#008000;"/>
    <path clip-path="url(#p19dcbbff17)" d="M 99.796114 50.547392 
L 89.796114 45.547392 
L 89.796114 55.547392 
z
" style="fill:none;stroke:#008000;"/>
    <path clip-path="url(#p19dcbbff17)" d="M 112.585079 51.422694 
L 102.585079 46.422694 
L 102.585079 56.422694 
z
" style="fill:none;stroke:#008000;"/>
    <path clip-path="url(#p19dcbbff17)" d="M 125.374045 52.63088 
L 115.374045 47.63088 
L 115.374045 57.63088 
z
" style="fill:none;stroke:#008000;"/>
    <path clip-path="url(#p19dcbbff17)" d="M 138.163011 54.190058 
L 128.163011 49.190058 
L 128.163011 59.190058 
z
" style="fill:none;stroke:#008000;"/>
    <path clip-path="url(#p19dcbbff17)" d="M 150.951977 56.618795 
L 140.951977 51.618795 
L 140.951977 61.618795 
z
" style="fill:none;stroke:#008000;"/>
    <path clip-path="url(#p19dcbbff17)" d="M 163.740943 59.57408 
L 153.740943 54.57408 
L 153.740943 64.57408 
z
" style="fill:none;stroke:#008000;"/>
    <path clip-path="url(#p19dcbbff17)" d="M 176.529909 63.700645 
L 166.529909 58.700645 
L 166.529909 68.700645 
z
" style="fill:none;stroke:#008000;"/>
    <path clip-path="url(#p19dcbbff17)" d="M 189.318874 69.067233 
L 179.318874 64.067233 
L 179.318874 74.067233 
z
" style="fill:none;stroke:#008000;"/>
    <path clip-path="url(#p19dcbbff17)" d="M 202.10784 75.840983 
L 192.10784 70.840983 
L 192.10784 80.840983 
z
" style="fill:none;stroke:#008000;"/>
    <path clip-path="url(#p19dcbbff17)" d="M 214.896806 83.34291 
L 204.896806 78.34291 
L 204.896806 88.34291 
z
" style="fill:none;stroke:#008000;"/>
    <path clip-path="url(#p19dcbbff17)" d="M 227.685772 92.79396 
L 217.685772 87.79396 
L 217.685772 97.79396 
z
" style="fill:none;stroke:#008000;"/>
    <path clip-path="url(#p19dcbbff17)" d="M 240.474738 103.400441 
L 230.474738 98.400441 
L 230.474738 108.400441 
z
" style="fill:none;stroke:#008000;"/>
    <path clip-path="url(#p19dcbbff17)" d="M 253.263704 115.752868 
L 243.263704 110.752868 
L 243.263704 120.752868 
z
" style="fill:none;stroke:#008000;"/>
    <path clip-path="url(#p19dcbbff17)" d="M 266.05267 129.157611 
L 256.05267 124.157611 
L 256.05267 134.157611 
z
" style="fill:none;stroke:#008000;"/>
    <path clip-path="url(#p19dcbbff17)" d="M 278.841635 143.497563 
L 268.841635 138.497563 
L 268.841635 148.497563 
z
" style="fill:none;stroke:#008000;"/>
    <path clip-path="url(#p19dcbbff17)" d="M 291.630601 158.302765 
L 281.630601 153.302765 
L 281.630601 163.302765 
z
" style="fill:none;stroke:#008000;"/>
    <path clip-path="url(#p19dcbbff17)" d="M 304.419567 173.347721 
L 294.419567 168.347721 
L 294.419567 178.347721 
z
" style="fill:none;stroke:#008000;"/>
    <path clip-path="url(#p19dcbbff17)" d="M 317.208533 187.048475 
L 307.208533 182.048475 
L 307.208533 192.048475 
z
" style="fill:none;stroke:#008000;"/>
    <path clip-path="url(#p19dcbbff17)" d="M 331.0521 202.652021 
L 321.0521 197.652021 
L 321.0521 207.652021 
z
" style="fill:none;stroke:#008000;"/>
    <path clip-path="url(#p19dcbbff17)" d="M 342.008126 213.67883 
L 332.008126 208.67883 
L 332.008126 218.67883 
z
" style="fill:none;stroke:#008000;"/>
    <path clip-path="url(#p19dcbbff17)" d="M 353.782225 224.430611 
L 343.782225 219.430611 
L 343.782225 229.430611 
z
" style="fill:none;stroke:#008000;"/>
   </g>
   <g id="matplotlib.axis_1">
    <g id="xtick_1">
     <g id="line2d_1">
      <defs>
       <path d="M 0 0 
L 0 3.5 
" id="mcb945d856c" style="stroke:#000000;stroke-width:0.8;"/>
      </defs>
      <g>
       <use style="stroke:#000000;stroke-width:0.8;" x="105.791874" xlink:href="#mcb945d856c" y="252"/>
      </g>
     </g>
     <g id="text_1">
      <!-- $\mathdefault{10^{-1}}$ -->
      <g transform="translate(94.041874 266.598437)scale(0.1 -0.1)">
       <defs>
        <path d="M 12.40625 8.296875 
L 28.515625 8.296875 
L 28.515625 63.921875 
L 10.984375 60.40625 
L 10.984375 69.390625 
L 28.421875 72.90625 
L 38.28125 72.90625 
L 38.28125 8.296875 
L 54.390625 8.296875 
L 54.390625 0 
L 12.40625 0 
z
" id="DejaVuSans-49"/>
        <path d="M 31.78125 66.40625 
Q 24.171875 66.40625 20.328125 58.90625 
Q 16.5 51.421875 16.5 36.375 
Q 16.5 21.390625 20.328125 13.890625 
Q 24.171875 6.390625 31.78125 6.390625 
Q 39.453125 6.390625 43.28125 13.890625 
Q 47.125 21.390625 47.125 36.375 
Q 47.125 51.421875 43.28125 58.90625 
Q 39.453125 66.40625 31.78125 66.40625 
z
M 31.78125 74.21875 
Q 44.046875 74.21875 50.515625 64.515625 
Q 56.984375 54.828125 56.984375 36.375 
Q 56.984375 17.96875 50.515625 8.265625 
Q 44.046875 -1.421875 31.78125 -1.421875 
Q 19.53125 -1.421875 13.0625 8.265625 
Q 6.59375 17.96875 6.59375 36.375 
Q 6.59375 54.828125 13.0625 64.515625 
Q 19.53125 74.21875 31.78125 74.21875 
z
" id="DejaVuSans-48"/>
        <path d="M 10.59375 35.5 
L 73.1875 35.5 
L 73.1875 27.203125 
L 10.59375 27.203125 
z
" id="DejaVuSans-8722"/>
       </defs>
       <use transform="translate(0 0.684375)" xlink:href="#DejaVuSans-49"/>
       <use transform="translate(63.623047 0.684375)" xlink:href="#DejaVuSans-48"/>
       <use transform="translate(128.203125 38.965625)scale(0.7)" xlink:href="#DejaVuSans-8722"/>
       <use transform="translate(186.855469 38.965625)scale(0.7)" xlink:href="#DejaVuSans-49"/>
      </g>
     </g>
    </g>
    <g id="xtick_2">
     <g id="line2d_2">
      <g>
       <use style="stroke:#000000;stroke-width:0.8;" x="227.28705" xlink:href="#mcb945d856c" y="252"/>
      </g>
     </g>
     <g id="text_2">
      <!-- $\mathdefault{10^{0}}$ -->
      <g transform="translate(218.48705 266.598437)scale(0.1 -0.1)">
       <use transform="translate(0 0.765625)" xlink:href="#DejaVuSans-49"/>
       <use transform="translate(63.623047 0.765625)" xlink:href="#DejaVuSans-48"/>
       <use transform="translate(128.203125 39.046875)scale(0.7)" xlink:href="#DejaVuSans-48"/>
      </g>
     </g>
    </g>
    <g id="xtick_3">
     <g id="line2d_3">
      <g>
       <use style="stroke:#000000;stroke-width:0.8;" x="348.782225" xlink:href="#mcb945d856c" y="252"/>
      </g>
     </g>
     <g id="text_3">
      <!-- $\mathdefault{10^{1}}$ -->
      <g transform="translate(339.982225 266.598437)scale(0.1 -0.1)">
       <use transform="translate(0 0.684375)" xlink:href="#DejaVuSans-49"/>
       <use transform="translate(63.623047 0.684375)" xlink:href="#DejaVuSans-48"/>
       <use transform="translate(128.203125 38.965625)scale(0.7)" xlink:href="#DejaVuSans-49"/>
      </g>
     </g>
    </g>
    <g id="xtick_4">
     <g id="line2d_4">
      <defs>
       <path d="M 0 0 
L 0 2 
" id="mb31f875ecc" style="stroke:#000000;stroke-width:0.6;"/>
      </defs>
      <g>
       <use style="stroke:#000000;stroke-width:0.6;" x="57.444083" xlink:href="#mb31f875ecc" y="252"/>
      </g>
     </g>
    </g>
    <g id="xtick_5">
     <g id="line2d_5">
      <g>
       <use style="stroke:#000000;stroke-width:0.6;" x="69.218182" xlink:href="#mb31f875ecc" y="252"/>
      </g>
     </g>
    </g>
    <g id="xtick_6">
     <g id="line2d_6">
      <g>
       <use style="stroke:#000000;stroke-width:0.6;" x="78.838321" xlink:href="#mb31f875ecc" y="252"/>
      </g>
     </g>
    </g>
    <g id="xtick_7">
     <g id="line2d_7">
      <g>
       <use style="stroke:#000000;stroke-width:0.6;" x="86.972033" xlink:href="#mb31f875ecc" y="252"/>
      </g>
     </g>
    </g>
    <g id="xtick_8">
     <g id="line2d_8">
      <g>
       <use style="stroke:#000000;stroke-width:0.6;" x="94.017775" xlink:href="#mb31f875ecc" y="252"/>
      </g>
     </g>
    </g>
    <g id="xtick_9">
     <g id="line2d_9">
      <g>
       <use style="stroke:#000000;stroke-width:0.6;" x="100.23256" xlink:href="#mb31f875ecc" y="252"/>
      </g>
     </g>
    </g>
    <g id="xtick_10">
     <g id="line2d_10">
      <g>
       <use style="stroke:#000000;stroke-width:0.6;" x="142.365566" xlink:href="#mb31f875ecc" y="252"/>
      </g>
     </g>
    </g>
    <g id="xtick_11">
     <g id="line2d_11">
      <g>
       <use style="stroke:#000000;stroke-width:0.6;" x="163.759805" xlink:href="#mb31f875ecc" y="252"/>
      </g>
     </g>
    </g>
    <g id="xtick_12">
     <g id="line2d_12">
      <g>
       <use style="stroke:#000000;stroke-width:0.6;" x="178.939258" xlink:href="#mb31f875ecc" y="252"/>
      </g>
     </g>
    </g>
    <g id="xtick_13">
     <g id="line2d_13">
      <g>
       <use style="stroke:#000000;stroke-width:0.6;" x="190.713357" xlink:href="#mb31f875ecc" y="252"/>
      </g>
     </g>
    </g>
    <g id="xtick_14">
     <g id="line2d_14">
      <g>
       <use style="stroke:#000000;stroke-width:0.6;" x="200.333497" xlink:href="#mb31f875ecc" y="252"/>
      </g>
     </g>
    </g>
    <g id="xtick_15">
     <g id="line2d_15">
      <g>
       <use style="stroke:#000000;stroke-width:0.6;" x="208.467209" xlink:href="#mb31f875ecc" y="252"/>
      </g>
     </g>
    </g>
    <g id="xtick_16">
     <g id="line2d_16">
      <g>
       <use style="stroke:#000000;stroke-width:0.6;" x="215.51295" xlink:href="#mb31f875ecc" y="252"/>
      </g>
     </g>
    </g>
    <g id="xtick_17">
     <g id="line2d_17">
      <g>
       <use style="stroke:#000000;stroke-width:0.6;" x="221.727735" xlink:href="#mb31f875ecc" y="252"/>
      </g>
     </g>
    </g>
    <g id="xtick_18">
     <g id="line2d_18">
      <g>
       <use style="stroke:#000000;stroke-width:0.6;" x="263.860742" xlink:href="#mb31f875ecc" y="252"/>
      </g>
     </g>
    </g>
    <g id="xtick_19">
     <g id="line2d_19">
      <g>
       <use style="stroke:#000000;stroke-width:0.6;" x="285.25498" xlink:href="#mb31f875ecc" y="252"/>
      </g>
     </g>
    </g>
    <g id="xtick_20">
     <g id="line2d_20">
      <g>
       <use style="stroke:#000000;stroke-width:0.6;" x="300.434434" xlink:href="#mb31f875ecc" y="252"/>
      </g>
     </g>
    </g>
    <g id="xtick_21">
     <g id="line2d_21">
      <g>
       <use style="stroke:#000000;stroke-width:0.6;" x="312.208533" xlink:href="#mb31f875ecc" y="252"/>
      </g>
     </g>
    </g>
    <g id="xtick_22">
     <g id="line2d_22">
      <g>
       <use style="stroke:#000000;stroke-width:0.6;" x="321.828672" xlink:href="#mb31f875ecc" y="252"/>
      </g>
     </g>
    </g>
    <g id="xtick_23">
     <g id="line2d_23">
      <g>
       <use style="stroke:#000000;stroke-width:0.6;" x="329.962384" xlink:href="#mb31f875ecc" y="252"/>
      </g>
     </g>
    </g>
    <g id="xtick_24">
     <g id="line2d_24">
      <g>
       <use style="stroke:#000000;stroke-width:0.6;" x="337.008126" xlink:href="#mb31f875ecc" y="252"/>
      </g>
     </g>
    </g>
    <g id="xtick_25">
     <g id="line2d_25">
      <g>
       <use style="stroke:#000000;stroke-width:0.6;" x="343.222911" xlink:href="#mb31f875ecc" y="252"/>
      </g>
     </g>
    </g>
    <g id="xtick_26">
     <g id="line2d_26">
      <g>
       <use style="stroke:#000000;stroke-width:0.6;" x="385.355917" xlink:href="#mb31f875ecc" y="252"/>
      </g>
     </g>
    </g>
    <g id="text_4">
     <!-- $r_0/\Delta x$ -->
     <g transform="translate(206.4 281.79625)scale(0.12 -0.12)">
      <defs>
       <path d="M 44.578125 46.390625 
Q 43.21875 47.125 41.453125 47.515625 
Q 39.703125 47.90625 37.703125 47.90625 
Q 30.515625 47.90625 25.140625 42.453125 
Q 19.78125 37.015625 18.015625 27.875 
L 12.5 0 
L 3.515625 0 
L 14.203125 54.6875 
L 23.1875 54.6875 
L 21.484375 46.1875 
Q 25.046875 50.921875 30 53.453125 
Q 34.96875 56 40.578125 56 
Q 42.046875 56 43.453125 55.828125 
Q 44.875 55.671875 46.296875 55.28125 
z
" id="DejaVuSans-Oblique-114"/>
       <path d="M 25.390625 72.90625 
L 33.6875 72.90625 
L 8.296875 -9.28125 
L 0 -9.28125 
z
" id="DejaVuSans-47"/>
       <path d="M 34.1875 63.1875 
L 14.15625 8.203125 
L 54.25 8.203125 
z
M 0.78125 0 
L 28.609375 72.90625 
L 39.796875 72.90625 
L 67.578125 0 
z
" id="DejaVuSans-916"/>
       <path d="M 60.015625 54.6875 
L 34.90625 27.875 
L 50.296875 0 
L 39.984375 0 
L 28.421875 21.6875 
L 8.296875 0 
L -2.59375 0 
L 24.3125 28.8125 
L 10.015625 54.6875 
L 20.3125 54.6875 
L 30.8125 34.90625 
L 49.125 54.6875 
z
" id="DejaVuSans-Oblique-120"/>
      </defs>
      <use transform="translate(0 0.09375)" xlink:href="#DejaVuSans-Oblique-114"/>
      <use transform="translate(41.113281 -16.3125)scale(0.7)" xlink:href="#DejaVuSans-48"/>
      <use transform="translate(88.383789 0.09375)" xlink:href="#DejaVuSans-47"/>
      <use transform="translate(122.075195 0.09375)" xlink:href="#DejaVuSans-916"/>
      <use transform="translate(190.483398 0.09375)" xlink:href="#DejaVuSans-Oblique-120"/>
     </g>
    </g>
   </g>
   <g id="matplotlib.axis_2">
    <g id="ytick_1">
     <g id="line2d_27">
      <defs>
       <path d="M 0 0 
L -3.5 0 
" id="m7e60ac76ad" style="stroke:#000000;stroke-width:0.8;"/>
      </defs>
      <g>
       <use style="stroke:#000000;stroke-width:0.8;" x="54" xlink:href="#m7e60ac76ad" y="231.132611"/>
      </g>
     </g>
     <g id="text_5">
      <!-- 0.0002 -->
      <g transform="translate(12.009375 234.93183)scale(0.1 -0.1)">
       <defs>
        <path d="M 10.6875 12.40625 
L 21 12.40625 
L 21 0 
L 10.6875 0 
z
" id="DejaVuSans-46"/>
        <path d="M 19.1875 8.296875 
L 53.609375 8.296875 
L 53.609375 0 
L 7.328125 0 
L 7.328125 8.296875 
Q 12.9375 14.109375 22.625 23.890625 
Q 32.328125 33.6875 34.8125 36.53125 
Q 39.546875 41.84375 41.421875 45.53125 
Q 43.3125 49.21875 43.3125 52.78125 
Q 43.3125 58.59375 39.234375 62.25 
Q 35.15625 65.921875 28.609375 65.921875 
Q 23.96875 65.921875 18.8125 64.3125 
Q 13.671875 62.703125 7.8125 59.421875 
L 7.8125 69.390625 
Q 13.765625 71.78125 18.9375 73 
Q 24.125 74.21875 28.421875 74.21875 
Q 39.75 74.21875 46.484375 68.546875 
Q 53.21875 62.890625 53.21875 53.421875 
Q 53.21875 48.921875 51.53125 44.890625 
Q 49.859375 40.875 45.40625 35.40625 
Q 44.1875 33.984375 37.640625 27.21875 
Q 31.109375 20.453125 19.1875 8.296875 
z
" id="DejaVuSans-50"/>
       </defs>
       <use xlink:href="#DejaVuSans-48"/>
       <use x="63.623047" xlink:href="#DejaVuSans-46"/>
       <use x="95.410156" xlink:href="#DejaVuSans-48"/>
       <use x="159.033203" xlink:href="#DejaVuSans-48"/>
       <use x="222.65625" xlink:href="#DejaVuSans-48"/>
       <use x="286.279297" xlink:href="#DejaVuSans-50"/>
      </g>
     </g>
    </g>
    <g id="ytick_2">
     <g id="line2d_28">
      <g>
       <use style="stroke:#000000;stroke-width:0.8;" x="54" xlink:href="#m7e60ac76ad" y="184.460367"/>
      </g>
     </g>
     <g id="text_6">
      <!-- 0.0004 -->
      <g transform="translate(12.009375 188.259586)scale(0.1 -0.1)">
       <defs>
        <path d="M 37.796875 64.3125 
L 12.890625 25.390625 
L 37.796875 25.390625 
z
M 35.203125 72.90625 
L 47.609375 72.90625 
L 47.609375 25.390625 
L 58.015625 25.390625 
L 58.015625 17.1875 
L 47.609375 17.1875 
L 47.609375 0 
L 37.796875 0 
L 37.796875 17.1875 
L 4.890625 17.1875 
L 4.890625 26.703125 
z
" id="DejaVuSans-52"/>
       </defs>
       <use xlink:href="#DejaVuSans-48"/>
       <use x="63.623047" xlink:href="#DejaVuSans-46"/>
       <use x="95.410156" xlink:href="#DejaVuSans-48"/>
       <use x="159.033203" xlink:href="#DejaVuSans-48"/>
       <use x="222.65625" xlink:href="#DejaVuSans-48"/>
       <use x="286.279297" xlink:href="#DejaVuSans-52"/>
      </g>
     </g>
    </g>
    <g id="ytick_3">
     <g id="line2d_29">
      <g>
       <use style="stroke:#000000;stroke-width:0.8;" x="54" xlink:href="#m7e60ac76ad" y="137.788124"/>
      </g>
     </g>
     <g id="text_7">
      <!-- 0.0006 -->
      <g transform="translate(12.009375 141.587342)scale(0.1 -0.1)">
       <defs>
        <path d="M 33.015625 40.375 
Q 26.375 40.375 22.484375 35.828125 
Q 18.609375 31.296875 18.609375 23.390625 
Q 18.609375 15.53125 22.484375 10.953125 
Q 26.375 6.390625 33.015625 6.390625 
Q 39.65625 6.390625 43.53125 10.953125 
Q 47.40625 15.53125 47.40625 23.390625 
Q 47.40625 31.296875 43.53125 35.828125 
Q 39.65625 40.375 33.015625 40.375 
z
M 52.59375 71.296875 
L 52.59375 62.3125 
Q 48.875 64.0625 45.09375 64.984375 
Q 41.3125 65.921875 37.59375 65.921875 
Q 27.828125 65.921875 22.671875 59.328125 
Q 17.53125 52.734375 16.796875 39.40625 
Q 19.671875 43.65625 24.015625 45.921875 
Q 28.375 48.1875 33.59375 48.1875 
Q 44.578125 48.1875 50.953125 41.515625 
Q 57.328125 34.859375 57.328125 23.390625 
Q 57.328125 12.15625 50.6875 5.359375 
Q 44.046875 -1.421875 33.015625 -1.421875 
Q 20.359375 -1.421875 13.671875 8.265625 
Q 6.984375 17.96875 6.984375 36.375 
Q 6.984375 53.65625 15.1875 63.9375 
Q 23.390625 74.21875 37.203125 74.21875 
Q 40.921875 74.21875 44.703125 73.484375 
Q 48.484375 72.75 52.59375 71.296875 
z
" id="DejaVuSans-54"/>
       </defs>
       <use xlink:href="#DejaVuSans-48"/>
       <use x="63.623047" xlink:href="#DejaVuSans-46"/>
       <use x="95.410156" xlink:href="#DejaVuSans-48"/>
       <use x="159.033203" xlink:href="#DejaVuSans-48"/>
       <use x="222.65625" xlink:href="#DejaVuSans-48"/>
       <use x="286.279297" xlink:href="#DejaVuSans-54"/>
      </g>
     </g>
    </g>
    <g id="ytick_4">
     <g id="line2d_30">
      <g>
       <use style="stroke:#000000;stroke-width:0.8;" x="54" xlink:href="#m7e60ac76ad" y="91.11588"/>
      </g>
     </g>
     <g id="text_8">
      <!-- 0.0008 -->
      <g transform="translate(12.009375 94.915099)scale(0.1 -0.1)">
       <defs>
        <path d="M 31.78125 34.625 
Q 24.75 34.625 20.71875 30.859375 
Q 16.703125 27.09375 16.703125 20.515625 
Q 16.703125 13.921875 20.71875 10.15625 
Q 24.75 6.390625 31.78125 6.390625 
Q 38.8125 6.390625 42.859375 10.171875 
Q 46.921875 13.96875 46.921875 20.515625 
Q 46.921875 27.09375 42.890625 30.859375 
Q 38.875 34.625 31.78125 34.625 
z
M 21.921875 38.8125 
Q 15.578125 40.375 12.03125 44.71875 
Q 8.5 49.078125 8.5 55.328125 
Q 8.5 64.0625 14.71875 69.140625 
Q 20.953125 74.21875 31.78125 74.21875 
Q 42.671875 74.21875 48.875 69.140625 
Q 55.078125 64.0625 55.078125 55.328125 
Q 55.078125 49.078125 51.53125 44.71875 
Q 48 40.375 41.703125 38.8125 
Q 48.828125 37.15625 52.796875 32.3125 
Q 56.78125 27.484375 56.78125 20.515625 
Q 56.78125 9.90625 50.3125 4.234375 
Q 43.84375 -1.421875 31.78125 -1.421875 
Q 19.734375 -1.421875 13.25 4.234375 
Q 6.78125 9.90625 6.78125 20.515625 
Q 6.78125 27.484375 10.78125 32.3125 
Q 14.796875 37.15625 21.921875 38.8125 
z
M 18.3125 54.390625 
Q 18.3125 48.734375 21.84375 45.5625 
Q 25.390625 42.390625 31.78125 42.390625 
Q 38.140625 42.390625 41.71875 45.5625 
Q 45.3125 48.734375 45.3125 54.390625 
Q 45.3125 60.0625 41.71875 63.234375 
Q 38.140625 66.40625 31.78125 66.40625 
Q 25.390625 66.40625 21.84375 63.234375 
Q 18.3125 60.0625 18.3125 54.390625 
z
" id="DejaVuSans-56"/>
       </defs>
       <use xlink:href="#DejaVuSans-48"/>
       <use x="63.623047" xlink:href="#DejaVuSans-46"/>
       <use x="95.410156" xlink:href="#DejaVuSans-48"/>
       <use x="159.033203" xlink:href="#DejaVuSans-48"/>
       <use x="222.65625" xlink:href="#DejaVuSans-48"/>
       <use x="286.279297" xlink:href="#DejaVuSans-56"/>
      </g>
     </g>
    </g>
    <g id="ytick_5">
     <g id="line2d_31">
      <g>
       <use style="stroke:#000000;stroke-width:0.8;" x="54" xlink:href="#m7e60ac76ad" y="44.443636"/>
      </g>
     </g>
     <g id="text_9">
      <!-- 0.0010 -->
      <g transform="translate(12.009375 48.242855)scale(0.1 -0.1)">
       <use xlink:href="#DejaVuSans-48"/>
       <use x="63.623047" xlink:href="#DejaVuSans-46"/>
       <use x="95.410156" xlink:href="#DejaVuSans-48"/>
       <use x="159.033203" xlink:href="#DejaVuSans-48"/>
       <use x="222.65625" xlink:href="#DejaVuSans-49"/>
       <use x="286.279297" xlink:href="#DejaVuSans-48"/>
      </g>
     </g>
    </g>
    <g id="text_10">
     <!-- $U_b^*$ -->
     <g transform="translate(4.529375 152.04)rotate(-90)scale(0.12 -0.12)">
      <defs>
       <path d="M 15.484375 72.90625 
L 25.390625 72.90625 
L 16.796875 28.609375 
Q 16.265625 25.640625 16.046875 23.703125 
Q 15.828125 21.78125 15.828125 20.3125 
Q 15.828125 13.578125 19.578125 10.078125 
Q 23.34375 6.59375 30.609375 6.59375 
Q 40.046875 6.59375 45.28125 11.765625 
Q 50.53125 16.9375 52.78125 28.609375 
L 61.375 72.90625 
L 71.296875 72.90625 
L 62.5 27.390625 
Q 59.625 12.640625 51.5625 5.609375 
Q 43.5 -1.421875 29.5 -1.421875 
Q 18.5625 -1.421875 12.1875 4.078125 
Q 5.8125 9.578125 5.8125 19 
Q 5.8125 20.703125 6.046875 22.828125 
Q 6.296875 24.953125 6.78125 27.390625 
z
" id="DejaVuSans-Oblique-85"/>
       <path d="M 47.015625 60.890625 
L 29.5 51.421875 
L 47.015625 41.890625 
L 44.1875 37.109375 
L 27.78125 47.015625 
L 27.78125 28.609375 
L 22.21875 28.609375 
L 22.21875 47.015625 
L 5.8125 37.109375 
L 2.984375 41.890625 
L 20.515625 51.421875 
L 2.984375 60.890625 
L 5.8125 65.71875 
L 22.21875 55.8125 
L 22.21875 74.21875 
L 27.78125 74.21875 
L 27.78125 55.8125 
L 44.1875 65.71875 
z
" id="DejaVuSans-42"/>
       <path d="M 49.515625 33.40625 
Q 49.515625 40.484375 46.265625 44.484375 
Q 43.015625 48.484375 37.3125 48.484375 
Q 33.15625 48.484375 29.515625 46.453125 
Q 25.875 44.4375 23.1875 40.578125 
Q 20.359375 36.53125 18.71875 31.171875 
Q 17.09375 25.828125 17.09375 20.515625 
Q 17.09375 13.765625 20.28125 9.9375 
Q 23.484375 6.109375 29.109375 6.109375 
Q 33.34375 6.109375 36.953125 8.078125 
Q 40.578125 10.0625 43.3125 13.921875 
Q 46.09375 17.921875 47.796875 23.234375 
Q 49.515625 28.5625 49.515625 33.40625 
z
M 21.578125 46.390625 
Q 24.90625 50.875 29.90625 53.4375 
Q 34.90625 56 40.375 56 
Q 48.78125 56 53.734375 50.328125 
Q 58.6875 44.671875 58.6875 35.015625 
Q 58.6875 27.09375 55.78125 19.671875 
Q 52.875 12.25 47.515625 6.5 
Q 44 2.6875 39.40625 0.625 
Q 34.8125 -1.421875 29.78125 -1.421875 
Q 24.46875 -1.421875 20.5625 1.015625 
Q 16.65625 3.46875 14.203125 8.296875 
L 12.59375 0 
L 3.609375 0 
L 18.40625 75.984375 
L 27.390625 75.984375 
z
" id="DejaVuSans-Oblique-98"/>
      </defs>
      <use transform="translate(0 0.701562)" xlink:href="#DejaVuSans-Oblique-85"/>
      <use transform="translate(93.847826 39.046875)scale(0.7)" xlink:href="#DejaVuSans-42"/>
      <use transform="translate(73.193359 -26.642188)scale(0.7)" xlink:href="#DejaVuSans-Oblique-98"/>
     </g>
    </g>
   </g>
   <g id="line2d_32">
    <path clip-path="url(#p19dcbbff17)" d="M 273.841635 123.386155 
L 286.630601 141.922586 
L 299.419567 159.906708 
L 312.208533 177.016561 
L 326.0521 194.206283 
L 337.008126 206.6269 
L 348.782225 218.67 
L 360.556324 229.288455 
L 373.581818 239.365175 
" style="fill:none;stroke:#000000;stroke-dasharray:7.4,3.2;stroke-dashoffset:0;stroke-width:2;"/>
   </g>
   <g id="line2d_33">
    <path clip-path="url(#p19dcbbff17)" d="M 69.218182 44.443636 
L 82.007148 44.443636 
L 94.796114 44.443636 
L 107.585079 44.443636 
L 120.374045 44.443636 
L 133.163011 44.443636 
L 145.951977 44.443636 
L 158.740943 44.443636 
L 171.529909 44.443636 
L 184.318874 44.443636 
L 197.10784 44.443636 
L 209.896806 44.443636 
L 222.685772 44.443636 
" style="fill:none;stroke:#000000;stroke-dasharray:2,3.3;stroke-dashoffset:0;stroke-width:2;"/>
   </g>
   <g id="patch_3">
    <path d="M 54 252 
L 54 34.56 
" style="fill:none;stroke:#000000;stroke-linecap:square;stroke-linejoin:miter;stroke-width:0.8;"/>
   </g>
   <g id="patch_4">
    <path d="M 388.8 252 
L 388.8 34.56 
" style="fill:none;stroke:#000000;stroke-linecap:square;stroke-linejoin:miter;stroke-width:0.8;"/>
   </g>
   <g id="patch_5">
    <path d="M 54 252 
L 388.8 252 
" style="fill:none;stroke:#000000;stroke-linecap:square;stroke-linejoin:miter;stroke-width:0.8;"/>
   </g>
   <g id="patch_6">
    <path d="M 54 34.56 
L 388.8 34.56 
" style="fill:none;stroke:#000000;stroke-linecap:square;stroke-linejoin:miter;stroke-width:0.8;"/>
   </g>
   <g id="legend_1">
    <g id="patch_7">
     <path d="M 306.4 86.594375 
L 381.8 86.594375 
Q 383.8 86.594375 383.8 84.594375 
L 383.8 41.56 
Q 383.8 39.56 381.8 39.56 
L 306.4 39.56 
Q 304.4 39.56 304.4 41.56 
L 304.4 84.594375 
Q 304.4 86.594375 306.4 86.594375 
z
" style="fill:#ffffff;opacity:0.8;stroke:#cccccc;stroke-linejoin:miter;"/>
    </g>
    <g id="PathCollection_4">
     <path d="M 318.4 53.533438 
C 319.726015 53.533438 320.997899 53.006606 321.935534 52.068971 
C 322.873168 51.131337 323.4 49.859453 323.4 48.533438 
C 323.4 47.207422 322.873168 45.935538 321.935534 44.997904 
C 320.997899 44.060269 319.726015 43.533438 318.4 43.533438 
C 317.073984 43.533438 315.802101 44.060269 314.864466 44.997904 
C 313.926832 45.935538 313.4 47.207422 313.4 48.533438 
C 313.4 49.859453 313.926832 51.131337 314.864466 52.068971 
C 315.802101 53.006606 317.073984 53.533438 318.4 53.533438 
z
" style="fill:none;stroke:#ff0000;"/>
    </g>
    <g id="text_11">
     <!-- $\Delta x$ = 0.5 -->
     <g transform="translate(336.4 51.158438)scale(0.1 -0.1)">
      <defs>
       <path id="DejaVuSans-32"/>
       <path d="M 10.59375 45.40625 
L 73.1875 45.40625 
L 73.1875 37.203125 
L 10.59375 37.203125 
z
M 10.59375 25.484375 
L 73.1875 25.484375 
L 73.1875 17.1875 
L 10.59375 17.1875 
z
" id="DejaVuSans-61"/>
       <path d="M 10.796875 72.90625 
L 49.515625 72.90625 
L 49.515625 64.59375 
L 19.828125 64.59375 
L 19.828125 46.734375 
Q 21.96875 47.46875 24.109375 47.828125 
Q 26.265625 48.1875 28.421875 48.1875 
Q 40.625 48.1875 47.75 41.5 
Q 54.890625 34.8125 54.890625 23.390625 
Q 54.890625 11.625 47.5625 5.09375 
Q 40.234375 -1.421875 26.90625 -1.421875 
Q 22.3125 -1.421875 17.546875 -0.640625 
Q 12.796875 0.140625 7.71875 1.703125 
L 7.71875 11.625 
Q 12.109375 9.234375 16.796875 8.0625 
Q 21.484375 6.890625 26.703125 6.890625 
Q 35.15625 6.890625 40.078125 11.328125 
Q 45.015625 15.765625 45.015625 23.390625 
Q 45.015625 31 40.078125 35.4375 
Q 35.15625 39.890625 26.703125 39.890625 
Q 22.75 39.890625 18.8125 39.015625 
Q 14.890625 38.140625 10.796875 36.28125 
z
" id="DejaVuSans-53"/>
      </defs>
      <use transform="translate(0 0.78125)" xlink:href="#DejaVuSans-916"/>
      <use transform="translate(68.408203 0.78125)" xlink:href="#DejaVuSans-Oblique-120"/>
      <use transform="translate(127.587891 0.78125)" xlink:href="#DejaVuSans-32"/>
      <use transform="translate(159.375 0.78125)" xlink:href="#DejaVuSans-61"/>
      <use transform="translate(243.164062 0.78125)" xlink:href="#DejaVuSans-32"/>
      <use transform="translate(274.951172 0.78125)" xlink:href="#DejaVuSans-48"/>
      <use transform="translate(338.574219 0.78125)" xlink:href="#DejaVuSans-46"/>
      <use transform="translate(370.361328 0.78125)" xlink:href="#DejaVuSans-53"/>
     </g>
    </g>
    <g id="PathCollection_5">
     <g>
      <use style="fill:#1f77b4;stroke:#1f77b4;stroke-width:1.5;" x="318.4" xlink:href="#mf509632c53" y="63.211563"/>
     </g>
    </g>
    <g id="text_12">
     <!-- $\Delta x$ = 1 -->
     <g transform="translate(336.4 65.836563)scale(0.1 -0.1)">
      <use transform="translate(0 0.09375)" xlink:href="#DejaVuSans-916"/>
      <use transform="translate(68.408203 0.09375)" xlink:href="#DejaVuSans-Oblique-120"/>
      <use transform="translate(127.587891 0.09375)" xlink:href="#DejaVuSans-32"/>
      <use transform="translate(159.375 0.09375)" xlink:href="#DejaVuSans-61"/>
      <use transform="translate(243.164062 0.09375)" xlink:href="#DejaVuSans-32"/>
      <use transform="translate(274.951172 0.09375)" xlink:href="#DejaVuSans-49"/>
     </g>
    </g>
    <g id="PathCollection_6">
     <path d="M 323.4 77.889688 
L 313.4 72.889688 
L 313.4 82.889688 
z
" style="fill:none;stroke:#008000;"/>
    </g>
    <g id="text_13">
     <!-- $\Delta x$ = 2 -->
     <g transform="translate(336.4 80.514688)scale(0.1 -0.1)">
      <use transform="translate(0 0.78125)" xlink:href="#DejaVuSans-916"/>
      <use transform="translate(68.408203 0.78125)" xlink:href="#DejaVuSans-Oblique-120"/>
      <use transform="translate(127.587891 0.78125)" xlink:href="#DejaVuSans-32"/>
      <use transform="translate(159.375 0.78125)" xlink:href="#DejaVuSans-61"/>
      <use transform="translate(243.164062 0.78125)" xlink:href="#DejaVuSans-32"/>
      <use transform="translate(274.951172 0.78125)" xlink:href="#DejaVuSans-50"/>
     </g>
    </g>
   </g>
  </g>
 </g>
 <defs>
  <clipPath id="p19dcbbff17">
   <rect height="217.44" width="334.8" x="54" y="34.56"/>
  </clipPath>
 </defs>
</svg>
