<?xml version="1.0" encoding="utf-8" standalone="no"?>
<!DOCTYPE svg PUBLIC "-//W3C//DTD SVG 1.1//EN"
  "http://www.w3.org/Graphics/SVG/1.1/DTD/svg11.dtd">
<!-- Created with matplotlib (https://matplotlib.org/) -->
<svg height="216pt" version="1.1" viewBox="0 0 432 216" width="432pt" xmlns="http://www.w3.org/2000/svg" xmlns:xlink="http://www.w3.org/1999/xlink">
 <metadata>
  <rdf:RDF xmlns:cc="http://creativecommons.org/ns#" xmlns:dc="http://purl.org/dc/elements/1.1/" xmlns:rdf="http://www.w3.org/1999/02/22-rdf-syntax-ns#">
   <cc:Work>
    <dc:type rdf:resource="http://purl.org/dc/dcmitype/StillImage"/>
    <dc:date>2023-07-05T11:16:03.164725</dc:date>
    <dc:format>image/svg+xml</dc:format>
    <dc:creator>
     <cc:Agent>
      <dc:title>Matplotlib v3.3.4, https://matplotlib.org/</dc:title>
     </cc:Agent>
    </dc:creator>
   </cc:Work>
  </rdf:RDF>
 </metadata>
 <defs>
  <style type="text/css">*{stroke-linecap:butt;stroke-linejoin:round;}</style>
 </defs>
 <g id="figure_1">
  <g id="patch_1">
   <path d="M 0 216 
L 432 216 
L 432 0 
L 0 0 
z
" style="fill:none;"/>
  </g>
  <g id="axes_1">
   <g id="patch_2">
    <path d="M 54 189 
L 388.8 189 
L 388.8 25.92 
L 54 25.92 
z
" style="fill:#ffffff;"/>
   </g>
   <g id="PathCollection_1">
    <defs>
     <path d="M 0 3.872983 
C 1.027127 3.872983 2.012324 3.464901 2.738613 2.738613 
C 3.464901 2.012324 3.872983 1.027127 3.872983 -0 
C 3.872983 -1.027127 3.464901 -2.012324 2.738613 -2.738613 
C 2.012324 -3.464901 1.027127 -3.872983 0 -3.872983 
C -1.027127 -3.872983 -2.012324 -3.464901 -2.738613 -2.738613 
C -3.464901 -2.012324 -3.872983 -1.027127 -3.872983 0 
C -3.872983 1.027127 -3.464901 2.012324 -2.738613 2.738613 
C -2.012324 3.464901 -1.027127 3.872983 0 3.872983 
z
" id="C0_0_7c235ff514"/>
    </defs>
    <g clip-path="url(#p9a90a8bd35)">
     <use style="fill:none;stroke:#0000ff;" x="69.218182" xlink:href="#C0_0_7c235ff514" y="33.838191"/>
    </g>
    <g clip-path="url(#p9a90a8bd35)">
     <use style="fill:none;stroke:#0000ff;" x="87.248255" xlink:href="#C0_0_7c235ff514" y="41.02677"/>
    </g>
    <g clip-path="url(#p9a90a8bd35)">
     <use style="fill:none;stroke:#0000ff;" x="105.278329" xlink:href="#C0_0_7c235ff514" y="48.273336"/>
    </g>
    <g clip-path="url(#p9a90a8bd35)">
     <use style="fill:none;stroke:#0000ff;" x="123.308403" xlink:href="#C0_0_7c235ff514" y="55.564226"/>
    </g>
    <g clip-path="url(#p9a90a8bd35)">
     <use style="fill:none;stroke:#0000ff;" x="141.338476" xlink:href="#C0_0_7c235ff514" y="62.916574"/>
    </g>
    <g clip-path="url(#p9a90a8bd35)">
     <use style="fill:none;stroke:#0000ff;" x="159.36855" xlink:href="#C0_0_7c235ff514" y="70.414959"/>
    </g>
    <g clip-path="url(#p9a90a8bd35)">
     <use style="fill:none;stroke:#0000ff;" x="177.398624" xlink:href="#C0_0_7c235ff514" y="78.039581"/>
    </g>
    <g clip-path="url(#p9a90a8bd35)">
     <use style="fill:none;stroke:#0000ff;" x="195.428697" xlink:href="#C0_0_7c235ff514" y="85.843474"/>
    </g>
    <g clip-path="url(#p9a90a8bd35)">
     <use style="fill:none;stroke:#0000ff;" x="213.458771" xlink:href="#C0_0_7c235ff514" y="93.839894"/>
    </g>
    <g clip-path="url(#p9a90a8bd35)">
     <use style="fill:none;stroke:#0000ff;" x="231.488845" xlink:href="#C0_0_7c235ff514" y="102.192382"/>
    </g>
    <g clip-path="url(#p9a90a8bd35)">
     <use style="fill:none;stroke:#0000ff;" x="249.518918" xlink:href="#C0_0_7c235ff514" y="110.874273"/>
    </g>
    <g clip-path="url(#p9a90a8bd35)">
     <use style="fill:none;stroke:#0000ff;" x="267.548992" xlink:href="#C0_0_7c235ff514" y="119.858927"/>
    </g>
    <g clip-path="url(#p9a90a8bd35)">
     <use style="fill:none;stroke:#0000ff;" x="285.579066" xlink:href="#C0_0_7c235ff514" y="129.191293"/>
    </g>
    <g clip-path="url(#p9a90a8bd35)">
     <use style="fill:none;stroke:#0000ff;" x="303.609139" xlink:href="#C0_0_7c235ff514" y="138.816968"/>
    </g>
    <g clip-path="url(#p9a90a8bd35)">
     <use style="fill:none;stroke:#0000ff;" x="321.639213" xlink:href="#C0_0_7c235ff514" y="148.243978"/>
    </g>
    <g clip-path="url(#p9a90a8bd35)">
     <use style="fill:none;stroke:#0000ff;" x="341.891865" xlink:href="#C0_0_7c235ff514" y="160.519982"/>
    </g>
    <g clip-path="url(#p9a90a8bd35)">
     <use style="fill:none;stroke:#0000ff;" x="357.111071" xlink:href="#C0_0_7c235ff514" y="169.670769"/>
    </g>
    <g clip-path="url(#p9a90a8bd35)">
     <use style="fill:none;stroke:#0000ff;" x="373.581818" xlink:href="#C0_0_7c235ff514" y="179.864461"/>
    </g>
   </g>
   <g id="PathCollection_2">
    <defs>
     <path d="M -3.872983 3.872983 
L 3.872983 3.872983 
L 3.872983 -3.872983 
L -3.872983 -3.872983 
z
" id="C1_0_9abd73dfb7"/>
    </defs>
    <g clip-path="url(#p9a90a8bd35)">
     <use style="fill:none;stroke:#a2cffe;" x="69.218182" xlink:href="#C1_0_9abd73dfb7" y="33.863631"/>
    </g>
    <g clip-path="url(#p9a90a8bd35)">
     <use style="fill:none;stroke:#a2cffe;" x="87.248255" xlink:href="#C1_0_9abd73dfb7" y="41.041638"/>
    </g>
    <g clip-path="url(#p9a90a8bd35)">
     <use style="fill:none;stroke:#a2cffe;" x="105.278329" xlink:href="#C1_0_9abd73dfb7" y="48.238981"/>
    </g>
    <g clip-path="url(#p9a90a8bd35)">
     <use style="fill:none;stroke:#a2cffe;" x="123.308403" xlink:href="#C1_0_9abd73dfb7" y="55.516901"/>
    </g>
    <g clip-path="url(#p9a90a8bd35)">
     <use style="fill:none;stroke:#a2cffe;" x="141.338476" xlink:href="#C1_0_9abd73dfb7" y="62.87141"/>
    </g>
    <g clip-path="url(#p9a90a8bd35)">
     <use style="fill:none;stroke:#a2cffe;" x="159.36855" xlink:href="#C1_0_9abd73dfb7" y="70.332044"/>
    </g>
    <g clip-path="url(#p9a90a8bd35)">
     <use style="fill:none;stroke:#a2cffe;" x="177.398624" xlink:href="#C1_0_9abd73dfb7" y="77.986827"/>
    </g>
    <g clip-path="url(#p9a90a8bd35)">
     <use style="fill:none;stroke:#a2cffe;" x="195.428697" xlink:href="#C1_0_9abd73dfb7" y="85.829937"/>
    </g>
    <g clip-path="url(#p9a90a8bd35)">
     <use style="fill:none;stroke:#a2cffe;" x="213.458771" xlink:href="#C1_0_9abd73dfb7" y="93.918396"/>
    </g>
    <g clip-path="url(#p9a90a8bd35)">
     <use style="fill:none;stroke:#a2cffe;" x="231.488845" xlink:href="#C1_0_9abd73dfb7" y="102.268494"/>
    </g>
    <g clip-path="url(#p9a90a8bd35)">
     <use style="fill:none;stroke:#a2cffe;" x="249.518918" xlink:href="#C1_0_9abd73dfb7" y="110.971104"/>
    </g>
    <g clip-path="url(#p9a90a8bd35)">
     <use style="fill:none;stroke:#a2cffe;" x="267.548992" xlink:href="#C1_0_9abd73dfb7" y="120.046108"/>
    </g>
    <g clip-path="url(#p9a90a8bd35)">
     <use style="fill:none;stroke:#a2cffe;" x="285.579066" xlink:href="#C1_0_9abd73dfb7" y="129.554087"/>
    </g>
    <g clip-path="url(#p9a90a8bd35)">
     <use style="fill:none;stroke:#a2cffe;" x="303.609139" xlink:href="#C1_0_9abd73dfb7" y="139.46957"/>
    </g>
    <g clip-path="url(#p9a90a8bd35)">
     <use style="fill:none;stroke:#a2cffe;" x="321.639213" xlink:href="#C1_0_9abd73dfb7" y="149.956089"/>
    </g>
    <g clip-path="url(#p9a90a8bd35)">
     <use style="fill:none;stroke:#a2cffe;" x="341.891865" xlink:href="#C1_0_9abd73dfb7" y="161.167957"/>
    </g>
    <g clip-path="url(#p9a90a8bd35)">
     <use style="fill:none;stroke:#a2cffe;" x="357.111071" xlink:href="#C1_0_9abd73dfb7" y="170.743729"/>
    </g>
    <g clip-path="url(#p9a90a8bd35)">
     <use style="fill:none;stroke:#a2cffe;" x="373.581818" xlink:href="#C1_0_9abd73dfb7" y="181.587273"/>
    </g>
   </g>
   <g id="PathCollection_3">
    <path clip-path="url(#p9a90a8bd35)" d="M 69.218182 37.843029 
L 73.091165 30.097062 
L 65.345198 30.097062 
z
" style="fill:none;stroke:#2c6fbb;"/>
    <path clip-path="url(#p9a90a8bd35)" d="M 87.248255 45.035205 
L 91.121239 37.289238 
L 83.375272 37.289238 
z
" style="fill:none;stroke:#2c6fbb;"/>
    <path clip-path="url(#p9a90a8bd35)" d="M 105.278329 52.270225 
L 109.151312 44.524258 
L 101.405346 44.524258 
z
" style="fill:none;stroke:#2c6fbb;"/>
    <path clip-path="url(#p9a90a8bd35)" d="M 123.308403 59.594634 
L 127.181386 51.848667 
L 119.435419 51.848667 
z
" style="fill:none;stroke:#2c6fbb;"/>
    <path clip-path="url(#p9a90a8bd35)" d="M 141.338476 66.99539 
L 145.21146 59.249424 
L 137.465493 59.249424 
z
" style="fill:none;stroke:#2c6fbb;"/>
    <path clip-path="url(#p9a90a8bd35)" d="M 159.36855 74.530417 
L 163.241533 66.78445 
L 155.495567 66.78445 
z
" style="fill:none;stroke:#2c6fbb;"/>
    <path clip-path="url(#p9a90a8bd35)" d="M 177.398624 82.209021 
L 181.271607 74.463055 
L 173.52564 74.463055 
z
" style="fill:none;stroke:#2c6fbb;"/>
    <path clip-path="url(#p9a90a8bd35)" d="M 195.428697 90.179487 
L 199.301681 82.43352 
L 191.555714 82.43352 
z
" style="fill:none;stroke:#2c6fbb;"/>
    <path clip-path="url(#p9a90a8bd35)" d="M 213.458771 98.377381 
L 217.331754 90.631414 
L 209.585788 90.631414 
z
" style="fill:none;stroke:#2c6fbb;"/>
    <path clip-path="url(#p9a90a8bd35)" d="M 231.488845 106.85666 
L 235.361828 99.110693 
L 227.615861 99.110693 
z
" style="fill:none;stroke:#2c6fbb;"/>
    <path clip-path="url(#p9a90a8bd35)" d="M 249.518918 115.760364 
L 253.391902 108.014398 
L 245.645935 108.014398 
z
" style="fill:none;stroke:#2c6fbb;"/>
    <path clip-path="url(#p9a90a8bd35)" d="M 267.548992 125.02772 
L 271.421975 117.281753 
L 263.676009 117.281753 
z
" style="fill:none;stroke:#2c6fbb;"/>
    <path clip-path="url(#p9a90a8bd35)" d="M 285.579066 134.678551 
L 289.452049 126.932584 
L 281.706082 126.932584 
z
" style="fill:none;stroke:#2c6fbb;"/>
    <path clip-path="url(#p9a90a8bd35)" d="M 303.609139 144.870942 
L 307.482123 137.124975 
L 299.736156 137.124975 
z
" style="fill:none;stroke:#2c6fbb;"/>
    <path clip-path="url(#p9a90a8bd35)" d="M 321.639213 155.474968 
L 325.512196 147.729001 
L 317.76623 147.729001 
z
" style="fill:none;stroke:#2c6fbb;"/>
    <path clip-path="url(#p9a90a8bd35)" d="M 341.891865 165.51625 
L 345.764848 157.770283 
L 338.018881 157.770283 
z
" style="fill:none;stroke:#2c6fbb;"/>
    <path clip-path="url(#p9a90a8bd35)" d="M 357.111071 174.423133 
L 360.984055 166.677166 
L 353.238088 166.677166 
z
" style="fill:none;stroke:#2c6fbb;"/>
    <path clip-path="url(#p9a90a8bd35)" d="M 373.581818 184.194442 
L 377.454802 176.448476 
L 369.708835 176.448476 
z
" style="fill:none;stroke:#2c6fbb;"/>
   </g>
   <g id="matplotlib.axis_1">
    <g id="xtick_1">
     <g id="line2d_1">
      <defs>
       <path d="M 0 0 
L 0 3.5 
" id="m5010c3988a" style="stroke:#000000;stroke-width:0.8;"/>
      </defs>
      <g>
       <use style="stroke:#000000;stroke-width:0.8;" x="90.584841" xlink:href="#m5010c3988a" y="189"/>
      </g>
     </g>
     <g id="text_1">
      <!-- $\mathdefault{10^{2}}$ -->
      <g transform="translate(81.784841 203.598437)scale(0.1 -0.1)">
       <defs>
        <path d="M 12.40625 8.296875 
L 28.515625 8.296875 
L 28.515625 63.921875 
L 10.984375 60.40625 
L 10.984375 69.390625 
L 28.421875 72.90625 
L 38.28125 72.90625 
L 38.28125 8.296875 
L 54.390625 8.296875 
L 54.390625 0 
L 12.40625 0 
z
" id="DejaVuSans-49"/>
        <path d="M 31.78125 66.40625 
Q 24.171875 66.40625 20.328125 58.90625 
Q 16.5 51.421875 16.5 36.375 
Q 16.5 21.390625 20.328125 13.890625 
Q 24.171875 6.390625 31.78125 6.390625 
Q 39.453125 6.390625 43.28125 13.890625 
Q 47.125 21.390625 47.125 36.375 
Q 47.125 51.421875 43.28125 58.90625 
Q 39.453125 66.40625 31.78125 66.40625 
z
M 31.78125 74.21875 
Q 44.046875 74.21875 50.515625 64.515625 
Q 56.984375 54.828125 56.984375 36.375 
Q 56.984375 17.96875 50.515625 8.265625 
Q 44.046875 -1.421875 31.78125 -1.421875 
Q 19.53125 -1.421875 13.0625 8.265625 
Q 6.59375 17.96875 6.59375 36.375 
Q 6.59375 54.828125 13.0625 64.515625 
Q 19.53125 74.21875 31.78125 74.21875 
z
" id="DejaVuSans-48"/>
        <path d="M 19.1875 8.296875 
L 53.609375 8.296875 
L 53.609375 0 
L 7.328125 0 
L 7.328125 8.296875 
Q 12.9375 14.109375 22.625 23.890625 
Q 32.328125 33.6875 34.8125 36.53125 
Q 39.546875 41.84375 41.421875 45.53125 
Q 43.3125 49.21875 43.3125 52.78125 
Q 43.3125 58.59375 39.234375 62.25 
Q 35.15625 65.921875 28.609375 65.921875 
Q 23.96875 65.921875 18.8125 64.3125 
Q 13.671875 62.703125 7.8125 59.421875 
L 7.8125 69.390625 
Q 13.765625 71.78125 18.9375 73 
Q 24.125 74.21875 28.421875 74.21875 
Q 39.75 74.21875 46.484375 68.546875 
Q 53.21875 62.890625 53.21875 53.421875 
Q 53.21875 48.921875 51.53125 44.890625 
Q 49.859375 40.875 45.40625 35.40625 
Q 44.1875 33.984375 37.640625 27.21875 
Q 31.109375 20.453125 19.1875 8.296875 
z
" id="DejaVuSans-50"/>
       </defs>
       <use transform="translate(0 0.765625)" xlink:href="#DejaVuSans-49"/>
       <use transform="translate(63.623047 0.765625)" xlink:href="#DejaVuSans-48"/>
       <use transform="translate(128.203125 39.046875)scale(0.7)" xlink:href="#DejaVuSans-50"/>
      </g>
     </g>
    </g>
    <g id="xtick_2">
     <g id="line2d_2">
      <g>
       <use style="stroke:#000000;stroke-width:0.8;" x="161.563344" xlink:href="#m5010c3988a" y="189"/>
      </g>
     </g>
     <g id="text_2">
      <!-- $\mathdefault{10^{3}}$ -->
      <g transform="translate(152.763344 203.598437)scale(0.1 -0.1)">
       <defs>
        <path d="M 40.578125 39.3125 
Q 47.65625 37.796875 51.625 33 
Q 55.609375 28.21875 55.609375 21.1875 
Q 55.609375 10.40625 48.1875 4.484375 
Q 40.765625 -1.421875 27.09375 -1.421875 
Q 22.515625 -1.421875 17.65625 -0.515625 
Q 12.796875 0.390625 7.625 2.203125 
L 7.625 11.71875 
Q 11.71875 9.328125 16.59375 8.109375 
Q 21.484375 6.890625 26.8125 6.890625 
Q 36.078125 6.890625 40.9375 10.546875 
Q 45.796875 14.203125 45.796875 21.1875 
Q 45.796875 27.640625 41.28125 31.265625 
Q 36.765625 34.90625 28.71875 34.90625 
L 20.21875 34.90625 
L 20.21875 43.015625 
L 29.109375 43.015625 
Q 36.375 43.015625 40.234375 45.921875 
Q 44.09375 48.828125 44.09375 54.296875 
Q 44.09375 59.90625 40.109375 62.90625 
Q 36.140625 65.921875 28.71875 65.921875 
Q 24.65625 65.921875 20.015625 65.03125 
Q 15.375 64.15625 9.8125 62.3125 
L 9.8125 71.09375 
Q 15.4375 72.65625 20.34375 73.4375 
Q 25.25 74.21875 29.59375 74.21875 
Q 40.828125 74.21875 47.359375 69.109375 
Q 53.90625 64.015625 53.90625 55.328125 
Q 53.90625 49.265625 50.4375 45.09375 
Q 46.96875 40.921875 40.578125 39.3125 
z
" id="DejaVuSans-51"/>
       </defs>
       <use transform="translate(0 0.765625)" xlink:href="#DejaVuSans-49"/>
       <use transform="translate(63.623047 0.765625)" xlink:href="#DejaVuSans-48"/>
       <use transform="translate(128.203125 39.046875)scale(0.7)" xlink:href="#DejaVuSans-51"/>
      </g>
     </g>
    </g>
    <g id="xtick_3">
     <g id="line2d_3">
      <g>
       <use style="stroke:#000000;stroke-width:0.8;" x="232.541848" xlink:href="#m5010c3988a" y="189"/>
      </g>
     </g>
     <g id="text_3">
      <!-- $\mathdefault{10^{4}}$ -->
      <g transform="translate(223.741848 203.598437)scale(0.1 -0.1)">
       <defs>
        <path d="M 37.796875 64.3125 
L 12.890625 25.390625 
L 37.796875 25.390625 
z
M 35.203125 72.90625 
L 47.609375 72.90625 
L 47.609375 25.390625 
L 58.015625 25.390625 
L 58.015625 17.1875 
L 47.609375 17.1875 
L 47.609375 0 
L 37.796875 0 
L 37.796875 17.1875 
L 4.890625 17.1875 
L 4.890625 26.703125 
z
" id="DejaVuSans-52"/>
       </defs>
       <use transform="translate(0 0.684375)" xlink:href="#DejaVuSans-49"/>
       <use transform="translate(63.623047 0.684375)" xlink:href="#DejaVuSans-48"/>
       <use transform="translate(128.203125 38.965625)scale(0.7)" xlink:href="#DejaVuSans-52"/>
      </g>
     </g>
    </g>
    <g id="xtick_4">
     <g id="line2d_4">
      <g>
       <use style="stroke:#000000;stroke-width:0.8;" x="303.520352" xlink:href="#m5010c3988a" y="189"/>
      </g>
     </g>
     <g id="text_4">
      <!-- $\mathdefault{10^{5}}$ -->
      <g transform="translate(294.720352 203.598437)scale(0.1 -0.1)">
       <defs>
        <path d="M 10.796875 72.90625 
L 49.515625 72.90625 
L 49.515625 64.59375 
L 19.828125 64.59375 
L 19.828125 46.734375 
Q 21.96875 47.46875 24.109375 47.828125 
Q 26.265625 48.1875 28.421875 48.1875 
Q 40.625 48.1875 47.75 41.5 
Q 54.890625 34.8125 54.890625 23.390625 
Q 54.890625 11.625 47.5625 5.09375 
Q 40.234375 -1.421875 26.90625 -1.421875 
Q 22.3125 -1.421875 17.546875 -0.640625 
Q 12.796875 0.140625 7.71875 1.703125 
L 7.71875 11.625 
Q 12.109375 9.234375 16.796875 8.0625 
Q 21.484375 6.890625 26.703125 6.890625 
Q 35.15625 6.890625 40.078125 11.328125 
Q 45.015625 15.765625 45.015625 23.390625 
Q 45.015625 31 40.078125 35.4375 
Q 35.15625 39.890625 26.703125 39.890625 
Q 22.75 39.890625 18.8125 39.015625 
Q 14.890625 38.140625 10.796875 36.28125 
z
" id="DejaVuSans-53"/>
       </defs>
       <use transform="translate(0 0.684375)" xlink:href="#DejaVuSans-49"/>
       <use transform="translate(63.623047 0.684375)" xlink:href="#DejaVuSans-48"/>
       <use transform="translate(128.203125 38.965625)scale(0.7)" xlink:href="#DejaVuSans-53"/>
      </g>
     </g>
    </g>
    <g id="xtick_5">
     <g id="line2d_5">
      <g>
       <use style="stroke:#000000;stroke-width:0.8;" x="374.498856" xlink:href="#m5010c3988a" y="189"/>
      </g>
     </g>
     <g id="text_5">
      <!-- $\mathdefault{10^{6}}$ -->
      <g transform="translate(365.698856 203.598437)scale(0.1 -0.1)">
       <defs>
        <path d="M 33.015625 40.375 
Q 26.375 40.375 22.484375 35.828125 
Q 18.609375 31.296875 18.609375 23.390625 
Q 18.609375 15.53125 22.484375 10.953125 
Q 26.375 6.390625 33.015625 6.390625 
Q 39.65625 6.390625 43.53125 10.953125 
Q 47.40625 15.53125 47.40625 23.390625 
Q 47.40625 31.296875 43.53125 35.828125 
Q 39.65625 40.375 33.015625 40.375 
z
M 52.59375 71.296875 
L 52.59375 62.3125 
Q 48.875 64.0625 45.09375 64.984375 
Q 41.3125 65.921875 37.59375 65.921875 
Q 27.828125 65.921875 22.671875 59.328125 
Q 17.53125 52.734375 16.796875 39.40625 
Q 19.671875 43.65625 24.015625 45.921875 
Q 28.375 48.1875 33.59375 48.1875 
Q 44.578125 48.1875 50.953125 41.515625 
Q 57.328125 34.859375 57.328125 23.390625 
Q 57.328125 12.15625 50.6875 5.359375 
Q 44.046875 -1.421875 33.015625 -1.421875 
Q 20.359375 -1.421875 13.671875 8.265625 
Q 6.984375 17.96875 6.984375 36.375 
Q 6.984375 53.65625 15.1875 63.9375 
Q 23.390625 74.21875 37.203125 74.21875 
Q 40.921875 74.21875 44.703125 73.484375 
Q 48.484375 72.75 52.59375 71.296875 
z
" id="DejaVuSans-54"/>
       </defs>
       <use transform="translate(0 0.765625)" xlink:href="#DejaVuSans-49"/>
       <use transform="translate(63.623047 0.765625)" xlink:href="#DejaVuSans-48"/>
       <use transform="translate(128.203125 39.046875)scale(0.7)" xlink:href="#DejaVuSans-54"/>
      </g>
     </g>
    </g>
    <g id="xtick_6">
     <g id="line2d_6">
      <defs>
       <path d="M 0 0 
L 0 2 
" id="m3ad55608a2" style="stroke:#000000;stroke-width:0.6;"/>
      </defs>
      <g>
       <use style="stroke:#000000;stroke-width:0.6;" x="62.339654" xlink:href="#m3ad55608a2" y="189"/>
      </g>
     </g>
    </g>
    <g id="xtick_7">
     <g id="line2d_7">
      <g>
       <use style="stroke:#000000;stroke-width:0.6;" x="69.218182" xlink:href="#m3ad55608a2" y="189"/>
      </g>
     </g>
    </g>
    <g id="xtick_8">
     <g id="line2d_8">
      <g>
       <use style="stroke:#000000;stroke-width:0.6;" x="74.838348" xlink:href="#m3ad55608a2" y="189"/>
      </g>
     </g>
    </g>
    <g id="xtick_9">
     <g id="line2d_9">
      <g>
       <use style="stroke:#000000;stroke-width:0.6;" x="79.590131" xlink:href="#m3ad55608a2" y="189"/>
      </g>
     </g>
    </g>
    <g id="xtick_10">
     <g id="line2d_10">
      <g>
       <use style="stroke:#000000;stroke-width:0.6;" x="83.706313" xlink:href="#m3ad55608a2" y="189"/>
      </g>
     </g>
    </g>
    <g id="xtick_11">
     <g id="line2d_11">
      <g>
       <use style="stroke:#000000;stroke-width:0.6;" x="87.337042" xlink:href="#m3ad55608a2" y="189"/>
      </g>
     </g>
    </g>
    <g id="xtick_12">
     <g id="line2d_12">
      <g>
       <use style="stroke:#000000;stroke-width:0.6;" x="111.951499" xlink:href="#m3ad55608a2" y="189"/>
      </g>
     </g>
    </g>
    <g id="xtick_13">
     <g id="line2d_13">
      <g>
       <use style="stroke:#000000;stroke-width:0.6;" x="124.450193" xlink:href="#m3ad55608a2" y="189"/>
      </g>
     </g>
    </g>
    <g id="xtick_14">
     <g id="line2d_14">
      <g>
       <use style="stroke:#000000;stroke-width:0.6;" x="133.318158" xlink:href="#m3ad55608a2" y="189"/>
      </g>
     </g>
    </g>
    <g id="xtick_15">
     <g id="line2d_15">
      <g>
       <use style="stroke:#000000;stroke-width:0.6;" x="140.196686" xlink:href="#m3ad55608a2" y="189"/>
      </g>
     </g>
    </g>
    <g id="xtick_16">
     <g id="line2d_16">
      <g>
       <use style="stroke:#000000;stroke-width:0.6;" x="145.816852" xlink:href="#m3ad55608a2" y="189"/>
      </g>
     </g>
    </g>
    <g id="xtick_17">
     <g id="line2d_17">
      <g>
       <use style="stroke:#000000;stroke-width:0.6;" x="150.568635" xlink:href="#m3ad55608a2" y="189"/>
      </g>
     </g>
    </g>
    <g id="xtick_18">
     <g id="line2d_18">
      <g>
       <use style="stroke:#000000;stroke-width:0.6;" x="154.684817" xlink:href="#m3ad55608a2" y="189"/>
      </g>
     </g>
    </g>
    <g id="xtick_19">
     <g id="line2d_19">
      <g>
       <use style="stroke:#000000;stroke-width:0.6;" x="158.315546" xlink:href="#m3ad55608a2" y="189"/>
      </g>
     </g>
    </g>
    <g id="xtick_20">
     <g id="line2d_20">
      <g>
       <use style="stroke:#000000;stroke-width:0.6;" x="182.930003" xlink:href="#m3ad55608a2" y="189"/>
      </g>
     </g>
    </g>
    <g id="xtick_21">
     <g id="line2d_21">
      <g>
       <use style="stroke:#000000;stroke-width:0.6;" x="195.428697" xlink:href="#m3ad55608a2" y="189"/>
      </g>
     </g>
    </g>
    <g id="xtick_22">
     <g id="line2d_22">
      <g>
       <use style="stroke:#000000;stroke-width:0.6;" x="204.296662" xlink:href="#m3ad55608a2" y="189"/>
      </g>
     </g>
    </g>
    <g id="xtick_23">
     <g id="line2d_23">
      <g>
       <use style="stroke:#000000;stroke-width:0.6;" x="211.17519" xlink:href="#m3ad55608a2" y="189"/>
      </g>
     </g>
    </g>
    <g id="xtick_24">
     <g id="line2d_24">
      <g>
       <use style="stroke:#000000;stroke-width:0.6;" x="216.795356" xlink:href="#m3ad55608a2" y="189"/>
      </g>
     </g>
    </g>
    <g id="xtick_25">
     <g id="line2d_25">
      <g>
       <use style="stroke:#000000;stroke-width:0.6;" x="221.547139" xlink:href="#m3ad55608a2" y="189"/>
      </g>
     </g>
    </g>
    <g id="xtick_26">
     <g id="line2d_26">
      <g>
       <use style="stroke:#000000;stroke-width:0.6;" x="225.663321" xlink:href="#m3ad55608a2" y="189"/>
      </g>
     </g>
    </g>
    <g id="xtick_27">
     <g id="line2d_27">
      <g>
       <use style="stroke:#000000;stroke-width:0.6;" x="229.29405" xlink:href="#m3ad55608a2" y="189"/>
      </g>
     </g>
    </g>
    <g id="xtick_28">
     <g id="line2d_28">
      <g>
       <use style="stroke:#000000;stroke-width:0.6;" x="253.908507" xlink:href="#m3ad55608a2" y="189"/>
      </g>
     </g>
    </g>
    <g id="xtick_29">
     <g id="line2d_29">
      <g>
       <use style="stroke:#000000;stroke-width:0.6;" x="266.407201" xlink:href="#m3ad55608a2" y="189"/>
      </g>
     </g>
    </g>
    <g id="xtick_30">
     <g id="line2d_30">
      <g>
       <use style="stroke:#000000;stroke-width:0.6;" x="275.275166" xlink:href="#m3ad55608a2" y="189"/>
      </g>
     </g>
    </g>
    <g id="xtick_31">
     <g id="line2d_31">
      <g>
       <use style="stroke:#000000;stroke-width:0.6;" x="282.153694" xlink:href="#m3ad55608a2" y="189"/>
      </g>
     </g>
    </g>
    <g id="xtick_32">
     <g id="line2d_32">
      <g>
       <use style="stroke:#000000;stroke-width:0.6;" x="287.77386" xlink:href="#m3ad55608a2" y="189"/>
      </g>
     </g>
    </g>
    <g id="xtick_33">
     <g id="line2d_33">
      <g>
       <use style="stroke:#000000;stroke-width:0.6;" x="292.525643" xlink:href="#m3ad55608a2" y="189"/>
      </g>
     </g>
    </g>
    <g id="xtick_34">
     <g id="line2d_34">
      <g>
       <use style="stroke:#000000;stroke-width:0.6;" x="296.641825" xlink:href="#m3ad55608a2" y="189"/>
      </g>
     </g>
    </g>
    <g id="xtick_35">
     <g id="line2d_35">
      <g>
       <use style="stroke:#000000;stroke-width:0.6;" x="300.272554" xlink:href="#m3ad55608a2" y="189"/>
      </g>
     </g>
    </g>
    <g id="xtick_36">
     <g id="line2d_36">
      <g>
       <use style="stroke:#000000;stroke-width:0.6;" x="324.887011" xlink:href="#m3ad55608a2" y="189"/>
      </g>
     </g>
    </g>
    <g id="xtick_37">
     <g id="line2d_37">
      <g>
       <use style="stroke:#000000;stroke-width:0.6;" x="337.385705" xlink:href="#m3ad55608a2" y="189"/>
      </g>
     </g>
    </g>
    <g id="xtick_38">
     <g id="line2d_38">
      <g>
       <use style="stroke:#000000;stroke-width:0.6;" x="346.25367" xlink:href="#m3ad55608a2" y="189"/>
      </g>
     </g>
    </g>
    <g id="xtick_39">
     <g id="line2d_39">
      <g>
       <use style="stroke:#000000;stroke-width:0.6;" x="353.132198" xlink:href="#m3ad55608a2" y="189"/>
      </g>
     </g>
    </g>
    <g id="xtick_40">
     <g id="line2d_40">
      <g>
       <use style="stroke:#000000;stroke-width:0.6;" x="358.752364" xlink:href="#m3ad55608a2" y="189"/>
      </g>
     </g>
    </g>
    <g id="xtick_41">
     <g id="line2d_41">
      <g>
       <use style="stroke:#000000;stroke-width:0.6;" x="363.504147" xlink:href="#m3ad55608a2" y="189"/>
      </g>
     </g>
    </g>
    <g id="xtick_42">
     <g id="line2d_42">
      <g>
       <use style="stroke:#000000;stroke-width:0.6;" x="367.620329" xlink:href="#m3ad55608a2" y="189"/>
      </g>
     </g>
    </g>
    <g id="xtick_43">
     <g id="line2d_43">
      <g>
       <use style="stroke:#000000;stroke-width:0.6;" x="371.251058" xlink:href="#m3ad55608a2" y="189"/>
      </g>
     </g>
    </g>
    <g id="text_6">
     <!-- $\lambda r_0^2$ -->
     <g transform="translate(212.22 220.598125)scale(0.12 -0.12)">
      <defs>
       <path d="M 36.71875 67.4375 
L 48.828125 0 
L 39.3125 0 
L 31.84375 40.4375 
L 5.125 0 
L -4.390625 0 
L 29.734375 52.4375 
L 28.03125 62.109375 
Q 26.953125 68.265625 21.734375 68.265625 
L 17.046875 68.265625 
L 18.5 75.984375 
L 24.21875 75.875 
Q 35.203125 75.734375 36.71875 67.4375 
z
" id="DejaVuSans-Oblique-955"/>
       <path d="M 44.578125 46.390625 
Q 43.21875 47.125 41.453125 47.515625 
Q 39.703125 47.90625 37.703125 47.90625 
Q 30.515625 47.90625 25.140625 42.453125 
Q 19.78125 37.015625 18.015625 27.875 
L 12.5 0 
L 3.515625 0 
L 14.203125 54.6875 
L 23.1875 54.6875 
L 21.484375 46.1875 
Q 25.046875 50.921875 30 53.453125 
Q 34.96875 56 40.578125 56 
Q 42.046875 56 43.453125 55.828125 
Q 44.875 55.671875 46.296875 55.28125 
z
" id="DejaVuSans-Oblique-114"/>
      </defs>
      <use transform="translate(0 0.765625)" xlink:href="#DejaVuSans-Oblique-955"/>
      <use transform="translate(59.179688 0.765625)" xlink:href="#DejaVuSans-Oblique-114"/>
      <use transform="translate(104.942865 39.046875)scale(0.7)" xlink:href="#DejaVuSans-50"/>
      <use transform="translate(100.292969 -26.578125)scale(0.7)" xlink:href="#DejaVuSans-48"/>
     </g>
    </g>
   </g>
   <g id="matplotlib.axis_2">
    <g id="ytick_1">
     <g id="line2d_44">
      <defs>
       <path d="M 0 0 
L -3.5 0 
" id="m0178386e87" style="stroke:#000000;stroke-width:0.8;"/>
      </defs>
      <g>
       <use style="stroke:#000000;stroke-width:0.8;" x="54" xlink:href="#m0178386e87" y="181.558465"/>
      </g>
     </g>
     <g id="text_7">
      <!-- $\mathdefault{10^{-8}}$ -->
      <g transform="translate(23.5 185.357684)scale(0.1 -0.1)">
       <defs>
        <path d="M 10.59375 35.5 
L 73.1875 35.5 
L 73.1875 27.203125 
L 10.59375 27.203125 
z
" id="DejaVuSans-8722"/>
        <path d="M 31.78125 34.625 
Q 24.75 34.625 20.71875 30.859375 
Q 16.703125 27.09375 16.703125 20.515625 
Q 16.703125 13.921875 20.71875 10.15625 
Q 24.75 6.390625 31.78125 6.390625 
Q 38.8125 6.390625 42.859375 10.171875 
Q 46.921875 13.96875 46.921875 20.515625 
Q 46.921875 27.09375 42.890625 30.859375 
Q 38.875 34.625 31.78125 34.625 
z
M 21.921875 38.8125 
Q 15.578125 40.375 12.03125 44.71875 
Q 8.5 49.078125 8.5 55.328125 
Q 8.5 64.0625 14.71875 69.140625 
Q 20.953125 74.21875 31.78125 74.21875 
Q 42.671875 74.21875 48.875 69.140625 
Q 55.078125 64.0625 55.078125 55.328125 
Q 55.078125 49.078125 51.53125 44.71875 
Q 48 40.375 41.703125 38.8125 
Q 48.828125 37.15625 52.796875 32.3125 
Q 56.78125 27.484375 56.78125 20.515625 
Q 56.78125 9.90625 50.3125 4.234375 
Q 43.84375 -1.421875 31.78125 -1.421875 
Q 19.734375 -1.421875 13.25 4.234375 
Q 6.78125 9.90625 6.78125 20.515625 
Q 6.78125 27.484375 10.78125 32.3125 
Q 14.796875 37.15625 21.921875 38.8125 
z
M 18.3125 54.390625 
Q 18.3125 48.734375 21.84375 45.5625 
Q 25.390625 42.390625 31.78125 42.390625 
Q 38.140625 42.390625 41.71875 45.5625 
Q 45.3125 48.734375 45.3125 54.390625 
Q 45.3125 60.0625 41.71875 63.234375 
Q 38.140625 66.40625 31.78125 66.40625 
Q 25.390625 66.40625 21.84375 63.234375 
Q 18.3125 60.0625 18.3125 54.390625 
z
" id="DejaVuSans-56"/>
       </defs>
       <use transform="translate(0 0.765625)" xlink:href="#DejaVuSans-49"/>
       <use transform="translate(63.623047 0.765625)" xlink:href="#DejaVuSans-48"/>
       <use transform="translate(128.203125 39.046875)scale(0.7)" xlink:href="#DejaVuSans-8722"/>
       <use transform="translate(186.855469 39.046875)scale(0.7)" xlink:href="#DejaVuSans-56"/>
      </g>
     </g>
    </g>
    <g id="ytick_2">
     <g id="line2d_45">
      <g>
       <use style="stroke:#000000;stroke-width:0.8;" x="54" xlink:href="#m0178386e87" y="153.596779"/>
      </g>
     </g>
     <g id="text_8">
      <!-- $\mathdefault{10^{-7}}$ -->
      <g transform="translate(23.5 157.395997)scale(0.1 -0.1)">
       <defs>
        <path d="M 8.203125 72.90625 
L 55.078125 72.90625 
L 55.078125 68.703125 
L 28.609375 0 
L 18.3125 0 
L 43.21875 64.59375 
L 8.203125 64.59375 
z
" id="DejaVuSans-55"/>
       </defs>
       <use transform="translate(0 0.684375)" xlink:href="#DejaVuSans-49"/>
       <use transform="translate(63.623047 0.684375)" xlink:href="#DejaVuSans-48"/>
       <use transform="translate(128.203125 38.965625)scale(0.7)" xlink:href="#DejaVuSans-8722"/>
       <use transform="translate(186.855469 38.965625)scale(0.7)" xlink:href="#DejaVuSans-55"/>
      </g>
     </g>
    </g>
    <g id="ytick_3">
     <g id="line2d_46">
      <g>
       <use style="stroke:#000000;stroke-width:0.8;" x="54" xlink:href="#m0178386e87" y="125.635092"/>
      </g>
     </g>
     <g id="text_9">
      <!-- $\mathdefault{10^{-6}}$ -->
      <g transform="translate(23.5 129.434311)scale(0.1 -0.1)">
       <use transform="translate(0 0.765625)" xlink:href="#DejaVuSans-49"/>
       <use transform="translate(63.623047 0.765625)" xlink:href="#DejaVuSans-48"/>
       <use transform="translate(128.203125 39.046875)scale(0.7)" xlink:href="#DejaVuSans-8722"/>
       <use transform="translate(186.855469 39.046875)scale(0.7)" xlink:href="#DejaVuSans-54"/>
      </g>
     </g>
    </g>
    <g id="ytick_4">
     <g id="line2d_47">
      <g>
       <use style="stroke:#000000;stroke-width:0.8;" x="54" xlink:href="#m0178386e87" y="97.673406"/>
      </g>
     </g>
     <g id="text_10">
      <!-- $\mathdefault{10^{-5}}$ -->
      <g transform="translate(23.5 101.472625)scale(0.1 -0.1)">
       <use transform="translate(0 0.684375)" xlink:href="#DejaVuSans-49"/>
       <use transform="translate(63.623047 0.684375)" xlink:href="#DejaVuSans-48"/>
       <use transform="translate(128.203125 38.965625)scale(0.7)" xlink:href="#DejaVuSans-8722"/>
       <use transform="translate(186.855469 38.965625)scale(0.7)" xlink:href="#DejaVuSans-53"/>
      </g>
     </g>
    </g>
    <g id="ytick_5">
     <g id="line2d_48">
      <g>
       <use style="stroke:#000000;stroke-width:0.8;" x="54" xlink:href="#m0178386e87" y="69.71172"/>
      </g>
     </g>
     <g id="text_11">
      <!-- $\mathdefault{10^{-4}}$ -->
      <g transform="translate(23.5 73.510939)scale(0.1 -0.1)">
       <use transform="translate(0 0.684375)" xlink:href="#DejaVuSans-49"/>
       <use transform="translate(63.623047 0.684375)" xlink:href="#DejaVuSans-48"/>
       <use transform="translate(128.203125 38.965625)scale(0.7)" xlink:href="#DejaVuSans-8722"/>
       <use transform="translate(186.855469 38.965625)scale(0.7)" xlink:href="#DejaVuSans-52"/>
      </g>
     </g>
    </g>
    <g id="ytick_6">
     <g id="line2d_49">
      <g>
       <use style="stroke:#000000;stroke-width:0.8;" x="54" xlink:href="#m0178386e87" y="41.750034"/>
      </g>
     </g>
     <g id="text_12">
      <!-- $\mathdefault{10^{-3}}$ -->
      <g transform="translate(23.5 45.549252)scale(0.1 -0.1)">
       <use transform="translate(0 0.765625)" xlink:href="#DejaVuSans-49"/>
       <use transform="translate(63.623047 0.765625)" xlink:href="#DejaVuSans-48"/>
       <use transform="translate(128.203125 39.046875)scale(0.7)" xlink:href="#DejaVuSans-8722"/>
       <use transform="translate(186.855469 39.046875)scale(0.7)" xlink:href="#DejaVuSans-51"/>
      </g>
     </g>
    </g>
    <g id="ytick_7">
     <g id="line2d_50">
      <defs>
       <path d="M 0 0 
L -2 0 
" id="mbe70d41e10" style="stroke:#000000;stroke-width:0.6;"/>
      </defs>
      <g>
       <use style="stroke:#000000;stroke-width:0.6;" x="54" xlink:href="#mbe70d41e10" y="187.76173"/>
      </g>
     </g>
    </g>
    <g id="ytick_8">
     <g id="line2d_51">
      <g>
       <use style="stroke:#000000;stroke-width:0.6;" x="54" xlink:href="#mbe70d41e10" y="185.889785"/>
      </g>
     </g>
    </g>
    <g id="ytick_9">
     <g id="line2d_52">
      <g>
       <use style="stroke:#000000;stroke-width:0.6;" x="54" xlink:href="#mbe70d41e10" y="184.268232"/>
      </g>
     </g>
    </g>
    <g id="ytick_10">
     <g id="line2d_53">
      <g>
       <use style="stroke:#000000;stroke-width:0.6;" x="54" xlink:href="#mbe70d41e10" y="182.837921"/>
      </g>
     </g>
    </g>
    <g id="ytick_11">
     <g id="line2d_54">
      <g>
       <use style="stroke:#000000;stroke-width:0.6;" x="54" xlink:href="#mbe70d41e10" y="173.141159"/>
      </g>
     </g>
    </g>
    <g id="ytick_12">
     <g id="line2d_55">
      <g>
       <use style="stroke:#000000;stroke-width:0.6;" x="54" xlink:href="#mbe70d41e10" y="168.21735"/>
      </g>
     </g>
    </g>
    <g id="ytick_13">
     <g id="line2d_56">
      <g>
       <use style="stroke:#000000;stroke-width:0.6;" x="54" xlink:href="#mbe70d41e10" y="164.723852"/>
      </g>
     </g>
    </g>
    <g id="ytick_14">
     <g id="line2d_57">
      <g>
       <use style="stroke:#000000;stroke-width:0.6;" x="54" xlink:href="#mbe70d41e10" y="162.014085"/>
      </g>
     </g>
    </g>
    <g id="ytick_15">
     <g id="line2d_58">
      <g>
       <use style="stroke:#000000;stroke-width:0.6;" x="54" xlink:href="#mbe70d41e10" y="159.800044"/>
      </g>
     </g>
    </g>
    <g id="ytick_16">
     <g id="line2d_59">
      <g>
       <use style="stroke:#000000;stroke-width:0.6;" x="54" xlink:href="#mbe70d41e10" y="157.928099"/>
      </g>
     </g>
    </g>
    <g id="ytick_17">
     <g id="line2d_60">
      <g>
       <use style="stroke:#000000;stroke-width:0.6;" x="54" xlink:href="#mbe70d41e10" y="156.306546"/>
      </g>
     </g>
    </g>
    <g id="ytick_18">
     <g id="line2d_61">
      <g>
       <use style="stroke:#000000;stroke-width:0.6;" x="54" xlink:href="#mbe70d41e10" y="154.876235"/>
      </g>
     </g>
    </g>
    <g id="ytick_19">
     <g id="line2d_62">
      <g>
       <use style="stroke:#000000;stroke-width:0.6;" x="54" xlink:href="#mbe70d41e10" y="145.179472"/>
      </g>
     </g>
    </g>
    <g id="ytick_20">
     <g id="line2d_63">
      <g>
       <use style="stroke:#000000;stroke-width:0.6;" x="54" xlink:href="#mbe70d41e10" y="140.255664"/>
      </g>
     </g>
    </g>
    <g id="ytick_21">
     <g id="line2d_64">
      <g>
       <use style="stroke:#000000;stroke-width:0.6;" x="54" xlink:href="#mbe70d41e10" y="136.762166"/>
      </g>
     </g>
    </g>
    <g id="ytick_22">
     <g id="line2d_65">
      <g>
       <use style="stroke:#000000;stroke-width:0.6;" x="54" xlink:href="#mbe70d41e10" y="134.052399"/>
      </g>
     </g>
    </g>
    <g id="ytick_23">
     <g id="line2d_66">
      <g>
       <use style="stroke:#000000;stroke-width:0.6;" x="54" xlink:href="#mbe70d41e10" y="131.838357"/>
      </g>
     </g>
    </g>
    <g id="ytick_24">
     <g id="line2d_67">
      <g>
       <use style="stroke:#000000;stroke-width:0.6;" x="54" xlink:href="#mbe70d41e10" y="129.966412"/>
      </g>
     </g>
    </g>
    <g id="ytick_25">
     <g id="line2d_68">
      <g>
       <use style="stroke:#000000;stroke-width:0.6;" x="54" xlink:href="#mbe70d41e10" y="128.34486"/>
      </g>
     </g>
    </g>
    <g id="ytick_26">
     <g id="line2d_69">
      <g>
       <use style="stroke:#000000;stroke-width:0.6;" x="54" xlink:href="#mbe70d41e10" y="126.914549"/>
      </g>
     </g>
    </g>
    <g id="ytick_27">
     <g id="line2d_70">
      <g>
       <use style="stroke:#000000;stroke-width:0.6;" x="54" xlink:href="#mbe70d41e10" y="117.217786"/>
      </g>
     </g>
    </g>
    <g id="ytick_28">
     <g id="line2d_71">
      <g>
       <use style="stroke:#000000;stroke-width:0.6;" x="54" xlink:href="#mbe70d41e10" y="112.293977"/>
      </g>
     </g>
    </g>
    <g id="ytick_29">
     <g id="line2d_72">
      <g>
       <use style="stroke:#000000;stroke-width:0.6;" x="54" xlink:href="#mbe70d41e10" y="108.80048"/>
      </g>
     </g>
    </g>
    <g id="ytick_30">
     <g id="line2d_73">
      <g>
       <use style="stroke:#000000;stroke-width:0.6;" x="54" xlink:href="#mbe70d41e10" y="106.090712"/>
      </g>
     </g>
    </g>
    <g id="ytick_31">
     <g id="line2d_74">
      <g>
       <use style="stroke:#000000;stroke-width:0.6;" x="54" xlink:href="#mbe70d41e10" y="103.876671"/>
      </g>
     </g>
    </g>
    <g id="ytick_32">
     <g id="line2d_75">
      <g>
       <use style="stroke:#000000;stroke-width:0.6;" x="54" xlink:href="#mbe70d41e10" y="102.004726"/>
      </g>
     </g>
    </g>
    <g id="ytick_33">
     <g id="line2d_76">
      <g>
       <use style="stroke:#000000;stroke-width:0.6;" x="54" xlink:href="#mbe70d41e10" y="100.383173"/>
      </g>
     </g>
    </g>
    <g id="ytick_34">
     <g id="line2d_77">
      <g>
       <use style="stroke:#000000;stroke-width:0.6;" x="54" xlink:href="#mbe70d41e10" y="98.952863"/>
      </g>
     </g>
    </g>
    <g id="ytick_35">
     <g id="line2d_78">
      <g>
       <use style="stroke:#000000;stroke-width:0.6;" x="54" xlink:href="#mbe70d41e10" y="89.2561"/>
      </g>
     </g>
    </g>
    <g id="ytick_36">
     <g id="line2d_79">
      <g>
       <use style="stroke:#000000;stroke-width:0.6;" x="54" xlink:href="#mbe70d41e10" y="84.332291"/>
      </g>
     </g>
    </g>
    <g id="ytick_37">
     <g id="line2d_80">
      <g>
       <use style="stroke:#000000;stroke-width:0.6;" x="54" xlink:href="#mbe70d41e10" y="80.838793"/>
      </g>
     </g>
    </g>
    <g id="ytick_38">
     <g id="line2d_81">
      <g>
       <use style="stroke:#000000;stroke-width:0.6;" x="54" xlink:href="#mbe70d41e10" y="78.129026"/>
      </g>
     </g>
    </g>
    <g id="ytick_39">
     <g id="line2d_82">
      <g>
       <use style="stroke:#000000;stroke-width:0.6;" x="54" xlink:href="#mbe70d41e10" y="75.914985"/>
      </g>
     </g>
    </g>
    <g id="ytick_40">
     <g id="line2d_83">
      <g>
       <use style="stroke:#000000;stroke-width:0.6;" x="54" xlink:href="#mbe70d41e10" y="74.04304"/>
      </g>
     </g>
    </g>
    <g id="ytick_41">
     <g id="line2d_84">
      <g>
       <use style="stroke:#000000;stroke-width:0.6;" x="54" xlink:href="#mbe70d41e10" y="72.421487"/>
      </g>
     </g>
    </g>
    <g id="ytick_42">
     <g id="line2d_85">
      <g>
       <use style="stroke:#000000;stroke-width:0.6;" x="54" xlink:href="#mbe70d41e10" y="70.991176"/>
      </g>
     </g>
    </g>
    <g id="ytick_43">
     <g id="line2d_86">
      <g>
       <use style="stroke:#000000;stroke-width:0.6;" x="54" xlink:href="#mbe70d41e10" y="61.294414"/>
      </g>
     </g>
    </g>
    <g id="ytick_44">
     <g id="line2d_87">
      <g>
       <use style="stroke:#000000;stroke-width:0.6;" x="54" xlink:href="#mbe70d41e10" y="56.370605"/>
      </g>
     </g>
    </g>
    <g id="ytick_45">
     <g id="line2d_88">
      <g>
       <use style="stroke:#000000;stroke-width:0.6;" x="54" xlink:href="#mbe70d41e10" y="52.877107"/>
      </g>
     </g>
    </g>
    <g id="ytick_46">
     <g id="line2d_89">
      <g>
       <use style="stroke:#000000;stroke-width:0.6;" x="54" xlink:href="#mbe70d41e10" y="50.16734"/>
      </g>
     </g>
    </g>
    <g id="ytick_47">
     <g id="line2d_90">
      <g>
       <use style="stroke:#000000;stroke-width:0.6;" x="54" xlink:href="#mbe70d41e10" y="47.953299"/>
      </g>
     </g>
    </g>
    <g id="ytick_48">
     <g id="line2d_91">
      <g>
       <use style="stroke:#000000;stroke-width:0.6;" x="54" xlink:href="#mbe70d41e10" y="46.081354"/>
      </g>
     </g>
    </g>
    <g id="ytick_49">
     <g id="line2d_92">
      <g>
       <use style="stroke:#000000;stroke-width:0.6;" x="54" xlink:href="#mbe70d41e10" y="44.459801"/>
      </g>
     </g>
    </g>
    <g id="ytick_50">
     <g id="line2d_93">
      <g>
       <use style="stroke:#000000;stroke-width:0.6;" x="54" xlink:href="#mbe70d41e10" y="43.02949"/>
      </g>
     </g>
    </g>
    <g id="ytick_51">
     <g id="line2d_94">
      <g>
       <use style="stroke:#000000;stroke-width:0.6;" x="54" xlink:href="#mbe70d41e10" y="33.332727"/>
      </g>
     </g>
    </g>
    <g id="ytick_52">
     <g id="line2d_95">
      <g>
       <use style="stroke:#000000;stroke-width:0.6;" x="54" xlink:href="#mbe70d41e10" y="28.408919"/>
      </g>
     </g>
    </g>
    <g id="text_13">
     <!-- $D^*/r_0^2$ -->
     <g transform="translate(16.02 124.02)rotate(-90)scale(0.12 -0.12)">
      <defs>
       <path d="M 16.890625 72.90625 
L 38.09375 72.90625 
Q 54.984375 72.90625 63.59375 65.75 
Q 72.21875 58.59375 72.21875 44.484375 
Q 72.21875 35.15625 68.9375 26.53125 
Q 65.671875 17.921875 59.90625 12.015625 
Q 54.109375 5.953125 45.171875 2.96875 
Q 36.234375 0 24.03125 0 
L 2.6875 0 
z
M 25.203125 64.796875 
L 14.203125 8.109375 
L 27.09375 8.109375 
Q 43.65625 8.109375 52.734375 17.625 
Q 61.8125 27.15625 61.8125 44.484375 
Q 61.8125 54.984375 55.953125 59.890625 
Q 50.09375 64.796875 37.59375 64.796875 
z
" id="DejaVuSans-Oblique-68"/>
       <path d="M 47.015625 60.890625 
L 29.5 51.421875 
L 47.015625 41.890625 
L 44.1875 37.109375 
L 27.78125 47.015625 
L 27.78125 28.609375 
L 22.21875 28.609375 
L 22.21875 47.015625 
L 5.8125 37.109375 
L 2.984375 41.890625 
L 20.515625 51.421875 
L 2.984375 60.890625 
L 5.8125 65.71875 
L 22.21875 55.8125 
L 22.21875 74.21875 
L 27.78125 74.21875 
L 27.78125 55.8125 
L 44.1875 65.71875 
z
" id="DejaVuSans-42"/>
       <path d="M 25.390625 72.90625 
L 33.6875 72.90625 
L 8.296875 -9.28125 
L 0 -9.28125 
z
" id="DejaVuSans-47"/>
      </defs>
      <use transform="translate(0 0.765625)" xlink:href="#DejaVuSans-Oblique-68"/>
      <use transform="translate(97.656419 39.046875)scale(0.7)" xlink:href="#DejaVuSans-42"/>
      <use transform="translate(149.02849 0.765625)" xlink:href="#DejaVuSans-47"/>
      <use transform="translate(182.719896 0.765625)" xlink:href="#DejaVuSans-Oblique-114"/>
      <use transform="translate(228.483073 39.046875)scale(0.7)" xlink:href="#DejaVuSans-50"/>
      <use transform="translate(223.833177 -26.578125)scale(0.7)" xlink:href="#DejaVuSans-48"/>
     </g>
    </g>
   </g>
   <g id="line2d_96">
    <path clip-path="url(#p9a90a8bd35)" d="M 213.458771 90.056864 
L 231.488845 98.979727 
L 249.518918 108.205819 
L 267.548992 117.761343 
L 285.579066 127.666699 
L 303.609139 137.934022 
L 321.639213 148.566177 
L 341.891865 160.937759 
L 357.111071 170.526336 
L 373.581818 181.181635 
" style="fill:none;stroke:#000000;stroke-dasharray:11.1,4.8;stroke-dashoffset:0;stroke-width:3;"/>
   </g>
   <g id="line2d_97">
    <path clip-path="url(#p9a90a8bd35)" d="M 69.218182 33.332727 
L 87.248255 40.4356 
L 105.278329 47.538472 
L 123.308403 54.641345 
L 141.338476 61.744217 
L 159.36855 68.84709 
L 177.398624 75.949962 
L 195.428697 83.052835 
L 213.458771 90.155707 
L 231.488845 97.25858 
L 249.518918 104.361452 
L 267.548992 111.464325 
L 285.579066 118.567197 
L 303.609139 125.67007 
L 321.639213 132.772942 
L 341.891865 140.75139 
L 357.111071 146.746933 
L 373.581818 153.235515 
" style="fill:none;stroke:#000000;stroke-dasharray:3,4.95;stroke-dashoffset:0;stroke-width:3;"/>
   </g>
   <g id="patch_3">
    <path d="M 54 189 
L 54 25.92 
" style="fill:none;stroke:#000000;stroke-linecap:square;stroke-linejoin:miter;stroke-width:0.8;"/>
   </g>
   <g id="patch_4">
    <path d="M 388.8 189 
L 388.8 25.92 
" style="fill:none;stroke:#000000;stroke-linecap:square;stroke-linejoin:miter;stroke-width:0.8;"/>
   </g>
   <g id="patch_5">
    <path d="M 54 189 
L 388.8 189 
" style="fill:none;stroke:#000000;stroke-linecap:square;stroke-linejoin:miter;stroke-width:0.8;"/>
   </g>
   <g id="patch_6">
    <path d="M 54 25.92 
L 388.8 25.92 
" style="fill:none;stroke:#000000;stroke-linecap:square;stroke-linejoin:miter;stroke-width:0.8;"/>
   </g>
   <g id="legend_1">
    <g id="patch_7">
     <path d="M 294.24 88.36125 
L 380.4 88.36125 
Q 382.8 88.36125 382.8 85.96125 
L 382.8 34.32 
Q 382.8 31.92 380.4 31.92 
L 294.24 31.92 
Q 291.84 31.92 291.84 34.32 
L 291.84 85.96125 
Q 291.84 88.36125 294.24 88.36125 
z
" style="fill:#ffffff;opacity:0.8;stroke:#cccccc;stroke-linejoin:miter;"/>
    </g>
    <g id="PathCollection_4">
     <path d="M 308.64 46.561108 
C 309.667127 46.561108 310.652324 46.153026 311.378613 45.426738 
C 312.104901 44.700449 312.512983 43.715252 312.512983 42.688125 
C 312.512983 41.660998 312.104901 40.675801 311.378613 39.949512 
C 310.652324 39.223224 309.667127 38.815142 308.64 38.815142 
C 307.612873 38.815142 306.627676 39.223224 305.901387 39.949512 
C 305.175099 40.675801 304.767017 41.660998 304.767017 42.688125 
C 304.767017 43.715252 305.175099 44.700449 305.901387 45.426738 
C 306.627676 46.153026 307.612873 46.561108 308.64 46.561108 
z
" style="fill:none;stroke:#0000ff;"/>
    </g>
    <g id="text_14">
     <!-- $\lambda$ = 800 -->
     <g transform="translate(330.24 45.838125)scale(0.12 -0.12)">
      <defs>
       <path id="DejaVuSans-32"/>
       <path d="M 10.59375 45.40625 
L 73.1875 45.40625 
L 73.1875 37.203125 
L 10.59375 37.203125 
z
M 10.59375 25.484375 
L 73.1875 25.484375 
L 73.1875 17.1875 
L 10.59375 17.1875 
z
" id="DejaVuSans-61"/>
      </defs>
      <use transform="translate(0 0.015625)" xlink:href="#DejaVuSans-Oblique-955"/>
      <use transform="translate(59.179688 0.015625)" xlink:href="#DejaVuSans-32"/>
      <use transform="translate(90.966797 0.015625)" xlink:href="#DejaVuSans-61"/>
      <use transform="translate(174.755859 0.015625)" xlink:href="#DejaVuSans-32"/>
      <use transform="translate(206.542969 0.015625)" xlink:href="#DejaVuSans-56"/>
      <use transform="translate(270.166016 0.015625)" xlink:href="#DejaVuSans-48"/>
      <use transform="translate(333.789062 0.015625)" xlink:href="#DejaVuSans-48"/>
     </g>
    </g>
    <g id="PathCollection_5">
     <path d="M 304.767017 64.174858 
L 312.512983 64.174858 
L 312.512983 56.428892 
L 304.767017 56.428892 
z
" style="fill:none;stroke:#a2cffe;"/>
    </g>
    <g id="text_15">
     <!-- $\lambda$ = 200 -->
     <g transform="translate(330.24 63.451875)scale(0.12 -0.12)">
      <use transform="translate(0 0.015625)" xlink:href="#DejaVuSans-Oblique-955"/>
      <use transform="translate(59.179688 0.015625)" xlink:href="#DejaVuSans-32"/>
      <use transform="translate(90.966797 0.015625)" xlink:href="#DejaVuSans-61"/>
      <use transform="translate(174.755859 0.015625)" xlink:href="#DejaVuSans-32"/>
      <use transform="translate(206.542969 0.015625)" xlink:href="#DejaVuSans-50"/>
      <use transform="translate(270.166016 0.015625)" xlink:href="#DejaVuSans-48"/>
      <use transform="translate(333.789062 0.015625)" xlink:href="#DejaVuSans-48"/>
     </g>
    </g>
    <g id="PathCollection_6">
     <path d="M 308.64 81.788608 
L 312.512983 74.042642 
L 304.767017 74.042642 
z
" style="fill:none;stroke:#2c6fbb;"/>
    </g>
    <g id="text_16">
     <!-- $\lambda$ = 50 -->
     <g transform="translate(330.24 81.065625)scale(0.12 -0.12)">
      <use transform="translate(0 0.015625)" xlink:href="#DejaVuSans-Oblique-955"/>
      <use transform="translate(59.179688 0.015625)" xlink:href="#DejaVuSans-32"/>
      <use transform="translate(90.966797 0.015625)" xlink:href="#DejaVuSans-61"/>
      <use transform="translate(174.755859 0.015625)" xlink:href="#DejaVuSans-32"/>
      <use transform="translate(206.542969 0.015625)" xlink:href="#DejaVuSans-53"/>
      <use transform="translate(270.166016 0.015625)" xlink:href="#DejaVuSans-48"/>
     </g>
    </g>
   </g>
  </g>
 </g>
 <defs>
  <clipPath id="p9a90a8bd35">
   <rect height="163.08" width="334.8" x="54" y="25.92"/>
  </clipPath>
 </defs>
</svg>
