<?xml version="1.0" encoding="utf-8" standalone="no"?>
<!DOCTYPE svg PUBLIC "-//W3C//DTD SVG 1.1//EN"
  "http://www.w3.org/Graphics/SVG/1.1/DTD/svg11.dtd">
<!-- Created with matplotlib (https://matplotlib.org/) -->
<svg height="216pt" version="1.1" viewBox="0 0 252 216" width="252pt" xmlns="http://www.w3.org/2000/svg" xmlns:xlink="http://www.w3.org/1999/xlink">
 <metadata>
  <rdf:RDF xmlns:cc="http://creativecommons.org/ns#" xmlns:dc="http://purl.org/dc/elements/1.1/" xmlns:rdf="http://www.w3.org/1999/02/22-rdf-syntax-ns#">
   <cc:Work>
    <dc:type rdf:resource="http://purl.org/dc/dcmitype/StillImage"/>
    <dc:date>2023-07-05T13:43:25.296792</dc:date>
    <dc:format>image/svg+xml</dc:format>
    <dc:creator>
     <cc:Agent>
      <dc:title>Matplotlib v3.3.4, https://matplotlib.org/</dc:title>
     </cc:Agent>
    </dc:creator>
   </cc:Work>
  </rdf:RDF>
 </metadata>
 <defs>
  <style type="text/css">*{stroke-linecap:butt;stroke-linejoin:round;}</style>
 </defs>
 <g id="figure_1">
  <g id="patch_1">
   <path d="M 0 216 
L 252 216 
L 252 0 
L 0 0 
z
" style="fill:none;"/>
  </g>
  <g id="axes_1">
   <g id="patch_2">
    <path d="M 31.5 189 
L 226.8 189 
L 226.8 25.92 
L 31.5 25.92 
z
" style="fill:#ffffff;"/>
   </g>
   <g id="PathCollection_1">
    <defs>
     <path d="M 0 5 
C 1.326016 5 2.597899 4.473168 3.535534 3.535534 
C 4.473168 2.597899 5 1.326016 5 -0 
C 5 -1.326016 4.473168 -2.597899 3.535534 -3.535534 
C 2.597899 -4.473168 1.326016 -5 0 -5 
C -1.326016 -5 -2.597899 -4.473168 -3.535534 -3.535534 
C -4.473168 -2.597899 -5 -1.326016 -5 0 
C -5 1.326016 -4.473168 2.597899 -3.535534 3.535534 
C -2.597899 4.473168 -1.326016 5 0 5 
z
" id="C0_0_d1c66f45be"/>
    </defs>
    <g clip-path="url(#pb563513648)">
     <use style="fill:none;stroke:#ff0000;" x="40.377273" xlink:href="#C0_0_d1c66f45be" y="41.294576"/>
    </g>
    <g clip-path="url(#pb563513648)">
     <use style="fill:none;stroke:#ff0000;" x="50.894816" xlink:href="#C0_0_d1c66f45be" y="42.392046"/>
    </g>
    <g clip-path="url(#pb563513648)">
     <use style="fill:none;stroke:#ff0000;" x="61.412359" xlink:href="#C0_0_d1c66f45be" y="44.214718"/>
    </g>
    <g clip-path="url(#pb563513648)">
     <use style="fill:none;stroke:#ff0000;" x="71.929902" xlink:href="#C0_0_d1c66f45be" y="46.567291"/>
    </g>
    <g clip-path="url(#pb563513648)">
     <use style="fill:none;stroke:#ff0000;" x="82.447445" xlink:href="#C0_0_d1c66f45be" y="49.633156"/>
    </g>
    <g clip-path="url(#pb563513648)">
     <use style="fill:none;stroke:#ff0000;" x="92.964988" xlink:href="#C0_0_d1c66f45be" y="54.366431"/>
    </g>
    <g clip-path="url(#pb563513648)">
     <use style="fill:none;stroke:#ff0000;" x="103.48253" xlink:href="#C0_0_d1c66f45be" y="60.379228"/>
    </g>
    <g clip-path="url(#pb563513648)">
     <use style="fill:none;stroke:#ff0000;" x="114.000073" xlink:href="#C0_0_d1c66f45be" y="68.061806"/>
    </g>
    <g clip-path="url(#pb563513648)">
     <use style="fill:none;stroke:#ff0000;" x="124.517616" xlink:href="#C0_0_d1c66f45be" y="77.232842"/>
    </g>
    <g clip-path="url(#pb563513648)">
     <use style="fill:none;stroke:#ff0000;" x="135.035159" xlink:href="#C0_0_d1c66f45be" y="88.977682"/>
    </g>
    <g clip-path="url(#pb563513648)">
     <use style="fill:none;stroke:#ff0000;" x="145.552702" xlink:href="#C0_0_d1c66f45be" y="102.190393"/>
    </g>
    <g clip-path="url(#pb563513648)">
     <use style="fill:none;stroke:#ff0000;" x="156.070245" xlink:href="#C0_0_d1c66f45be" y="115.849362"/>
    </g>
    <g clip-path="url(#pb563513648)">
     <use style="fill:none;stroke:#ff0000;" x="166.587788" xlink:href="#C0_0_d1c66f45be" y="129.517641"/>
    </g>
    <g clip-path="url(#pb563513648)">
     <use style="fill:none;stroke:#ff0000;" x="177.105331" xlink:href="#C0_0_d1c66f45be" y="142.240451"/>
    </g>
    <g clip-path="url(#pb563513648)">
     <use style="fill:none;stroke:#ff0000;" x="187.622874" xlink:href="#C0_0_d1c66f45be" y="151.83827"/>
    </g>
    <g clip-path="url(#pb563513648)">
     <use style="fill:none;stroke:#ff0000;" x="199.436921" xlink:href="#C0_0_d1c66f45be" y="165.400372"/>
    </g>
    <g clip-path="url(#pb563513648)">
     <use style="fill:none;stroke:#ff0000;" x="208.314792" xlink:href="#C0_0_d1c66f45be" y="172.708858"/>
    </g>
    <g clip-path="url(#pb563513648)">
     <use style="fill:none;stroke:#ff0000;" x="217.922727" xlink:href="#C0_0_d1c66f45be" y="179.186001"/>
    </g>
   </g>
   <g id="PathCollection_2">
    <defs>
     <path d="M -5 0 
L 5 0 
M 0 5 
L 0 -5 
" id="m6072b8bbe1" style="stroke:#1f77b4;stroke-width:1.5;"/>
    </defs>
    <g clip-path="url(#pb563513648)">
     <use style="fill:#1f77b4;stroke:#1f77b4;stroke-width:1.5;" x="40.377273" xlink:href="#m6072b8bbe1" y="41.621149"/>
     <use style="fill:#1f77b4;stroke:#1f77b4;stroke-width:1.5;" x="50.894816" xlink:href="#m6072b8bbe1" y="42.581638"/>
     <use style="fill:#1f77b4;stroke:#1f77b4;stroke-width:1.5;" x="61.412359" xlink:href="#m6072b8bbe1" y="43.780912"/>
     <use style="fill:#1f77b4;stroke:#1f77b4;stroke-width:1.5;" x="71.929902" xlink:href="#m6072b8bbe1" y="45.978557"/>
     <use style="fill:#1f77b4;stroke:#1f77b4;stroke-width:1.5;" x="82.447445" xlink:href="#m6072b8bbe1" y="49.082781"/>
     <use style="fill:#1f77b4;stroke:#1f77b4;stroke-width:1.5;" x="92.964988" xlink:href="#m6072b8bbe1" y="53.386886"/>
     <use style="fill:#1f77b4;stroke:#1f77b4;stroke-width:1.5;" x="103.48253" xlink:href="#m6072b8bbe1" y="59.782946"/>
     <use style="fill:#1f77b4;stroke:#1f77b4;stroke-width:1.5;" x="114.000073" xlink:href="#m6072b8bbe1" y="67.917619"/>
     <use style="fill:#1f77b4;stroke:#1f77b4;stroke-width:1.5;" x="124.517616" xlink:href="#m6072b8bbe1" y="78.00677"/>
     <use style="fill:#1f77b4;stroke:#1f77b4;stroke-width:1.5;" x="135.035159" xlink:href="#m6072b8bbe1" y="89.654748"/>
     <use style="fill:#1f77b4;stroke:#1f77b4;stroke-width:1.5;" x="145.552702" xlink:href="#m6072b8bbe1" y="102.946094"/>
     <use style="fill:#1f77b4;stroke:#1f77b4;stroke-width:1.5;" x="156.070245" xlink:href="#m6072b8bbe1" y="117.095838"/>
     <use style="fill:#1f77b4;stroke:#1f77b4;stroke-width:1.5;" x="166.587788" xlink:href="#m6072b8bbe1" y="131.513914"/>
     <use style="fill:#1f77b4;stroke:#1f77b4;stroke-width:1.5;" x="177.105331" xlink:href="#m6072b8bbe1" y="145.123411"/>
     <use style="fill:#1f77b4;stroke:#1f77b4;stroke-width:1.5;" x="187.622874" xlink:href="#m6072b8bbe1" y="157.821902"/>
     <use style="fill:#1f77b4;stroke:#1f77b4;stroke-width:1.5;" x="199.436921" xlink:href="#m6072b8bbe1" y="167.060025"/>
     <use style="fill:#1f77b4;stroke:#1f77b4;stroke-width:1.5;" x="208.314792" xlink:href="#m6072b8bbe1" y="174.791866"/>
     <use style="fill:#1f77b4;stroke:#1f77b4;stroke-width:1.5;" x="217.922727" xlink:href="#m6072b8bbe1" y="181.587273"/>
    </g>
   </g>
   <g id="PathCollection_3">
    <path clip-path="url(#pb563513648)" d="M 45.377273 42.979753 
L 35.377273 37.979753 
L 35.377273 47.979753 
z
" style="fill:none;stroke:#008000;"/>
    <path clip-path="url(#pb563513648)" d="M 55.894816 44.11076 
L 45.894816 39.11076 
L 45.894816 49.11076 
z
" style="fill:none;stroke:#008000;"/>
    <path clip-path="url(#pb563513648)" d="M 66.412359 45.769179 
L 56.412359 40.769179 
L 56.412359 50.769179 
z
" style="fill:none;stroke:#008000;"/>
    <path clip-path="url(#pb563513648)" d="M 76.929902 48.509241 
L 66.929902 43.509241 
L 66.929902 53.509241 
z
" style="fill:none;stroke:#008000;"/>
    <path clip-path="url(#pb563513648)" d="M 87.447445 52.115683 
L 77.447445 47.115683 
L 77.447445 57.115683 
z
" style="fill:none;stroke:#008000;"/>
    <path clip-path="url(#pb563513648)" d="M 97.964988 57.19293 
L 87.964988 52.19293 
L 87.964988 62.19293 
z
" style="fill:none;stroke:#008000;"/>
    <path clip-path="url(#pb563513648)" d="M 108.48253 63.68234 
L 98.48253 58.68234 
L 98.48253 68.68234 
z
" style="fill:none;stroke:#008000;"/>
    <path clip-path="url(#pb563513648)" d="M 119.000073 72.898365 
L 109.000073 67.898365 
L 109.000073 77.898365 
z
" style="fill:none;stroke:#008000;"/>
    <path clip-path="url(#pb563513648)" d="M 129.517616 83.62862 
L 119.517616 78.62862 
L 119.517616 88.62862 
z
" style="fill:none;stroke:#008000;"/>
    <path clip-path="url(#pb563513648)" d="M 140.035159 95.813648 
L 130.035159 90.813648 
L 130.035159 100.813648 
z
" style="fill:none;stroke:#008000;"/>
    <path clip-path="url(#pb563513648)" d="M 150.552702 109.806434 
L 140.552702 104.806434 
L 140.552702 114.806434 
z
" style="fill:none;stroke:#008000;"/>
    <path clip-path="url(#pb563513648)" d="M 161.070245 124.097212 
L 151.070245 119.097212 
L 151.070245 129.097212 
z
" style="fill:none;stroke:#008000;"/>
    <path clip-path="url(#pb563513648)" d="M 171.587788 137.959968 
L 161.587788 132.959968 
L 161.587788 142.959968 
z
" style="fill:none;stroke:#008000;"/>
    <path clip-path="url(#pb563513648)" d="M 182.105331 151.298719 
L 172.105331 146.298719 
L 172.105331 156.298719 
z
" style="fill:none;stroke:#008000;"/>
    <path clip-path="url(#pb563513648)" d="M 192.622874 162.831023 
L 182.622874 157.831023 
L 182.622874 167.831023 
z
" style="fill:none;stroke:#008000;"/>
    <path clip-path="url(#pb563513648)" d="M 204.436921 168.222344 
L 194.436921 163.222344 
L 194.436921 173.222344 
z
" style="fill:none;stroke:#008000;"/>
    <path clip-path="url(#pb563513648)" d="M 213.314792 174.429534 
L 203.314792 169.429534 
L 203.314792 179.429534 
z
" style="fill:none;stroke:#008000;"/>
    <path clip-path="url(#pb563513648)" d="M 222.922727 179.856525 
L 212.922727 174.856525 
L 212.922727 184.856525 
z
" style="fill:none;stroke:#008000;"/>
   </g>
   <g id="matplotlib.axis_1">
    <g id="xtick_1">
     <g id="line2d_1">
      <defs>
       <path d="M 0 0 
L 0 3.5 
" id="m5e73a14d76" style="stroke:#000000;stroke-width:0.8;"/>
      </defs>
      <g>
       <use style="stroke:#000000;stroke-width:0.8;" x="65.305041" xlink:href="#m5e73a14d76" y="189"/>
      </g>
     </g>
     <g id="text_1">
      <!-- $\mathdefault{10^{0}}$ -->
      <g transform="translate(56.505041 203.598437)scale(0.1 -0.1)">
       <defs>
        <path d="M 12.40625 8.296875 
L 28.515625 8.296875 
L 28.515625 63.921875 
L 10.984375 60.40625 
L 10.984375 69.390625 
L 28.421875 72.90625 
L 38.28125 72.90625 
L 38.28125 8.296875 
L 54.390625 8.296875 
L 54.390625 0 
L 12.40625 0 
z
" id="DejaVuSans-49"/>
        <path d="M 31.78125 66.40625 
Q 24.171875 66.40625 20.328125 58.90625 
Q 16.5 51.421875 16.5 36.375 
Q 16.5 21.390625 20.328125 13.890625 
Q 24.171875 6.390625 31.78125 6.390625 
Q 39.453125 6.390625 43.28125 13.890625 
Q 47.125 21.390625 47.125 36.375 
Q 47.125 51.421875 43.28125 58.90625 
Q 39.453125 66.40625 31.78125 66.40625 
z
M 31.78125 74.21875 
Q 44.046875 74.21875 50.515625 64.515625 
Q 56.984375 54.828125 56.984375 36.375 
Q 56.984375 17.96875 50.515625 8.265625 
Q 44.046875 -1.421875 31.78125 -1.421875 
Q 19.53125 -1.421875 13.0625 8.265625 
Q 6.59375 17.96875 6.59375 36.375 
Q 6.59375 54.828125 13.0625 64.515625 
Q 19.53125 74.21875 31.78125 74.21875 
z
" id="DejaVuSans-48"/>
       </defs>
       <use transform="translate(0 0.765625)" xlink:href="#DejaVuSans-49"/>
       <use transform="translate(63.623047 0.765625)" xlink:href="#DejaVuSans-48"/>
       <use transform="translate(128.203125 39.046875)scale(0.7)" xlink:href="#DejaVuSans-48"/>
      </g>
     </g>
    </g>
    <g id="xtick_2">
     <g id="line2d_2">
      <g>
       <use style="stroke:#000000;stroke-width:0.8;" x="148.113296" xlink:href="#m5e73a14d76" y="189"/>
      </g>
     </g>
     <g id="text_2">
      <!-- $\mathdefault{10^{1}}$ -->
      <g transform="translate(139.313296 203.598437)scale(0.1 -0.1)">
       <use transform="translate(0 0.684375)" xlink:href="#DejaVuSans-49"/>
       <use transform="translate(63.623047 0.684375)" xlink:href="#DejaVuSans-48"/>
       <use transform="translate(128.203125 38.965625)scale(0.7)" xlink:href="#DejaVuSans-49"/>
      </g>
     </g>
    </g>
    <g id="xtick_3">
     <g id="line2d_3">
      <defs>
       <path d="M 0 0 
L 0 2 
" id="m6d53899189" style="stroke:#000000;stroke-width:0.6;"/>
      </defs>
      <g>
       <use style="stroke:#000000;stroke-width:0.6;" x="32.352324" xlink:href="#m6d53899189" y="189"/>
      </g>
     </g>
    </g>
    <g id="xtick_4">
     <g id="line2d_4">
      <g>
       <use style="stroke:#000000;stroke-width:0.6;" x="40.377273" xlink:href="#m6d53899189" y="189"/>
      </g>
     </g>
    </g>
    <g id="xtick_5">
     <g id="line2d_5">
      <g>
       <use style="stroke:#000000;stroke-width:0.6;" x="46.934134" xlink:href="#m6d53899189" y="189"/>
      </g>
     </g>
    </g>
    <g id="xtick_6">
     <g id="line2d_6">
      <g>
       <use style="stroke:#000000;stroke-width:0.6;" x="52.47788" xlink:href="#m6d53899189" y="189"/>
      </g>
     </g>
    </g>
    <g id="xtick_7">
     <g id="line2d_7">
      <g>
       <use style="stroke:#000000;stroke-width:0.6;" x="57.280092" xlink:href="#m6d53899189" y="189"/>
      </g>
     </g>
    </g>
    <g id="xtick_8">
     <g id="line2d_8">
      <g>
       <use style="stroke:#000000;stroke-width:0.6;" x="61.515943" xlink:href="#m6d53899189" y="189"/>
      </g>
     </g>
    </g>
    <g id="xtick_9">
     <g id="line2d_9">
      <g>
       <use style="stroke:#000000;stroke-width:0.6;" x="90.23281" xlink:href="#m6d53899189" y="189"/>
      </g>
     </g>
    </g>
    <g id="xtick_10">
     <g id="line2d_10">
      <g>
       <use style="stroke:#000000;stroke-width:0.6;" x="104.81462" xlink:href="#m6d53899189" y="189"/>
      </g>
     </g>
    </g>
    <g id="xtick_11">
     <g id="line2d_11">
      <g>
       <use style="stroke:#000000;stroke-width:0.6;" x="115.160578" xlink:href="#m6d53899189" y="189"/>
      </g>
     </g>
    </g>
    <g id="xtick_12">
     <g id="line2d_12">
      <g>
       <use style="stroke:#000000;stroke-width:0.6;" x="123.185527" xlink:href="#m6d53899189" y="189"/>
      </g>
     </g>
    </g>
    <g id="xtick_13">
     <g id="line2d_13">
      <g>
       <use style="stroke:#000000;stroke-width:0.6;" x="129.742388" xlink:href="#m6d53899189" y="189"/>
      </g>
     </g>
    </g>
    <g id="xtick_14">
     <g id="line2d_14">
      <g>
       <use style="stroke:#000000;stroke-width:0.6;" x="135.286135" xlink:href="#m6d53899189" y="189"/>
      </g>
     </g>
    </g>
    <g id="xtick_15">
     <g id="line2d_15">
      <g>
       <use style="stroke:#000000;stroke-width:0.6;" x="140.088347" xlink:href="#m6d53899189" y="189"/>
      </g>
     </g>
    </g>
    <g id="xtick_16">
     <g id="line2d_16">
      <g>
       <use style="stroke:#000000;stroke-width:0.6;" x="144.324198" xlink:href="#m6d53899189" y="189"/>
      </g>
     </g>
    </g>
    <g id="xtick_17">
     <g id="line2d_17">
      <g>
       <use style="stroke:#000000;stroke-width:0.6;" x="173.041064" xlink:href="#m6d53899189" y="189"/>
      </g>
     </g>
    </g>
    <g id="xtick_18">
     <g id="line2d_18">
      <g>
       <use style="stroke:#000000;stroke-width:0.6;" x="187.622874" xlink:href="#m6d53899189" y="189"/>
      </g>
     </g>
    </g>
    <g id="xtick_19">
     <g id="line2d_19">
      <g>
       <use style="stroke:#000000;stroke-width:0.6;" x="197.968833" xlink:href="#m6d53899189" y="189"/>
      </g>
     </g>
    </g>
    <g id="xtick_20">
     <g id="line2d_20">
      <g>
       <use style="stroke:#000000;stroke-width:0.6;" x="205.993782" xlink:href="#m6d53899189" y="189"/>
      </g>
     </g>
    </g>
    <g id="xtick_21">
     <g id="line2d_21">
      <g>
       <use style="stroke:#000000;stroke-width:0.6;" x="212.550643" xlink:href="#m6d53899189" y="189"/>
      </g>
     </g>
    </g>
    <g id="xtick_22">
     <g id="line2d_22">
      <g>
       <use style="stroke:#000000;stroke-width:0.6;" x="218.094389" xlink:href="#m6d53899189" y="189"/>
      </g>
     </g>
    </g>
    <g id="xtick_23">
     <g id="line2d_23">
      <g>
       <use style="stroke:#000000;stroke-width:0.6;" x="222.896601" xlink:href="#m6d53899189" y="189"/>
      </g>
     </g>
    </g>
    <g id="text_3">
     <!-- $r_0/\Delta x$ -->
     <g transform="translate(111.65 220.315937)scale(0.14 -0.14)">
      <defs>
       <path d="M 44.578125 46.390625 
Q 43.21875 47.125 41.453125 47.515625 
Q 39.703125 47.90625 37.703125 47.90625 
Q 30.515625 47.90625 25.140625 42.453125 
Q 19.78125 37.015625 18.015625 27.875 
L 12.5 0 
L 3.515625 0 
L 14.203125 54.6875 
L 23.1875 54.6875 
L 21.484375 46.1875 
Q 25.046875 50.921875 30 53.453125 
Q 34.96875 56 40.578125 56 
Q 42.046875 56 43.453125 55.828125 
Q 44.875 55.671875 46.296875 55.28125 
z
" id="DejaVuSans-Oblique-114"/>
       <path d="M 25.390625 72.90625 
L 33.6875 72.90625 
L 8.296875 -9.28125 
L 0 -9.28125 
z
" id="DejaVuSans-47"/>
       <path d="M 34.1875 63.1875 
L 14.15625 8.203125 
L 54.25 8.203125 
z
M 0.78125 0 
L 28.609375 72.90625 
L 39.796875 72.90625 
L 67.578125 0 
z
" id="DejaVuSans-916"/>
       <path d="M 60.015625 54.6875 
L 34.90625 27.875 
L 50.296875 0 
L 39.984375 0 
L 28.421875 21.6875 
L 8.296875 0 
L -2.59375 0 
L 24.3125 28.8125 
L 10.015625 54.6875 
L 20.3125 54.6875 
L 30.8125 34.90625 
L 49.125 54.6875 
z
" id="DejaVuSans-Oblique-120"/>
      </defs>
      <use transform="translate(0 0.09375)" xlink:href="#DejaVuSans-Oblique-114"/>
      <use transform="translate(41.113281 -16.3125)scale(0.7)" xlink:href="#DejaVuSans-48"/>
      <use transform="translate(88.383789 0.09375)" xlink:href="#DejaVuSans-47"/>
      <use transform="translate(122.075195 0.09375)" xlink:href="#DejaVuSans-916"/>
      <use transform="translate(190.483398 0.09375)" xlink:href="#DejaVuSans-Oblique-120"/>
     </g>
    </g>
   </g>
   <g id="matplotlib.axis_2">
    <g id="ytick_1">
     <g id="line2d_24">
      <defs>
       <path d="M 0 0 
L -3.5 0 
" id="m3ab43d4664" style="stroke:#000000;stroke-width:0.8;"/>
      </defs>
      <g>
       <use style="stroke:#000000;stroke-width:0.8;" x="31.5" xlink:href="#m3ab43d4664" y="164.805164"/>
      </g>
     </g>
     <g id="text_4">
      <!-- 0.0002 -->
      <g transform="translate(-10.490625 168.604383)scale(0.1 -0.1)">
       <defs>
        <path d="M 10.6875 12.40625 
L 21 12.40625 
L 21 0 
L 10.6875 0 
z
" id="DejaVuSans-46"/>
        <path d="M 19.1875 8.296875 
L 53.609375 8.296875 
L 53.609375 0 
L 7.328125 0 
L 7.328125 8.296875 
Q 12.9375 14.109375 22.625 23.890625 
Q 32.328125 33.6875 34.8125 36.53125 
Q 39.546875 41.84375 41.421875 45.53125 
Q 43.3125 49.21875 43.3125 52.78125 
Q 43.3125 58.59375 39.234375 62.25 
Q 35.15625 65.921875 28.609375 65.921875 
Q 23.96875 65.921875 18.8125 64.3125 
Q 13.671875 62.703125 7.8125 59.421875 
L 7.8125 69.390625 
Q 13.765625 71.78125 18.9375 73 
Q 24.125 74.21875 28.421875 74.21875 
Q 39.75 74.21875 46.484375 68.546875 
Q 53.21875 62.890625 53.21875 53.421875 
Q 53.21875 48.921875 51.53125 44.890625 
Q 49.859375 40.875 45.40625 35.40625 
Q 44.1875 33.984375 37.640625 27.21875 
Q 31.109375 20.453125 19.1875 8.296875 
z
" id="DejaVuSans-50"/>
       </defs>
       <use xlink:href="#DejaVuSans-48"/>
       <use x="63.623047" xlink:href="#DejaVuSans-46"/>
       <use x="95.410156" xlink:href="#DejaVuSans-48"/>
       <use x="159.033203" xlink:href="#DejaVuSans-48"/>
       <use x="222.65625" xlink:href="#DejaVuSans-48"/>
       <use x="286.279297" xlink:href="#DejaVuSans-50"/>
      </g>
     </g>
    </g>
    <g id="ytick_2">
     <g id="line2d_25">
      <g>
       <use style="stroke:#000000;stroke-width:0.8;" x="31.5" xlink:href="#m3ab43d4664" y="132.269438"/>
      </g>
     </g>
     <g id="text_5">
      <!-- 0.0004 -->
      <g transform="translate(-10.490625 136.068657)scale(0.1 -0.1)">
       <defs>
        <path d="M 37.796875 64.3125 
L 12.890625 25.390625 
L 37.796875 25.390625 
z
M 35.203125 72.90625 
L 47.609375 72.90625 
L 47.609375 25.390625 
L 58.015625 25.390625 
L 58.015625 17.1875 
L 47.609375 17.1875 
L 47.609375 0 
L 37.796875 0 
L 37.796875 17.1875 
L 4.890625 17.1875 
L 4.890625 26.703125 
z
" id="DejaVuSans-52"/>
       </defs>
       <use xlink:href="#DejaVuSans-48"/>
       <use x="63.623047" xlink:href="#DejaVuSans-46"/>
       <use x="95.410156" xlink:href="#DejaVuSans-48"/>
       <use x="159.033203" xlink:href="#DejaVuSans-48"/>
       <use x="222.65625" xlink:href="#DejaVuSans-48"/>
       <use x="286.279297" xlink:href="#DejaVuSans-52"/>
      </g>
     </g>
    </g>
    <g id="ytick_3">
     <g id="line2d_26">
      <g>
       <use style="stroke:#000000;stroke-width:0.8;" x="31.5" xlink:href="#m3ab43d4664" y="99.733711"/>
      </g>
     </g>
     <g id="text_6">
      <!-- 0.0006 -->
      <g transform="translate(-10.490625 103.53293)scale(0.1 -0.1)">
       <defs>
        <path d="M 33.015625 40.375 
Q 26.375 40.375 22.484375 35.828125 
Q 18.609375 31.296875 18.609375 23.390625 
Q 18.609375 15.53125 22.484375 10.953125 
Q 26.375 6.390625 33.015625 6.390625 
Q 39.65625 6.390625 43.53125 10.953125 
Q 47.40625 15.53125 47.40625 23.390625 
Q 47.40625 31.296875 43.53125 35.828125 
Q 39.65625 40.375 33.015625 40.375 
z
M 52.59375 71.296875 
L 52.59375 62.3125 
Q 48.875 64.0625 45.09375 64.984375 
Q 41.3125 65.921875 37.59375 65.921875 
Q 27.828125 65.921875 22.671875 59.328125 
Q 17.53125 52.734375 16.796875 39.40625 
Q 19.671875 43.65625 24.015625 45.921875 
Q 28.375 48.1875 33.59375 48.1875 
Q 44.578125 48.1875 50.953125 41.515625 
Q 57.328125 34.859375 57.328125 23.390625 
Q 57.328125 12.15625 50.6875 5.359375 
Q 44.046875 -1.421875 33.015625 -1.421875 
Q 20.359375 -1.421875 13.671875 8.265625 
Q 6.984375 17.96875 6.984375 36.375 
Q 6.984375 53.65625 15.1875 63.9375 
Q 23.390625 74.21875 37.203125 74.21875 
Q 40.921875 74.21875 44.703125 73.484375 
Q 48.484375 72.75 52.59375 71.296875 
z
" id="DejaVuSans-54"/>
       </defs>
       <use xlink:href="#DejaVuSans-48"/>
       <use x="63.623047" xlink:href="#DejaVuSans-46"/>
       <use x="95.410156" xlink:href="#DejaVuSans-48"/>
       <use x="159.033203" xlink:href="#DejaVuSans-48"/>
       <use x="222.65625" xlink:href="#DejaVuSans-48"/>
       <use x="286.279297" xlink:href="#DejaVuSans-54"/>
      </g>
     </g>
    </g>
    <g id="ytick_4">
     <g id="line2d_27">
      <g>
       <use style="stroke:#000000;stroke-width:0.8;" x="31.5" xlink:href="#m3ab43d4664" y="67.197985"/>
      </g>
     </g>
     <g id="text_7">
      <!-- 0.0008 -->
      <g transform="translate(-10.490625 70.997204)scale(0.1 -0.1)">
       <defs>
        <path d="M 31.78125 34.625 
Q 24.75 34.625 20.71875 30.859375 
Q 16.703125 27.09375 16.703125 20.515625 
Q 16.703125 13.921875 20.71875 10.15625 
Q 24.75 6.390625 31.78125 6.390625 
Q 38.8125 6.390625 42.859375 10.171875 
Q 46.921875 13.96875 46.921875 20.515625 
Q 46.921875 27.09375 42.890625 30.859375 
Q 38.875 34.625 31.78125 34.625 
z
M 21.921875 38.8125 
Q 15.578125 40.375 12.03125 44.71875 
Q 8.5 49.078125 8.5 55.328125 
Q 8.5 64.0625 14.71875 69.140625 
Q 20.953125 74.21875 31.78125 74.21875 
Q 42.671875 74.21875 48.875 69.140625 
Q 55.078125 64.0625 55.078125 55.328125 
Q 55.078125 49.078125 51.53125 44.71875 
Q 48 40.375 41.703125 38.8125 
Q 48.828125 37.15625 52.796875 32.3125 
Q 56.78125 27.484375 56.78125 20.515625 
Q 56.78125 9.90625 50.3125 4.234375 
Q 43.84375 -1.421875 31.78125 -1.421875 
Q 19.734375 -1.421875 13.25 4.234375 
Q 6.78125 9.90625 6.78125 20.515625 
Q 6.78125 27.484375 10.78125 32.3125 
Q 14.796875 37.15625 21.921875 38.8125 
z
M 18.3125 54.390625 
Q 18.3125 48.734375 21.84375 45.5625 
Q 25.390625 42.390625 31.78125 42.390625 
Q 38.140625 42.390625 41.71875 45.5625 
Q 45.3125 48.734375 45.3125 54.390625 
Q 45.3125 60.0625 41.71875 63.234375 
Q 38.140625 66.40625 31.78125 66.40625 
Q 25.390625 66.40625 21.84375 63.234375 
Q 18.3125 60.0625 18.3125 54.390625 
z
" id="DejaVuSans-56"/>
       </defs>
       <use xlink:href="#DejaVuSans-48"/>
       <use x="63.623047" xlink:href="#DejaVuSans-46"/>
       <use x="95.410156" xlink:href="#DejaVuSans-48"/>
       <use x="159.033203" xlink:href="#DejaVuSans-48"/>
       <use x="222.65625" xlink:href="#DejaVuSans-48"/>
       <use x="286.279297" xlink:href="#DejaVuSans-56"/>
      </g>
     </g>
    </g>
    <g id="ytick_5">
     <g id="line2d_28">
      <g>
       <use style="stroke:#000000;stroke-width:0.8;" x="31.5" xlink:href="#m3ab43d4664" y="34.662259"/>
      </g>
     </g>
     <g id="text_8">
      <!-- 0.0010 -->
      <g transform="translate(-10.490625 38.461477)scale(0.1 -0.1)">
       <use xlink:href="#DejaVuSans-48"/>
       <use x="63.623047" xlink:href="#DejaVuSans-46"/>
       <use x="95.410156" xlink:href="#DejaVuSans-48"/>
       <use x="159.033203" xlink:href="#DejaVuSans-48"/>
       <use x="222.65625" xlink:href="#DejaVuSans-49"/>
       <use x="286.279297" xlink:href="#DejaVuSans-48"/>
      </g>
     </g>
    </g>
    <g id="text_9">
     <!-- $\mu_x^*$ -->
     <g transform="translate(-18.410625 116.84)rotate(-90)scale(0.14 -0.14)">
      <defs>
       <path d="M -1.3125 -20.796875 
L 13.375 54.6875 
L 22.40625 54.6875 
L 15.765625 20.65625 
Q 15.578125 19.625 15.421875 18.359375 
Q 15.28125 17.09375 15.28125 15.828125 
Q 15.28125 11.28125 18.140625 8.828125 
Q 21 6.390625 26.3125 6.390625 
Q 33.546875 6.390625 37.984375 10.484375 
Q 42.4375 14.59375 44 22.796875 
L 50.203125 54.6875 
L 59.1875 54.6875 
L 51.03125 12.640625 
Q 50.828125 11.71875 50.75 11.03125 
Q 50.6875 10.359375 50.6875 9.8125 
Q 50.6875 8.296875 51.296875 7.59375 
Q 51.90625 6.890625 53.21875 6.890625 
Q 53.71875 6.890625 54.5625 7.125 
Q 55.421875 7.375 56.984375 8.015625 
L 55.609375 0.78125 
Q 53.46875 -0.296875 51.515625 -0.859375 
Q 49.5625 -1.421875 47.703125 -1.421875 
Q 44.484375 -1.421875 42.65625 0.625 
Q 40.828125 2.6875 40.828125 6.296875 
Q 38.09375 2.390625 34.296875 0.484375 
Q 30.515625 -1.421875 25.390625 -1.421875 
Q 20.84375 -1.421875 17.453125 0.671875 
Q 14.0625 2.78125 12.984375 6.203125 
L 7.71875 -20.796875 
z
" id="DejaVuSans-Oblique-956"/>
       <path d="M 47.015625 60.890625 
L 29.5 51.421875 
L 47.015625 41.890625 
L 44.1875 37.109375 
L 27.78125 47.015625 
L 27.78125 28.609375 
L 22.21875 28.609375 
L 22.21875 47.015625 
L 5.8125 37.109375 
L 2.984375 41.890625 
L 20.515625 51.421875 
L 2.984375 60.890625 
L 5.8125 65.71875 
L 22.21875 55.8125 
L 22.21875 74.21875 
L 27.78125 74.21875 
L 27.78125 55.8125 
L 44.1875 65.71875 
z
" id="DejaVuSans-42"/>
      </defs>
      <use transform="translate(0 0.765625)" xlink:href="#DejaVuSans-Oblique-956"/>
      <use transform="translate(81.726888 39.046875)scale(0.7)" xlink:href="#DejaVuSans-42"/>
      <use transform="translate(63.623047 -26.578125)scale(0.7)" xlink:href="#DejaVuSans-Oblique-120"/>
     </g>
    </g>
   </g>
   <g id="line2d_29">
    <path clip-path="url(#pb563513648)" d="M 124.517616 33.332727 
L 135.035159 56.159735 
L 145.552702 78.806719 
L 156.070245 100.484379 
L 166.587788 120.445025 
L 177.105331 138.084927 
L 187.622874 153.029688 
L 199.436921 166.480537 
L 208.314792 174.384562 
L 217.922727 181.052161 
" style="fill:none;stroke:#000000;stroke-dasharray:7.4,3.2;stroke-dashoffset:0;stroke-width:2;"/>
   </g>
   <g id="line2d_30">
    <path clip-path="url(#pb563513648)" d="M 40.377273 34.662259 
L 50.894816 34.662259 
L 61.412359 34.662259 
L 71.929902 34.662259 
L 82.447445 34.662259 
L 92.964988 34.662259 
L 103.48253 34.662259 
L 114.000073 34.662259 
L 124.517616 34.662259 
L 135.035159 34.662259 
L 145.552702 34.662259 
" style="fill:none;stroke:#000000;stroke-dasharray:2,3.3;stroke-dashoffset:0;stroke-width:2;"/>
   </g>
   <g id="patch_3">
    <path d="M 31.5 189 
L 31.5 25.92 
" style="fill:none;stroke:#000000;stroke-linecap:square;stroke-linejoin:miter;stroke-width:0.8;"/>
   </g>
   <g id="patch_4">
    <path d="M 226.8 189 
L 226.8 25.92 
" style="fill:none;stroke:#000000;stroke-linecap:square;stroke-linejoin:miter;stroke-width:0.8;"/>
   </g>
   <g id="patch_5">
    <path d="M 31.5 189 
L 226.8 189 
" style="fill:none;stroke:#000000;stroke-linecap:square;stroke-linejoin:miter;stroke-width:0.8;"/>
   </g>
   <g id="patch_6">
    <path d="M 31.5 25.92 
L 226.8 25.92 
" style="fill:none;stroke:#000000;stroke-linecap:square;stroke-linejoin:miter;stroke-width:0.8;"/>
   </g>
   <g id="legend_1">
    <g id="patch_7">
     <path d="M 38.5 184 
L 113.9 184 
Q 115.9 184 115.9 182 
L 115.9 138.965625 
Q 115.9 136.965625 113.9 136.965625 
L 38.5 136.965625 
Q 36.5 136.965625 36.5 138.965625 
L 36.5 182 
Q 36.5 184 38.5 184 
z
" style="fill:#ffffff;opacity:0.8;stroke:#cccccc;stroke-linejoin:miter;"/>
    </g>
    <g id="PathCollection_4">
     <path d="M 50.5 150.939063 
C 51.826015 150.939063 53.097899 150.412231 54.035534 149.474596 
C 54.973168 148.536962 55.5 147.265078 55.5 145.939063 
C 55.5 144.613047 54.973168 143.341163 54.035534 142.403529 
C 53.097899 141.465894 51.826015 140.939063 50.5 140.939063 
C 49.173985 140.939063 47.902101 141.465894 46.964466 142.403529 
C 46.026832 143.341163 45.5 144.613047 45.5 145.939063 
C 45.5 147.265078 46.026832 148.536962 46.964466 149.474596 
C 47.902101 150.412231 49.173985 150.939063 50.5 150.939063 
z
" style="fill:none;stroke:#ff0000;"/>
    </g>
    <g id="text_10">
     <!-- $\Delta x$ = 0.5 -->
     <g transform="translate(68.5 148.564063)scale(0.1 -0.1)">
      <defs>
       <path id="DejaVuSans-32"/>
       <path d="M 10.59375 45.40625 
L 73.1875 45.40625 
L 73.1875 37.203125 
L 10.59375 37.203125 
z
M 10.59375 25.484375 
L 73.1875 25.484375 
L 73.1875 17.1875 
L 10.59375 17.1875 
z
" id="DejaVuSans-61"/>
       <path d="M 10.796875 72.90625 
L 49.515625 72.90625 
L 49.515625 64.59375 
L 19.828125 64.59375 
L 19.828125 46.734375 
Q 21.96875 47.46875 24.109375 47.828125 
Q 26.265625 48.1875 28.421875 48.1875 
Q 40.625 48.1875 47.75 41.5 
Q 54.890625 34.8125 54.890625 23.390625 
Q 54.890625 11.625 47.5625 5.09375 
Q 40.234375 -1.421875 26.90625 -1.421875 
Q 22.3125 -1.421875 17.546875 -0.640625 
Q 12.796875 0.140625 7.71875 1.703125 
L 7.71875 11.625 
Q 12.109375 9.234375 16.796875 8.0625 
Q 21.484375 6.890625 26.703125 6.890625 
Q 35.15625 6.890625 40.078125 11.328125 
Q 45.015625 15.765625 45.015625 23.390625 
Q 45.015625 31 40.078125 35.4375 
Q 35.15625 39.890625 26.703125 39.890625 
Q 22.75 39.890625 18.8125 39.015625 
Q 14.890625 38.140625 10.796875 36.28125 
z
" id="DejaVuSans-53"/>
      </defs>
      <use transform="translate(0 0.78125)" xlink:href="#DejaVuSans-916"/>
      <use transform="translate(68.408203 0.78125)" xlink:href="#DejaVuSans-Oblique-120"/>
      <use transform="translate(127.587891 0.78125)" xlink:href="#DejaVuSans-32"/>
      <use transform="translate(159.375 0.78125)" xlink:href="#DejaVuSans-61"/>
      <use transform="translate(243.164062 0.78125)" xlink:href="#DejaVuSans-32"/>
      <use transform="translate(274.951172 0.78125)" xlink:href="#DejaVuSans-48"/>
      <use transform="translate(338.574219 0.78125)" xlink:href="#DejaVuSans-46"/>
      <use transform="translate(370.361328 0.78125)" xlink:href="#DejaVuSans-53"/>
     </g>
    </g>
    <g id="PathCollection_5">
     <g>
      <use style="fill:#1f77b4;stroke:#1f77b4;stroke-width:1.5;" x="50.5" xlink:href="#m6072b8bbe1" y="160.617188"/>
     </g>
    </g>
    <g id="text_11">
     <!-- $\Delta x$ = 1 -->
     <g transform="translate(68.5 163.242188)scale(0.1 -0.1)">
      <use transform="translate(0 0.09375)" xlink:href="#DejaVuSans-916"/>
      <use transform="translate(68.408203 0.09375)" xlink:href="#DejaVuSans-Oblique-120"/>
      <use transform="translate(127.587891 0.09375)" xlink:href="#DejaVuSans-32"/>
      <use transform="translate(159.375 0.09375)" xlink:href="#DejaVuSans-61"/>
      <use transform="translate(243.164062 0.09375)" xlink:href="#DejaVuSans-32"/>
      <use transform="translate(274.951172 0.09375)" xlink:href="#DejaVuSans-49"/>
     </g>
    </g>
    <g id="PathCollection_6">
     <path d="M 55.5 175.295313 
L 45.5 170.295313 
L 45.5 180.295313 
z
" style="fill:none;stroke:#008000;"/>
    </g>
    <g id="text_12">
     <!-- $\Delta x$ = 2 -->
     <g transform="translate(68.5 177.920313)scale(0.1 -0.1)">
      <use transform="translate(0 0.78125)" xlink:href="#DejaVuSans-916"/>
      <use transform="translate(68.408203 0.78125)" xlink:href="#DejaVuSans-Oblique-120"/>
      <use transform="translate(127.587891 0.78125)" xlink:href="#DejaVuSans-32"/>
      <use transform="translate(159.375 0.78125)" xlink:href="#DejaVuSans-61"/>
      <use transform="translate(243.164062 0.78125)" xlink:href="#DejaVuSans-32"/>
      <use transform="translate(274.951172 0.78125)" xlink:href="#DejaVuSans-50"/>
     </g>
    </g>
   </g>
  </g>
 </g>
 <defs>
  <clipPath id="pb563513648">
   <rect height="163.08" width="195.3" x="31.5" y="25.92"/>
  </clipPath>
 </defs>
</svg>
