<?xml version="1.0" encoding="utf-8" standalone="no"?>
<!DOCTYPE svg PUBLIC "-//W3C//DTD SVG 1.1//EN"
  "http://www.w3.org/Graphics/SVG/1.1/DTD/svg11.dtd">
<!-- Created with matplotlib (https://matplotlib.org/) -->
<svg height="108pt" version="1.1" viewBox="0 0 216 108" width="216pt" xmlns="http://www.w3.org/2000/svg" xmlns:xlink="http://www.w3.org/1999/xlink">
 <metadata>
  <rdf:RDF xmlns:cc="http://creativecommons.org/ns#" xmlns:dc="http://purl.org/dc/elements/1.1/" xmlns:rdf="http://www.w3.org/1999/02/22-rdf-syntax-ns#">
   <cc:Work>
    <dc:type rdf:resource="http://purl.org/dc/dcmitype/StillImage"/>
    <dc:date>2023-07-05T14:39:42.413916</dc:date>
    <dc:format>image/svg+xml</dc:format>
    <dc:creator>
     <cc:Agent>
      <dc:title>Matplotlib v3.3.4, https://matplotlib.org/</dc:title>
     </cc:Agent>
    </dc:creator>
   </cc:Work>
  </rdf:RDF>
 </metadata>
 <defs>
  <style type="text/css">*{stroke-linecap:butt;stroke-linejoin:round;}</style>
 </defs>
 <g id="figure_1">
  <g id="patch_1">
   <path d="M 0 108 
L 216 108 
L 216 0 
L 0 0 
z
" style="fill:none;"/>
  </g>
  <g id="axes_1">
   <g id="patch_2">
    <path d="M 27 94.5 
L 194.4 94.5 
L 194.4 12.96 
L 27 12.96 
z
" style="fill:#ffffff;"/>
   </g>
   <g id="PathCollection_1">
    <defs>
     <path d="M 0 3.872983 
C 1.027127 3.872983 2.012324 3.464901 2.738613 2.738613 
C 3.464901 2.012324 3.872983 1.027127 3.872983 -0 
C 3.872983 -1.027127 3.464901 -2.012324 2.738613 -2.738613 
C 2.012324 -3.464901 1.027127 -3.872983 0 -3.872983 
C -1.027127 -3.872983 -2.012324 -3.464901 -2.738613 -2.738613 
C -3.464901 -2.012324 -3.872983 -1.027127 -3.872983 0 
C -3.872983 1.027127 -3.464901 2.012324 -2.738613 2.738613 
C -2.012324 3.464901 -1.027127 3.872983 0 3.872983 
z
" id="C0_0_e6eb393161"/>
    </defs>
    <g clip-path="url(#p0375297595)">
     <use style="fill:none;stroke:#0000ff;" x="34.609091" xlink:href="#C0_0_e6eb393161" y="16.666364"/>
    </g>
    <g clip-path="url(#p0375297595)">
     <use style="fill:none;stroke:#0000ff;" x="40.957588" xlink:href="#C0_0_e6eb393161" y="17.448859"/>
    </g>
    <g clip-path="url(#p0375297595)">
     <use style="fill:none;stroke:#0000ff;" x="47.306086" xlink:href="#C0_0_e6eb393161" y="18.52601"/>
    </g>
    <g clip-path="url(#p0375297595)">
     <use style="fill:none;stroke:#0000ff;" x="53.654583" xlink:href="#C0_0_e6eb393161" y="20.73047"/>
    </g>
    <g clip-path="url(#p0375297595)">
     <use style="fill:none;stroke:#0000ff;" x="60.003081" xlink:href="#C0_0_e6eb393161" y="23.352432"/>
    </g>
    <g clip-path="url(#p0375297595)">
     <use style="fill:none;stroke:#0000ff;" x="66.351578" xlink:href="#C0_0_e6eb393161" y="27.526905"/>
    </g>
    <g clip-path="url(#p0375297595)">
     <use style="fill:none;stroke:#0000ff;" x="72.700076" xlink:href="#C0_0_e6eb393161" y="32.125545"/>
    </g>
    <g clip-path="url(#p0375297595)">
     <use style="fill:none;stroke:#0000ff;" x="79.048573" xlink:href="#C0_0_e6eb393161" y="37.825724"/>
    </g>
    <g clip-path="url(#p0375297595)">
     <use style="fill:none;stroke:#0000ff;" x="85.397071" xlink:href="#C0_0_e6eb393161" y="44.297875"/>
    </g>
    <g clip-path="url(#p0375297595)">
     <use style="fill:none;stroke:#0000ff;" x="91.745568" xlink:href="#C0_0_e6eb393161" y="50.697513"/>
    </g>
    <g clip-path="url(#p0375297595)">
     <use style="fill:none;stroke:#0000ff;" x="98.094065" xlink:href="#C0_0_e6eb393161" y="56.798842"/>
    </g>
    <g clip-path="url(#p0375297595)">
     <use style="fill:none;stroke:#0000ff;" x="104.442563" xlink:href="#C0_0_e6eb393161" y="62.898186"/>
    </g>
    <g clip-path="url(#p0375297595)">
     <use style="fill:none;stroke:#0000ff;" x="110.79106" xlink:href="#C0_0_e6eb393161" y="68.306731"/>
    </g>
    <g clip-path="url(#p0375297595)">
     <use style="fill:none;stroke:#0000ff;" x="117.139558" xlink:href="#C0_0_e6eb393161" y="73.122159"/>
    </g>
    <g clip-path="url(#p0375297595)">
     <use style="fill:none;stroke:#0000ff;" x="123.488055" xlink:href="#C0_0_e6eb393161" y="77.303371"/>
    </g>
    <g clip-path="url(#p0375297595)">
     <use style="fill:none;stroke:#0000ff;" x="129.836553" xlink:href="#C0_0_e6eb393161" y="80.801253"/>
    </g>
    <g clip-path="url(#p0375297595)">
     <use style="fill:none;stroke:#0000ff;" x="136.18505" xlink:href="#C0_0_e6eb393161" y="83.82945"/>
    </g>
    <g clip-path="url(#p0375297595)">
     <use style="fill:none;stroke:#0000ff;" x="142.533548" xlink:href="#C0_0_e6eb393161" y="86.300596"/>
    </g>
    <g clip-path="url(#p0375297595)">
     <use style="fill:none;stroke:#0000ff;" x="148.882045" xlink:href="#C0_0_e6eb393161" y="88.321"/>
    </g>
    <g clip-path="url(#p0375297595)">
     <use style="fill:none;stroke:#0000ff;" x="155.230543" xlink:href="#C0_0_e6eb393161" y="89.947232"/>
    </g>
   </g>
   <g id="PathCollection_2">
    <defs>
     <path d="M -3.872983 3.872983 
L 3.872983 3.872983 
L 3.872983 -3.872983 
L -3.872983 -3.872983 
z
" id="C1_0_514d492d00"/>
    </defs>
    <g clip-path="url(#p0375297595)">
     <use style="fill:none;stroke:#a2cffe;" x="50.389274" xlink:href="#C1_0_514d492d00" y="16.913567"/>
    </g>
    <g clip-path="url(#p0375297595)">
     <use style="fill:none;stroke:#a2cffe;" x="56.737772" xlink:href="#C1_0_514d492d00" y="17.690742"/>
    </g>
    <g clip-path="url(#p0375297595)">
     <use style="fill:none;stroke:#a2cffe;" x="63.086269" xlink:href="#C1_0_514d492d00" y="19.258059"/>
    </g>
    <g clip-path="url(#p0375297595)">
     <use style="fill:none;stroke:#a2cffe;" x="69.434767" xlink:href="#C1_0_514d492d00" y="21.475981"/>
    </g>
    <g clip-path="url(#p0375297595)">
     <use style="fill:none;stroke:#a2cffe;" x="75.783264" xlink:href="#C1_0_514d492d00" y="24.397174"/>
    </g>
    <g clip-path="url(#p0375297595)">
     <use style="fill:none;stroke:#a2cffe;" x="82.131761" xlink:href="#C1_0_514d492d00" y="28.54999"/>
    </g>
    <g clip-path="url(#p0375297595)">
     <use style="fill:none;stroke:#a2cffe;" x="88.480259" xlink:href="#C1_0_514d492d00" y="33.676858"/>
    </g>
    <g clip-path="url(#p0375297595)">
     <use style="fill:none;stroke:#a2cffe;" x="94.828756" xlink:href="#C1_0_514d492d00" y="39.55335"/>
    </g>
    <g clip-path="url(#p0375297595)">
     <use style="fill:none;stroke:#a2cffe;" x="101.177254" xlink:href="#C1_0_514d492d00" y="46.163857"/>
    </g>
    <g clip-path="url(#p0375297595)">
     <use style="fill:none;stroke:#a2cffe;" x="107.525751" xlink:href="#C1_0_514d492d00" y="52.339736"/>
    </g>
    <g clip-path="url(#p0375297595)">
     <use style="fill:none;stroke:#a2cffe;" x="113.874249" xlink:href="#C1_0_514d492d00" y="58.792809"/>
    </g>
    <g clip-path="url(#p0375297595)">
     <use style="fill:none;stroke:#a2cffe;" x="120.222746" xlink:href="#C1_0_514d492d00" y="64.574941"/>
    </g>
    <g clip-path="url(#p0375297595)">
     <use style="fill:none;stroke:#a2cffe;" x="126.571244" xlink:href="#C1_0_514d492d00" y="69.788925"/>
    </g>
    <g clip-path="url(#p0375297595)">
     <use style="fill:none;stroke:#a2cffe;" x="132.919741" xlink:href="#C1_0_514d492d00" y="74.399304"/>
    </g>
    <g clip-path="url(#p0375297595)">
     <use style="fill:none;stroke:#a2cffe;" x="139.268239" xlink:href="#C1_0_514d492d00" y="78.209173"/>
    </g>
    <g clip-path="url(#p0375297595)">
     <use style="fill:none;stroke:#a2cffe;" x="145.616736" xlink:href="#C1_0_514d492d00" y="81.599803"/>
    </g>
    <g clip-path="url(#p0375297595)">
     <use style="fill:none;stroke:#a2cffe;" x="151.965233" xlink:href="#C1_0_514d492d00" y="84.500902"/>
    </g>
    <g clip-path="url(#p0375297595)">
     <use style="fill:none;stroke:#a2cffe;" x="158.313731" xlink:href="#C1_0_514d492d00" y="86.845237"/>
    </g>
    <g clip-path="url(#p0375297595)">
     <use style="fill:none;stroke:#a2cffe;" x="164.662228" xlink:href="#C1_0_514d492d00" y="88.786287"/>
    </g>
    <g clip-path="url(#p0375297595)">
     <use style="fill:none;stroke:#a2cffe;" x="171.010726" xlink:href="#C1_0_514d492d00" y="90.334166"/>
    </g>
   </g>
   <g id="PathCollection_3">
    <path clip-path="url(#p0375297595)" d="M 66.169457 21.295672 
L 70.042441 13.549705 
L 62.296474 13.549705 
z
" style="fill:none;stroke:#2c6fbb;"/>
    <path clip-path="url(#p0375297595)" d="M 72.517955 22.322813 
L 76.390938 14.576846 
L 68.644972 14.576846 
z
" style="fill:none;stroke:#2c6fbb;"/>
    <path clip-path="url(#p0375297595)" d="M 78.866452 23.963312 
L 82.739436 16.217345 
L 74.993469 16.217345 
z
" style="fill:none;stroke:#2c6fbb;"/>
    <path clip-path="url(#p0375297595)" d="M 85.21495 26.45048 
L 89.087933 18.704514 
L 81.341966 18.704514 
z
" style="fill:none;stroke:#2c6fbb;"/>
    <path clip-path="url(#p0375297595)" d="M 91.563447 29.969241 
L 95.436431 22.223274 
L 87.690464 22.223274 
z
" style="fill:none;stroke:#2c6fbb;"/>
    <path clip-path="url(#p0375297595)" d="M 97.911945 34.557151 
L 101.784928 26.811185 
L 94.038961 26.811185 
z
" style="fill:none;stroke:#2c6fbb;"/>
    <path clip-path="url(#p0375297595)" d="M 104.260442 40.080935 
L 108.133426 32.334969 
L 100.387459 32.334969 
z
" style="fill:none;stroke:#2c6fbb;"/>
    <path clip-path="url(#p0375297595)" d="M 110.60894 46.202225 
L 114.481923 38.456259 
L 106.735956 38.456259 
z
" style="fill:none;stroke:#2c6fbb;"/>
    <path clip-path="url(#p0375297595)" d="M 116.957437 52.621754 
L 120.83042 44.875787 
L 113.084454 44.875787 
z
" style="fill:none;stroke:#2c6fbb;"/>
    <path clip-path="url(#p0375297595)" d="M 123.305935 58.742539 
L 127.178918 50.996572 
L 119.432951 50.996572 
z
" style="fill:none;stroke:#2c6fbb;"/>
    <path clip-path="url(#p0375297595)" d="M 129.654432 65.092231 
L 133.527415 57.346264 
L 125.781449 57.346264 
z
" style="fill:none;stroke:#2c6fbb;"/>
    <path clip-path="url(#p0375297595)" d="M 136.002929 70.541157 
L 139.875913 62.79519 
L 132.129946 62.79519 
z
" style="fill:none;stroke:#2c6fbb;"/>
    <path clip-path="url(#p0375297595)" d="M 142.351427 75.474435 
L 146.22441 67.728469 
L 138.478444 67.728469 
z
" style="fill:none;stroke:#2c6fbb;"/>
    <path clip-path="url(#p0375297595)" d="M 148.699924 79.446579 
L 152.572908 71.700612 
L 144.826941 71.700612 
z
" style="fill:none;stroke:#2c6fbb;"/>
    <path clip-path="url(#p0375297595)" d="M 155.048422 83.24616 
L 158.921405 75.500194 
L 151.175438 75.500194 
z
" style="fill:none;stroke:#2c6fbb;"/>
    <path clip-path="url(#p0375297595)" d="M 161.396919 86.537237 
L 165.269903 78.79127 
L 157.523936 78.79127 
z
" style="fill:none;stroke:#2c6fbb;"/>
    <path clip-path="url(#p0375297595)" d="M 167.745417 89.207625 
L 171.6184 81.461658 
L 163.872433 81.461658 
z
" style="fill:none;stroke:#2c6fbb;"/>
    <path clip-path="url(#p0375297595)" d="M 174.093914 91.454903 
L 177.966898 83.708936 
L 170.220931 83.708936 
z
" style="fill:none;stroke:#2c6fbb;"/>
    <path clip-path="url(#p0375297595)" d="M 180.442412 93.237872 
L 184.315395 85.491906 
L 176.569428 85.491906 
z
" style="fill:none;stroke:#2c6fbb;"/>
    <path clip-path="url(#p0375297595)" d="M 186.790909 94.66662 
L 190.663892 86.920653 
L 182.917926 86.920653 
z
" style="fill:none;stroke:#2c6fbb;"/>
   </g>
   <g id="matplotlib.axis_1">
    <g id="xtick_1">
     <g id="line2d_1">
      <defs>
       <path d="M 0 0 
L 0 3.5 
" id="m356629f029" style="stroke:#000000;stroke-width:0.8;"/>
      </defs>
      <g>
       <use style="stroke:#000000;stroke-width:0.8;" x="66.169457" xlink:href="#m356629f029" y="94.5"/>
      </g>
     </g>
     <g id="text_1">
      <!-- $\mathdefault{10^{0}}$ -->
      <g transform="translate(57.369457 109.098438)scale(0.1 -0.1)">
       <defs>
        <path d="M 12.40625 8.296875 
L 28.515625 8.296875 
L 28.515625 63.921875 
L 10.984375 60.40625 
L 10.984375 69.390625 
L 28.421875 72.90625 
L 38.28125 72.90625 
L 38.28125 8.296875 
L 54.390625 8.296875 
L 54.390625 0 
L 12.40625 0 
z
" id="DejaVuSans-49"/>
        <path d="M 31.78125 66.40625 
Q 24.171875 66.40625 20.328125 58.90625 
Q 16.5 51.421875 16.5 36.375 
Q 16.5 21.390625 20.328125 13.890625 
Q 24.171875 6.390625 31.78125 6.390625 
Q 39.453125 6.390625 43.28125 13.890625 
Q 47.125 21.390625 47.125 36.375 
Q 47.125 51.421875 43.28125 58.90625 
Q 39.453125 66.40625 31.78125 66.40625 
z
M 31.78125 74.21875 
Q 44.046875 74.21875 50.515625 64.515625 
Q 56.984375 54.828125 56.984375 36.375 
Q 56.984375 17.96875 50.515625 8.265625 
Q 44.046875 -1.421875 31.78125 -1.421875 
Q 19.53125 -1.421875 13.0625 8.265625 
Q 6.59375 17.96875 6.59375 36.375 
Q 6.59375 54.828125 13.0625 64.515625 
Q 19.53125 74.21875 31.78125 74.21875 
z
" id="DejaVuSans-48"/>
       </defs>
       <use transform="translate(0 0.765625)" xlink:href="#DejaVuSans-49"/>
       <use transform="translate(63.623047 0.765625)" xlink:href="#DejaVuSans-48"/>
       <use transform="translate(128.203125 39.046875)scale(0.7)" xlink:href="#DejaVuSans-48"/>
      </g>
     </g>
    </g>
    <g id="xtick_2">
     <g id="line2d_2">
      <g>
       <use style="stroke:#000000;stroke-width:0.8;" x="118.590092" xlink:href="#m356629f029" y="94.5"/>
      </g>
     </g>
     <g id="text_2">
      <!-- $\mathdefault{10^{1}}$ -->
      <g transform="translate(109.790092 109.098438)scale(0.1 -0.1)">
       <use transform="translate(0 0.684375)" xlink:href="#DejaVuSans-49"/>
       <use transform="translate(63.623047 0.684375)" xlink:href="#DejaVuSans-48"/>
       <use transform="translate(128.203125 38.965625)scale(0.7)" xlink:href="#DejaVuSans-49"/>
      </g>
     </g>
    </g>
    <g id="xtick_3">
     <g id="line2d_3">
      <g>
       <use style="stroke:#000000;stroke-width:0.8;" x="171.010726" xlink:href="#m356629f029" y="94.5"/>
      </g>
     </g>
     <g id="text_3">
      <!-- $\mathdefault{10^{2}}$ -->
      <g transform="translate(162.210726 109.098438)scale(0.1 -0.1)">
       <defs>
        <path d="M 19.1875 8.296875 
L 53.609375 8.296875 
L 53.609375 0 
L 7.328125 0 
L 7.328125 8.296875 
Q 12.9375 14.109375 22.625 23.890625 
Q 32.328125 33.6875 34.8125 36.53125 
Q 39.546875 41.84375 41.421875 45.53125 
Q 43.3125 49.21875 43.3125 52.78125 
Q 43.3125 58.59375 39.234375 62.25 
Q 35.15625 65.921875 28.609375 65.921875 
Q 23.96875 65.921875 18.8125 64.3125 
Q 13.671875 62.703125 7.8125 59.421875 
L 7.8125 69.390625 
Q 13.765625 71.78125 18.9375 73 
Q 24.125 74.21875 28.421875 74.21875 
Q 39.75 74.21875 46.484375 68.546875 
Q 53.21875 62.890625 53.21875 53.421875 
Q 53.21875 48.921875 51.53125 44.890625 
Q 49.859375 40.875 45.40625 35.40625 
Q 44.1875 33.984375 37.640625 27.21875 
Q 31.109375 20.453125 19.1875 8.296875 
z
" id="DejaVuSans-50"/>
       </defs>
       <use transform="translate(0 0.765625)" xlink:href="#DejaVuSans-49"/>
       <use transform="translate(63.623047 0.765625)" xlink:href="#DejaVuSans-48"/>
       <use transform="translate(128.203125 39.046875)scale(0.7)" xlink:href="#DejaVuSans-50"/>
      </g>
     </g>
    </g>
    <g id="xtick_4">
     <g id="line2d_4">
      <defs>
       <path d="M 0 0 
L 0 2 
" id="mff8176ccb3" style="stroke:#000000;stroke-width:0.6;"/>
      </defs>
      <g>
       <use style="stroke:#000000;stroke-width:0.6;" x="29.529007" xlink:href="#mff8176ccb3" y="94.5"/>
      </g>
     </g>
    </g>
    <g id="xtick_5">
     <g id="line2d_5">
      <g>
       <use style="stroke:#000000;stroke-width:0.6;" x="38.759822" xlink:href="#mff8176ccb3" y="94.5"/>
      </g>
     </g>
    </g>
    <g id="xtick_6">
     <g id="line2d_6">
      <g>
       <use style="stroke:#000000;stroke-width:0.6;" x="45.30919" xlink:href="#mff8176ccb3" y="94.5"/>
      </g>
     </g>
    </g>
    <g id="xtick_7">
     <g id="line2d_7">
      <g>
       <use style="stroke:#000000;stroke-width:0.6;" x="50.389274" xlink:href="#mff8176ccb3" y="94.5"/>
      </g>
     </g>
    </g>
    <g id="xtick_8">
     <g id="line2d_8">
      <g>
       <use style="stroke:#000000;stroke-width:0.6;" x="54.540005" xlink:href="#mff8176ccb3" y="94.5"/>
      </g>
     </g>
    </g>
    <g id="xtick_9">
     <g id="line2d_9">
      <g>
       <use style="stroke:#000000;stroke-width:0.6;" x="58.049398" xlink:href="#mff8176ccb3" y="94.5"/>
      </g>
     </g>
    </g>
    <g id="xtick_10">
     <g id="line2d_10">
      <g>
       <use style="stroke:#000000;stroke-width:0.6;" x="61.089373" xlink:href="#mff8176ccb3" y="94.5"/>
      </g>
     </g>
    </g>
    <g id="xtick_11">
     <g id="line2d_11">
      <g>
       <use style="stroke:#000000;stroke-width:0.6;" x="63.770821" xlink:href="#mff8176ccb3" y="94.5"/>
      </g>
     </g>
    </g>
    <g id="xtick_12">
     <g id="line2d_12">
      <g>
       <use style="stroke:#000000;stroke-width:0.6;" x="81.949641" xlink:href="#mff8176ccb3" y="94.5"/>
      </g>
     </g>
    </g>
    <g id="xtick_13">
     <g id="line2d_13">
      <g>
       <use style="stroke:#000000;stroke-width:0.6;" x="91.180456" xlink:href="#mff8176ccb3" y="94.5"/>
      </g>
     </g>
    </g>
    <g id="xtick_14">
     <g id="line2d_14">
      <g>
       <use style="stroke:#000000;stroke-width:0.6;" x="97.729824" xlink:href="#mff8176ccb3" y="94.5"/>
      </g>
     </g>
    </g>
    <g id="xtick_15">
     <g id="line2d_15">
      <g>
       <use style="stroke:#000000;stroke-width:0.6;" x="102.809908" xlink:href="#mff8176ccb3" y="94.5"/>
      </g>
     </g>
    </g>
    <g id="xtick_16">
     <g id="line2d_16">
      <g>
       <use style="stroke:#000000;stroke-width:0.6;" x="106.960639" xlink:href="#mff8176ccb3" y="94.5"/>
      </g>
     </g>
    </g>
    <g id="xtick_17">
     <g id="line2d_17">
      <g>
       <use style="stroke:#000000;stroke-width:0.6;" x="110.470033" xlink:href="#mff8176ccb3" y="94.5"/>
      </g>
     </g>
    </g>
    <g id="xtick_18">
     <g id="line2d_18">
      <g>
       <use style="stroke:#000000;stroke-width:0.6;" x="113.510007" xlink:href="#mff8176ccb3" y="94.5"/>
      </g>
     </g>
    </g>
    <g id="xtick_19">
     <g id="line2d_19">
      <g>
       <use style="stroke:#000000;stroke-width:0.6;" x="116.191455" xlink:href="#mff8176ccb3" y="94.5"/>
      </g>
     </g>
    </g>
    <g id="xtick_20">
     <g id="line2d_20">
      <g>
       <use style="stroke:#000000;stroke-width:0.6;" x="134.370275" xlink:href="#mff8176ccb3" y="94.5"/>
      </g>
     </g>
    </g>
    <g id="xtick_21">
     <g id="line2d_21">
      <g>
       <use style="stroke:#000000;stroke-width:0.6;" x="143.60109" xlink:href="#mff8176ccb3" y="94.5"/>
      </g>
     </g>
    </g>
    <g id="xtick_22">
     <g id="line2d_22">
      <g>
       <use style="stroke:#000000;stroke-width:0.6;" x="150.150458" xlink:href="#mff8176ccb3" y="94.5"/>
      </g>
     </g>
    </g>
    <g id="xtick_23">
     <g id="line2d_23">
      <g>
       <use style="stroke:#000000;stroke-width:0.6;" x="155.230543" xlink:href="#mff8176ccb3" y="94.5"/>
      </g>
     </g>
    </g>
    <g id="xtick_24">
     <g id="line2d_24">
      <g>
       <use style="stroke:#000000;stroke-width:0.6;" x="159.381274" xlink:href="#mff8176ccb3" y="94.5"/>
      </g>
     </g>
    </g>
    <g id="xtick_25">
     <g id="line2d_25">
      <g>
       <use style="stroke:#000000;stroke-width:0.6;" x="162.890667" xlink:href="#mff8176ccb3" y="94.5"/>
      </g>
     </g>
    </g>
    <g id="xtick_26">
     <g id="line2d_26">
      <g>
       <use style="stroke:#000000;stroke-width:0.6;" x="165.930641" xlink:href="#mff8176ccb3" y="94.5"/>
      </g>
     </g>
    </g>
    <g id="xtick_27">
     <g id="line2d_27">
      <g>
       <use style="stroke:#000000;stroke-width:0.6;" x="168.612089" xlink:href="#mff8176ccb3" y="94.5"/>
      </g>
     </g>
    </g>
    <g id="xtick_28">
     <g id="line2d_28">
      <g>
       <use style="stroke:#000000;stroke-width:0.6;" x="186.790909" xlink:href="#mff8176ccb3" y="94.5"/>
      </g>
     </g>
    </g>
    <g id="text_4">
     <!-- $r_0$ -->
     <g transform="translate(105.36 124.29625)scale(0.12 -0.12)">
      <defs>
       <path d="M 44.578125 46.390625 
Q 43.21875 47.125 41.453125 47.515625 
Q 39.703125 47.90625 37.703125 47.90625 
Q 30.515625 47.90625 25.140625 42.453125 
Q 19.78125 37.015625 18.015625 27.875 
L 12.5 0 
L 3.515625 0 
L 14.203125 54.6875 
L 23.1875 54.6875 
L 21.484375 46.1875 
Q 25.046875 50.921875 30 53.453125 
Q 34.96875 56 40.578125 56 
Q 42.046875 56 43.453125 55.828125 
Q 44.875 55.671875 46.296875 55.28125 
z
" id="DejaVuSans-Oblique-114"/>
      </defs>
      <use xlink:href="#DejaVuSans-Oblique-114"/>
      <use transform="translate(41.113281 -16.40625)scale(0.7)" xlink:href="#DejaVuSans-48"/>
     </g>
    </g>
   </g>
   <g id="matplotlib.axis_2">
    <g id="ytick_1">
     <g id="line2d_29">
      <defs>
       <path d="M 0 0 
L -3.5 0 
" id="md4336396b2" style="stroke:#000000;stroke-width:0.8;"/>
      </defs>
      <g>
       <use style="stroke:#000000;stroke-width:0.8;" x="27" xlink:href="#md4336396b2" y="63.610975"/>
      </g>
     </g>
     <g id="text_5">
      <!-- 0.055 -->
      <g transform="translate(-8.628125 67.410193)scale(0.1 -0.1)">
       <defs>
        <path d="M 10.6875 12.40625 
L 21 12.40625 
L 21 0 
L 10.6875 0 
z
" id="DejaVuSans-46"/>
        <path d="M 10.796875 72.90625 
L 49.515625 72.90625 
L 49.515625 64.59375 
L 19.828125 64.59375 
L 19.828125 46.734375 
Q 21.96875 47.46875 24.109375 47.828125 
Q 26.265625 48.1875 28.421875 48.1875 
Q 40.625 48.1875 47.75 41.5 
Q 54.890625 34.8125 54.890625 23.390625 
Q 54.890625 11.625 47.5625 5.09375 
Q 40.234375 -1.421875 26.90625 -1.421875 
Q 22.3125 -1.421875 17.546875 -0.640625 
Q 12.796875 0.140625 7.71875 1.703125 
L 7.71875 11.625 
Q 12.109375 9.234375 16.796875 8.0625 
Q 21.484375 6.890625 26.703125 6.890625 
Q 35.15625 6.890625 40.078125 11.328125 
Q 45.015625 15.765625 45.015625 23.390625 
Q 45.015625 31 40.078125 35.4375 
Q 35.15625 39.890625 26.703125 39.890625 
Q 22.75 39.890625 18.8125 39.015625 
Q 14.890625 38.140625 10.796875 36.28125 
z
" id="DejaVuSans-53"/>
       </defs>
       <use xlink:href="#DejaVuSans-48"/>
       <use x="63.623047" xlink:href="#DejaVuSans-46"/>
       <use x="95.410156" xlink:href="#DejaVuSans-48"/>
       <use x="159.033203" xlink:href="#DejaVuSans-53"/>
       <use x="222.65625" xlink:href="#DejaVuSans-53"/>
      </g>
     </g>
    </g>
    <g id="ytick_2">
     <g id="line2d_30">
      <g>
       <use style="stroke:#000000;stroke-width:0.8;" x="27" xlink:href="#md4336396b2" y="31.118678"/>
      </g>
     </g>
     <g id="text_6">
      <!-- 0.060 -->
      <g transform="translate(-8.628125 34.917897)scale(0.1 -0.1)">
       <defs>
        <path d="M 33.015625 40.375 
Q 26.375 40.375 22.484375 35.828125 
Q 18.609375 31.296875 18.609375 23.390625 
Q 18.609375 15.53125 22.484375 10.953125 
Q 26.375 6.390625 33.015625 6.390625 
Q 39.65625 6.390625 43.53125 10.953125 
Q 47.40625 15.53125 47.40625 23.390625 
Q 47.40625 31.296875 43.53125 35.828125 
Q 39.65625 40.375 33.015625 40.375 
z
M 52.59375 71.296875 
L 52.59375 62.3125 
Q 48.875 64.0625 45.09375 64.984375 
Q 41.3125 65.921875 37.59375 65.921875 
Q 27.828125 65.921875 22.671875 59.328125 
Q 17.53125 52.734375 16.796875 39.40625 
Q 19.671875 43.65625 24.015625 45.921875 
Q 28.375 48.1875 33.59375 48.1875 
Q 44.578125 48.1875 50.953125 41.515625 
Q 57.328125 34.859375 57.328125 23.390625 
Q 57.328125 12.15625 50.6875 5.359375 
Q 44.046875 -1.421875 33.015625 -1.421875 
Q 20.359375 -1.421875 13.671875 8.265625 
Q 6.984375 17.96875 6.984375 36.375 
Q 6.984375 53.65625 15.1875 63.9375 
Q 23.390625 74.21875 37.203125 74.21875 
Q 40.921875 74.21875 44.703125 73.484375 
Q 48.484375 72.75 52.59375 71.296875 
z
" id="DejaVuSans-54"/>
       </defs>
       <use xlink:href="#DejaVuSans-48"/>
       <use x="63.623047" xlink:href="#DejaVuSans-46"/>
       <use x="95.410156" xlink:href="#DejaVuSans-48"/>
       <use x="159.033203" xlink:href="#DejaVuSans-54"/>
       <use x="222.65625" xlink:href="#DejaVuSans-48"/>
      </g>
     </g>
    </g>
    <g id="text_7">
     <!-- $\alpha^*$ -->
     <g transform="translate(-15.12375 61.89)rotate(-90)scale(0.12 -0.12)">
      <defs>
       <path d="M 40.921875 25.4375 
L 40.96875 36.71875 
Q 41.015625 48.25 32.328125 48.296875 
Q 25.828125 48.34375 21.78125 42.921875 
Q 16.703125 36.234375 14.984375 27.296875 
Q 12.890625 16.546875 15.53125 11.421875 
Q 18.265625 6.203125 24.171875 6.203125 
Q 30.71875 6.203125 36.234375 16.609375 
z
M 33.84375 55.90625 
Q 49.078125 56.15625 48.875 40.375 
Q 48.875 40.375 56.5 54.6875 
L 64.5 54.6875 
L 48.734375 25.046875 
L 48.578125 14.359375 
Q 48.578125 11.96875 49.90625 9.96875 
Q 51.421875 7.625 52.984375 7.625 
L 57.328125 7.625 
L 55.859375 0 
L 50.4375 0 
Q 45.84375 0 42.53125 4.109375 
Q 40.96875 6.15625 40.921875 10.453125 
Q 37.75 5.21875 32.28125 0.78125 
Q 29.6875 -1.265625 22.703125 -1.21875 
Q 11.28125 -1.125 7.125 6.203125 
Q 2.875 13.8125 5.515625 27.296875 
Q 8.34375 41.796875 15.765625 48.390625 
Q 24.125 55.765625 33.84375 55.90625 
z
" id="DejaVuSans-Oblique-945"/>
       <path d="M 47.015625 60.890625 
L 29.5 51.421875 
L 47.015625 41.890625 
L 44.1875 37.109375 
L 27.78125 47.015625 
L 27.78125 28.609375 
L 22.21875 28.609375 
L 22.21875 47.015625 
L 5.8125 37.109375 
L 2.984375 41.890625 
L 20.515625 51.421875 
L 2.984375 60.890625 
L 5.8125 65.71875 
L 22.21875 55.8125 
L 22.21875 74.21875 
L 27.78125 74.21875 
L 27.78125 55.8125 
L 44.1875 65.71875 
z
" id="DejaVuSans-42"/>
      </defs>
      <use transform="translate(0 0.765625)" xlink:href="#DejaVuSans-Oblique-945"/>
      <use transform="translate(84.227435 39.046875)scale(0.7)" xlink:href="#DejaVuSans-42"/>
     </g>
    </g>
   </g>
   <g id="patch_3">
    <path d="M 27 94.5 
L 27 12.96 
" style="fill:none;stroke:#000000;stroke-linecap:square;stroke-linejoin:miter;stroke-width:0.8;"/>
   </g>
   <g id="patch_4">
    <path d="M 194.4 94.5 
L 194.4 12.96 
" style="fill:none;stroke:#000000;stroke-linecap:square;stroke-linejoin:miter;stroke-width:0.8;"/>
   </g>
   <g id="patch_5">
    <path d="M 27 94.5 
L 194.4 94.5 
" style="fill:none;stroke:#000000;stroke-linecap:square;stroke-linejoin:miter;stroke-width:0.8;"/>
   </g>
   <g id="patch_6">
    <path d="M 27 12.96 
L 194.4 12.96 
" style="fill:none;stroke:#000000;stroke-linecap:square;stroke-linejoin:miter;stroke-width:0.8;"/>
   </g>
  </g>
 </g>
 <defs>
  <clipPath id="p0375297595">
   <rect height="81.54" width="167.4" x="27" y="12.96"/>
  </clipPath>
 </defs>
</svg>
