<?xml version="1.0" encoding="utf-8" standalone="no"?>
<!DOCTYPE svg PUBLIC "-//W3C//DTD SVG 1.1//EN"
  "http://www.w3.org/Graphics/SVG/1.1/DTD/svg11.dtd">
<!-- Created with matplotlib (https://matplotlib.org/) -->
<svg height="216pt" version="1.1" viewBox="0 0 432 216" width="432pt" xmlns="http://www.w3.org/2000/svg" xmlns:xlink="http://www.w3.org/1999/xlink">
 <metadata>
  <rdf:RDF xmlns:cc="http://creativecommons.org/ns#" xmlns:dc="http://purl.org/dc/elements/1.1/" xmlns:rdf="http://www.w3.org/1999/02/22-rdf-syntax-ns#">
   <cc:Work>
    <dc:type rdf:resource="http://purl.org/dc/dcmitype/StillImage"/>
    <dc:date>2023-07-05T14:39:41.047141</dc:date>
    <dc:format>image/svg+xml</dc:format>
    <dc:creator>
     <cc:Agent>
      <dc:title>Matplotlib v3.3.4, https://matplotlib.org/</dc:title>
     </cc:Agent>
    </dc:creator>
   </cc:Work>
  </rdf:RDF>
 </metadata>
 <defs>
  <style type="text/css">*{stroke-linecap:butt;stroke-linejoin:round;}</style>
 </defs>
 <g id="figure_1">
  <g id="patch_1">
   <path d="M 0 216 
L 432 216 
L 432 0 
L 0 0 
z
" style="fill:none;"/>
  </g>
  <g id="axes_1">
   <g id="patch_2">
    <path d="M 54 189 
L 388.8 189 
L 388.8 25.92 
L 54 25.92 
z
" style="fill:#ffffff;"/>
   </g>
   <g id="PathCollection_1">
    <defs>
     <path d="M 0 3.872983 
C 1.027127 3.872983 2.012324 3.464901 2.738613 2.738613 
C 3.464901 2.012324 3.872983 1.027127 3.872983 -0 
C 3.872983 -1.027127 3.464901 -2.012324 2.738613 -2.738613 
C 2.012324 -3.464901 1.027127 -3.872983 0 -3.872983 
C -1.027127 -3.872983 -2.012324 -3.464901 -2.738613 -2.738613 
C -3.464901 -2.012324 -3.872983 -1.027127 -3.872983 0 
C -3.872983 1.027127 -3.464901 2.012324 -2.738613 2.738613 
C -2.012324 3.464901 -1.027127 3.872983 0 3.872983 
z
" id="C0_0_6234806e11"/>
    </defs>
    <g clip-path="url(#p984e847876)">
     <use style="fill:none;stroke:#0000ff;" x="69.218182" xlink:href="#C0_0_6234806e11" y="36.835626"/>
    </g>
    <g clip-path="url(#p984e847876)">
     <use style="fill:none;stroke:#0000ff;" x="85.237321" xlink:href="#C0_0_6234806e11" y="38.36364"/>
    </g>
    <g clip-path="url(#p984e847876)">
     <use style="fill:none;stroke:#0000ff;" x="101.256459" xlink:href="#C0_0_6234806e11" y="40.46704"/>
    </g>
    <g clip-path="url(#p984e847876)">
     <use style="fill:none;stroke:#0000ff;" x="117.275598" xlink:href="#C0_0_6234806e11" y="44.771788"/>
    </g>
    <g clip-path="url(#p984e847876)">
     <use style="fill:none;stroke:#0000ff;" x="133.294737" xlink:href="#C0_0_6234806e11" y="49.89181"/>
    </g>
    <g clip-path="url(#p984e847876)">
     <use style="fill:none;stroke:#0000ff;" x="149.313876" xlink:href="#C0_0_6234806e11" y="58.043492"/>
    </g>
    <g clip-path="url(#p984e847876)">
     <use style="fill:none;stroke:#0000ff;" x="165.333014" xlink:href="#C0_0_6234806e11" y="67.023461"/>
    </g>
    <g clip-path="url(#p984e847876)">
     <use style="fill:none;stroke:#0000ff;" x="181.352153" xlink:href="#C0_0_6234806e11" y="78.154458"/>
    </g>
    <g clip-path="url(#p984e847876)">
     <use style="fill:none;stroke:#0000ff;" x="197.371292" xlink:href="#C0_0_6234806e11" y="90.792916"/>
    </g>
    <g clip-path="url(#p984e847876)">
     <use style="fill:none;stroke:#0000ff;" x="213.390431" xlink:href="#C0_0_6234806e11" y="103.289775"/>
    </g>
    <g clip-path="url(#p984e847876)">
     <use style="fill:none;stroke:#0000ff;" x="229.409569" xlink:href="#C0_0_6234806e11" y="115.204115"/>
    </g>
    <g clip-path="url(#p984e847876)">
     <use style="fill:none;stroke:#0000ff;" x="245.428708" xlink:href="#C0_0_6234806e11" y="127.114576"/>
    </g>
    <g clip-path="url(#p984e847876)">
     <use style="fill:none;stroke:#0000ff;" x="261.447847" xlink:href="#C0_0_6234806e11" y="137.676084"/>
    </g>
    <g clip-path="url(#p984e847876)">
     <use style="fill:none;stroke:#0000ff;" x="277.466986" xlink:href="#C0_0_6234806e11" y="147.079387"/>
    </g>
    <g clip-path="url(#p984e847876)">
     <use style="fill:none;stroke:#0000ff;" x="293.486124" xlink:href="#C0_0_6234806e11" y="155.244226"/>
    </g>
    <g clip-path="url(#p984e847876)">
     <use style="fill:none;stroke:#0000ff;" x="309.505263" xlink:href="#C0_0_6234806e11" y="162.074699"/>
    </g>
    <g clip-path="url(#p984e847876)">
     <use style="fill:none;stroke:#0000ff;" x="325.524402" xlink:href="#C0_0_6234806e11" y="167.987994"/>
    </g>
    <g clip-path="url(#p984e847876)">
     <use style="fill:none;stroke:#0000ff;" x="341.543541" xlink:href="#C0_0_6234806e11" y="172.813512"/>
    </g>
    <g clip-path="url(#p984e847876)">
     <use style="fill:none;stroke:#0000ff;" x="357.562679" xlink:href="#C0_0_6234806e11" y="176.758844"/>
    </g>
    <g clip-path="url(#p984e847876)">
     <use style="fill:none;stroke:#0000ff;" x="373.581818" xlink:href="#C0_0_6234806e11" y="179.934461"/>
    </g>
   </g>
   <g id="PathCollection_2">
    <defs>
     <path d="M -3.872983 3.872983 
L 3.872983 3.872983 
L 3.872983 -3.872983 
L -3.872983 -3.872983 
z
" id="C1_0_6df5890f9d"/>
    </defs>
    <g clip-path="url(#p984e847876)">
     <use style="fill:none;stroke:#a2cffe;" x="69.218182" xlink:href="#C1_0_6df5890f9d" y="37.318351"/>
    </g>
    <g clip-path="url(#p984e847876)">
     <use style="fill:none;stroke:#a2cffe;" x="85.237321" xlink:href="#C1_0_6df5890f9d" y="38.835974"/>
    </g>
    <g clip-path="url(#p984e847876)">
     <use style="fill:none;stroke:#a2cffe;" x="101.256459" xlink:href="#C1_0_6df5890f9d" y="41.896545"/>
    </g>
    <g clip-path="url(#p984e847876)">
     <use style="fill:none;stroke:#a2cffe;" x="117.275598" xlink:href="#C1_0_6df5890f9d" y="46.227581"/>
    </g>
    <g clip-path="url(#p984e847876)">
     <use style="fill:none;stroke:#a2cffe;" x="133.294737" xlink:href="#C1_0_6df5890f9d" y="51.931925"/>
    </g>
    <g clip-path="url(#p984e847876)">
     <use style="fill:none;stroke:#a2cffe;" x="149.313876" xlink:href="#C1_0_6df5890f9d" y="60.041316"/>
    </g>
    <g clip-path="url(#p984e847876)">
     <use style="fill:none;stroke:#a2cffe;" x="165.333014" xlink:href="#C1_0_6df5890f9d" y="70.05278"/>
    </g>
    <g clip-path="url(#p984e847876)">
     <use style="fill:none;stroke:#a2cffe;" x="181.352153" xlink:href="#C1_0_6df5890f9d" y="81.528069"/>
    </g>
    <g clip-path="url(#p984e847876)">
     <use style="fill:none;stroke:#a2cffe;" x="197.371292" xlink:href="#C1_0_6df5890f9d" y="94.436702"/>
    </g>
    <g clip-path="url(#p984e847876)">
     <use style="fill:none;stroke:#a2cffe;" x="213.390431" xlink:href="#C1_0_6df5890f9d" y="106.496619"/>
    </g>
    <g clip-path="url(#p984e847876)">
     <use style="fill:none;stroke:#a2cffe;" x="229.409569" xlink:href="#C1_0_6df5890f9d" y="119.097823"/>
    </g>
    <g clip-path="url(#p984e847876)">
     <use style="fill:none;stroke:#a2cffe;" x="245.428708" xlink:href="#C1_0_6df5890f9d" y="130.388852"/>
    </g>
    <g clip-path="url(#p984e847876)">
     <use style="fill:none;stroke:#a2cffe;" x="261.447847" xlink:href="#C1_0_6df5890f9d" y="140.570431"/>
    </g>
    <g clip-path="url(#p984e847876)">
     <use style="fill:none;stroke:#a2cffe;" x="277.466986" xlink:href="#C1_0_6df5890f9d" y="149.573325"/>
    </g>
    <g clip-path="url(#p984e847876)">
     <use style="fill:none;stroke:#a2cffe;" x="293.486124" xlink:href="#C1_0_6df5890f9d" y="157.013027"/>
    </g>
    <g clip-path="url(#p984e847876)">
     <use style="fill:none;stroke:#a2cffe;" x="309.505263" xlink:href="#C1_0_6df5890f9d" y="163.634063"/>
    </g>
    <g clip-path="url(#p984e847876)">
     <use style="fill:none;stroke:#a2cffe;" x="325.524402" xlink:href="#C1_0_6df5890f9d" y="169.299168"/>
    </g>
    <g clip-path="url(#p984e847876)">
     <use style="fill:none;stroke:#a2cffe;" x="341.543541" xlink:href="#C1_0_6df5890f9d" y="173.877056"/>
    </g>
    <g clip-path="url(#p984e847876)">
     <use style="fill:none;stroke:#a2cffe;" x="357.562679" xlink:href="#C1_0_6df5890f9d" y="177.667431"/>
    </g>
    <g clip-path="url(#p984e847876)">
     <use style="fill:none;stroke:#a2cffe;" x="373.581818" xlink:href="#C1_0_6df5890f9d" y="180.690044"/>
    </g>
   </g>
   <g id="PathCollection_3">
    <path clip-path="url(#p984e847876)" d="M 69.218182 42.185519 
L 73.091165 34.439552 
L 65.345198 34.439552 
z
" style="fill:none;stroke:#2c6fbb;"/>
    <path clip-path="url(#p984e847876)" d="M 85.237321 44.191262 
L 89.110304 36.445296 
L 81.364337 36.445296 
z
" style="fill:none;stroke:#2c6fbb;"/>
    <path clip-path="url(#p984e847876)" d="M 101.256459 47.394738 
L 105.129443 39.648772 
L 97.383476 39.648772 
z
" style="fill:none;stroke:#2c6fbb;"/>
    <path clip-path="url(#p984e847876)" d="M 117.275598 52.251544 
L 121.148581 44.505577 
L 113.402615 44.505577 
z
" style="fill:none;stroke:#2c6fbb;"/>
    <path clip-path="url(#p984e847876)" d="M 133.294737 59.122786 
L 137.16772 51.376819 
L 129.421753 51.376819 
z
" style="fill:none;stroke:#2c6fbb;"/>
    <path clip-path="url(#p984e847876)" d="M 149.313876 68.081804 
L 153.186859 60.335837 
L 145.440892 60.335837 
z
" style="fill:none;stroke:#2c6fbb;"/>
    <path clip-path="url(#p984e847876)" d="M 165.333014 78.868344 
L 169.205998 71.122378 
L 161.460031 71.122378 
z
" style="fill:none;stroke:#2c6fbb;"/>
    <path clip-path="url(#p984e847876)" d="M 181.352153 90.821662 
L 185.225136 83.075695 
L 177.47917 83.075695 
z
" style="fill:none;stroke:#2c6fbb;"/>
    <path clip-path="url(#p984e847876)" d="M 197.371292 103.357363 
L 201.244275 95.611397 
L 193.498309 95.611397 
z
" style="fill:none;stroke:#2c6fbb;"/>
    <path clip-path="url(#p984e847876)" d="M 213.390431 115.309694 
L 217.263414 107.563727 
L 209.517447 107.563727 
z
" style="fill:none;stroke:#2c6fbb;"/>
    <path clip-path="url(#p984e847876)" d="M 229.409569 127.709021 
L 233.282553 119.963055 
L 225.536586 119.963055 
z
" style="fill:none;stroke:#2c6fbb;"/>
    <path clip-path="url(#p984e847876)" d="M 245.428708 138.349384 
L 249.301691 130.603417 
L 241.555725 130.603417 
z
" style="fill:none;stroke:#2c6fbb;"/>
    <path clip-path="url(#p984e847876)" d="M 261.447847 147.982818 
L 265.32083 140.236851 
L 257.574864 140.236851 
z
" style="fill:none;stroke:#2c6fbb;"/>
    <path clip-path="url(#p984e847876)" d="M 277.466986 155.7394 
L 281.339969 147.993433 
L 273.594002 147.993433 
z
" style="fill:none;stroke:#2c6fbb;"/>
    <path clip-path="url(#p984e847876)" d="M 293.486124 163.159013 
L 297.359108 155.413046 
L 289.613141 155.413046 
z
" style="fill:none;stroke:#2c6fbb;"/>
    <path clip-path="url(#p984e847876)" d="M 309.505263 169.585646 
L 313.378247 161.839679 
L 305.63228 161.839679 
z
" style="fill:none;stroke:#2c6fbb;"/>
    <path clip-path="url(#p984e847876)" d="M 325.524402 174.800233 
L 329.397385 167.054266 
L 321.651419 167.054266 
z
" style="fill:none;stroke:#2c6fbb;"/>
    <path clip-path="url(#p984e847876)" d="M 341.543541 179.188593 
L 345.416524 171.442626 
L 337.670557 171.442626 
z
" style="fill:none;stroke:#2c6fbb;"/>
    <path clip-path="url(#p984e847876)" d="M 357.562679 182.670277 
L 361.435663 174.924311 
L 353.689696 174.924311 
z
" style="fill:none;stroke:#2c6fbb;"/>
    <path clip-path="url(#p984e847876)" d="M 373.581818 185.460256 
L 377.454802 177.714289 
L 369.708835 177.714289 
z
" style="fill:none;stroke:#2c6fbb;"/>
   </g>
   <g id="matplotlib.axis_1">
    <g id="xtick_1">
     <g id="line2d_1">
      <defs>
       <path d="M 0 0 
L 0 3.5 
" id="m9d7d5b69c8" style="stroke:#000000;stroke-width:0.8;"/>
      </defs>
      <g>
       <use style="stroke:#000000;stroke-width:0.8;" x="89.127219" xlink:href="#m9d7d5b69c8" y="189"/>
      </g>
     </g>
     <g id="text_1">
      <!-- $\mathdefault{10^{3}}$ -->
      <g transform="translate(80.327219 203.598437)scale(0.1 -0.1)">
       <defs>
        <path d="M 12.40625 8.296875 
L 28.515625 8.296875 
L 28.515625 63.921875 
L 10.984375 60.40625 
L 10.984375 69.390625 
L 28.421875 72.90625 
L 38.28125 72.90625 
L 38.28125 8.296875 
L 54.390625 8.296875 
L 54.390625 0 
L 12.40625 0 
z
" id="DejaVuSans-49"/>
        <path d="M 31.78125 66.40625 
Q 24.171875 66.40625 20.328125 58.90625 
Q 16.5 51.421875 16.5 36.375 
Q 16.5 21.390625 20.328125 13.890625 
Q 24.171875 6.390625 31.78125 6.390625 
Q 39.453125 6.390625 43.28125 13.890625 
Q 47.125 21.390625 47.125 36.375 
Q 47.125 51.421875 43.28125 58.90625 
Q 39.453125 66.40625 31.78125 66.40625 
z
M 31.78125 74.21875 
Q 44.046875 74.21875 50.515625 64.515625 
Q 56.984375 54.828125 56.984375 36.375 
Q 56.984375 17.96875 50.515625 8.265625 
Q 44.046875 -1.421875 31.78125 -1.421875 
Q 19.53125 -1.421875 13.0625 8.265625 
Q 6.59375 17.96875 6.59375 36.375 
Q 6.59375 54.828125 13.0625 64.515625 
Q 19.53125 74.21875 31.78125 74.21875 
z
" id="DejaVuSans-48"/>
        <path d="M 40.578125 39.3125 
Q 47.65625 37.796875 51.625 33 
Q 55.609375 28.21875 55.609375 21.1875 
Q 55.609375 10.40625 48.1875 4.484375 
Q 40.765625 -1.421875 27.09375 -1.421875 
Q 22.515625 -1.421875 17.65625 -0.515625 
Q 12.796875 0.390625 7.625 2.203125 
L 7.625 11.71875 
Q 11.71875 9.328125 16.59375 8.109375 
Q 21.484375 6.890625 26.8125 6.890625 
Q 36.078125 6.890625 40.9375 10.546875 
Q 45.796875 14.203125 45.796875 21.1875 
Q 45.796875 27.640625 41.28125 31.265625 
Q 36.765625 34.90625 28.71875 34.90625 
L 20.21875 34.90625 
L 20.21875 43.015625 
L 29.109375 43.015625 
Q 36.375 43.015625 40.234375 45.921875 
Q 44.09375 48.828125 44.09375 54.296875 
Q 44.09375 59.90625 40.109375 62.90625 
Q 36.140625 65.921875 28.71875 65.921875 
Q 24.65625 65.921875 20.015625 65.03125 
Q 15.375 64.15625 9.8125 62.3125 
L 9.8125 71.09375 
Q 15.4375 72.65625 20.34375 73.4375 
Q 25.25 74.21875 29.59375 74.21875 
Q 40.828125 74.21875 47.359375 69.109375 
Q 53.90625 64.015625 53.90625 55.328125 
Q 53.90625 49.265625 50.4375 45.09375 
Q 46.96875 40.921875 40.578125 39.3125 
z
" id="DejaVuSans-51"/>
       </defs>
       <use transform="translate(0 0.765625)" xlink:href="#DejaVuSans-49"/>
       <use transform="translate(63.623047 0.765625)" xlink:href="#DejaVuSans-48"/>
       <use transform="translate(128.203125 39.046875)scale(0.7)" xlink:href="#DejaVuSans-51"/>
      </g>
     </g>
    </g>
    <g id="xtick_2">
     <g id="line2d_2">
      <g>
       <use style="stroke:#000000;stroke-width:0.8;" x="155.26361" xlink:href="#m9d7d5b69c8" y="189"/>
      </g>
     </g>
     <g id="text_2">
      <!-- $\mathdefault{10^{4}}$ -->
      <g transform="translate(146.46361 203.598437)scale(0.1 -0.1)">
       <defs>
        <path d="M 37.796875 64.3125 
L 12.890625 25.390625 
L 37.796875 25.390625 
z
M 35.203125 72.90625 
L 47.609375 72.90625 
L 47.609375 25.390625 
L 58.015625 25.390625 
L 58.015625 17.1875 
L 47.609375 17.1875 
L 47.609375 0 
L 37.796875 0 
L 37.796875 17.1875 
L 4.890625 17.1875 
L 4.890625 26.703125 
z
" id="DejaVuSans-52"/>
       </defs>
       <use transform="translate(0 0.684375)" xlink:href="#DejaVuSans-49"/>
       <use transform="translate(63.623047 0.684375)" xlink:href="#DejaVuSans-48"/>
       <use transform="translate(128.203125 38.965625)scale(0.7)" xlink:href="#DejaVuSans-52"/>
      </g>
     </g>
    </g>
    <g id="xtick_3">
     <g id="line2d_3">
      <g>
       <use style="stroke:#000000;stroke-width:0.8;" x="221.4" xlink:href="#m9d7d5b69c8" y="189"/>
      </g>
     </g>
     <g id="text_3">
      <!-- $\mathdefault{10^{5}}$ -->
      <g transform="translate(212.6 203.598437)scale(0.1 -0.1)">
       <defs>
        <path d="M 10.796875 72.90625 
L 49.515625 72.90625 
L 49.515625 64.59375 
L 19.828125 64.59375 
L 19.828125 46.734375 
Q 21.96875 47.46875 24.109375 47.828125 
Q 26.265625 48.1875 28.421875 48.1875 
Q 40.625 48.1875 47.75 41.5 
Q 54.890625 34.8125 54.890625 23.390625 
Q 54.890625 11.625 47.5625 5.09375 
Q 40.234375 -1.421875 26.90625 -1.421875 
Q 22.3125 -1.421875 17.546875 -0.640625 
Q 12.796875 0.140625 7.71875 1.703125 
L 7.71875 11.625 
Q 12.109375 9.234375 16.796875 8.0625 
Q 21.484375 6.890625 26.703125 6.890625 
Q 35.15625 6.890625 40.078125 11.328125 
Q 45.015625 15.765625 45.015625 23.390625 
Q 45.015625 31 40.078125 35.4375 
Q 35.15625 39.890625 26.703125 39.890625 
Q 22.75 39.890625 18.8125 39.015625 
Q 14.890625 38.140625 10.796875 36.28125 
z
" id="DejaVuSans-53"/>
       </defs>
       <use transform="translate(0 0.684375)" xlink:href="#DejaVuSans-49"/>
       <use transform="translate(63.623047 0.684375)" xlink:href="#DejaVuSans-48"/>
       <use transform="translate(128.203125 38.965625)scale(0.7)" xlink:href="#DejaVuSans-53"/>
      </g>
     </g>
    </g>
    <g id="xtick_4">
     <g id="line2d_4">
      <g>
       <use style="stroke:#000000;stroke-width:0.8;" x="287.53639" xlink:href="#m9d7d5b69c8" y="189"/>
      </g>
     </g>
     <g id="text_4">
      <!-- $\mathdefault{10^{6}}$ -->
      <g transform="translate(278.73639 203.598437)scale(0.1 -0.1)">
       <defs>
        <path d="M 33.015625 40.375 
Q 26.375 40.375 22.484375 35.828125 
Q 18.609375 31.296875 18.609375 23.390625 
Q 18.609375 15.53125 22.484375 10.953125 
Q 26.375 6.390625 33.015625 6.390625 
Q 39.65625 6.390625 43.53125 10.953125 
Q 47.40625 15.53125 47.40625 23.390625 
Q 47.40625 31.296875 43.53125 35.828125 
Q 39.65625 40.375 33.015625 40.375 
z
M 52.59375 71.296875 
L 52.59375 62.3125 
Q 48.875 64.0625 45.09375 64.984375 
Q 41.3125 65.921875 37.59375 65.921875 
Q 27.828125 65.921875 22.671875 59.328125 
Q 17.53125 52.734375 16.796875 39.40625 
Q 19.671875 43.65625 24.015625 45.921875 
Q 28.375 48.1875 33.59375 48.1875 
Q 44.578125 48.1875 50.953125 41.515625 
Q 57.328125 34.859375 57.328125 23.390625 
Q 57.328125 12.15625 50.6875 5.359375 
Q 44.046875 -1.421875 33.015625 -1.421875 
Q 20.359375 -1.421875 13.671875 8.265625 
Q 6.984375 17.96875 6.984375 36.375 
Q 6.984375 53.65625 15.1875 63.9375 
Q 23.390625 74.21875 37.203125 74.21875 
Q 40.921875 74.21875 44.703125 73.484375 
Q 48.484375 72.75 52.59375 71.296875 
z
" id="DejaVuSans-54"/>
       </defs>
       <use transform="translate(0 0.765625)" xlink:href="#DejaVuSans-49"/>
       <use transform="translate(63.623047 0.765625)" xlink:href="#DejaVuSans-48"/>
       <use transform="translate(128.203125 39.046875)scale(0.7)" xlink:href="#DejaVuSans-54"/>
      </g>
     </g>
    </g>
    <g id="xtick_5">
     <g id="line2d_5">
      <g>
       <use style="stroke:#000000;stroke-width:0.8;" x="353.672781" xlink:href="#m9d7d5b69c8" y="189"/>
      </g>
     </g>
     <g id="text_5">
      <!-- $\mathdefault{10^{7}}$ -->
      <g transform="translate(344.872781 203.598437)scale(0.1 -0.1)">
       <defs>
        <path d="M 8.203125 72.90625 
L 55.078125 72.90625 
L 55.078125 68.703125 
L 28.609375 0 
L 18.3125 0 
L 43.21875 64.59375 
L 8.203125 64.59375 
z
" id="DejaVuSans-55"/>
       </defs>
       <use transform="translate(0 0.684375)" xlink:href="#DejaVuSans-49"/>
       <use transform="translate(63.623047 0.684375)" xlink:href="#DejaVuSans-48"/>
       <use transform="translate(128.203125 38.965625)scale(0.7)" xlink:href="#DejaVuSans-55"/>
      </g>
     </g>
    </g>
    <g id="xtick_6">
     <g id="line2d_6">
      <defs>
       <path d="M 0 0 
L 0 2 
" id="mefd7f91065" style="stroke:#000000;stroke-width:0.6;"/>
      </defs>
      <g>
       <use style="stroke:#000000;stroke-width:0.6;" x="54.545906" xlink:href="#mefd7f91065" y="189"/>
      </g>
     </g>
    </g>
    <g id="xtick_7">
     <g id="line2d_7">
      <g>
       <use style="stroke:#000000;stroke-width:0.6;" x="62.808903" xlink:href="#mefd7f91065" y="189"/>
      </g>
     </g>
    </g>
    <g id="xtick_8">
     <g id="line2d_8">
      <g>
       <use style="stroke:#000000;stroke-width:0.6;" x="69.218182" xlink:href="#mefd7f91065" y="189"/>
      </g>
     </g>
    </g>
    <g id="xtick_9">
     <g id="line2d_9">
      <g>
       <use style="stroke:#000000;stroke-width:0.6;" x="74.454944" xlink:href="#mefd7f91065" y="189"/>
      </g>
     </g>
    </g>
    <g id="xtick_10">
     <g id="line2d_10">
      <g>
       <use style="stroke:#000000;stroke-width:0.6;" x="78.882563" xlink:href="#mefd7f91065" y="189"/>
      </g>
     </g>
    </g>
    <g id="xtick_11">
     <g id="line2d_11">
      <g>
       <use style="stroke:#000000;stroke-width:0.6;" x="82.717941" xlink:href="#mefd7f91065" y="189"/>
      </g>
     </g>
    </g>
    <g id="xtick_12">
     <g id="line2d_12">
      <g>
       <use style="stroke:#000000;stroke-width:0.6;" x="86.100984" xlink:href="#mefd7f91065" y="189"/>
      </g>
     </g>
    </g>
    <g id="xtick_13">
     <g id="line2d_13">
      <g>
       <use style="stroke:#000000;stroke-width:0.6;" x="109.036256" xlink:href="#mefd7f91065" y="189"/>
      </g>
     </g>
    </g>
    <g id="xtick_14">
     <g id="line2d_14">
      <g>
       <use style="stroke:#000000;stroke-width:0.6;" x="120.682297" xlink:href="#mefd7f91065" y="189"/>
      </g>
     </g>
    </g>
    <g id="xtick_15">
     <g id="line2d_15">
      <g>
       <use style="stroke:#000000;stroke-width:0.6;" x="128.945294" xlink:href="#mefd7f91065" y="189"/>
      </g>
     </g>
    </g>
    <g id="xtick_16">
     <g id="line2d_16">
      <g>
       <use style="stroke:#000000;stroke-width:0.6;" x="135.354572" xlink:href="#mefd7f91065" y="189"/>
      </g>
     </g>
    </g>
    <g id="xtick_17">
     <g id="line2d_17">
      <g>
       <use style="stroke:#000000;stroke-width:0.6;" x="140.591334" xlink:href="#mefd7f91065" y="189"/>
      </g>
     </g>
    </g>
    <g id="xtick_18">
     <g id="line2d_18">
      <g>
       <use style="stroke:#000000;stroke-width:0.6;" x="145.018953" xlink:href="#mefd7f91065" y="189"/>
      </g>
     </g>
    </g>
    <g id="xtick_19">
     <g id="line2d_19">
      <g>
       <use style="stroke:#000000;stroke-width:0.6;" x="148.854331" xlink:href="#mefd7f91065" y="189"/>
      </g>
     </g>
    </g>
    <g id="xtick_20">
     <g id="line2d_20">
      <g>
       <use style="stroke:#000000;stroke-width:0.6;" x="152.237374" xlink:href="#mefd7f91065" y="189"/>
      </g>
     </g>
    </g>
    <g id="xtick_21">
     <g id="line2d_21">
      <g>
       <use style="stroke:#000000;stroke-width:0.6;" x="175.172647" xlink:href="#mefd7f91065" y="189"/>
      </g>
     </g>
    </g>
    <g id="xtick_22">
     <g id="line2d_22">
      <g>
       <use style="stroke:#000000;stroke-width:0.6;" x="186.818687" xlink:href="#mefd7f91065" y="189"/>
      </g>
     </g>
    </g>
    <g id="xtick_23">
     <g id="line2d_23">
      <g>
       <use style="stroke:#000000;stroke-width:0.6;" x="195.081684" xlink:href="#mefd7f91065" y="189"/>
      </g>
     </g>
    </g>
    <g id="xtick_24">
     <g id="line2d_24">
      <g>
       <use style="stroke:#000000;stroke-width:0.6;" x="201.490963" xlink:href="#mefd7f91065" y="189"/>
      </g>
     </g>
    </g>
    <g id="xtick_25">
     <g id="line2d_25">
      <g>
       <use style="stroke:#000000;stroke-width:0.6;" x="206.727724" xlink:href="#mefd7f91065" y="189"/>
      </g>
     </g>
    </g>
    <g id="xtick_26">
     <g id="line2d_26">
      <g>
       <use style="stroke:#000000;stroke-width:0.6;" x="211.155343" xlink:href="#mefd7f91065" y="189"/>
      </g>
     </g>
    </g>
    <g id="xtick_27">
     <g id="line2d_27">
      <g>
       <use style="stroke:#000000;stroke-width:0.6;" x="214.990722" xlink:href="#mefd7f91065" y="189"/>
      </g>
     </g>
    </g>
    <g id="xtick_28">
     <g id="line2d_28">
      <g>
       <use style="stroke:#000000;stroke-width:0.6;" x="218.373765" xlink:href="#mefd7f91065" y="189"/>
      </g>
     </g>
    </g>
    <g id="xtick_29">
     <g id="line2d_29">
      <g>
       <use style="stroke:#000000;stroke-width:0.6;" x="241.309037" xlink:href="#mefd7f91065" y="189"/>
      </g>
     </g>
    </g>
    <g id="xtick_30">
     <g id="line2d_30">
      <g>
       <use style="stroke:#000000;stroke-width:0.6;" x="252.955078" xlink:href="#mefd7f91065" y="189"/>
      </g>
     </g>
    </g>
    <g id="xtick_31">
     <g id="line2d_31">
      <g>
       <use style="stroke:#000000;stroke-width:0.6;" x="261.218075" xlink:href="#mefd7f91065" y="189"/>
      </g>
     </g>
    </g>
    <g id="xtick_32">
     <g id="line2d_32">
      <g>
       <use style="stroke:#000000;stroke-width:0.6;" x="267.627353" xlink:href="#mefd7f91065" y="189"/>
      </g>
     </g>
    </g>
    <g id="xtick_33">
     <g id="line2d_33">
      <g>
       <use style="stroke:#000000;stroke-width:0.6;" x="272.864115" xlink:href="#mefd7f91065" y="189"/>
      </g>
     </g>
    </g>
    <g id="xtick_34">
     <g id="line2d_34">
      <g>
       <use style="stroke:#000000;stroke-width:0.6;" x="277.291734" xlink:href="#mefd7f91065" y="189"/>
      </g>
     </g>
    </g>
    <g id="xtick_35">
     <g id="line2d_35">
      <g>
       <use style="stroke:#000000;stroke-width:0.6;" x="281.127112" xlink:href="#mefd7f91065" y="189"/>
      </g>
     </g>
    </g>
    <g id="xtick_36">
     <g id="line2d_36">
      <g>
       <use style="stroke:#000000;stroke-width:0.6;" x="284.510155" xlink:href="#mefd7f91065" y="189"/>
      </g>
     </g>
    </g>
    <g id="xtick_37">
     <g id="line2d_37">
      <g>
       <use style="stroke:#000000;stroke-width:0.6;" x="307.445428" xlink:href="#mefd7f91065" y="189"/>
      </g>
     </g>
    </g>
    <g id="xtick_38">
     <g id="line2d_38">
      <g>
       <use style="stroke:#000000;stroke-width:0.6;" x="319.091468" xlink:href="#mefd7f91065" y="189"/>
      </g>
     </g>
    </g>
    <g id="xtick_39">
     <g id="line2d_39">
      <g>
       <use style="stroke:#000000;stroke-width:0.6;" x="327.354465" xlink:href="#mefd7f91065" y="189"/>
      </g>
     </g>
    </g>
    <g id="xtick_40">
     <g id="line2d_40">
      <g>
       <use style="stroke:#000000;stroke-width:0.6;" x="333.763744" xlink:href="#mefd7f91065" y="189"/>
      </g>
     </g>
    </g>
    <g id="xtick_41">
     <g id="line2d_41">
      <g>
       <use style="stroke:#000000;stroke-width:0.6;" x="339.000505" xlink:href="#mefd7f91065" y="189"/>
      </g>
     </g>
    </g>
    <g id="xtick_42">
     <g id="line2d_42">
      <g>
       <use style="stroke:#000000;stroke-width:0.6;" x="343.428124" xlink:href="#mefd7f91065" y="189"/>
      </g>
     </g>
    </g>
    <g id="xtick_43">
     <g id="line2d_43">
      <g>
       <use style="stroke:#000000;stroke-width:0.6;" x="347.263502" xlink:href="#mefd7f91065" y="189"/>
      </g>
     </g>
    </g>
    <g id="xtick_44">
     <g id="line2d_44">
      <g>
       <use style="stroke:#000000;stroke-width:0.6;" x="350.646546" xlink:href="#mefd7f91065" y="189"/>
      </g>
     </g>
    </g>
    <g id="xtick_45">
     <g id="line2d_45">
      <g>
       <use style="stroke:#000000;stroke-width:0.6;" x="373.581818" xlink:href="#mefd7f91065" y="189"/>
      </g>
     </g>
    </g>
    <g id="xtick_46">
     <g id="line2d_46">
      <g>
       <use style="stroke:#000000;stroke-width:0.6;" x="385.227858" xlink:href="#mefd7f91065" y="189"/>
      </g>
     </g>
    </g>
    <g id="text_6">
     <!-- $r_0^2/D$ -->
     <g transform="translate(209.16 220.598125)scale(0.12 -0.12)">
      <defs>
       <path d="M 44.578125 46.390625 
Q 43.21875 47.125 41.453125 47.515625 
Q 39.703125 47.90625 37.703125 47.90625 
Q 30.515625 47.90625 25.140625 42.453125 
Q 19.78125 37.015625 18.015625 27.875 
L 12.5 0 
L 3.515625 0 
L 14.203125 54.6875 
L 23.1875 54.6875 
L 21.484375 46.1875 
Q 25.046875 50.921875 30 53.453125 
Q 34.96875 56 40.578125 56 
Q 42.046875 56 43.453125 55.828125 
Q 44.875 55.671875 46.296875 55.28125 
z
" id="DejaVuSans-Oblique-114"/>
       <path d="M 19.1875 8.296875 
L 53.609375 8.296875 
L 53.609375 0 
L 7.328125 0 
L 7.328125 8.296875 
Q 12.9375 14.109375 22.625 23.890625 
Q 32.328125 33.6875 34.8125 36.53125 
Q 39.546875 41.84375 41.421875 45.53125 
Q 43.3125 49.21875 43.3125 52.78125 
Q 43.3125 58.59375 39.234375 62.25 
Q 35.15625 65.921875 28.609375 65.921875 
Q 23.96875 65.921875 18.8125 64.3125 
Q 13.671875 62.703125 7.8125 59.421875 
L 7.8125 69.390625 
Q 13.765625 71.78125 18.9375 73 
Q 24.125 74.21875 28.421875 74.21875 
Q 39.75 74.21875 46.484375 68.546875 
Q 53.21875 62.890625 53.21875 53.421875 
Q 53.21875 48.921875 51.53125 44.890625 
Q 49.859375 40.875 45.40625 35.40625 
Q 44.1875 33.984375 37.640625 27.21875 
Q 31.109375 20.453125 19.1875 8.296875 
z
" id="DejaVuSans-50"/>
       <path d="M 25.390625 72.90625 
L 33.6875 72.90625 
L 8.296875 -9.28125 
L 0 -9.28125 
z
" id="DejaVuSans-47"/>
       <path d="M 16.890625 72.90625 
L 38.09375 72.90625 
Q 54.984375 72.90625 63.59375 65.75 
Q 72.21875 58.59375 72.21875 44.484375 
Q 72.21875 35.15625 68.9375 26.53125 
Q 65.671875 17.921875 59.90625 12.015625 
Q 54.109375 5.953125 45.171875 2.96875 
Q 36.234375 0 24.03125 0 
L 2.6875 0 
z
M 25.203125 64.796875 
L 14.203125 8.109375 
L 27.09375 8.109375 
Q 43.65625 8.109375 52.734375 17.625 
Q 61.8125 27.15625 61.8125 44.484375 
Q 61.8125 54.984375 55.953125 59.890625 
Q 50.09375 64.796875 37.59375 64.796875 
z
" id="DejaVuSans-Oblique-68"/>
      </defs>
      <use transform="translate(0 0.765625)" xlink:href="#DejaVuSans-Oblique-114"/>
      <use transform="translate(45.763177 39.046875)scale(0.7)" xlink:href="#DejaVuSans-50"/>
      <use transform="translate(41.113281 -26.578125)scale(0.7)" xlink:href="#DejaVuSans-48"/>
      <use transform="translate(93.033685 0.765625)" xlink:href="#DejaVuSans-47"/>
      <use transform="translate(126.725091 0.765625)" xlink:href="#DejaVuSans-Oblique-68"/>
     </g>
    </g>
   </g>
   <g id="matplotlib.axis_2">
    <g id="ytick_1">
     <g id="line2d_47">
      <defs>
       <path d="M 0 0 
L -3.5 0 
" id="m4461835437" style="stroke:#000000;stroke-width:0.8;"/>
      </defs>
      <g>
       <use style="stroke:#000000;stroke-width:0.8;" x="54" xlink:href="#m4461835437" y="166.575969"/>
      </g>
     </g>
     <g id="text_7">
      <!-- 0.052 -->
      <g transform="translate(18.371875 170.375188)scale(0.1 -0.1)">
       <defs>
        <path d="M 10.6875 12.40625 
L 21 12.40625 
L 21 0 
L 10.6875 0 
z
" id="DejaVuSans-46"/>
       </defs>
       <use xlink:href="#DejaVuSans-48"/>
       <use x="63.623047" xlink:href="#DejaVuSans-46"/>
       <use x="95.410156" xlink:href="#DejaVuSans-48"/>
       <use x="159.033203" xlink:href="#DejaVuSans-53"/>
       <use x="222.65625" xlink:href="#DejaVuSans-50"/>
      </g>
     </g>
    </g>
    <g id="ytick_2">
     <g id="line2d_48">
      <g>
       <use style="stroke:#000000;stroke-width:0.8;" x="54" xlink:href="#m4461835437" y="141.196304"/>
      </g>
     </g>
     <g id="text_8">
      <!-- 0.054 -->
      <g transform="translate(18.371875 144.995523)scale(0.1 -0.1)">
       <use xlink:href="#DejaVuSans-48"/>
       <use x="63.623047" xlink:href="#DejaVuSans-46"/>
       <use x="95.410156" xlink:href="#DejaVuSans-48"/>
       <use x="159.033203" xlink:href="#DejaVuSans-53"/>
       <use x="222.65625" xlink:href="#DejaVuSans-52"/>
      </g>
     </g>
    </g>
    <g id="ytick_3">
     <g id="line2d_49">
      <g>
       <use style="stroke:#000000;stroke-width:0.8;" x="54" xlink:href="#m4461835437" y="115.816639"/>
      </g>
     </g>
     <g id="text_9">
      <!-- 0.056 -->
      <g transform="translate(18.371875 119.615858)scale(0.1 -0.1)">
       <use xlink:href="#DejaVuSans-48"/>
       <use x="63.623047" xlink:href="#DejaVuSans-46"/>
       <use x="95.410156" xlink:href="#DejaVuSans-48"/>
       <use x="159.033203" xlink:href="#DejaVuSans-53"/>
       <use x="222.65625" xlink:href="#DejaVuSans-54"/>
      </g>
     </g>
    </g>
    <g id="ytick_4">
     <g id="line2d_50">
      <g>
       <use style="stroke:#000000;stroke-width:0.8;" x="54" xlink:href="#m4461835437" y="90.436974"/>
      </g>
     </g>
     <g id="text_10">
      <!-- 0.058 -->
      <g transform="translate(18.371875 94.236192)scale(0.1 -0.1)">
       <defs>
        <path d="M 31.78125 34.625 
Q 24.75 34.625 20.71875 30.859375 
Q 16.703125 27.09375 16.703125 20.515625 
Q 16.703125 13.921875 20.71875 10.15625 
Q 24.75 6.390625 31.78125 6.390625 
Q 38.8125 6.390625 42.859375 10.171875 
Q 46.921875 13.96875 46.921875 20.515625 
Q 46.921875 27.09375 42.890625 30.859375 
Q 38.875 34.625 31.78125 34.625 
z
M 21.921875 38.8125 
Q 15.578125 40.375 12.03125 44.71875 
Q 8.5 49.078125 8.5 55.328125 
Q 8.5 64.0625 14.71875 69.140625 
Q 20.953125 74.21875 31.78125 74.21875 
Q 42.671875 74.21875 48.875 69.140625 
Q 55.078125 64.0625 55.078125 55.328125 
Q 55.078125 49.078125 51.53125 44.71875 
Q 48 40.375 41.703125 38.8125 
Q 48.828125 37.15625 52.796875 32.3125 
Q 56.78125 27.484375 56.78125 20.515625 
Q 56.78125 9.90625 50.3125 4.234375 
Q 43.84375 -1.421875 31.78125 -1.421875 
Q 19.734375 -1.421875 13.25 4.234375 
Q 6.78125 9.90625 6.78125 20.515625 
Q 6.78125 27.484375 10.78125 32.3125 
Q 14.796875 37.15625 21.921875 38.8125 
z
M 18.3125 54.390625 
Q 18.3125 48.734375 21.84375 45.5625 
Q 25.390625 42.390625 31.78125 42.390625 
Q 38.140625 42.390625 41.71875 45.5625 
Q 45.3125 48.734375 45.3125 54.390625 
Q 45.3125 60.0625 41.71875 63.234375 
Q 38.140625 66.40625 31.78125 66.40625 
Q 25.390625 66.40625 21.84375 63.234375 
Q 18.3125 60.0625 18.3125 54.390625 
z
" id="DejaVuSans-56"/>
       </defs>
       <use xlink:href="#DejaVuSans-48"/>
       <use x="63.623047" xlink:href="#DejaVuSans-46"/>
       <use x="95.410156" xlink:href="#DejaVuSans-48"/>
       <use x="159.033203" xlink:href="#DejaVuSans-53"/>
       <use x="222.65625" xlink:href="#DejaVuSans-56"/>
      </g>
     </g>
    </g>
    <g id="ytick_5">
     <g id="line2d_51">
      <g>
       <use style="stroke:#000000;stroke-width:0.8;" x="54" xlink:href="#m4461835437" y="65.057309"/>
      </g>
     </g>
     <g id="text_11">
      <!-- 0.060 -->
      <g transform="translate(18.371875 68.856527)scale(0.1 -0.1)">
       <use xlink:href="#DejaVuSans-48"/>
       <use x="63.623047" xlink:href="#DejaVuSans-46"/>
       <use x="95.410156" xlink:href="#DejaVuSans-48"/>
       <use x="159.033203" xlink:href="#DejaVuSans-54"/>
       <use x="222.65625" xlink:href="#DejaVuSans-48"/>
      </g>
     </g>
    </g>
    <g id="ytick_6">
     <g id="line2d_52">
      <g>
       <use style="stroke:#000000;stroke-width:0.8;" x="54" xlink:href="#m4461835437" y="39.677644"/>
      </g>
     </g>
     <g id="text_12">
      <!-- 0.062 -->
      <g transform="translate(18.371875 43.476862)scale(0.1 -0.1)">
       <use xlink:href="#DejaVuSans-48"/>
       <use x="63.623047" xlink:href="#DejaVuSans-46"/>
       <use x="95.410156" xlink:href="#DejaVuSans-48"/>
       <use x="159.033203" xlink:href="#DejaVuSans-54"/>
       <use x="222.65625" xlink:href="#DejaVuSans-50"/>
      </g>
     </g>
    </g>
    <g id="text_13">
     <!-- $\alpha^*$ -->
     <g transform="translate(11.87625 115.62)rotate(-90)scale(0.12 -0.12)">
      <defs>
       <path d="M 40.921875 25.4375 
L 40.96875 36.71875 
Q 41.015625 48.25 32.328125 48.296875 
Q 25.828125 48.34375 21.78125 42.921875 
Q 16.703125 36.234375 14.984375 27.296875 
Q 12.890625 16.546875 15.53125 11.421875 
Q 18.265625 6.203125 24.171875 6.203125 
Q 30.71875 6.203125 36.234375 16.609375 
z
M 33.84375 55.90625 
Q 49.078125 56.15625 48.875 40.375 
Q 48.875 40.375 56.5 54.6875 
L 64.5 54.6875 
L 48.734375 25.046875 
L 48.578125 14.359375 
Q 48.578125 11.96875 49.90625 9.96875 
Q 51.421875 7.625 52.984375 7.625 
L 57.328125 7.625 
L 55.859375 0 
L 50.4375 0 
Q 45.84375 0 42.53125 4.109375 
Q 40.96875 6.15625 40.921875 10.453125 
Q 37.75 5.21875 32.28125 0.78125 
Q 29.6875 -1.265625 22.703125 -1.21875 
Q 11.28125 -1.125 7.125 6.203125 
Q 2.875 13.8125 5.515625 27.296875 
Q 8.34375 41.796875 15.765625 48.390625 
Q 24.125 55.765625 33.84375 55.90625 
z
" id="DejaVuSans-Oblique-945"/>
       <path d="M 47.015625 60.890625 
L 29.5 51.421875 
L 47.015625 41.890625 
L 44.1875 37.109375 
L 27.78125 47.015625 
L 27.78125 28.609375 
L 22.21875 28.609375 
L 22.21875 47.015625 
L 5.8125 37.109375 
L 2.984375 41.890625 
L 20.515625 51.421875 
L 2.984375 60.890625 
L 5.8125 65.71875 
L 22.21875 55.8125 
L 22.21875 74.21875 
L 27.78125 74.21875 
L 27.78125 55.8125 
L 44.1875 65.71875 
z
" id="DejaVuSans-42"/>
      </defs>
      <use transform="translate(0 0.765625)" xlink:href="#DejaVuSans-Oblique-945"/>
      <use transform="translate(84.227435 39.046875)scale(0.7)" xlink:href="#DejaVuSans-42"/>
     </g>
    </g>
   </g>
   <g id="line2d_53">
    <path clip-path="url(#p984e847876)" d="M 69.218182 33.332727 
L 85.237321 33.332727 
L 101.256459 33.332727 
L 117.275598 33.332727 
L 133.294737 33.332727 
L 149.313876 33.332727 
L 165.333014 33.332727 
L 181.352153 33.332727 
L 197.371292 33.332727 
L 213.390431 33.332727 
L 229.409569 33.332727 
L 245.428708 33.332727 
L 261.447847 33.332727 
" style="fill:none;stroke:#000000;stroke-dasharray:2,3.3;stroke-dashoffset:0;stroke-width:2;"/>
   </g>
   <g id="line2d_54">
    <path clip-path="url(#p984e847876)" d="M 229.409569 88.41663 
L 245.428708 109.272612 
L 261.447847 126.069403 
L 277.466986 139.553791 
L 293.486124 150.356572 
L 309.505263 158.998708 
L 325.524402 165.904691 
L 341.543541 171.417712 
L 357.562679 175.814059 
L 373.581818 179.315682 
" style="fill:none;stroke:#000000;stroke-dasharray:7.4,3.2;stroke-dashoffset:0;stroke-width:2;"/>
   </g>
   <g id="patch_3">
    <path d="M 54 189 
L 54 25.92 
" style="fill:none;stroke:#000000;stroke-linecap:square;stroke-linejoin:miter;stroke-width:0.8;"/>
   </g>
   <g id="patch_4">
    <path d="M 388.8 189 
L 388.8 25.92 
" style="fill:none;stroke:#000000;stroke-linecap:square;stroke-linejoin:miter;stroke-width:0.8;"/>
   </g>
   <g id="patch_5">
    <path d="M 54 189 
L 388.8 189 
" style="fill:none;stroke:#000000;stroke-linecap:square;stroke-linejoin:miter;stroke-width:0.8;"/>
   </g>
   <g id="patch_6">
    <path d="M 54 25.92 
L 388.8 25.92 
" style="fill:none;stroke:#000000;stroke-linecap:square;stroke-linejoin:miter;stroke-width:0.8;"/>
   </g>
   <g id="legend_1">
    <g id="patch_7">
     <path d="M 286 77.954375 
L 381.8 77.954375 
Q 383.8 77.954375 383.8 75.954375 
L 383.8 32.92 
Q 383.8 30.92 381.8 30.92 
L 286 30.92 
Q 284 30.92 284 32.92 
L 284 75.954375 
Q 284 77.954375 286 77.954375 
z
" style="fill:#ffffff;opacity:0.8;stroke:#cccccc;stroke-linejoin:miter;"/>
    </g>
    <g id="PathCollection_4">
     <path d="M 298 43.766421 
C 299.027127 43.766421 300.012324 43.358339 300.738613 42.63205 
C 301.464901 41.905762 301.872983 40.920565 301.872983 39.893438 
C 301.872983 38.86631 301.464901 37.881113 300.738613 37.154825 
C 300.012324 36.428536 299.027127 36.020454 298 36.020454 
C 296.972873 36.020454 295.987676 36.428536 295.261387 37.154825 
C 294.535099 37.881113 294.127017 38.86631 294.127017 39.893438 
C 294.127017 40.920565 294.535099 41.905762 295.261387 42.63205 
C 295.987676 43.358339 296.972873 43.766421 298 43.766421 
z
" style="fill:none;stroke:#0000ff;"/>
    </g>
    <g id="text_14">
     <!-- $D$=0.000125 -->
     <g transform="translate(316 42.518438)scale(0.1 -0.1)">
      <defs>
       <path d="M 10.59375 45.40625 
L 73.1875 45.40625 
L 73.1875 37.203125 
L 10.59375 37.203125 
z
M 10.59375 25.484375 
L 73.1875 25.484375 
L 73.1875 17.1875 
L 10.59375 17.1875 
z
" id="DejaVuSans-61"/>
      </defs>
      <use transform="translate(0 0.78125)" xlink:href="#DejaVuSans-Oblique-68"/>
      <use transform="translate(77.001953 0.78125)" xlink:href="#DejaVuSans-61"/>
      <use transform="translate(160.791016 0.78125)" xlink:href="#DejaVuSans-48"/>
      <use transform="translate(224.414062 0.78125)" xlink:href="#DejaVuSans-46"/>
      <use transform="translate(256.201172 0.78125)" xlink:href="#DejaVuSans-48"/>
      <use transform="translate(319.824219 0.78125)" xlink:href="#DejaVuSans-48"/>
      <use transform="translate(383.447266 0.78125)" xlink:href="#DejaVuSans-48"/>
      <use transform="translate(447.070312 0.78125)" xlink:href="#DejaVuSans-49"/>
      <use transform="translate(510.693359 0.78125)" xlink:href="#DejaVuSans-50"/>
      <use transform="translate(574.316406 0.78125)" xlink:href="#DejaVuSans-53"/>
     </g>
    </g>
    <g id="PathCollection_5">
     <path d="M 294.127017 58.444546 
L 301.872983 58.444546 
L 301.872983 50.698579 
L 294.127017 50.698579 
z
" style="fill:none;stroke:#a2cffe;"/>
    </g>
    <g id="text_15">
     <!-- $D$=0.0005 -->
     <g transform="translate(316 57.196562)scale(0.1 -0.1)">
      <use transform="translate(0 0.78125)" xlink:href="#DejaVuSans-Oblique-68"/>
      <use transform="translate(77.001953 0.78125)" xlink:href="#DejaVuSans-61"/>
      <use transform="translate(160.791016 0.78125)" xlink:href="#DejaVuSans-48"/>
      <use transform="translate(224.414062 0.78125)" xlink:href="#DejaVuSans-46"/>
      <use transform="translate(256.201172 0.78125)" xlink:href="#DejaVuSans-48"/>
      <use transform="translate(319.824219 0.78125)" xlink:href="#DejaVuSans-48"/>
      <use transform="translate(383.447266 0.78125)" xlink:href="#DejaVuSans-48"/>
      <use transform="translate(447.070312 0.78125)" xlink:href="#DejaVuSans-53"/>
     </g>
    </g>
    <g id="PathCollection_6">
     <path d="M 298 73.122671 
L 301.872983 65.376704 
L 294.127017 65.376704 
z
" style="fill:none;stroke:#2c6fbb;"/>
    </g>
    <g id="text_16">
     <!-- $D$=0.002 -->
     <g transform="translate(316 71.874687)scale(0.1 -0.1)">
      <use transform="translate(0 0.78125)" xlink:href="#DejaVuSans-Oblique-68"/>
      <use transform="translate(77.001953 0.78125)" xlink:href="#DejaVuSans-61"/>
      <use transform="translate(160.791016 0.78125)" xlink:href="#DejaVuSans-48"/>
      <use transform="translate(224.414062 0.78125)" xlink:href="#DejaVuSans-46"/>
      <use transform="translate(256.201172 0.78125)" xlink:href="#DejaVuSans-48"/>
      <use transform="translate(319.824219 0.78125)" xlink:href="#DejaVuSans-48"/>
      <use transform="translate(383.447266 0.78125)" xlink:href="#DejaVuSans-50"/>
     </g>
    </g>
   </g>
  </g>
 </g>
 <defs>
  <clipPath id="p984e847876">
   <rect height="163.08" width="334.8" x="54" y="25.92"/>
  </clipPath>
 </defs>
</svg>
