<?xml version="1.0" encoding="utf-8" standalone="no"?>
<!DOCTYPE svg PUBLIC "-//W3C//DTD SVG 1.1//EN"
  "http://www.w3.org/Graphics/SVG/1.1/DTD/svg11.dtd">
<!-- Created with matplotlib (https://matplotlib.org/) -->
<svg height="216pt" version="1.1" viewBox="0 0 180 216" width="180pt" xmlns="http://www.w3.org/2000/svg" xmlns:xlink="http://www.w3.org/1999/xlink">
 <metadata>
  <rdf:RDF xmlns:cc="http://creativecommons.org/ns#" xmlns:dc="http://purl.org/dc/elements/1.1/" xmlns:rdf="http://www.w3.org/1999/02/22-rdf-syntax-ns#">
   <cc:Work>
    <dc:type rdf:resource="http://purl.org/dc/dcmitype/StillImage"/>
    <dc:date>2023-04-21T16:12:45.681066</dc:date>
    <dc:format>image/svg+xml</dc:format>
    <dc:creator>
     <cc:Agent>
      <dc:title>Matplotlib v3.3.4, https://matplotlib.org/</dc:title>
     </cc:Agent>
    </dc:creator>
   </cc:Work>
  </rdf:RDF>
 </metadata>
 <defs>
  <style type="text/css">*{stroke-linecap:butt;stroke-linejoin:round;}</style>
 </defs>
 <g id="figure_1">
  <g id="patch_1">
   <path d="M 0 216 
L 180 216 
L 180 0 
L 0 0 
z
" style="fill:none;"/>
  </g>
  <g id="axes_1">
   <g id="patch_2">
    <path d="M 22.5 189 
L 162 189 
L 162 25.92 
L 22.5 25.92 
z
" style="fill:#ffffff;"/>
   </g>
   <g id="PathCollection_1">
    <defs>
     <path d="M 0 3.872983 
C 1.027127 3.872983 2.012324 3.464901 2.738613 2.738613 
C 3.464901 2.012324 3.872983 1.027127 3.872983 -0 
C 3.872983 -1.027127 3.464901 -2.012324 2.738613 -2.738613 
C 2.012324 -3.464901 1.027127 -3.872983 0 -3.872983 
C -1.027127 -3.872983 -2.012324 -3.464901 -2.738613 -2.738613 
C -3.464901 -2.012324 -3.872983 -1.027127 -3.872983 0 
C -3.872983 1.027127 -3.464901 2.012324 -2.738613 2.738613 
C -2.012324 3.464901 -1.027127 3.872983 0 3.872983 
z
" id="C0_0_62ecc2d82e"/>
    </defs>
    <g clip-path="url(#pa5b8d0015a)">
     <use style="fill:none;stroke:#0000ff;" x="155.084486" xlink:href="#C0_0_62ecc2d82e" y="33.332727"/>
    </g>
    <g clip-path="url(#pa5b8d0015a)">
     <use style="fill:none;stroke:#0000ff;" x="154.984834" xlink:href="#C0_0_62ecc2d82e" y="33.384875"/>
    </g>
    <g clip-path="url(#pa5b8d0015a)">
     <use style="fill:none;stroke:#0000ff;" x="154.732262" xlink:href="#C0_0_62ecc2d82e" y="33.566373"/>
    </g>
    <g clip-path="url(#pa5b8d0015a)">
     <use style="fill:none;stroke:#0000ff;" x="154.171207" xlink:href="#C0_0_62ecc2d82e" y="34.054564"/>
    </g>
    <g clip-path="url(#pa5b8d0015a)">
     <use style="fill:none;stroke:#0000ff;" x="153.341154" xlink:href="#C0_0_62ecc2d82e" y="35.022594"/>
    </g>
    <g clip-path="url(#pa5b8d0015a)">
     <use style="fill:none;stroke:#0000ff;" x="151.674766" xlink:href="#C0_0_62ecc2d82e" y="36.90847"/>
    </g>
    <g clip-path="url(#pa5b8d0015a)">
     <use style="fill:none;stroke:#0000ff;" x="149.280642" xlink:href="#C0_0_62ecc2d82e" y="39.70372"/>
    </g>
    <g clip-path="url(#pa5b8d0015a)">
     <use style="fill:none;stroke:#0000ff;" x="145.535294" xlink:href="#C0_0_62ecc2d82e" y="44.15704"/>
    </g>
    <g clip-path="url(#pa5b8d0015a)">
     <use style="fill:none;stroke:#0000ff;" x="140.151578" xlink:href="#C0_0_62ecc2d82e" y="50.444468"/>
    </g>
    <g clip-path="url(#pa5b8d0015a)">
     <use style="fill:none;stroke:#0000ff;" x="133.598391" xlink:href="#C0_0_62ecc2d82e" y="58.177377"/>
    </g>
    <g clip-path="url(#pa5b8d0015a)">
     <use style="fill:none;stroke:#0000ff;" x="125.289478" xlink:href="#C0_0_62ecc2d82e" y="67.873485"/>
    </g>
    <g clip-path="url(#pa5b8d0015a)">
     <use style="fill:none;stroke:#0000ff;" x="116.218869" xlink:href="#C0_0_62ecc2d82e" y="78.604173"/>
    </g>
    <g clip-path="url(#pa5b8d0015a)">
     <use style="fill:none;stroke:#0000ff;" x="106.146053" xlink:href="#C0_0_62ecc2d82e" y="90.473673"/>
    </g>
    <g clip-path="url(#pa5b8d0015a)">
     <use style="fill:none;stroke:#0000ff;" x="96.008426" xlink:href="#C0_0_62ecc2d82e" y="102.41712"/>
    </g>
    <g clip-path="url(#pa5b8d0015a)">
     <use style="fill:none;stroke:#0000ff;" x="86.044211" xlink:href="#C0_0_62ecc2d82e" y="114.162725"/>
    </g>
    <g clip-path="url(#pa5b8d0015a)">
     <use style="fill:none;stroke:#0000ff;" x="76.657777" xlink:href="#C0_0_62ecc2d82e" y="125.238228"/>
    </g>
    <g clip-path="url(#pa5b8d0015a)">
     <use style="fill:none;stroke:#0000ff;" x="68.037721" xlink:href="#C0_0_62ecc2d82e" y="135.398559"/>
    </g>
    <g clip-path="url(#pa5b8d0015a)">
     <use style="fill:none;stroke:#0000ff;" x="60.182377" xlink:href="#C0_0_62ecc2d82e" y="144.639819"/>
    </g>
    <g clip-path="url(#pa5b8d0015a)">
     <use style="fill:none;stroke:#0000ff;" x="53.383949" xlink:href="#C0_0_62ecc2d82e" y="152.675704"/>
    </g>
    <g clip-path="url(#pa5b8d0015a)">
     <use style="fill:none;stroke:#0000ff;" x="47.423686" xlink:href="#C0_0_62ecc2d82e" y="159.691436"/>
    </g>
    <g clip-path="url(#pa5b8d0015a)">
     <use style="fill:none;stroke:#0000ff;" x="42.383357" xlink:href="#C0_0_62ecc2d82e" y="165.594132"/>
    </g>
    <g clip-path="url(#pa5b8d0015a)">
     <use style="fill:none;stroke:#0000ff;" x="38.078698" xlink:href="#C0_0_62ecc2d82e" y="170.661915"/>
    </g>
    <g clip-path="url(#pa5b8d0015a)">
     <use style="fill:none;stroke:#0000ff;" x="34.427737" xlink:href="#C0_0_62ecc2d82e" y="174.947499"/>
    </g>
    <g clip-path="url(#pa5b8d0015a)">
     <use style="fill:none;stroke:#0000ff;" x="31.3809" xlink:href="#C0_0_62ecc2d82e" y="178.535884"/>
    </g>
    <g clip-path="url(#pa5b8d0015a)">
     <use style="fill:none;stroke:#0000ff;" x="28.840909" xlink:href="#C0_0_62ecc2d82e" y="181.587273"/>
    </g>
   </g>
   <g id="PathCollection_2">
    <defs>
     <path d="M -3 3 
L 3 -3 
M -3 -3 
L 3 3 
" id="m570502f1aa" style="stroke:#008000;stroke-width:1.5;"/>
    </defs>
    <g clip-path="url(#pa5b8d0015a)">
     <use style="fill:#008000;stroke:#008000;stroke-width:1.5;" x="153.648199" xlink:href="#m570502f1aa" y="33.895809"/>
     <use style="fill:#008000;stroke:#008000;stroke-width:1.5;" x="152.129356" xlink:href="#m570502f1aa" y="34.824812"/>
     <use style="fill:#008000;stroke:#008000;stroke-width:1.5;" x="150.946912" xlink:href="#m570502f1aa" y="36.825391"/>
     <use style="fill:#008000;stroke:#008000;stroke-width:1.5;" x="147.302823" xlink:href="#m570502f1aa" y="40.182405"/>
     <use style="fill:#008000;stroke:#008000;stroke-width:1.5;" x="140.155249" xlink:href="#m570502f1aa" y="45.48931"/>
     <use style="fill:#008000;stroke:#008000;stroke-width:1.5;" x="138.132355" xlink:href="#m570502f1aa" y="52.674089"/>
     <use style="fill:#008000;stroke:#008000;stroke-width:1.5;" x="126.861296" xlink:href="#m570502f1aa" y="62.407007"/>
     <use style="fill:#008000;stroke:#008000;stroke-width:1.5;" x="124.77648" xlink:href="#m570502f1aa" y="73.804525"/>
     <use style="fill:#008000;stroke:#008000;stroke-width:1.5;" x="114.134629" xlink:href="#m570502f1aa" y="86.712731"/>
     <use style="fill:#008000;stroke:#008000;stroke-width:1.5;" x="96.703329" xlink:href="#m570502f1aa" y="100.615262"/>
     <use style="fill:#008000;stroke:#008000;stroke-width:1.5;" x="89.705702" xlink:href="#m570502f1aa" y="113.663828"/>
     <use style="fill:#008000;stroke:#008000;stroke-width:1.5;" x="74.71297" xlink:href="#m570502f1aa" y="126.600979"/>
     <use style="fill:#008000;stroke:#008000;stroke-width:1.5;" x="67.381605" xlink:href="#m570502f1aa" y="137.874735"/>
     <use style="fill:#008000;stroke:#008000;stroke-width:1.5;" x="56.776874" xlink:href="#m570502f1aa" y="148.185041"/>
     <use style="fill:#008000;stroke:#008000;stroke-width:1.5;" x="46.037979" xlink:href="#m570502f1aa" y="157.037212"/>
    </g>
   </g>
   <g id="matplotlib.axis_1">
    <g id="xtick_1">
     <g id="line2d_1">
      <defs>
       <path d="M 0 0 
L 0 3.5 
" id="mc00d7dab52" style="stroke:#000000;stroke-width:0.8;"/>
      </defs>
      <g>
       <use style="stroke:#000000;stroke-width:0.8;" x="45.424735" xlink:href="#mc00d7dab52" y="189"/>
      </g>
     </g>
     <g id="text_1">
      <!-- 0.6 -->
      <g transform="translate(37.473172 203.598437)scale(0.1 -0.1)">
       <defs>
        <path d="M 31.78125 66.40625 
Q 24.171875 66.40625 20.328125 58.90625 
Q 16.5 51.421875 16.5 36.375 
Q 16.5 21.390625 20.328125 13.890625 
Q 24.171875 6.390625 31.78125 6.390625 
Q 39.453125 6.390625 43.28125 13.890625 
Q 47.125 21.390625 47.125 36.375 
Q 47.125 51.421875 43.28125 58.90625 
Q 39.453125 66.40625 31.78125 66.40625 
z
M 31.78125 74.21875 
Q 44.046875 74.21875 50.515625 64.515625 
Q 56.984375 54.828125 56.984375 36.375 
Q 56.984375 17.96875 50.515625 8.265625 
Q 44.046875 -1.421875 31.78125 -1.421875 
Q 19.53125 -1.421875 13.0625 8.265625 
Q 6.59375 17.96875 6.59375 36.375 
Q 6.59375 54.828125 13.0625 64.515625 
Q 19.53125 74.21875 31.78125 74.21875 
z
" id="DejaVuSans-48"/>
        <path d="M 10.6875 12.40625 
L 21 12.40625 
L 21 0 
L 10.6875 0 
z
" id="DejaVuSans-46"/>
        <path d="M 33.015625 40.375 
Q 26.375 40.375 22.484375 35.828125 
Q 18.609375 31.296875 18.609375 23.390625 
Q 18.609375 15.53125 22.484375 10.953125 
Q 26.375 6.390625 33.015625 6.390625 
Q 39.65625 6.390625 43.53125 10.953125 
Q 47.40625 15.53125 47.40625 23.390625 
Q 47.40625 31.296875 43.53125 35.828125 
Q 39.65625 40.375 33.015625 40.375 
z
M 52.59375 71.296875 
L 52.59375 62.3125 
Q 48.875 64.0625 45.09375 64.984375 
Q 41.3125 65.921875 37.59375 65.921875 
Q 27.828125 65.921875 22.671875 59.328125 
Q 17.53125 52.734375 16.796875 39.40625 
Q 19.671875 43.65625 24.015625 45.921875 
Q 28.375 48.1875 33.59375 48.1875 
Q 44.578125 48.1875 50.953125 41.515625 
Q 57.328125 34.859375 57.328125 23.390625 
Q 57.328125 12.15625 50.6875 5.359375 
Q 44.046875 -1.421875 33.015625 -1.421875 
Q 20.359375 -1.421875 13.671875 8.265625 
Q 6.984375 17.96875 6.984375 36.375 
Q 6.984375 53.65625 15.1875 63.9375 
Q 23.390625 74.21875 37.203125 74.21875 
Q 40.921875 74.21875 44.703125 73.484375 
Q 48.484375 72.75 52.59375 71.296875 
z
" id="DejaVuSans-54"/>
       </defs>
       <use xlink:href="#DejaVuSans-48"/>
       <use x="63.623047" xlink:href="#DejaVuSans-46"/>
       <use x="95.410156" xlink:href="#DejaVuSans-54"/>
      </g>
     </g>
    </g>
    <g id="xtick_2">
     <g id="line2d_2">
      <g>
       <use style="stroke:#000000;stroke-width:0.8;" x="100.54725" xlink:href="#mc00d7dab52" y="189"/>
      </g>
     </g>
     <g id="text_2">
      <!-- 0.8 -->
      <g transform="translate(92.595688 203.598437)scale(0.1 -0.1)">
       <defs>
        <path d="M 31.78125 34.625 
Q 24.75 34.625 20.71875 30.859375 
Q 16.703125 27.09375 16.703125 20.515625 
Q 16.703125 13.921875 20.71875 10.15625 
Q 24.75 6.390625 31.78125 6.390625 
Q 38.8125 6.390625 42.859375 10.171875 
Q 46.921875 13.96875 46.921875 20.515625 
Q 46.921875 27.09375 42.890625 30.859375 
Q 38.875 34.625 31.78125 34.625 
z
M 21.921875 38.8125 
Q 15.578125 40.375 12.03125 44.71875 
Q 8.5 49.078125 8.5 55.328125 
Q 8.5 64.0625 14.71875 69.140625 
Q 20.953125 74.21875 31.78125 74.21875 
Q 42.671875 74.21875 48.875 69.140625 
Q 55.078125 64.0625 55.078125 55.328125 
Q 55.078125 49.078125 51.53125 44.71875 
Q 48 40.375 41.703125 38.8125 
Q 48.828125 37.15625 52.796875 32.3125 
Q 56.78125 27.484375 56.78125 20.515625 
Q 56.78125 9.90625 50.3125 4.234375 
Q 43.84375 -1.421875 31.78125 -1.421875 
Q 19.734375 -1.421875 13.25 4.234375 
Q 6.78125 9.90625 6.78125 20.515625 
Q 6.78125 27.484375 10.78125 32.3125 
Q 14.796875 37.15625 21.921875 38.8125 
z
M 18.3125 54.390625 
Q 18.3125 48.734375 21.84375 45.5625 
Q 25.390625 42.390625 31.78125 42.390625 
Q 38.140625 42.390625 41.71875 45.5625 
Q 45.3125 48.734375 45.3125 54.390625 
Q 45.3125 60.0625 41.71875 63.234375 
Q 38.140625 66.40625 31.78125 66.40625 
Q 25.390625 66.40625 21.84375 63.234375 
Q 18.3125 60.0625 18.3125 54.390625 
z
" id="DejaVuSans-56"/>
       </defs>
       <use xlink:href="#DejaVuSans-48"/>
       <use x="63.623047" xlink:href="#DejaVuSans-46"/>
       <use x="95.410156" xlink:href="#DejaVuSans-56"/>
      </g>
     </g>
    </g>
    <g id="xtick_3">
     <g id="line2d_3">
      <g>
       <use style="stroke:#000000;stroke-width:0.8;" x="155.669766" xlink:href="#mc00d7dab52" y="189"/>
      </g>
     </g>
     <g id="text_3">
      <!-- 1.0 -->
      <g transform="translate(147.718204 203.598437)scale(0.1 -0.1)">
       <defs>
        <path d="M 12.40625 8.296875 
L 28.515625 8.296875 
L 28.515625 63.921875 
L 10.984375 60.40625 
L 10.984375 69.390625 
L 28.421875 72.90625 
L 38.28125 72.90625 
L 38.28125 8.296875 
L 54.390625 8.296875 
L 54.390625 0 
L 12.40625 0 
z
" id="DejaVuSans-49"/>
       </defs>
       <use xlink:href="#DejaVuSans-49"/>
       <use x="63.623047" xlink:href="#DejaVuSans-46"/>
       <use x="95.410156" xlink:href="#DejaVuSans-48"/>
      </g>
     </g>
    </g>
    <g id="text_4">
     <!-- $F_T^* + 2/3 \sigma_T^* + \gamma$ -->
     <g transform="translate(41.22 222.418125)scale(0.14 -0.14)">
      <defs>
       <path d="M 16.890625 72.90625 
L 58.6875 72.90625 
L 57.078125 64.59375 
L 25.09375 64.59375 
L 20.90625 43.109375 
L 49.8125 43.109375 
L 48.1875 34.8125 
L 19.28125 34.8125 
L 12.5 0 
L 2.6875 0 
z
" id="DejaVuSans-Oblique-70"/>
       <path d="M 47.015625 60.890625 
L 29.5 51.421875 
L 47.015625 41.890625 
L 44.1875 37.109375 
L 27.78125 47.015625 
L 27.78125 28.609375 
L 22.21875 28.609375 
L 22.21875 47.015625 
L 5.8125 37.109375 
L 2.984375 41.890625 
L 20.515625 51.421875 
L 2.984375 60.890625 
L 5.8125 65.71875 
L 22.21875 55.8125 
L 22.21875 74.21875 
L 27.78125 74.21875 
L 27.78125 55.8125 
L 44.1875 65.71875 
z
" id="DejaVuSans-42"/>
       <path d="M 5.90625 72.90625 
L 67.578125 72.90625 
L 66.015625 64.59375 
L 39.984375 64.59375 
L 27.484375 0 
L 17.578125 0 
L 30.078125 64.59375 
L 4.296875 64.59375 
z
" id="DejaVuSans-Oblique-84"/>
       <path d="M 46 62.703125 
L 46 35.5 
L 73.1875 35.5 
L 73.1875 27.203125 
L 46 27.203125 
L 46 0 
L 37.796875 0 
L 37.796875 27.203125 
L 10.59375 27.203125 
L 10.59375 35.5 
L 37.796875 35.5 
L 37.796875 62.703125 
z
" id="DejaVuSans-43"/>
       <path d="M 19.1875 8.296875 
L 53.609375 8.296875 
L 53.609375 0 
L 7.328125 0 
L 7.328125 8.296875 
Q 12.9375 14.109375 22.625 23.890625 
Q 32.328125 33.6875 34.8125 36.53125 
Q 39.546875 41.84375 41.421875 45.53125 
Q 43.3125 49.21875 43.3125 52.78125 
Q 43.3125 58.59375 39.234375 62.25 
Q 35.15625 65.921875 28.609375 65.921875 
Q 23.96875 65.921875 18.8125 64.3125 
Q 13.671875 62.703125 7.8125 59.421875 
L 7.8125 69.390625 
Q 13.765625 71.78125 18.9375 73 
Q 24.125 74.21875 28.421875 74.21875 
Q 39.75 74.21875 46.484375 68.546875 
Q 53.21875 62.890625 53.21875 53.421875 
Q 53.21875 48.921875 51.53125 44.890625 
Q 49.859375 40.875 45.40625 35.40625 
Q 44.1875 33.984375 37.640625 27.21875 
Q 31.109375 20.453125 19.1875 8.296875 
z
" id="DejaVuSans-50"/>
       <path d="M 25.390625 72.90625 
L 33.6875 72.90625 
L 8.296875 -9.28125 
L 0 -9.28125 
z
" id="DejaVuSans-47"/>
       <path d="M 40.578125 39.3125 
Q 47.65625 37.796875 51.625 33 
Q 55.609375 28.21875 55.609375 21.1875 
Q 55.609375 10.40625 48.1875 4.484375 
Q 40.765625 -1.421875 27.09375 -1.421875 
Q 22.515625 -1.421875 17.65625 -0.515625 
Q 12.796875 0.390625 7.625 2.203125 
L 7.625 11.71875 
Q 11.71875 9.328125 16.59375 8.109375 
Q 21.484375 6.890625 26.8125 6.890625 
Q 36.078125 6.890625 40.9375 10.546875 
Q 45.796875 14.203125 45.796875 21.1875 
Q 45.796875 27.640625 41.28125 31.265625 
Q 36.765625 34.90625 28.71875 34.90625 
L 20.21875 34.90625 
L 20.21875 43.015625 
L 29.109375 43.015625 
Q 36.375 43.015625 40.234375 45.921875 
Q 44.09375 48.828125 44.09375 54.296875 
Q 44.09375 59.90625 40.109375 62.90625 
Q 36.140625 65.921875 28.71875 65.921875 
Q 24.65625 65.921875 20.015625 65.03125 
Q 15.375 64.15625 9.8125 62.3125 
L 9.8125 71.09375 
Q 15.4375 72.65625 20.34375 73.4375 
Q 25.25 74.21875 29.59375 74.21875 
Q 40.828125 74.21875 47.359375 69.109375 
Q 53.90625 64.015625 53.90625 55.328125 
Q 53.90625 49.265625 50.4375 45.09375 
Q 46.96875 40.921875 40.578125 39.3125 
z
" id="DejaVuSans-51"/>
       <path d="M 34.671875 47.5625 
Q 27.25 47.5625 22.21875 42.1875 
Q 16.890625 36.578125 15.140625 27.296875 
Q 13.1875 17.484375 16.3125 11.8125 
Q 19.390625 6.203125 26.65625 6.203125 
Q 33.84375 6.203125 39.109375 11.859375 
Q 44.4375 17.53125 46.34375 27.296875 
Q 48.046875 36.234375 45.015625 42.1875 
Q 42.1875 47.5625 34.671875 47.5625 
z
M 36.078125 54.734375 
L 65.921875 54.6875 
L 64.15625 45.703125 
L 54.109375 45.703125 
Q 57.90625 38.09375 55.859375 27.296875 
Q 53.21875 13.875 45.0625 6.25 
Q 36.859375 -1.421875 25.140625 -1.421875 
Q 13.375 -1.421875 8.203125 6.25 
Q 3.03125 13.875 5.671875 27.296875 
Q 8.25 40.765625 16.40625 48.390625 
Q 23.1875 54.734375 36.078125 54.734375 
z
" id="DejaVuSans-Oblique-963"/>
       <path d="M 23.296875 46.09375 
L 28.71875 12.3125 
L 54 54.6875 
L 63.53125 54.6875 
L 30.8125 0 
L 26.765625 -20.796875 
L 17.78125 -20.796875 
L 21.828125 0 
L 15.4375 40.828125 
Q 14.453125 46.96875 9.8125 46.96875 
L 7.421875 46.96875 
L 8.890625 54.6875 
L 12.3125 54.6875 
Q 21.921875 54.6875 23.296875 46.09375 
z
" id="DejaVuSans-Oblique-947"/>
      </defs>
      <use transform="translate(0 0.765625)" xlink:href="#DejaVuSans-Oblique-70"/>
      <use transform="translate(78.173997 39.046875)scale(0.7)" xlink:href="#DejaVuSans-42"/>
      <use transform="translate(57.519531 -26.578125)scale(0.7)" xlink:href="#DejaVuSans-Oblique-84"/>
      <use transform="translate(149.02849 0.765625)" xlink:href="#DejaVuSans-43"/>
      <use transform="translate(252.299974 0.765625)" xlink:href="#DejaVuSans-50"/>
      <use transform="translate(315.923021 0.765625)" xlink:href="#DejaVuSans-47"/>
      <use transform="translate(349.614427 0.765625)" xlink:href="#DejaVuSans-51"/>
      <use transform="translate(413.237474 0.765625)" xlink:href="#DejaVuSans-Oblique-963"/>
      <use transform="translate(494.726784 39.046875)scale(0.7)" xlink:href="#DejaVuSans-42"/>
      <use transform="translate(476.61638 -26.578125)scale(0.7)" xlink:href="#DejaVuSans-Oblique-84"/>
      <use transform="translate(565.581276 0.765625)" xlink:href="#DejaVuSans-43"/>
      <use transform="translate(668.85276 0.765625)" xlink:href="#DejaVuSans-Oblique-947"/>
     </g>
    </g>
   </g>
   <g id="matplotlib.axis_2">
    <g id="ytick_1">
     <g id="line2d_4">
      <defs>
       <path d="M 0 0 
L -3.5 0 
" id="m0252abc52d" style="stroke:#000000;stroke-width:0.8;"/>
      </defs>
      <g>
       <use style="stroke:#000000;stroke-width:0.8;" x="22.5" xlink:href="#m0252abc52d" y="163.509505"/>
      </g>
     </g>
     <g id="text_5">
      <!-- 0.6 -->
      <g transform="translate(-0.403125 167.308723)scale(0.1 -0.1)">
       <use xlink:href="#DejaVuSans-48"/>
       <use x="63.623047" xlink:href="#DejaVuSans-46"/>
       <use x="95.410156" xlink:href="#DejaVuSans-54"/>
      </g>
     </g>
    </g>
    <g id="ytick_2">
     <g id="line2d_5">
      <g>
       <use style="stroke:#000000;stroke-width:0.8;" x="22.5" xlink:href="#m0252abc52d" y="130.962159"/>
      </g>
     </g>
     <g id="text_6">
      <!-- 0.7 -->
      <g transform="translate(-0.403125 134.761377)scale(0.1 -0.1)">
       <defs>
        <path d="M 8.203125 72.90625 
L 55.078125 72.90625 
L 55.078125 68.703125 
L 28.609375 0 
L 18.3125 0 
L 43.21875 64.59375 
L 8.203125 64.59375 
z
" id="DejaVuSans-55"/>
       </defs>
       <use xlink:href="#DejaVuSans-48"/>
       <use x="63.623047" xlink:href="#DejaVuSans-46"/>
       <use x="95.410156" xlink:href="#DejaVuSans-55"/>
      </g>
     </g>
    </g>
    <g id="ytick_3">
     <g id="line2d_6">
      <g>
       <use style="stroke:#000000;stroke-width:0.8;" x="22.5" xlink:href="#m0252abc52d" y="98.414813"/>
      </g>
     </g>
     <g id="text_7">
      <!-- 0.8 -->
      <g transform="translate(-0.403125 102.214031)scale(0.1 -0.1)">
       <use xlink:href="#DejaVuSans-48"/>
       <use x="63.623047" xlink:href="#DejaVuSans-46"/>
       <use x="95.410156" xlink:href="#DejaVuSans-56"/>
      </g>
     </g>
    </g>
    <g id="ytick_4">
     <g id="line2d_7">
      <g>
       <use style="stroke:#000000;stroke-width:0.8;" x="22.5" xlink:href="#m0252abc52d" y="65.867467"/>
      </g>
     </g>
     <g id="text_8">
      <!-- 0.9 -->
      <g transform="translate(-0.403125 69.666685)scale(0.1 -0.1)">
       <defs>
        <path d="M 10.984375 1.515625 
L 10.984375 10.5 
Q 14.703125 8.734375 18.5 7.8125 
Q 22.3125 6.890625 25.984375 6.890625 
Q 35.75 6.890625 40.890625 13.453125 
Q 46.046875 20.015625 46.78125 33.40625 
Q 43.953125 29.203125 39.59375 26.953125 
Q 35.25 24.703125 29.984375 24.703125 
Q 19.046875 24.703125 12.671875 31.3125 
Q 6.296875 37.9375 6.296875 49.421875 
Q 6.296875 60.640625 12.9375 67.421875 
Q 19.578125 74.21875 30.609375 74.21875 
Q 43.265625 74.21875 49.921875 64.515625 
Q 56.59375 54.828125 56.59375 36.375 
Q 56.59375 19.140625 48.40625 8.859375 
Q 40.234375 -1.421875 26.421875 -1.421875 
Q 22.703125 -1.421875 18.890625 -0.6875 
Q 15.09375 0.046875 10.984375 1.515625 
z
M 30.609375 32.421875 
Q 37.25 32.421875 41.125 36.953125 
Q 45.015625 41.5 45.015625 49.421875 
Q 45.015625 57.28125 41.125 61.84375 
Q 37.25 66.40625 30.609375 66.40625 
Q 23.96875 66.40625 20.09375 61.84375 
Q 16.21875 57.28125 16.21875 49.421875 
Q 16.21875 41.5 20.09375 36.953125 
Q 23.96875 32.421875 30.609375 32.421875 
z
" id="DejaVuSans-57"/>
       </defs>
       <use xlink:href="#DejaVuSans-48"/>
       <use x="63.623047" xlink:href="#DejaVuSans-46"/>
       <use x="95.410156" xlink:href="#DejaVuSans-57"/>
      </g>
     </g>
    </g>
    <g id="ytick_5">
     <g id="line2d_8">
      <g>
       <use style="stroke:#000000;stroke-width:0.8;" x="22.5" xlink:href="#m0252abc52d" y="33.320121"/>
      </g>
     </g>
     <g id="text_9">
      <!-- 1.0 -->
      <g transform="translate(-0.403125 37.119339)scale(0.1 -0.1)">
       <use xlink:href="#DejaVuSans-49"/>
       <use x="63.623047" xlink:href="#DejaVuSans-46"/>
       <use x="95.410156" xlink:href="#DejaVuSans-48"/>
      </g>
     </g>
    </g>
    <g id="text_10">
     <!-- $\alpha^*$ -->
     <g transform="translate(-7.314688 116.98)rotate(-90)scale(0.14 -0.14)">
      <defs>
       <path d="M 40.921875 25.4375 
L 40.96875 36.71875 
Q 41.015625 48.25 32.328125 48.296875 
Q 25.828125 48.34375 21.78125 42.921875 
Q 16.703125 36.234375 14.984375 27.296875 
Q 12.890625 16.546875 15.53125 11.421875 
Q 18.265625 6.203125 24.171875 6.203125 
Q 30.71875 6.203125 36.234375 16.609375 
z
M 33.84375 55.90625 
Q 49.078125 56.15625 48.875 40.375 
Q 48.875 40.375 56.5 54.6875 
L 64.5 54.6875 
L 48.734375 25.046875 
L 48.578125 14.359375 
Q 48.578125 11.96875 49.90625 9.96875 
Q 51.421875 7.625 52.984375 7.625 
L 57.328125 7.625 
L 55.859375 0 
L 50.4375 0 
Q 45.84375 0 42.53125 4.109375 
Q 40.96875 6.15625 40.921875 10.453125 
Q 37.75 5.21875 32.28125 0.78125 
Q 29.6875 -1.265625 22.703125 -1.21875 
Q 11.28125 -1.125 7.125 6.203125 
Q 2.875 13.8125 5.515625 27.296875 
Q 8.34375 41.796875 15.765625 48.390625 
Q 24.125 55.765625 33.84375 55.90625 
z
" id="DejaVuSans-Oblique-945"/>
      </defs>
      <use transform="translate(0 0.765625)" xlink:href="#DejaVuSans-Oblique-945"/>
      <use transform="translate(84.227435 39.046875)scale(0.7)" xlink:href="#DejaVuSans-42"/>
     </g>
    </g>
   </g>
   <g id="line2d_9">
    <path clip-path="url(#pa5b8d0015a)" d="M 30.116389 181.587273 
L 32.678485 178.56167 
L 35.240581 175.536067 
L 37.802677 172.510464 
L 40.364773 169.484861 
L 42.926869 166.459258 
L 45.488965 163.433655 
L 48.051061 160.408052 
L 50.613157 157.382449 
L 53.175253 154.356846 
L 55.737349 151.331243 
L 58.299444 148.30564 
L 60.86154 145.280037 
L 63.423636 142.254434 
L 65.985732 139.228831 
L 68.547828 136.203228 
L 71.109924 133.177625 
L 73.67202 130.152022 
L 76.234116 127.126419 
L 78.796212 124.100816 
L 81.358308 121.075213 
L 83.920404 118.04961 
L 86.4825 115.024007 
L 89.044596 111.998404 
L 91.606692 108.972801 
L 94.168788 105.947199 
L 96.730884 102.921596 
L 99.29298 99.895993 
L 101.855076 96.87039 
L 104.417172 93.844787 
L 106.979268 90.819184 
L 109.541364 87.793581 
L 112.10346 84.767978 
L 114.665556 81.742375 
L 117.227652 78.716772 
L 119.789747 75.691169 
L 122.351843 72.665566 
L 124.913939 69.639963 
L 127.476035 66.61436 
L 130.038131 63.588757 
L 132.600227 60.563154 
L 135.162323 57.537551 
L 137.724419 54.511948 
L 140.286515 51.486345 
L 142.848611 48.460742 
L 145.410707 45.435139 
L 147.972803 42.409536 
L 150.534899 39.383933 
L 153.096995 36.35833 
L 155.659091 33.332727 
" style="fill:none;stroke:#000000;stroke-linecap:square;stroke-width:1.5;"/>
   </g>
   <g id="patch_3">
    <path d="M 22.5 189 
L 22.5 25.92 
" style="fill:none;stroke:#000000;stroke-linecap:square;stroke-linejoin:miter;stroke-width:0.8;"/>
   </g>
   <g id="patch_4">
    <path d="M 162 189 
L 162 25.92 
" style="fill:none;stroke:#000000;stroke-linecap:square;stroke-linejoin:miter;stroke-width:0.8;"/>
   </g>
   <g id="patch_5">
    <path d="M 22.5 189 
L 162 189 
" style="fill:none;stroke:#000000;stroke-linecap:square;stroke-linejoin:miter;stroke-width:0.8;"/>
   </g>
   <g id="patch_6">
    <path d="M 22.5 25.92 
L 162 25.92 
" style="fill:none;stroke:#000000;stroke-linecap:square;stroke-linejoin:miter;stroke-width:0.8;"/>
   </g>
  </g>
 </g>
 <defs>
  <clipPath id="pa5b8d0015a">
   <rect height="163.08" width="139.5" x="22.5" y="25.92"/>
  </clipPath>
 </defs>
</svg>
