<?xml version="1.0" encoding="utf-8" standalone="no"?>
<!DOCTYPE svg PUBLIC "-//W3C//DTD SVG 1.1//EN"
  "http://www.w3.org/Graphics/SVG/1.1/DTD/svg11.dtd">
<!-- Created with matplotlib (https://matplotlib.org/) -->
<svg height="216pt" version="1.1" viewBox="0 0 432 216" width="432pt" xmlns="http://www.w3.org/2000/svg" xmlns:xlink="http://www.w3.org/1999/xlink">
 <metadata>
  <rdf:RDF xmlns:cc="http://creativecommons.org/ns#" xmlns:dc="http://purl.org/dc/elements/1.1/" xmlns:rdf="http://www.w3.org/1999/02/22-rdf-syntax-ns#">
   <cc:Work>
    <dc:type rdf:resource="http://purl.org/dc/dcmitype/StillImage"/>
    <dc:date>2023-04-21T15:46:25.160170</dc:date>
    <dc:format>image/svg+xml</dc:format>
    <dc:creator>
     <cc:Agent>
      <dc:title>Matplotlib v3.3.4, https://matplotlib.org/</dc:title>
     </cc:Agent>
    </dc:creator>
   </cc:Work>
  </rdf:RDF>
 </metadata>
 <defs>
  <style type="text/css">*{stroke-linecap:butt;stroke-linejoin:round;}</style>
 </defs>
 <g id="figure_1">
  <g id="patch_1">
   <path d="M 0 216 
L 432 216 
L 432 0 
L 0 0 
z
" style="fill:none;"/>
  </g>
  <g id="axes_1">
   <g id="patch_2">
    <path d="M 54 189 
L 388.8 189 
L 388.8 25.92 
L 54 25.92 
z
" style="fill:#ffffff;"/>
   </g>
   <g id="PathCollection_1">
    <defs>
     <path d="M 0 3.872983 
C 1.027127 3.872983 2.012324 3.464901 2.738613 2.738613 
C 3.464901 2.012324 3.872983 1.027127 3.872983 -0 
C 3.872983 -1.027127 3.464901 -2.012324 2.738613 -2.738613 
C 2.012324 -3.464901 1.027127 -3.872983 0 -3.872983 
C -1.027127 -3.872983 -2.012324 -3.464901 -2.738613 -2.738613 
C -3.464901 -2.012324 -3.872983 -1.027127 -3.872983 0 
C -3.872983 1.027127 -3.464901 2.012324 -2.738613 2.738613 
C -2.012324 3.464901 -1.027127 3.872983 0 3.872983 
z
" id="C0_0_aa747ebd10"/>
    </defs>
    <g clip-path="url(#p4f9178a44e)">
     <use style="fill:none;stroke:#0000ff;" x="69.218182" xlink:href="#C0_0_aa747ebd10" y="34.014807"/>
    </g>
    <g clip-path="url(#p4f9178a44e)">
     <use style="fill:none;stroke:#0000ff;" x="81.9" xlink:href="#C0_0_aa747ebd10" y="34.13094"/>
    </g>
    <g clip-path="url(#p4f9178a44e)">
     <use style="fill:none;stroke:#0000ff;" x="94.581818" xlink:href="#C0_0_aa747ebd10" y="34.425286"/>
    </g>
    <g clip-path="url(#p4f9178a44e)">
     <use style="fill:none;stroke:#0000ff;" x="107.263636" xlink:href="#C0_0_aa747ebd10" y="35.079133"/>
    </g>
    <g clip-path="url(#p4f9178a44e)">
     <use style="fill:none;stroke:#0000ff;" x="119.945455" xlink:href="#C0_0_aa747ebd10" y="36.046469"/>
    </g>
    <g clip-path="url(#p4f9178a44e)">
     <use style="fill:none;stroke:#0000ff;" x="132.627273" xlink:href="#C0_0_aa747ebd10" y="37.98846"/>
    </g>
    <g clip-path="url(#p4f9178a44e)">
     <use style="fill:none;stroke:#0000ff;" x="145.309091" xlink:href="#C0_0_aa747ebd10" y="40.778549"/>
    </g>
    <g clip-path="url(#p4f9178a44e)">
     <use style="fill:none;stroke:#0000ff;" x="157.990909" xlink:href="#C0_0_aa747ebd10" y="45.14334"/>
    </g>
    <g clip-path="url(#p4f9178a44e)">
     <use style="fill:none;stroke:#0000ff;" x="170.672727" xlink:href="#C0_0_aa747ebd10" y="51.417467"/>
    </g>
    <g clip-path="url(#p4f9178a44e)">
     <use style="fill:none;stroke:#0000ff;" x="183.354545" xlink:href="#C0_0_aa747ebd10" y="59.054486"/>
    </g>
    <g clip-path="url(#p4f9178a44e)">
     <use style="fill:none;stroke:#0000ff;" x="196.036364" xlink:href="#C0_0_aa747ebd10" y="68.737609"/>
    </g>
    <g clip-path="url(#p4f9178a44e)">
     <use style="fill:none;stroke:#0000ff;" x="208.718182" xlink:href="#C0_0_aa747ebd10" y="79.308406"/>
    </g>
    <g clip-path="url(#p4f9178a44e)">
     <use style="fill:none;stroke:#0000ff;" x="221.4" xlink:href="#C0_0_aa747ebd10" y="91.047164"/>
    </g>
    <g clip-path="url(#p4f9178a44e)">
     <use style="fill:none;stroke:#0000ff;" x="234.081818" xlink:href="#C0_0_aa747ebd10" y="102.861452"/>
    </g>
    <g clip-path="url(#p4f9178a44e)">
     <use style="fill:none;stroke:#0000ff;" x="246.763636" xlink:href="#C0_0_aa747ebd10" y="114.473647"/>
    </g>
    <g clip-path="url(#p4f9178a44e)">
     <use style="fill:none;stroke:#0000ff;" x="259.445455" xlink:href="#C0_0_aa747ebd10" y="125.412503"/>
    </g>
    <g clip-path="url(#p4f9178a44e)">
     <use style="fill:none;stroke:#0000ff;" x="272.127273" xlink:href="#C0_0_aa747ebd10" y="135.458229"/>
    </g>
    <g clip-path="url(#p4f9178a44e)">
     <use style="fill:none;stroke:#0000ff;" x="284.809091" xlink:href="#C0_0_aa747ebd10" y="144.612767"/>
    </g>
    <g clip-path="url(#p4f9178a44e)">
     <use style="fill:none;stroke:#0000ff;" x="297.490909" xlink:href="#C0_0_aa747ebd10" y="152.535588"/>
    </g>
    <g clip-path="url(#p4f9178a44e)">
     <use style="fill:none;stroke:#0000ff;" x="310.172727" xlink:href="#C0_0_aa747ebd10" y="159.481618"/>
    </g>
    <g clip-path="url(#p4f9178a44e)">
     <use style="fill:none;stroke:#0000ff;" x="322.854545" xlink:href="#C0_0_aa747ebd10" y="165.355567"/>
    </g>
    <g clip-path="url(#p4f9178a44e)">
     <use style="fill:none;stroke:#0000ff;" x="335.536364" xlink:href="#C0_0_aa747ebd10" y="170.372173"/>
    </g>
    <g clip-path="url(#p4f9178a44e)">
     <use style="fill:none;stroke:#0000ff;" x="348.218182" xlink:href="#C0_0_aa747ebd10" y="174.626965"/>
    </g>
    <g clip-path="url(#p4f9178a44e)">
     <use style="fill:none;stroke:#0000ff;" x="360.9" xlink:href="#C0_0_aa747ebd10" y="178.177718"/>
    </g>
    <g clip-path="url(#p4f9178a44e)">
     <use style="fill:none;stroke:#0000ff;" x="373.581818" xlink:href="#C0_0_aa747ebd10" y="181.137799"/>
    </g>
   </g>
   <g id="PathCollection_2">
    <defs>
     <path d="M -3.872983 3.872983 
L 3.872983 3.872983 
L 3.872983 -3.872983 
L -3.872983 -3.872983 
z
" id="C1_0_0192ab6ee5"/>
    </defs>
    <g clip-path="url(#p4f9178a44e)">
     <use style="fill:none;stroke:#a2cffe;" x="69.218182" xlink:href="#C1_0_0192ab6ee5" y="34.025334"/>
    </g>
    <g clip-path="url(#p4f9178a44e)">
     <use style="fill:none;stroke:#a2cffe;" x="81.9" xlink:href="#C1_0_0192ab6ee5" y="34.263563"/>
    </g>
    <g clip-path="url(#p4f9178a44e)">
     <use style="fill:none;stroke:#a2cffe;" x="94.581818" xlink:href="#C1_0_0192ab6ee5" y="34.561316"/>
    </g>
    <g clip-path="url(#p4f9178a44e)">
     <use style="fill:none;stroke:#a2cffe;" x="107.263636" xlink:href="#C1_0_0192ab6ee5" y="35.223506"/>
    </g>
    <g clip-path="url(#p4f9178a44e)">
     <use style="fill:none;stroke:#a2cffe;" x="119.945455" xlink:href="#C1_0_0192ab6ee5" y="36.399512"/>
    </g>
    <g clip-path="url(#p4f9178a44e)">
     <use style="fill:none;stroke:#a2cffe;" x="132.627273" xlink:href="#C1_0_0192ab6ee5" y="38.494643"/>
    </g>
    <g clip-path="url(#p4f9178a44e)">
     <use style="fill:none;stroke:#a2cffe;" x="145.309091" xlink:href="#C1_0_0192ab6ee5" y="41.665063"/>
    </g>
    <g clip-path="url(#p4f9178a44e)">
     <use style="fill:none;stroke:#a2cffe;" x="157.990909" xlink:href="#C1_0_0192ab6ee5" y="46.326323"/>
    </g>
    <g clip-path="url(#p4f9178a44e)">
     <use style="fill:none;stroke:#a2cffe;" x="170.672727" xlink:href="#C1_0_0192ab6ee5" y="52.539161"/>
    </g>
    <g clip-path="url(#p4f9178a44e)">
     <use style="fill:none;stroke:#a2cffe;" x="183.354545" xlink:href="#C1_0_0192ab6ee5" y="60.864021"/>
    </g>
    <g clip-path="url(#p4f9178a44e)">
     <use style="fill:none;stroke:#a2cffe;" x="196.036364" xlink:href="#C1_0_0192ab6ee5" y="70.404475"/>
    </g>
    <g clip-path="url(#p4f9178a44e)">
     <use style="fill:none;stroke:#a2cffe;" x="208.718182" xlink:href="#C1_0_0192ab6ee5" y="81.303706"/>
    </g>
    <g clip-path="url(#p4f9178a44e)">
     <use style="fill:none;stroke:#a2cffe;" x="221.4" xlink:href="#C1_0_0192ab6ee5" y="93.08962"/>
    </g>
    <g clip-path="url(#p4f9178a44e)">
     <use style="fill:none;stroke:#a2cffe;" x="234.081818" xlink:href="#C1_0_0192ab6ee5" y="104.770701"/>
    </g>
    <g clip-path="url(#p4f9178a44e)">
     <use style="fill:none;stroke:#a2cffe;" x="246.763636" xlink:href="#C1_0_0192ab6ee5" y="116.313576"/>
    </g>
    <g clip-path="url(#p4f9178a44e)">
     <use style="fill:none;stroke:#a2cffe;" x="259.445455" xlink:href="#C1_0_0192ab6ee5" y="127.267424"/>
    </g>
    <g clip-path="url(#p4f9178a44e)">
     <use style="fill:none;stroke:#a2cffe;" x="272.127273" xlink:href="#C1_0_0192ab6ee5" y="137.18678"/>
    </g>
    <g clip-path="url(#p4f9178a44e)">
     <use style="fill:none;stroke:#a2cffe;" x="284.809091" xlink:href="#C1_0_0192ab6ee5" y="146.027896"/>
    </g>
    <g clip-path="url(#p4f9178a44e)">
     <use style="fill:none;stroke:#a2cffe;" x="297.490909" xlink:href="#C1_0_0192ab6ee5" y="153.865411"/>
    </g>
    <g clip-path="url(#p4f9178a44e)">
     <use style="fill:none;stroke:#a2cffe;" x="310.172727" xlink:href="#C1_0_0192ab6ee5" y="160.576934"/>
    </g>
    <g clip-path="url(#p4f9178a44e)">
     <use style="fill:none;stroke:#a2cffe;" x="322.854545" xlink:href="#C1_0_0192ab6ee5" y="166.347015"/>
    </g>
    <g clip-path="url(#p4f9178a44e)">
     <use style="fill:none;stroke:#a2cffe;" x="335.536364" xlink:href="#C1_0_0192ab6ee5" y="171.19493"/>
    </g>
    <g clip-path="url(#p4f9178a44e)">
     <use style="fill:none;stroke:#a2cffe;" x="348.218182" xlink:href="#C1_0_0192ab6ee5" y="175.302964"/>
    </g>
    <g clip-path="url(#p4f9178a44e)">
     <use style="fill:none;stroke:#a2cffe;" x="360.9" xlink:href="#C1_0_0192ab6ee5" y="178.729676"/>
    </g>
    <g clip-path="url(#p4f9178a44e)">
     <use style="fill:none;stroke:#a2cffe;" x="373.581818" xlink:href="#C1_0_0192ab6ee5" y="181.587273"/>
    </g>
   </g>
   <g id="PathCollection_3">
    <path clip-path="url(#p4f9178a44e)" d="M 69.218182 37.747081 
L 73.091165 30.001114 
L 65.345198 30.001114 
z
" style="fill:none;stroke:#2c6fbb;"/>
    <path clip-path="url(#p4f9178a44e)" d="M 81.9 37.952969 
L 85.772983 30.207002 
L 78.027017 30.207002 
z
" style="fill:none;stroke:#2c6fbb;"/>
    <path clip-path="url(#p4f9178a44e)" d="M 94.581818 38.262015 
L 98.454802 30.516048 
L 90.708835 30.516048 
z
" style="fill:none;stroke:#2c6fbb;"/>
    <path clip-path="url(#p4f9178a44e)" d="M 107.263636 38.65162 
L 111.13662 30.905653 
L 103.390653 30.905653 
z
" style="fill:none;stroke:#2c6fbb;"/>
    <path clip-path="url(#p4f9178a44e)" d="M 119.945455 39.655889 
L 123.818438 31.909922 
L 116.072471 31.909922 
z
" style="fill:none;stroke:#2c6fbb;"/>
    <path clip-path="url(#p4f9178a44e)" d="M 132.627273 41.27787 
L 136.500256 33.531903 
L 128.754289 33.531903 
z
" style="fill:none;stroke:#2c6fbb;"/>
    <path clip-path="url(#p4f9178a44e)" d="M 145.309091 43.7652 
L 149.182074 36.019234 
L 141.436108 36.019234 
z
" style="fill:none;stroke:#2c6fbb;"/>
    <path clip-path="url(#p4f9178a44e)" d="M 157.990909 47.784415 
L 161.863892 40.038448 
L 154.117926 40.038448 
z
" style="fill:none;stroke:#2c6fbb;"/>
    <path clip-path="url(#p4f9178a44e)" d="M 170.672727 53.467035 
L 174.545711 45.721068 
L 166.799744 45.721068 
z
" style="fill:none;stroke:#2c6fbb;"/>
    <path clip-path="url(#p4f9178a44e)" d="M 183.354545 60.901916 
L 187.227529 53.155949 
L 179.481562 53.155949 
z
" style="fill:none;stroke:#2c6fbb;"/>
    <path clip-path="url(#p4f9178a44e)" d="M 196.036364 70.332943 
L 199.909347 62.586976 
L 192.16338 62.586976 
z
" style="fill:none;stroke:#2c6fbb;"/>
    <path clip-path="url(#p4f9178a44e)" d="M 208.718182 80.564709 
L 212.591165 72.818742 
L 204.845198 72.818742 
z
" style="fill:none;stroke:#2c6fbb;"/>
    <path clip-path="url(#p4f9178a44e)" d="M 221.4 92.213681 
L 225.272983 84.467714 
L 217.527017 84.467714 
z
" style="fill:none;stroke:#2c6fbb;"/>
    <path clip-path="url(#p4f9178a44e)" d="M 234.081818 103.791502 
L 237.954802 96.045536 
L 230.208835 96.045536 
z
" style="fill:none;stroke:#2c6fbb;"/>
    <path clip-path="url(#p4f9178a44e)" d="M 246.763636 115.669222 
L 250.63662 107.923255 
L 242.890653 107.923255 
z
" style="fill:none;stroke:#2c6fbb;"/>
    <path clip-path="url(#p4f9178a44e)" d="M 259.445455 126.819969 
L 263.318438 119.074002 
L 255.572471 119.074002 
z
" style="fill:none;stroke:#2c6fbb;"/>
    <path clip-path="url(#p4f9178a44e)" d="M 272.127273 137.125659 
L 276.000256 129.379693 
L 268.254289 129.379693 
z
" style="fill:none;stroke:#2c6fbb;"/>
    <path clip-path="url(#p4f9178a44e)" d="M 284.809091 146.36106 
L 288.682074 138.615093 
L 280.936108 138.615093 
z
" style="fill:none;stroke:#2c6fbb;"/>
    <path clip-path="url(#p4f9178a44e)" d="M 297.490909 154.593717 
L 301.363892 146.84775 
L 293.617926 146.84775 
z
" style="fill:none;stroke:#2c6fbb;"/>
    <path clip-path="url(#p4f9178a44e)" d="M 310.172727 161.749048 
L 314.045711 154.003081 
L 306.299744 154.003081 
z
" style="fill:none;stroke:#2c6fbb;"/>
    <path clip-path="url(#p4f9178a44e)" d="M 322.854545 167.869766 
L 326.727529 160.123799 
L 318.981562 160.123799 
z
" style="fill:none;stroke:#2c6fbb;"/>
    <path clip-path="url(#p4f9178a44e)" d="M 335.536364 173.095266 
L 339.409347 165.349299 
L 331.66338 165.349299 
z
" style="fill:none;stroke:#2c6fbb;"/>
    <path clip-path="url(#p4f9178a44e)" d="M 348.218182 177.546168 
L 352.091165 169.800202 
L 344.345198 169.800202 
z
" style="fill:none;stroke:#2c6fbb;"/>
    <path clip-path="url(#p4f9178a44e)" d="M 360.9 181.242522 
L 364.772983 173.496555 
L 357.027017 173.496555 
z
" style="fill:none;stroke:#2c6fbb;"/>
    <path clip-path="url(#p4f9178a44e)" d="M 373.581818 184.32398 
L 377.454802 176.578013 
L 369.708835 176.578013 
z
" style="fill:none;stroke:#2c6fbb;"/>
   </g>
   <g id="matplotlib.axis_1">
    <g id="xtick_1">
     <g id="line2d_1">
      <defs>
       <path d="M 0 0 
L 0 3.5 
" id="m1afbe76cda" style="stroke:#000000;stroke-width:0.8;"/>
      </defs>
      <g>
       <use style="stroke:#000000;stroke-width:0.8;" x="69.218182" xlink:href="#m1afbe76cda" y="189"/>
      </g>
     </g>
     <g id="text_1">
      <!-- $\mathdefault{10^{1}}$ -->
      <g transform="translate(60.418182 203.598437)scale(0.1 -0.1)">
       <defs>
        <path d="M 12.40625 8.296875 
L 28.515625 8.296875 
L 28.515625 63.921875 
L 10.984375 60.40625 
L 10.984375 69.390625 
L 28.421875 72.90625 
L 38.28125 72.90625 
L 38.28125 8.296875 
L 54.390625 8.296875 
L 54.390625 0 
L 12.40625 0 
z
" id="DejaVuSans-49"/>
        <path d="M 31.78125 66.40625 
Q 24.171875 66.40625 20.328125 58.90625 
Q 16.5 51.421875 16.5 36.375 
Q 16.5 21.390625 20.328125 13.890625 
Q 24.171875 6.390625 31.78125 6.390625 
Q 39.453125 6.390625 43.28125 13.890625 
Q 47.125 21.390625 47.125 36.375 
Q 47.125 51.421875 43.28125 58.90625 
Q 39.453125 66.40625 31.78125 66.40625 
z
M 31.78125 74.21875 
Q 44.046875 74.21875 50.515625 64.515625 
Q 56.984375 54.828125 56.984375 36.375 
Q 56.984375 17.96875 50.515625 8.265625 
Q 44.046875 -1.421875 31.78125 -1.421875 
Q 19.53125 -1.421875 13.0625 8.265625 
Q 6.59375 17.96875 6.59375 36.375 
Q 6.59375 54.828125 13.0625 64.515625 
Q 19.53125 74.21875 31.78125 74.21875 
z
" id="DejaVuSans-48"/>
       </defs>
       <use transform="translate(0 0.684375)" xlink:href="#DejaVuSans-49"/>
       <use transform="translate(63.623047 0.684375)" xlink:href="#DejaVuSans-48"/>
       <use transform="translate(128.203125 38.965625)scale(0.7)" xlink:href="#DejaVuSans-49"/>
      </g>
     </g>
    </g>
    <g id="xtick_2">
     <g id="line2d_2">
      <g>
       <use style="stroke:#000000;stroke-width:0.8;" x="125.603328" xlink:href="#m1afbe76cda" y="189"/>
      </g>
     </g>
     <g id="text_2">
      <!-- $\mathdefault{10^{2}}$ -->
      <g transform="translate(116.803328 203.598437)scale(0.1 -0.1)">
       <defs>
        <path d="M 19.1875 8.296875 
L 53.609375 8.296875 
L 53.609375 0 
L 7.328125 0 
L 7.328125 8.296875 
Q 12.9375 14.109375 22.625 23.890625 
Q 32.328125 33.6875 34.8125 36.53125 
Q 39.546875 41.84375 41.421875 45.53125 
Q 43.3125 49.21875 43.3125 52.78125 
Q 43.3125 58.59375 39.234375 62.25 
Q 35.15625 65.921875 28.609375 65.921875 
Q 23.96875 65.921875 18.8125 64.3125 
Q 13.671875 62.703125 7.8125 59.421875 
L 7.8125 69.390625 
Q 13.765625 71.78125 18.9375 73 
Q 24.125 74.21875 28.421875 74.21875 
Q 39.75 74.21875 46.484375 68.546875 
Q 53.21875 62.890625 53.21875 53.421875 
Q 53.21875 48.921875 51.53125 44.890625 
Q 49.859375 40.875 45.40625 35.40625 
Q 44.1875 33.984375 37.640625 27.21875 
Q 31.109375 20.453125 19.1875 8.296875 
z
" id="DejaVuSans-50"/>
       </defs>
       <use transform="translate(0 0.765625)" xlink:href="#DejaVuSans-49"/>
       <use transform="translate(63.623047 0.765625)" xlink:href="#DejaVuSans-48"/>
       <use transform="translate(128.203125 39.046875)scale(0.7)" xlink:href="#DejaVuSans-50"/>
      </g>
     </g>
    </g>
    <g id="xtick_3">
     <g id="line2d_3">
      <g>
       <use style="stroke:#000000;stroke-width:0.8;" x="181.988474" xlink:href="#m1afbe76cda" y="189"/>
      </g>
     </g>
     <g id="text_3">
      <!-- $\mathdefault{10^{3}}$ -->
      <g transform="translate(173.188474 203.598437)scale(0.1 -0.1)">
       <defs>
        <path d="M 40.578125 39.3125 
Q 47.65625 37.796875 51.625 33 
Q 55.609375 28.21875 55.609375 21.1875 
Q 55.609375 10.40625 48.1875 4.484375 
Q 40.765625 -1.421875 27.09375 -1.421875 
Q 22.515625 -1.421875 17.65625 -0.515625 
Q 12.796875 0.390625 7.625 2.203125 
L 7.625 11.71875 
Q 11.71875 9.328125 16.59375 8.109375 
Q 21.484375 6.890625 26.8125 6.890625 
Q 36.078125 6.890625 40.9375 10.546875 
Q 45.796875 14.203125 45.796875 21.1875 
Q 45.796875 27.640625 41.28125 31.265625 
Q 36.765625 34.90625 28.71875 34.90625 
L 20.21875 34.90625 
L 20.21875 43.015625 
L 29.109375 43.015625 
Q 36.375 43.015625 40.234375 45.921875 
Q 44.09375 48.828125 44.09375 54.296875 
Q 44.09375 59.90625 40.109375 62.90625 
Q 36.140625 65.921875 28.71875 65.921875 
Q 24.65625 65.921875 20.015625 65.03125 
Q 15.375 64.15625 9.8125 62.3125 
L 9.8125 71.09375 
Q 15.4375 72.65625 20.34375 73.4375 
Q 25.25 74.21875 29.59375 74.21875 
Q 40.828125 74.21875 47.359375 69.109375 
Q 53.90625 64.015625 53.90625 55.328125 
Q 53.90625 49.265625 50.4375 45.09375 
Q 46.96875 40.921875 40.578125 39.3125 
z
" id="DejaVuSans-51"/>
       </defs>
       <use transform="translate(0 0.765625)" xlink:href="#DejaVuSans-49"/>
       <use transform="translate(63.623047 0.765625)" xlink:href="#DejaVuSans-48"/>
       <use transform="translate(128.203125 39.046875)scale(0.7)" xlink:href="#DejaVuSans-51"/>
      </g>
     </g>
    </g>
    <g id="xtick_4">
     <g id="line2d_4">
      <g>
       <use style="stroke:#000000;stroke-width:0.8;" x="238.37362" xlink:href="#m1afbe76cda" y="189"/>
      </g>
     </g>
     <g id="text_4">
      <!-- $\mathdefault{10^{4}}$ -->
      <g transform="translate(229.57362 203.598437)scale(0.1 -0.1)">
       <defs>
        <path d="M 37.796875 64.3125 
L 12.890625 25.390625 
L 37.796875 25.390625 
z
M 35.203125 72.90625 
L 47.609375 72.90625 
L 47.609375 25.390625 
L 58.015625 25.390625 
L 58.015625 17.1875 
L 47.609375 17.1875 
L 47.609375 0 
L 37.796875 0 
L 37.796875 17.1875 
L 4.890625 17.1875 
L 4.890625 26.703125 
z
" id="DejaVuSans-52"/>
       </defs>
       <use transform="translate(0 0.684375)" xlink:href="#DejaVuSans-49"/>
       <use transform="translate(63.623047 0.684375)" xlink:href="#DejaVuSans-48"/>
       <use transform="translate(128.203125 38.965625)scale(0.7)" xlink:href="#DejaVuSans-52"/>
      </g>
     </g>
    </g>
    <g id="xtick_5">
     <g id="line2d_5">
      <g>
       <use style="stroke:#000000;stroke-width:0.8;" x="294.758766" xlink:href="#m1afbe76cda" y="189"/>
      </g>
     </g>
     <g id="text_5">
      <!-- $\mathdefault{10^{5}}$ -->
      <g transform="translate(285.958766 203.598437)scale(0.1 -0.1)">
       <defs>
        <path d="M 10.796875 72.90625 
L 49.515625 72.90625 
L 49.515625 64.59375 
L 19.828125 64.59375 
L 19.828125 46.734375 
Q 21.96875 47.46875 24.109375 47.828125 
Q 26.265625 48.1875 28.421875 48.1875 
Q 40.625 48.1875 47.75 41.5 
Q 54.890625 34.8125 54.890625 23.390625 
Q 54.890625 11.625 47.5625 5.09375 
Q 40.234375 -1.421875 26.90625 -1.421875 
Q 22.3125 -1.421875 17.546875 -0.640625 
Q 12.796875 0.140625 7.71875 1.703125 
L 7.71875 11.625 
Q 12.109375 9.234375 16.796875 8.0625 
Q 21.484375 6.890625 26.703125 6.890625 
Q 35.15625 6.890625 40.078125 11.328125 
Q 45.015625 15.765625 45.015625 23.390625 
Q 45.015625 31 40.078125 35.4375 
Q 35.15625 39.890625 26.703125 39.890625 
Q 22.75 39.890625 18.8125 39.015625 
Q 14.890625 38.140625 10.796875 36.28125 
z
" id="DejaVuSans-53"/>
       </defs>
       <use transform="translate(0 0.684375)" xlink:href="#DejaVuSans-49"/>
       <use transform="translate(63.623047 0.684375)" xlink:href="#DejaVuSans-48"/>
       <use transform="translate(128.203125 38.965625)scale(0.7)" xlink:href="#DejaVuSans-53"/>
      </g>
     </g>
    </g>
    <g id="xtick_6">
     <g id="line2d_6">
      <g>
       <use style="stroke:#000000;stroke-width:0.8;" x="351.143913" xlink:href="#m1afbe76cda" y="189"/>
      </g>
     </g>
     <g id="text_6">
      <!-- $\mathdefault{10^{6}}$ -->
      <g transform="translate(342.343913 203.598437)scale(0.1 -0.1)">
       <defs>
        <path d="M 33.015625 40.375 
Q 26.375 40.375 22.484375 35.828125 
Q 18.609375 31.296875 18.609375 23.390625 
Q 18.609375 15.53125 22.484375 10.953125 
Q 26.375 6.390625 33.015625 6.390625 
Q 39.65625 6.390625 43.53125 10.953125 
Q 47.40625 15.53125 47.40625 23.390625 
Q 47.40625 31.296875 43.53125 35.828125 
Q 39.65625 40.375 33.015625 40.375 
z
M 52.59375 71.296875 
L 52.59375 62.3125 
Q 48.875 64.0625 45.09375 64.984375 
Q 41.3125 65.921875 37.59375 65.921875 
Q 27.828125 65.921875 22.671875 59.328125 
Q 17.53125 52.734375 16.796875 39.40625 
Q 19.671875 43.65625 24.015625 45.921875 
Q 28.375 48.1875 33.59375 48.1875 
Q 44.578125 48.1875 50.953125 41.515625 
Q 57.328125 34.859375 57.328125 23.390625 
Q 57.328125 12.15625 50.6875 5.359375 
Q 44.046875 -1.421875 33.015625 -1.421875 
Q 20.359375 -1.421875 13.671875 8.265625 
Q 6.984375 17.96875 6.984375 36.375 
Q 6.984375 53.65625 15.1875 63.9375 
Q 23.390625 74.21875 37.203125 74.21875 
Q 40.921875 74.21875 44.703125 73.484375 
Q 48.484375 72.75 52.59375 71.296875 
z
" id="DejaVuSans-54"/>
       </defs>
       <use transform="translate(0 0.765625)" xlink:href="#DejaVuSans-49"/>
       <use transform="translate(63.623047 0.765625)" xlink:href="#DejaVuSans-48"/>
       <use transform="translate(128.203125 39.046875)scale(0.7)" xlink:href="#DejaVuSans-54"/>
      </g>
     </g>
    </g>
    <g id="xtick_7">
     <g id="line2d_7">
      <defs>
       <path d="M 0 0 
L 0 2 
" id="m0ba45d228d" style="stroke:#000000;stroke-width:0.6;"/>
      </defs>
      <g>
       <use style="stroke:#000000;stroke-width:0.6;" x="56.709208" xlink:href="#m0ba45d228d" y="189"/>
      </g>
     </g>
    </g>
    <g id="xtick_8">
     <g id="line2d_8">
      <g>
       <use style="stroke:#000000;stroke-width:0.6;" x="60.484012" xlink:href="#m0ba45d228d" y="189"/>
      </g>
     </g>
    </g>
    <g id="xtick_9">
     <g id="line2d_9">
      <g>
       <use style="stroke:#000000;stroke-width:0.6;" x="63.753897" xlink:href="#m0ba45d228d" y="189"/>
      </g>
     </g>
    </g>
    <g id="xtick_10">
     <g id="line2d_10">
      <g>
       <use style="stroke:#000000;stroke-width:0.6;" x="66.638139" xlink:href="#m0ba45d228d" y="189"/>
      </g>
     </g>
    </g>
    <g id="xtick_11">
     <g id="line2d_11">
      <g>
       <use style="stroke:#000000;stroke-width:0.6;" x="86.191802" xlink:href="#m0ba45d228d" y="189"/>
      </g>
     </g>
    </g>
    <g id="xtick_12">
     <g id="line2d_12">
      <g>
       <use style="stroke:#000000;stroke-width:0.6;" x="96.120734" xlink:href="#m0ba45d228d" y="189"/>
      </g>
     </g>
    </g>
    <g id="xtick_13">
     <g id="line2d_13">
      <g>
       <use style="stroke:#000000;stroke-width:0.6;" x="103.165422" xlink:href="#m0ba45d228d" y="189"/>
      </g>
     </g>
    </g>
    <g id="xtick_14">
     <g id="line2d_14">
      <g>
       <use style="stroke:#000000;stroke-width:0.6;" x="108.629708" xlink:href="#m0ba45d228d" y="189"/>
      </g>
     </g>
    </g>
    <g id="xtick_15">
     <g id="line2d_15">
      <g>
       <use style="stroke:#000000;stroke-width:0.6;" x="113.094354" xlink:href="#m0ba45d228d" y="189"/>
      </g>
     </g>
    </g>
    <g id="xtick_16">
     <g id="line2d_16">
      <g>
       <use style="stroke:#000000;stroke-width:0.6;" x="116.869158" xlink:href="#m0ba45d228d" y="189"/>
      </g>
     </g>
    </g>
    <g id="xtick_17">
     <g id="line2d_17">
      <g>
       <use style="stroke:#000000;stroke-width:0.6;" x="120.139043" xlink:href="#m0ba45d228d" y="189"/>
      </g>
     </g>
    </g>
    <g id="xtick_18">
     <g id="line2d_18">
      <g>
       <use style="stroke:#000000;stroke-width:0.6;" x="123.023285" xlink:href="#m0ba45d228d" y="189"/>
      </g>
     </g>
    </g>
    <g id="xtick_19">
     <g id="line2d_19">
      <g>
       <use style="stroke:#000000;stroke-width:0.6;" x="142.576948" xlink:href="#m0ba45d228d" y="189"/>
      </g>
     </g>
    </g>
    <g id="xtick_20">
     <g id="line2d_20">
      <g>
       <use style="stroke:#000000;stroke-width:0.6;" x="152.50588" xlink:href="#m0ba45d228d" y="189"/>
      </g>
     </g>
    </g>
    <g id="xtick_21">
     <g id="line2d_21">
      <g>
       <use style="stroke:#000000;stroke-width:0.6;" x="159.550569" xlink:href="#m0ba45d228d" y="189"/>
      </g>
     </g>
    </g>
    <g id="xtick_22">
     <g id="line2d_22">
      <g>
       <use style="stroke:#000000;stroke-width:0.6;" x="165.014854" xlink:href="#m0ba45d228d" y="189"/>
      </g>
     </g>
    </g>
    <g id="xtick_23">
     <g id="line2d_23">
      <g>
       <use style="stroke:#000000;stroke-width:0.6;" x="169.4795" xlink:href="#m0ba45d228d" y="189"/>
      </g>
     </g>
    </g>
    <g id="xtick_24">
     <g id="line2d_24">
      <g>
       <use style="stroke:#000000;stroke-width:0.6;" x="173.254304" xlink:href="#m0ba45d228d" y="189"/>
      </g>
     </g>
    </g>
    <g id="xtick_25">
     <g id="line2d_25">
      <g>
       <use style="stroke:#000000;stroke-width:0.6;" x="176.524189" xlink:href="#m0ba45d228d" y="189"/>
      </g>
     </g>
    </g>
    <g id="xtick_26">
     <g id="line2d_26">
      <g>
       <use style="stroke:#000000;stroke-width:0.6;" x="179.408431" xlink:href="#m0ba45d228d" y="189"/>
      </g>
     </g>
    </g>
    <g id="xtick_27">
     <g id="line2d_27">
      <g>
       <use style="stroke:#000000;stroke-width:0.6;" x="198.962094" xlink:href="#m0ba45d228d" y="189"/>
      </g>
     </g>
    </g>
    <g id="xtick_28">
     <g id="line2d_28">
      <g>
       <use style="stroke:#000000;stroke-width:0.6;" x="208.891026" xlink:href="#m0ba45d228d" y="189"/>
      </g>
     </g>
    </g>
    <g id="xtick_29">
     <g id="line2d_29">
      <g>
       <use style="stroke:#000000;stroke-width:0.6;" x="215.935715" xlink:href="#m0ba45d228d" y="189"/>
      </g>
     </g>
    </g>
    <g id="xtick_30">
     <g id="line2d_30">
      <g>
       <use style="stroke:#000000;stroke-width:0.6;" x="221.4" xlink:href="#m0ba45d228d" y="189"/>
      </g>
     </g>
    </g>
    <g id="xtick_31">
     <g id="line2d_31">
      <g>
       <use style="stroke:#000000;stroke-width:0.6;" x="225.864646" xlink:href="#m0ba45d228d" y="189"/>
      </g>
     </g>
    </g>
    <g id="xtick_32">
     <g id="line2d_32">
      <g>
       <use style="stroke:#000000;stroke-width:0.6;" x="229.639451" xlink:href="#m0ba45d228d" y="189"/>
      </g>
     </g>
    </g>
    <g id="xtick_33">
     <g id="line2d_33">
      <g>
       <use style="stroke:#000000;stroke-width:0.6;" x="232.909335" xlink:href="#m0ba45d228d" y="189"/>
      </g>
     </g>
    </g>
    <g id="xtick_34">
     <g id="line2d_34">
      <g>
       <use style="stroke:#000000;stroke-width:0.6;" x="235.793578" xlink:href="#m0ba45d228d" y="189"/>
      </g>
     </g>
    </g>
    <g id="xtick_35">
     <g id="line2d_35">
      <g>
       <use style="stroke:#000000;stroke-width:0.6;" x="255.347241" xlink:href="#m0ba45d228d" y="189"/>
      </g>
     </g>
    </g>
    <g id="xtick_36">
     <g id="line2d_36">
      <g>
       <use style="stroke:#000000;stroke-width:0.6;" x="265.276172" xlink:href="#m0ba45d228d" y="189"/>
      </g>
     </g>
    </g>
    <g id="xtick_37">
     <g id="line2d_37">
      <g>
       <use style="stroke:#000000;stroke-width:0.6;" x="272.320861" xlink:href="#m0ba45d228d" y="189"/>
      </g>
     </g>
    </g>
    <g id="xtick_38">
     <g id="line2d_38">
      <g>
       <use style="stroke:#000000;stroke-width:0.6;" x="277.785146" xlink:href="#m0ba45d228d" y="189"/>
      </g>
     </g>
    </g>
    <g id="xtick_39">
     <g id="line2d_39">
      <g>
       <use style="stroke:#000000;stroke-width:0.6;" x="282.249792" xlink:href="#m0ba45d228d" y="189"/>
      </g>
     </g>
    </g>
    <g id="xtick_40">
     <g id="line2d_40">
      <g>
       <use style="stroke:#000000;stroke-width:0.6;" x="286.024597" xlink:href="#m0ba45d228d" y="189"/>
      </g>
     </g>
    </g>
    <g id="xtick_41">
     <g id="line2d_41">
      <g>
       <use style="stroke:#000000;stroke-width:0.6;" x="289.294481" xlink:href="#m0ba45d228d" y="189"/>
      </g>
     </g>
    </g>
    <g id="xtick_42">
     <g id="line2d_42">
      <g>
       <use style="stroke:#000000;stroke-width:0.6;" x="292.178724" xlink:href="#m0ba45d228d" y="189"/>
      </g>
     </g>
    </g>
    <g id="xtick_43">
     <g id="line2d_43">
      <g>
       <use style="stroke:#000000;stroke-width:0.6;" x="311.732387" xlink:href="#m0ba45d228d" y="189"/>
      </g>
     </g>
    </g>
    <g id="xtick_44">
     <g id="line2d_44">
      <g>
       <use style="stroke:#000000;stroke-width:0.6;" x="321.661318" xlink:href="#m0ba45d228d" y="189"/>
      </g>
     </g>
    </g>
    <g id="xtick_45">
     <g id="line2d_45">
      <g>
       <use style="stroke:#000000;stroke-width:0.6;" x="328.706007" xlink:href="#m0ba45d228d" y="189"/>
      </g>
     </g>
    </g>
    <g id="xtick_46">
     <g id="line2d_46">
      <g>
       <use style="stroke:#000000;stroke-width:0.6;" x="334.170292" xlink:href="#m0ba45d228d" y="189"/>
      </g>
     </g>
    </g>
    <g id="xtick_47">
     <g id="line2d_47">
      <g>
       <use style="stroke:#000000;stroke-width:0.6;" x="338.634938" xlink:href="#m0ba45d228d" y="189"/>
      </g>
     </g>
    </g>
    <g id="xtick_48">
     <g id="line2d_48">
      <g>
       <use style="stroke:#000000;stroke-width:0.6;" x="342.409743" xlink:href="#m0ba45d228d" y="189"/>
      </g>
     </g>
    </g>
    <g id="xtick_49">
     <g id="line2d_49">
      <g>
       <use style="stroke:#000000;stroke-width:0.6;" x="345.679627" xlink:href="#m0ba45d228d" y="189"/>
      </g>
     </g>
    </g>
    <g id="xtick_50">
     <g id="line2d_50">
      <g>
       <use style="stroke:#000000;stroke-width:0.6;" x="348.56387" xlink:href="#m0ba45d228d" y="189"/>
      </g>
     </g>
    </g>
    <g id="xtick_51">
     <g id="line2d_51">
      <g>
       <use style="stroke:#000000;stroke-width:0.6;" x="368.117533" xlink:href="#m0ba45d228d" y="189"/>
      </g>
     </g>
    </g>
    <g id="xtick_52">
     <g id="line2d_52">
      <g>
       <use style="stroke:#000000;stroke-width:0.6;" x="378.046464" xlink:href="#m0ba45d228d" y="189"/>
      </g>
     </g>
    </g>
    <g id="xtick_53">
     <g id="line2d_53">
      <g>
       <use style="stroke:#000000;stroke-width:0.6;" x="385.091153" xlink:href="#m0ba45d228d" y="189"/>
      </g>
     </g>
    </g>
    <g id="text_7">
     <!-- $r_0^2/D$ -->
     <g transform="translate(209.16 220.598125)scale(0.12 -0.12)">
      <defs>
       <path d="M 44.578125 46.390625 
Q 43.21875 47.125 41.453125 47.515625 
Q 39.703125 47.90625 37.703125 47.90625 
Q 30.515625 47.90625 25.140625 42.453125 
Q 19.78125 37.015625 18.015625 27.875 
L 12.5 0 
L 3.515625 0 
L 14.203125 54.6875 
L 23.1875 54.6875 
L 21.484375 46.1875 
Q 25.046875 50.921875 30 53.453125 
Q 34.96875 56 40.578125 56 
Q 42.046875 56 43.453125 55.828125 
Q 44.875 55.671875 46.296875 55.28125 
z
" id="DejaVuSans-Oblique-114"/>
       <path d="M 25.390625 72.90625 
L 33.6875 72.90625 
L 8.296875 -9.28125 
L 0 -9.28125 
z
" id="DejaVuSans-47"/>
       <path d="M 16.890625 72.90625 
L 38.09375 72.90625 
Q 54.984375 72.90625 63.59375 65.75 
Q 72.21875 58.59375 72.21875 44.484375 
Q 72.21875 35.15625 68.9375 26.53125 
Q 65.671875 17.921875 59.90625 12.015625 
Q 54.109375 5.953125 45.171875 2.96875 
Q 36.234375 0 24.03125 0 
L 2.6875 0 
z
M 25.203125 64.796875 
L 14.203125 8.109375 
L 27.09375 8.109375 
Q 43.65625 8.109375 52.734375 17.625 
Q 61.8125 27.15625 61.8125 44.484375 
Q 61.8125 54.984375 55.953125 59.890625 
Q 50.09375 64.796875 37.59375 64.796875 
z
" id="DejaVuSans-Oblique-68"/>
      </defs>
      <use transform="translate(0 0.765625)" xlink:href="#DejaVuSans-Oblique-114"/>
      <use transform="translate(45.763177 39.046875)scale(0.7)" xlink:href="#DejaVuSans-50"/>
      <use transform="translate(41.113281 -26.578125)scale(0.7)" xlink:href="#DejaVuSans-48"/>
      <use transform="translate(93.033685 0.765625)" xlink:href="#DejaVuSans-47"/>
      <use transform="translate(126.725091 0.765625)" xlink:href="#DejaVuSans-Oblique-68"/>
     </g>
    </g>
   </g>
   <g id="matplotlib.axis_2">
    <g id="ytick_1">
     <g id="line2d_54">
      <defs>
       <path d="M 0 0 
L -3.5 0 
" id="m0abb924d23" style="stroke:#000000;stroke-width:0.8;"/>
      </defs>
      <g>
       <use style="stroke:#000000;stroke-width:0.8;" x="54" xlink:href="#m0abb924d23" y="161.811175"/>
      </g>
     </g>
     <g id="text_8">
      <!-- 0.6 -->
      <g transform="translate(31.096875 165.610394)scale(0.1 -0.1)">
       <defs>
        <path d="M 10.6875 12.40625 
L 21 12.40625 
L 21 0 
L 10.6875 0 
z
" id="DejaVuSans-46"/>
       </defs>
       <use xlink:href="#DejaVuSans-48"/>
       <use x="63.623047" xlink:href="#DejaVuSans-46"/>
       <use x="95.410156" xlink:href="#DejaVuSans-54"/>
      </g>
     </g>
    </g>
    <g id="ytick_2">
     <g id="line2d_55">
      <g>
       <use style="stroke:#000000;stroke-width:0.8;" x="54" xlink:href="#m0abb924d23" y="129.691563"/>
      </g>
     </g>
     <g id="text_9">
      <!-- 0.7 -->
      <g transform="translate(31.096875 133.490782)scale(0.1 -0.1)">
       <defs>
        <path d="M 8.203125 72.90625 
L 55.078125 72.90625 
L 55.078125 68.703125 
L 28.609375 0 
L 18.3125 0 
L 43.21875 64.59375 
L 8.203125 64.59375 
z
" id="DejaVuSans-55"/>
       </defs>
       <use xlink:href="#DejaVuSans-48"/>
       <use x="63.623047" xlink:href="#DejaVuSans-46"/>
       <use x="95.410156" xlink:href="#DejaVuSans-55"/>
      </g>
     </g>
    </g>
    <g id="ytick_3">
     <g id="line2d_56">
      <g>
       <use style="stroke:#000000;stroke-width:0.8;" x="54" xlink:href="#m0abb924d23" y="97.571951"/>
      </g>
     </g>
     <g id="text_10">
      <!-- 0.8 -->
      <g transform="translate(31.096875 101.37117)scale(0.1 -0.1)">
       <defs>
        <path d="M 31.78125 34.625 
Q 24.75 34.625 20.71875 30.859375 
Q 16.703125 27.09375 16.703125 20.515625 
Q 16.703125 13.921875 20.71875 10.15625 
Q 24.75 6.390625 31.78125 6.390625 
Q 38.8125 6.390625 42.859375 10.171875 
Q 46.921875 13.96875 46.921875 20.515625 
Q 46.921875 27.09375 42.890625 30.859375 
Q 38.875 34.625 31.78125 34.625 
z
M 21.921875 38.8125 
Q 15.578125 40.375 12.03125 44.71875 
Q 8.5 49.078125 8.5 55.328125 
Q 8.5 64.0625 14.71875 69.140625 
Q 20.953125 74.21875 31.78125 74.21875 
Q 42.671875 74.21875 48.875 69.140625 
Q 55.078125 64.0625 55.078125 55.328125 
Q 55.078125 49.078125 51.53125 44.71875 
Q 48 40.375 41.703125 38.8125 
Q 48.828125 37.15625 52.796875 32.3125 
Q 56.78125 27.484375 56.78125 20.515625 
Q 56.78125 9.90625 50.3125 4.234375 
Q 43.84375 -1.421875 31.78125 -1.421875 
Q 19.734375 -1.421875 13.25 4.234375 
Q 6.78125 9.90625 6.78125 20.515625 
Q 6.78125 27.484375 10.78125 32.3125 
Q 14.796875 37.15625 21.921875 38.8125 
z
M 18.3125 54.390625 
Q 18.3125 48.734375 21.84375 45.5625 
Q 25.390625 42.390625 31.78125 42.390625 
Q 38.140625 42.390625 41.71875 45.5625 
Q 45.3125 48.734375 45.3125 54.390625 
Q 45.3125 60.0625 41.71875 63.234375 
Q 38.140625 66.40625 31.78125 66.40625 
Q 25.390625 66.40625 21.84375 63.234375 
Q 18.3125 60.0625 18.3125 54.390625 
z
" id="DejaVuSans-56"/>
       </defs>
       <use xlink:href="#DejaVuSans-48"/>
       <use x="63.623047" xlink:href="#DejaVuSans-46"/>
       <use x="95.410156" xlink:href="#DejaVuSans-56"/>
      </g>
     </g>
    </g>
    <g id="ytick_4">
     <g id="line2d_57">
      <g>
       <use style="stroke:#000000;stroke-width:0.8;" x="54" xlink:href="#m0abb924d23" y="65.452339"/>
      </g>
     </g>
     <g id="text_11">
      <!-- 0.9 -->
      <g transform="translate(31.096875 69.251558)scale(0.1 -0.1)">
       <defs>
        <path d="M 10.984375 1.515625 
L 10.984375 10.5 
Q 14.703125 8.734375 18.5 7.8125 
Q 22.3125 6.890625 25.984375 6.890625 
Q 35.75 6.890625 40.890625 13.453125 
Q 46.046875 20.015625 46.78125 33.40625 
Q 43.953125 29.203125 39.59375 26.953125 
Q 35.25 24.703125 29.984375 24.703125 
Q 19.046875 24.703125 12.671875 31.3125 
Q 6.296875 37.9375 6.296875 49.421875 
Q 6.296875 60.640625 12.9375 67.421875 
Q 19.578125 74.21875 30.609375 74.21875 
Q 43.265625 74.21875 49.921875 64.515625 
Q 56.59375 54.828125 56.59375 36.375 
Q 56.59375 19.140625 48.40625 8.859375 
Q 40.234375 -1.421875 26.421875 -1.421875 
Q 22.703125 -1.421875 18.890625 -0.6875 
Q 15.09375 0.046875 10.984375 1.515625 
z
M 30.609375 32.421875 
Q 37.25 32.421875 41.125 36.953125 
Q 45.015625 41.5 45.015625 49.421875 
Q 45.015625 57.28125 41.125 61.84375 
Q 37.25 66.40625 30.609375 66.40625 
Q 23.96875 66.40625 20.09375 61.84375 
Q 16.21875 57.28125 16.21875 49.421875 
Q 16.21875 41.5 20.09375 36.953125 
Q 23.96875 32.421875 30.609375 32.421875 
z
" id="DejaVuSans-57"/>
       </defs>
       <use xlink:href="#DejaVuSans-48"/>
       <use x="63.623047" xlink:href="#DejaVuSans-46"/>
       <use x="95.410156" xlink:href="#DejaVuSans-57"/>
      </g>
     </g>
    </g>
    <g id="ytick_5">
     <g id="line2d_58">
      <g>
       <use style="stroke:#000000;stroke-width:0.8;" x="54" xlink:href="#m0abb924d23" y="33.332727"/>
      </g>
     </g>
     <g id="text_12">
      <!-- 1.0 -->
      <g transform="translate(31.096875 37.131946)scale(0.1 -0.1)">
       <use xlink:href="#DejaVuSans-49"/>
       <use x="63.623047" xlink:href="#DejaVuSans-46"/>
       <use x="95.410156" xlink:href="#DejaVuSans-48"/>
      </g>
     </g>
    </g>
    <g id="text_13">
     <!-- $\alpha^*$ -->
     <g transform="translate(24.60125 115.62)rotate(-90)scale(0.12 -0.12)">
      <defs>
       <path d="M 40.921875 25.4375 
L 40.96875 36.71875 
Q 41.015625 48.25 32.328125 48.296875 
Q 25.828125 48.34375 21.78125 42.921875 
Q 16.703125 36.234375 14.984375 27.296875 
Q 12.890625 16.546875 15.53125 11.421875 
Q 18.265625 6.203125 24.171875 6.203125 
Q 30.71875 6.203125 36.234375 16.609375 
z
M 33.84375 55.90625 
Q 49.078125 56.15625 48.875 40.375 
Q 48.875 40.375 56.5 54.6875 
L 64.5 54.6875 
L 48.734375 25.046875 
L 48.578125 14.359375 
Q 48.578125 11.96875 49.90625 9.96875 
Q 51.421875 7.625 52.984375 7.625 
L 57.328125 7.625 
L 55.859375 0 
L 50.4375 0 
Q 45.84375 0 42.53125 4.109375 
Q 40.96875 6.15625 40.921875 10.453125 
Q 37.75 5.21875 32.28125 0.78125 
Q 29.6875 -1.265625 22.703125 -1.21875 
Q 11.28125 -1.125 7.125 6.203125 
Q 2.875 13.8125 5.515625 27.296875 
Q 8.34375 41.796875 15.765625 48.390625 
Q 24.125 55.765625 33.84375 55.90625 
z
" id="DejaVuSans-Oblique-945"/>
       <path d="M 47.015625 60.890625 
L 29.5 51.421875 
L 47.015625 41.890625 
L 44.1875 37.109375 
L 27.78125 47.015625 
L 27.78125 28.609375 
L 22.21875 28.609375 
L 22.21875 47.015625 
L 5.8125 37.109375 
L 2.984375 41.890625 
L 20.515625 51.421875 
L 2.984375 60.890625 
L 5.8125 65.71875 
L 22.21875 55.8125 
L 22.21875 74.21875 
L 27.78125 74.21875 
L 27.78125 55.8125 
L 44.1875 65.71875 
z
" id="DejaVuSans-42"/>
      </defs>
      <use transform="translate(0 0.765625)" xlink:href="#DejaVuSans-Oblique-945"/>
      <use transform="translate(84.227435 39.046875)scale(0.7)" xlink:href="#DejaVuSans-42"/>
     </g>
    </g>
   </g>
   <g id="line2d_59">
    <path clip-path="url(#p4f9178a44e)" d="M 69.218182 33.332727 
L 81.9 33.332727 
L 94.581818 33.332727 
L 107.263636 33.332727 
L 119.945455 33.332727 
L 132.627273 33.332727 
L 145.309091 33.332727 
L 157.990909 33.332727 
L 170.672727 33.332727 
L 183.354545 33.332727 
L 196.036364 33.332727 
L 208.718182 33.332727 
L 221.4 33.332727 
" style="fill:none;stroke:#000000;stroke-dasharray:2,3.3;stroke-dashoffset:0;stroke-width:2;"/>
   </g>
   <g id="line2d_60">
    <path clip-path="url(#p4f9178a44e)" d="M 284.809091 132.908154 
L 297.490909 143.939009 
L 310.172727 152.954301 
L 322.854545 160.320244 
L 335.536364 166.34129 
L 348.218182 171.26728 
L 360.9 175.301698 
L 373.581818 178.609635 
" style="fill:none;stroke:#000000;stroke-dasharray:7.4,3.2;stroke-dashoffset:0;stroke-width:2;"/>
   </g>
   <g id="patch_3">
    <path d="M 54 189 
L 54 25.92 
" style="fill:none;stroke:#000000;stroke-linecap:square;stroke-linejoin:miter;stroke-width:0.8;"/>
   </g>
   <g id="patch_4">
    <path d="M 388.8 189 
L 388.8 25.92 
" style="fill:none;stroke:#000000;stroke-linecap:square;stroke-linejoin:miter;stroke-width:0.8;"/>
   </g>
   <g id="patch_5">
    <path d="M 54 189 
L 388.8 189 
" style="fill:none;stroke:#000000;stroke-linecap:square;stroke-linejoin:miter;stroke-width:0.8;"/>
   </g>
   <g id="patch_6">
    <path d="M 54 25.92 
L 388.8 25.92 
" style="fill:none;stroke:#000000;stroke-linecap:square;stroke-linejoin:miter;stroke-width:0.8;"/>
   </g>
   <g id="legend_1">
    <g id="patch_7">
     <path d="M 304.8 77.954375 
L 381.8 77.954375 
Q 383.8 77.954375 383.8 75.954375 
L 383.8 32.92 
Q 383.8 30.92 381.8 30.92 
L 304.8 30.92 
Q 302.8 30.92 302.8 32.92 
L 302.8 75.954375 
Q 302.8 77.954375 304.8 77.954375 
z
" style="fill:#ffffff;opacity:0.8;stroke:#cccccc;stroke-linejoin:miter;"/>
    </g>
    <g id="PathCollection_4">
     <path d="M 316.8 43.766421 
C 317.827127 43.766421 318.812324 43.358339 319.538613 42.63205 
C 320.264901 41.905762 320.672983 40.920565 320.672983 39.893438 
C 320.672983 38.86631 320.264901 37.881113 319.538613 37.154825 
C 318.812324 36.428536 317.827127 36.020454 316.8 36.020454 
C 315.772873 36.020454 314.787676 36.428536 314.061387 37.154825 
C 313.335099 37.881113 312.927017 38.86631 312.927017 39.893438 
C 312.927017 40.920565 313.335099 41.905762 314.061387 42.63205 
C 314.787676 43.358339 315.772873 43.766421 316.8 43.766421 
z
" style="fill:none;stroke:#0000ff;"/>
    </g>
    <g id="text_14">
     <!-- $D$=1e-05 -->
     <g transform="translate(334.8 42.518438)scale(0.1 -0.1)">
      <defs>
       <path d="M 10.59375 45.40625 
L 73.1875 45.40625 
L 73.1875 37.203125 
L 10.59375 37.203125 
z
M 10.59375 25.484375 
L 73.1875 25.484375 
L 73.1875 17.1875 
L 10.59375 17.1875 
z
" id="DejaVuSans-61"/>
       <path d="M 56.203125 29.59375 
L 56.203125 25.203125 
L 14.890625 25.203125 
Q 15.484375 15.921875 20.484375 11.0625 
Q 25.484375 6.203125 34.421875 6.203125 
Q 39.59375 6.203125 44.453125 7.46875 
Q 49.3125 8.734375 54.109375 11.28125 
L 54.109375 2.78125 
Q 49.265625 0.734375 44.1875 -0.34375 
Q 39.109375 -1.421875 33.890625 -1.421875 
Q 20.796875 -1.421875 13.15625 6.1875 
Q 5.515625 13.8125 5.515625 26.8125 
Q 5.515625 40.234375 12.765625 48.109375 
Q 20.015625 56 32.328125 56 
Q 43.359375 56 49.78125 48.890625 
Q 56.203125 41.796875 56.203125 29.59375 
z
M 47.21875 32.234375 
Q 47.125 39.59375 43.09375 43.984375 
Q 39.0625 48.390625 32.421875 48.390625 
Q 24.90625 48.390625 20.390625 44.140625 
Q 15.875 39.890625 15.1875 32.171875 
z
" id="DejaVuSans-101"/>
       <path d="M 4.890625 31.390625 
L 31.203125 31.390625 
L 31.203125 23.390625 
L 4.890625 23.390625 
z
" id="DejaVuSans-45"/>
      </defs>
      <use transform="translate(0 0.78125)" xlink:href="#DejaVuSans-Oblique-68"/>
      <use transform="translate(77.001953 0.78125)" xlink:href="#DejaVuSans-61"/>
      <use transform="translate(160.791016 0.78125)" xlink:href="#DejaVuSans-49"/>
      <use transform="translate(224.414062 0.78125)" xlink:href="#DejaVuSans-101"/>
      <use transform="translate(285.9375 0.78125)" xlink:href="#DejaVuSans-45"/>
      <use transform="translate(322.021484 0.78125)" xlink:href="#DejaVuSans-48"/>
      <use transform="translate(385.644531 0.78125)" xlink:href="#DejaVuSans-53"/>
     </g>
    </g>
    <g id="PathCollection_5">
     <path d="M 312.927017 58.444546 
L 320.672983 58.444546 
L 320.672983 50.698579 
L 312.927017 50.698579 
z
" style="fill:none;stroke:#a2cffe;"/>
    </g>
    <g id="text_15">
     <!-- $D$=2e-05 -->
     <g transform="translate(334.8 57.196562)scale(0.1 -0.1)">
      <use transform="translate(0 0.78125)" xlink:href="#DejaVuSans-Oblique-68"/>
      <use transform="translate(77.001953 0.78125)" xlink:href="#DejaVuSans-61"/>
      <use transform="translate(160.791016 0.78125)" xlink:href="#DejaVuSans-50"/>
      <use transform="translate(224.414062 0.78125)" xlink:href="#DejaVuSans-101"/>
      <use transform="translate(285.9375 0.78125)" xlink:href="#DejaVuSans-45"/>
      <use transform="translate(322.021484 0.78125)" xlink:href="#DejaVuSans-48"/>
      <use transform="translate(385.644531 0.78125)" xlink:href="#DejaVuSans-53"/>
     </g>
    </g>
    <g id="PathCollection_6">
     <path d="M 316.8 73.122671 
L 320.672983 65.376704 
L 312.927017 65.376704 
z
" style="fill:none;stroke:#2c6fbb;"/>
    </g>
    <g id="text_16">
     <!-- $D$=5e-06 -->
     <g transform="translate(334.8 71.874687)scale(0.1 -0.1)">
      <use transform="translate(0 0.78125)" xlink:href="#DejaVuSans-Oblique-68"/>
      <use transform="translate(77.001953 0.78125)" xlink:href="#DejaVuSans-61"/>
      <use transform="translate(160.791016 0.78125)" xlink:href="#DejaVuSans-53"/>
      <use transform="translate(224.414062 0.78125)" xlink:href="#DejaVuSans-101"/>
      <use transform="translate(285.9375 0.78125)" xlink:href="#DejaVuSans-45"/>
      <use transform="translate(322.021484 0.78125)" xlink:href="#DejaVuSans-48"/>
      <use transform="translate(385.644531 0.78125)" xlink:href="#DejaVuSans-54"/>
     </g>
    </g>
   </g>
  </g>
 </g>
 <defs>
  <clipPath id="p4f9178a44e">
   <rect height="163.08" width="334.8" x="54" y="25.92"/>
  </clipPath>
 </defs>
</svg>
