<?xml version="1.0" encoding="utf-8" standalone="no"?>
<!DOCTYPE svg PUBLIC "-//W3C//DTD SVG 1.1//EN"
  "http://www.w3.org/Graphics/SVG/1.1/DTD/svg11.dtd">
<!-- Created with matplotlib (https://matplotlib.org/) -->
<svg height="216pt" version="1.1" viewBox="0 0 432 216" width="432pt" xmlns="http://www.w3.org/2000/svg" xmlns:xlink="http://www.w3.org/1999/xlink">
 <metadata>
  <rdf:RDF xmlns:cc="http://creativecommons.org/ns#" xmlns:dc="http://purl.org/dc/elements/1.1/" xmlns:rdf="http://www.w3.org/1999/02/22-rdf-syntax-ns#">
   <cc:Work>
    <dc:type rdf:resource="http://purl.org/dc/dcmitype/StillImage"/>
    <dc:date>2023-04-19T14:14:57.876786</dc:date>
    <dc:format>image/svg+xml</dc:format>
    <dc:creator>
     <cc:Agent>
      <dc:title>Matplotlib v3.3.4, https://matplotlib.org/</dc:title>
     </cc:Agent>
    </dc:creator>
   </cc:Work>
  </rdf:RDF>
 </metadata>
 <defs>
  <style type="text/css">*{stroke-linecap:butt;stroke-linejoin:round;}</style>
 </defs>
 <g id="figure_1">
  <g id="patch_1">
   <path d="M 0 216 
L 432 216 
L 432 0 
L 0 0 
z
" style="fill:none;"/>
  </g>
  <g id="axes_1">
   <g id="patch_2">
    <path d="M 62.516719 160.3 
L 421.2 160.3 
L 421.2 10.8 
L 62.516719 10.8 
z
" style="fill:#ffffff;"/>
   </g>
   <g id="PathCollection_1">
    <defs>
     <path d="M -5 5 
L 5 -5 
M -5 -5 
L 5 5 
" id="m00a8322ac9" style="stroke:#0504aa;stroke-width:1.5;"/>
    </defs>
    <g clip-path="url(#p948f08a491)">
     <use style="fill:#0504aa;stroke:#0504aa;stroke-width:1.5;" x="78.820504" xlink:href="#m00a8322ac9" y="17.725353"/>
     <use style="fill:#0504aa;stroke:#0504aa;stroke-width:1.5;" x="109.811026" xlink:href="#m00a8322ac9" y="28.200605"/>
     <use style="fill:#0504aa;stroke:#0504aa;stroke-width:1.5;" x="140.801548" xlink:href="#m00a8322ac9" y="38.963125"/>
     <use style="fill:#0504aa;stroke:#0504aa;stroke-width:1.5;" x="171.792069" xlink:href="#m00a8322ac9" y="50.252341"/>
     <use style="fill:#0504aa;stroke:#0504aa;stroke-width:1.5;" x="202.782591" xlink:href="#m00a8322ac9" y="62.276559"/>
     <use style="fill:#0504aa;stroke:#0504aa;stroke-width:1.5;" x="233.773113" xlink:href="#m00a8322ac9" y="74.934652"/>
     <use style="fill:#0504aa;stroke:#0504aa;stroke-width:1.5;" x="264.763635" xlink:href="#m00a8322ac9" y="88.235041"/>
     <use style="fill:#0504aa;stroke:#0504aa;stroke-width:1.5;" x="295.754156" xlink:href="#m00a8322ac9" y="101.841521"/>
     <use style="fill:#0504aa;stroke:#0504aa;stroke-width:1.5;" x="326.744678" xlink:href="#m00a8322ac9" y="115.684112"/>
     <use style="fill:#0504aa;stroke:#0504aa;stroke-width:1.5;" x="357.7352" xlink:href="#m00a8322ac9" y="129.672049"/>
    </g>
   </g>
   <g id="PathCollection_2">
    <defs>
     <path d="M -5 0 
L 5 0 
M 0 5 
L 0 -5 
" id="m0a2b0213d8" style="stroke:#0165fc;stroke-width:1.5;"/>
    </defs>
    <g clip-path="url(#p948f08a491)">
     <use style="fill:#0165fc;stroke:#0165fc;stroke-width:1.5;" x="107.737148" xlink:href="#m0a2b0213d8" y="27.443437"/>
     <use style="fill:#0165fc;stroke:#0165fc;stroke-width:1.5;" x="138.72767" xlink:href="#m0a2b0213d8" y="38.094249"/>
     <use style="fill:#0165fc;stroke:#0165fc;stroke-width:1.5;" x="169.718191" xlink:href="#m0a2b0213d8" y="49.268008"/>
     <use style="fill:#0165fc;stroke:#0165fc;stroke-width:1.5;" x="200.708713" xlink:href="#m0a2b0213d8" y="61.184623"/>
     <use style="fill:#0165fc;stroke:#0165fc;stroke-width:1.5;" x="231.699235" xlink:href="#m0a2b0213d8" y="73.930764"/>
     <use style="fill:#0165fc;stroke:#0165fc;stroke-width:1.5;" x="262.689757" xlink:href="#m0a2b0213d8" y="87.289373"/>
     <use style="fill:#0165fc;stroke:#0165fc;stroke-width:1.5;" x="293.680278" xlink:href="#m0a2b0213d8" y="101.093792"/>
     <use style="fill:#0165fc;stroke:#0165fc;stroke-width:1.5;" x="324.6708" xlink:href="#m0a2b0213d8" y="115.034768"/>
     <use style="fill:#0165fc;stroke:#0165fc;stroke-width:1.5;" x="355.661322" xlink:href="#m0a2b0213d8" y="129.264836"/>
     <use style="fill:#0165fc;stroke:#0165fc;stroke-width:1.5;" x="386.651844" xlink:href="#m0a2b0213d8" y="144.948542"/>
    </g>
   </g>
   <g id="PathCollection_3">
    <defs>
     <path d="M 0 0 
L -5 -0 
M 0 0 
L 2.5 4 
M 0 0 
L 2.5 -4 
" id="m17dbb29391" style="stroke:#840000;stroke-width:1.5;"/>
    </defs>
    <g clip-path="url(#p948f08a491)">
     <use style="fill:#840000;stroke:#840000;stroke-width:1.5;" x="97.064875" xlink:href="#m17dbb29391" y="23.887369"/>
     <use style="fill:#840000;stroke:#840000;stroke-width:1.5;" x="128.055397" xlink:href="#m17dbb29391" y="34.464762"/>
     <use style="fill:#840000;stroke:#840000;stroke-width:1.5;" x="159.045919" xlink:href="#m17dbb29391" y="45.483288"/>
     <use style="fill:#840000;stroke:#840000;stroke-width:1.5;" x="190.03644" xlink:href="#m17dbb29391" y="57.141349"/>
     <use style="fill:#840000;stroke:#840000;stroke-width:1.5;" x="221.026962" xlink:href="#m17dbb29391" y="69.558152"/>
     <use style="fill:#840000;stroke:#840000;stroke-width:1.5;" x="252.017484" xlink:href="#m17dbb29391" y="82.546001"/>
     <use style="fill:#840000;stroke:#840000;stroke-width:1.5;" x="283.008006" xlink:href="#m17dbb29391" y="96.027861"/>
     <use style="fill:#840000;stroke:#840000;stroke-width:1.5;" x="313.998527" xlink:href="#m17dbb29391" y="109.787392"/>
     <use style="fill:#840000;stroke:#840000;stroke-width:1.5;" x="344.989049" xlink:href="#m17dbb29391" y="123.737731"/>
     <use style="fill:#840000;stroke:#840000;stroke-width:1.5;" x="375.979571" xlink:href="#m17dbb29391" y="137.757425"/>
    </g>
   </g>
   <g id="PathCollection_4">
    <defs>
     <path d="M 0 0 
L 5 0 
M 0 0 
L -2.5 -4 
M 0 0 
L -2.5 4 
" id="m7db0fc7628" style="stroke:#ff474c;stroke-width:1.5;"/>
    </defs>
    <g clip-path="url(#p948f08a491)">
     <use style="fill:#ff474c;stroke:#ff474c;stroke-width:1.5;" x="125.981519" xlink:href="#m7db0fc7628" y="33.647743"/>
     <use style="fill:#ff474c;stroke:#ff474c;stroke-width:1.5;" x="156.972041" xlink:href="#m7db0fc7628" y="44.528946"/>
     <use style="fill:#ff474c;stroke:#ff474c;stroke-width:1.5;" x="187.962562" xlink:href="#m7db0fc7628" y="56.09225"/>
     <use style="fill:#ff474c;stroke:#ff474c;stroke-width:1.5;" x="218.953084" xlink:href="#m7db0fc7628" y="68.457363"/>
     <use style="fill:#ff474c;stroke:#ff474c;stroke-width:1.5;" x="249.943606" xlink:href="#m7db0fc7628" y="81.570708"/>
     <use style="fill:#ff474c;stroke:#ff474c;stroke-width:1.5;" x="280.934128" xlink:href="#m7db0fc7628" y="95.168521"/>
     <use style="fill:#ff474c;stroke:#ff474c;stroke-width:1.5;" x="311.924649" xlink:href="#m7db0fc7628" y="109.143815"/>
     <use style="fill:#ff474c;stroke:#ff474c;stroke-width:1.5;" x="342.915171" xlink:href="#m7db0fc7628" y="123.236984"/>
     <use style="fill:#ff474c;stroke:#ff474c;stroke-width:1.5;" x="373.905693" xlink:href="#m7db0fc7628" y="137.425888"/>
     <use style="fill:#ff474c;stroke:#ff474c;stroke-width:1.5;" x="404.896214" xlink:href="#m7db0fc7628" y="153.223773"/>
    </g>
   </g>
   <g id="matplotlib.axis_1">
    <g id="xtick_1">
     <g id="line2d_1">
      <defs>
       <path d="M 0 0 
L 0 3.5 
" id="m1d5e313943" style="stroke:#000000;stroke-width:0.8;"/>
      </defs>
      <g>
       <use style="stroke:#000000;stroke-width:0.8;" x="78.820504" xlink:href="#m1d5e313943" y="160.3"/>
      </g>
     </g>
     <g id="text_1">
      <!-- $\mathdefault{10^{1}}$ -->
      <g transform="translate(70.020504 174.898438)scale(0.1 -0.1)">
       <defs>
        <path d="M 12.40625 8.296875 
L 28.515625 8.296875 
L 28.515625 63.921875 
L 10.984375 60.40625 
L 10.984375 69.390625 
L 28.421875 72.90625 
L 38.28125 72.90625 
L 38.28125 8.296875 
L 54.390625 8.296875 
L 54.390625 0 
L 12.40625 0 
z
" id="DejaVuSans-49"/>
        <path d="M 31.78125 66.40625 
Q 24.171875 66.40625 20.328125 58.90625 
Q 16.5 51.421875 16.5 36.375 
Q 16.5 21.390625 20.328125 13.890625 
Q 24.171875 6.390625 31.78125 6.390625 
Q 39.453125 6.390625 43.28125 13.890625 
Q 47.125 21.390625 47.125 36.375 
Q 47.125 51.421875 43.28125 58.90625 
Q 39.453125 66.40625 31.78125 66.40625 
z
M 31.78125 74.21875 
Q 44.046875 74.21875 50.515625 64.515625 
Q 56.984375 54.828125 56.984375 36.375 
Q 56.984375 17.96875 50.515625 8.265625 
Q 44.046875 -1.421875 31.78125 -1.421875 
Q 19.53125 -1.421875 13.0625 8.265625 
Q 6.59375 17.96875 6.59375 36.375 
Q 6.59375 54.828125 13.0625 64.515625 
Q 19.53125 74.21875 31.78125 74.21875 
z
" id="DejaVuSans-48"/>
       </defs>
       <use transform="translate(0 0.684375)" xlink:href="#DejaVuSans-49"/>
       <use transform="translate(63.623047 0.684375)" xlink:href="#DejaVuSans-48"/>
       <use transform="translate(128.203125 38.965625)scale(0.7)" xlink:href="#DejaVuSans-49"/>
      </g>
     </g>
    </g>
    <g id="xtick_2">
     <g id="line2d_2">
      <g>
       <use style="stroke:#000000;stroke-width:0.8;" x="139.426993" xlink:href="#m1d5e313943" y="160.3"/>
      </g>
     </g>
     <g id="text_2">
      <!-- $\mathdefault{10^{2}}$ -->
      <g transform="translate(130.626993 174.898438)scale(0.1 -0.1)">
       <defs>
        <path d="M 19.1875 8.296875 
L 53.609375 8.296875 
L 53.609375 0 
L 7.328125 0 
L 7.328125 8.296875 
Q 12.9375 14.109375 22.625 23.890625 
Q 32.328125 33.6875 34.8125 36.53125 
Q 39.546875 41.84375 41.421875 45.53125 
Q 43.3125 49.21875 43.3125 52.78125 
Q 43.3125 58.59375 39.234375 62.25 
Q 35.15625 65.921875 28.609375 65.921875 
Q 23.96875 65.921875 18.8125 64.3125 
Q 13.671875 62.703125 7.8125 59.421875 
L 7.8125 69.390625 
Q 13.765625 71.78125 18.9375 73 
Q 24.125 74.21875 28.421875 74.21875 
Q 39.75 74.21875 46.484375 68.546875 
Q 53.21875 62.890625 53.21875 53.421875 
Q 53.21875 48.921875 51.53125 44.890625 
Q 49.859375 40.875 45.40625 35.40625 
Q 44.1875 33.984375 37.640625 27.21875 
Q 31.109375 20.453125 19.1875 8.296875 
z
" id="DejaVuSans-50"/>
       </defs>
       <use transform="translate(0 0.765625)" xlink:href="#DejaVuSans-49"/>
       <use transform="translate(63.623047 0.765625)" xlink:href="#DejaVuSans-48"/>
       <use transform="translate(128.203125 39.046875)scale(0.7)" xlink:href="#DejaVuSans-50"/>
      </g>
     </g>
    </g>
    <g id="xtick_3">
     <g id="line2d_3">
      <g>
       <use style="stroke:#000000;stroke-width:0.8;" x="200.033481" xlink:href="#m1d5e313943" y="160.3"/>
      </g>
     </g>
     <g id="text_3">
      <!-- $\mathdefault{10^{3}}$ -->
      <g transform="translate(191.233481 174.898438)scale(0.1 -0.1)">
       <defs>
        <path d="M 40.578125 39.3125 
Q 47.65625 37.796875 51.625 33 
Q 55.609375 28.21875 55.609375 21.1875 
Q 55.609375 10.40625 48.1875 4.484375 
Q 40.765625 -1.421875 27.09375 -1.421875 
Q 22.515625 -1.421875 17.65625 -0.515625 
Q 12.796875 0.390625 7.625 2.203125 
L 7.625 11.71875 
Q 11.71875 9.328125 16.59375 8.109375 
Q 21.484375 6.890625 26.8125 6.890625 
Q 36.078125 6.890625 40.9375 10.546875 
Q 45.796875 14.203125 45.796875 21.1875 
Q 45.796875 27.640625 41.28125 31.265625 
Q 36.765625 34.90625 28.71875 34.90625 
L 20.21875 34.90625 
L 20.21875 43.015625 
L 29.109375 43.015625 
Q 36.375 43.015625 40.234375 45.921875 
Q 44.09375 48.828125 44.09375 54.296875 
Q 44.09375 59.90625 40.109375 62.90625 
Q 36.140625 65.921875 28.71875 65.921875 
Q 24.65625 65.921875 20.015625 65.03125 
Q 15.375 64.15625 9.8125 62.3125 
L 9.8125 71.09375 
Q 15.4375 72.65625 20.34375 73.4375 
Q 25.25 74.21875 29.59375 74.21875 
Q 40.828125 74.21875 47.359375 69.109375 
Q 53.90625 64.015625 53.90625 55.328125 
Q 53.90625 49.265625 50.4375 45.09375 
Q 46.96875 40.921875 40.578125 39.3125 
z
" id="DejaVuSans-51"/>
       </defs>
       <use transform="translate(0 0.765625)" xlink:href="#DejaVuSans-49"/>
       <use transform="translate(63.623047 0.765625)" xlink:href="#DejaVuSans-48"/>
       <use transform="translate(128.203125 39.046875)scale(0.7)" xlink:href="#DejaVuSans-51"/>
      </g>
     </g>
    </g>
    <g id="xtick_4">
     <g id="line2d_4">
      <g>
       <use style="stroke:#000000;stroke-width:0.8;" x="260.639969" xlink:href="#m1d5e313943" y="160.3"/>
      </g>
     </g>
     <g id="text_4">
      <!-- $\mathdefault{10^{4}}$ -->
      <g transform="translate(251.839969 174.898438)scale(0.1 -0.1)">
       <defs>
        <path d="M 37.796875 64.3125 
L 12.890625 25.390625 
L 37.796875 25.390625 
z
M 35.203125 72.90625 
L 47.609375 72.90625 
L 47.609375 25.390625 
L 58.015625 25.390625 
L 58.015625 17.1875 
L 47.609375 17.1875 
L 47.609375 0 
L 37.796875 0 
L 37.796875 17.1875 
L 4.890625 17.1875 
L 4.890625 26.703125 
z
" id="DejaVuSans-52"/>
       </defs>
       <use transform="translate(0 0.684375)" xlink:href="#DejaVuSans-49"/>
       <use transform="translate(63.623047 0.684375)" xlink:href="#DejaVuSans-48"/>
       <use transform="translate(128.203125 38.965625)scale(0.7)" xlink:href="#DejaVuSans-52"/>
      </g>
     </g>
    </g>
    <g id="xtick_5">
     <g id="line2d_5">
      <g>
       <use style="stroke:#000000;stroke-width:0.8;" x="321.246458" xlink:href="#m1d5e313943" y="160.3"/>
      </g>
     </g>
     <g id="text_5">
      <!-- $\mathdefault{10^{5}}$ -->
      <g transform="translate(312.446458 174.898438)scale(0.1 -0.1)">
       <defs>
        <path d="M 10.796875 72.90625 
L 49.515625 72.90625 
L 49.515625 64.59375 
L 19.828125 64.59375 
L 19.828125 46.734375 
Q 21.96875 47.46875 24.109375 47.828125 
Q 26.265625 48.1875 28.421875 48.1875 
Q 40.625 48.1875 47.75 41.5 
Q 54.890625 34.8125 54.890625 23.390625 
Q 54.890625 11.625 47.5625 5.09375 
Q 40.234375 -1.421875 26.90625 -1.421875 
Q 22.3125 -1.421875 17.546875 -0.640625 
Q 12.796875 0.140625 7.71875 1.703125 
L 7.71875 11.625 
Q 12.109375 9.234375 16.796875 8.0625 
Q 21.484375 6.890625 26.703125 6.890625 
Q 35.15625 6.890625 40.078125 11.328125 
Q 45.015625 15.765625 45.015625 23.390625 
Q 45.015625 31 40.078125 35.4375 
Q 35.15625 39.890625 26.703125 39.890625 
Q 22.75 39.890625 18.8125 39.015625 
Q 14.890625 38.140625 10.796875 36.28125 
z
" id="DejaVuSans-53"/>
       </defs>
       <use transform="translate(0 0.684375)" xlink:href="#DejaVuSans-49"/>
       <use transform="translate(63.623047 0.684375)" xlink:href="#DejaVuSans-48"/>
       <use transform="translate(128.203125 38.965625)scale(0.7)" xlink:href="#DejaVuSans-53"/>
      </g>
     </g>
    </g>
    <g id="xtick_6">
     <g id="line2d_6">
      <g>
       <use style="stroke:#000000;stroke-width:0.8;" x="381.852946" xlink:href="#m1d5e313943" y="160.3"/>
      </g>
     </g>
     <g id="text_6">
      <!-- $\mathdefault{10^{6}}$ -->
      <g transform="translate(373.052946 174.898438)scale(0.1 -0.1)">
       <defs>
        <path d="M 33.015625 40.375 
Q 26.375 40.375 22.484375 35.828125 
Q 18.609375 31.296875 18.609375 23.390625 
Q 18.609375 15.53125 22.484375 10.953125 
Q 26.375 6.390625 33.015625 6.390625 
Q 39.65625 6.390625 43.53125 10.953125 
Q 47.40625 15.53125 47.40625 23.390625 
Q 47.40625 31.296875 43.53125 35.828125 
Q 39.65625 40.375 33.015625 40.375 
z
M 52.59375 71.296875 
L 52.59375 62.3125 
Q 48.875 64.0625 45.09375 64.984375 
Q 41.3125 65.921875 37.59375 65.921875 
Q 27.828125 65.921875 22.671875 59.328125 
Q 17.53125 52.734375 16.796875 39.40625 
Q 19.671875 43.65625 24.015625 45.921875 
Q 28.375 48.1875 33.59375 48.1875 
Q 44.578125 48.1875 50.953125 41.515625 
Q 57.328125 34.859375 57.328125 23.390625 
Q 57.328125 12.15625 50.6875 5.359375 
Q 44.046875 -1.421875 33.015625 -1.421875 
Q 20.359375 -1.421875 13.671875 8.265625 
Q 6.984375 17.96875 6.984375 36.375 
Q 6.984375 53.65625 15.1875 63.9375 
Q 23.390625 74.21875 37.203125 74.21875 
Q 40.921875 74.21875 44.703125 73.484375 
Q 48.484375 72.75 52.59375 71.296875 
z
" id="DejaVuSans-54"/>
       </defs>
       <use transform="translate(0 0.765625)" xlink:href="#DejaVuSans-49"/>
       <use transform="translate(63.623047 0.765625)" xlink:href="#DejaVuSans-48"/>
       <use transform="translate(128.203125 39.046875)scale(0.7)" xlink:href="#DejaVuSans-54"/>
      </g>
     </g>
    </g>
    <g id="xtick_7">
     <g id="line2d_7">
      <defs>
       <path d="M 0 0 
L 0 2 
" id="m4cc76a2e19" style="stroke:#000000;stroke-width:0.6;"/>
      </defs>
      <g>
       <use style="stroke:#000000;stroke-width:0.6;" x="65.375031" xlink:href="#m4cc76a2e19" y="160.3"/>
      </g>
     </g>
    </g>
    <g id="xtick_8">
     <g id="line2d_8">
      <g>
       <use style="stroke:#000000;stroke-width:0.6;" x="69.43244" xlink:href="#m4cc76a2e19" y="160.3"/>
      </g>
     </g>
    </g>
    <g id="xtick_9">
     <g id="line2d_9">
      <g>
       <use style="stroke:#000000;stroke-width:0.6;" x="72.947129" xlink:href="#m4cc76a2e19" y="160.3"/>
      </g>
     </g>
    </g>
    <g id="xtick_10">
     <g id="line2d_10">
      <g>
       <use style="stroke:#000000;stroke-width:0.6;" x="76.047303" xlink:href="#m4cc76a2e19" y="160.3"/>
      </g>
     </g>
    </g>
    <g id="xtick_11">
     <g id="line2d_11">
      <g>
       <use style="stroke:#000000;stroke-width:0.6;" x="97.064875" xlink:href="#m4cc76a2e19" y="160.3"/>
      </g>
     </g>
    </g>
    <g id="xtick_12">
     <g id="line2d_12">
      <g>
       <use style="stroke:#000000;stroke-width:0.6;" x="107.737148" xlink:href="#m4cc76a2e19" y="160.3"/>
      </g>
     </g>
    </g>
    <g id="xtick_13">
     <g id="line2d_13">
      <g>
       <use style="stroke:#000000;stroke-width:0.6;" x="115.309246" xlink:href="#m4cc76a2e19" y="160.3"/>
      </g>
     </g>
    </g>
    <g id="xtick_14">
     <g id="line2d_14">
      <g>
       <use style="stroke:#000000;stroke-width:0.6;" x="121.182622" xlink:href="#m4cc76a2e19" y="160.3"/>
      </g>
     </g>
    </g>
    <g id="xtick_15">
     <g id="line2d_15">
      <g>
       <use style="stroke:#000000;stroke-width:0.6;" x="125.981519" xlink:href="#m4cc76a2e19" y="160.3"/>
      </g>
     </g>
    </g>
    <g id="xtick_16">
     <g id="line2d_16">
      <g>
       <use style="stroke:#000000;stroke-width:0.6;" x="130.038929" xlink:href="#m4cc76a2e19" y="160.3"/>
      </g>
     </g>
    </g>
    <g id="xtick_17">
     <g id="line2d_17">
      <g>
       <use style="stroke:#000000;stroke-width:0.6;" x="133.553617" xlink:href="#m4cc76a2e19" y="160.3"/>
      </g>
     </g>
    </g>
    <g id="xtick_18">
     <g id="line2d_18">
      <g>
       <use style="stroke:#000000;stroke-width:0.6;" x="136.653792" xlink:href="#m4cc76a2e19" y="160.3"/>
      </g>
     </g>
    </g>
    <g id="xtick_19">
     <g id="line2d_19">
      <g>
       <use style="stroke:#000000;stroke-width:0.6;" x="157.671364" xlink:href="#m4cc76a2e19" y="160.3"/>
      </g>
     </g>
    </g>
    <g id="xtick_20">
     <g id="line2d_20">
      <g>
       <use style="stroke:#000000;stroke-width:0.6;" x="168.343636" xlink:href="#m4cc76a2e19" y="160.3"/>
      </g>
     </g>
    </g>
    <g id="xtick_21">
     <g id="line2d_21">
      <g>
       <use style="stroke:#000000;stroke-width:0.6;" x="175.915735" xlink:href="#m4cc76a2e19" y="160.3"/>
      </g>
     </g>
    </g>
    <g id="xtick_22">
     <g id="line2d_22">
      <g>
       <use style="stroke:#000000;stroke-width:0.6;" x="181.78911" xlink:href="#m4cc76a2e19" y="160.3"/>
      </g>
     </g>
    </g>
    <g id="xtick_23">
     <g id="line2d_23">
      <g>
       <use style="stroke:#000000;stroke-width:0.6;" x="186.588007" xlink:href="#m4cc76a2e19" y="160.3"/>
      </g>
     </g>
    </g>
    <g id="xtick_24">
     <g id="line2d_24">
      <g>
       <use style="stroke:#000000;stroke-width:0.6;" x="190.645417" xlink:href="#m4cc76a2e19" y="160.3"/>
      </g>
     </g>
    </g>
    <g id="xtick_25">
     <g id="line2d_25">
      <g>
       <use style="stroke:#000000;stroke-width:0.6;" x="194.160105" xlink:href="#m4cc76a2e19" y="160.3"/>
      </g>
     </g>
    </g>
    <g id="xtick_26">
     <g id="line2d_26">
      <g>
       <use style="stroke:#000000;stroke-width:0.6;" x="197.26028" xlink:href="#m4cc76a2e19" y="160.3"/>
      </g>
     </g>
    </g>
    <g id="xtick_27">
     <g id="line2d_27">
      <g>
       <use style="stroke:#000000;stroke-width:0.6;" x="218.277852" xlink:href="#m4cc76a2e19" y="160.3"/>
      </g>
     </g>
    </g>
    <g id="xtick_28">
     <g id="line2d_28">
      <g>
       <use style="stroke:#000000;stroke-width:0.6;" x="228.950125" xlink:href="#m4cc76a2e19" y="160.3"/>
      </g>
     </g>
    </g>
    <g id="xtick_29">
     <g id="line2d_29">
      <g>
       <use style="stroke:#000000;stroke-width:0.6;" x="236.522223" xlink:href="#m4cc76a2e19" y="160.3"/>
      </g>
     </g>
    </g>
    <g id="xtick_30">
     <g id="line2d_30">
      <g>
       <use style="stroke:#000000;stroke-width:0.6;" x="242.395599" xlink:href="#m4cc76a2e19" y="160.3"/>
      </g>
     </g>
    </g>
    <g id="xtick_31">
     <g id="line2d_31">
      <g>
       <use style="stroke:#000000;stroke-width:0.6;" x="247.194496" xlink:href="#m4cc76a2e19" y="160.3"/>
      </g>
     </g>
    </g>
    <g id="xtick_32">
     <g id="line2d_32">
      <g>
       <use style="stroke:#000000;stroke-width:0.6;" x="251.251906" xlink:href="#m4cc76a2e19" y="160.3"/>
      </g>
     </g>
    </g>
    <g id="xtick_33">
     <g id="line2d_33">
      <g>
       <use style="stroke:#000000;stroke-width:0.6;" x="254.766594" xlink:href="#m4cc76a2e19" y="160.3"/>
      </g>
     </g>
    </g>
    <g id="xtick_34">
     <g id="line2d_34">
      <g>
       <use style="stroke:#000000;stroke-width:0.6;" x="257.866769" xlink:href="#m4cc76a2e19" y="160.3"/>
      </g>
     </g>
    </g>
    <g id="xtick_35">
     <g id="line2d_35">
      <g>
       <use style="stroke:#000000;stroke-width:0.6;" x="278.88434" xlink:href="#m4cc76a2e19" y="160.3"/>
      </g>
     </g>
    </g>
    <g id="xtick_36">
     <g id="line2d_36">
      <g>
       <use style="stroke:#000000;stroke-width:0.6;" x="289.556613" xlink:href="#m4cc76a2e19" y="160.3"/>
      </g>
     </g>
    </g>
    <g id="xtick_37">
     <g id="line2d_37">
      <g>
       <use style="stroke:#000000;stroke-width:0.6;" x="297.128711" xlink:href="#m4cc76a2e19" y="160.3"/>
      </g>
     </g>
    </g>
    <g id="xtick_38">
     <g id="line2d_38">
      <g>
       <use style="stroke:#000000;stroke-width:0.6;" x="303.002087" xlink:href="#m4cc76a2e19" y="160.3"/>
      </g>
     </g>
    </g>
    <g id="xtick_39">
     <g id="line2d_39">
      <g>
       <use style="stroke:#000000;stroke-width:0.6;" x="307.800984" xlink:href="#m4cc76a2e19" y="160.3"/>
      </g>
     </g>
    </g>
    <g id="xtick_40">
     <g id="line2d_40">
      <g>
       <use style="stroke:#000000;stroke-width:0.6;" x="311.858394" xlink:href="#m4cc76a2e19" y="160.3"/>
      </g>
     </g>
    </g>
    <g id="xtick_41">
     <g id="line2d_41">
      <g>
       <use style="stroke:#000000;stroke-width:0.6;" x="315.373082" xlink:href="#m4cc76a2e19" y="160.3"/>
      </g>
     </g>
    </g>
    <g id="xtick_42">
     <g id="line2d_42">
      <g>
       <use style="stroke:#000000;stroke-width:0.6;" x="318.473257" xlink:href="#m4cc76a2e19" y="160.3"/>
      </g>
     </g>
    </g>
    <g id="xtick_43">
     <g id="line2d_43">
      <g>
       <use style="stroke:#000000;stroke-width:0.6;" x="339.490829" xlink:href="#m4cc76a2e19" y="160.3"/>
      </g>
     </g>
    </g>
    <g id="xtick_44">
     <g id="line2d_44">
      <g>
       <use style="stroke:#000000;stroke-width:0.6;" x="350.163102" xlink:href="#m4cc76a2e19" y="160.3"/>
      </g>
     </g>
    </g>
    <g id="xtick_45">
     <g id="line2d_45">
      <g>
       <use style="stroke:#000000;stroke-width:0.6;" x="357.7352" xlink:href="#m4cc76a2e19" y="160.3"/>
      </g>
     </g>
    </g>
    <g id="xtick_46">
     <g id="line2d_46">
      <g>
       <use style="stroke:#000000;stroke-width:0.6;" x="363.608575" xlink:href="#m4cc76a2e19" y="160.3"/>
      </g>
     </g>
    </g>
    <g id="xtick_47">
     <g id="line2d_47">
      <g>
       <use style="stroke:#000000;stroke-width:0.6;" x="368.407473" xlink:href="#m4cc76a2e19" y="160.3"/>
      </g>
     </g>
    </g>
    <g id="xtick_48">
     <g id="line2d_48">
      <g>
       <use style="stroke:#000000;stroke-width:0.6;" x="372.464882" xlink:href="#m4cc76a2e19" y="160.3"/>
      </g>
     </g>
    </g>
    <g id="xtick_49">
     <g id="line2d_49">
      <g>
       <use style="stroke:#000000;stroke-width:0.6;" x="375.979571" xlink:href="#m4cc76a2e19" y="160.3"/>
      </g>
     </g>
    </g>
    <g id="xtick_50">
     <g id="line2d_50">
      <g>
       <use style="stroke:#000000;stroke-width:0.6;" x="379.079745" xlink:href="#m4cc76a2e19" y="160.3"/>
      </g>
     </g>
    </g>
    <g id="xtick_51">
     <g id="line2d_51">
      <g>
       <use style="stroke:#000000;stroke-width:0.6;" x="400.097317" xlink:href="#m4cc76a2e19" y="160.3"/>
      </g>
     </g>
    </g>
    <g id="xtick_52">
     <g id="line2d_52">
      <g>
       <use style="stroke:#000000;stroke-width:0.6;" x="410.76959" xlink:href="#m4cc76a2e19" y="160.3"/>
      </g>
     </g>
    </g>
    <g id="xtick_53">
     <g id="line2d_53">
      <g>
       <use style="stroke:#000000;stroke-width:0.6;" x="418.341688" xlink:href="#m4cc76a2e19" y="160.3"/>
      </g>
     </g>
    </g>
    <g id="text_7">
     <!-- $k = r_0^2 F_{max}/D$ -->
     <g transform="translate(205.978359 191.898125)scale(0.12 -0.12)">
      <defs>
       <path d="M 18.3125 75.984375 
L 27.296875 75.984375 
L 18.703125 31.6875 
L 49.515625 54.6875 
L 61.1875 54.6875 
L 26.8125 28.515625 
L 51.90625 0 
L 41.015625 0 
L 17.671875 26.703125 
L 12.5 0 
L 3.515625 0 
z
" id="DejaVuSans-Oblique-107"/>
       <path d="M 10.59375 45.40625 
L 73.1875 45.40625 
L 73.1875 37.203125 
L 10.59375 37.203125 
z
M 10.59375 25.484375 
L 73.1875 25.484375 
L 73.1875 17.1875 
L 10.59375 17.1875 
z
" id="DejaVuSans-61"/>
       <path d="M 44.578125 46.390625 
Q 43.21875 47.125 41.453125 47.515625 
Q 39.703125 47.90625 37.703125 47.90625 
Q 30.515625 47.90625 25.140625 42.453125 
Q 19.78125 37.015625 18.015625 27.875 
L 12.5 0 
L 3.515625 0 
L 14.203125 54.6875 
L 23.1875 54.6875 
L 21.484375 46.1875 
Q 25.046875 50.921875 30 53.453125 
Q 34.96875 56 40.578125 56 
Q 42.046875 56 43.453125 55.828125 
Q 44.875 55.671875 46.296875 55.28125 
z
" id="DejaVuSans-Oblique-114"/>
       <path d="M 16.890625 72.90625 
L 58.6875 72.90625 
L 57.078125 64.59375 
L 25.09375 64.59375 
L 20.90625 43.109375 
L 49.8125 43.109375 
L 48.1875 34.8125 
L 19.28125 34.8125 
L 12.5 0 
L 2.6875 0 
z
" id="DejaVuSans-Oblique-70"/>
       <path d="M 89.796875 33.015625 
L 83.40625 0 
L 74.421875 0 
L 80.71875 32.71875 
Q 81.109375 34.8125 81.296875 36.328125 
Q 81.5 37.84375 81.5 38.921875 
Q 81.5 43.3125 79.046875 45.75 
Q 76.609375 48.1875 72.21875 48.1875 
Q 65.671875 48.1875 60.546875 43.28125 
Q 55.421875 38.375 53.90625 30.515625 
L 47.90625 0 
L 38.921875 0 
L 45.3125 32.71875 
Q 45.703125 34.515625 45.890625 36.046875 
Q 46.09375 37.59375 46.09375 38.8125 
Q 46.09375 43.265625 43.65625 45.71875 
Q 41.21875 48.1875 36.921875 48.1875 
Q 30.28125 48.1875 25.140625 43.28125 
Q 20.015625 38.375 18.5 30.515625 
L 12.5 0 
L 3.515625 0 
L 14.203125 54.6875 
L 23.1875 54.6875 
L 21.484375 46.1875 
Q 25.140625 50.984375 30.046875 53.484375 
Q 34.96875 56 40.578125 56 
Q 46.53125 56 50.359375 52.875 
Q 54.203125 49.75 54.984375 44.1875 
Q 59.078125 49.953125 64.46875 52.96875 
Q 69.875 56 75.875 56 
Q 82.90625 56 86.734375 51.953125 
Q 90.578125 47.90625 90.578125 40.484375 
Q 90.578125 38.875 90.375 36.9375 
Q 90.1875 35.015625 89.796875 33.015625 
z
" id="DejaVuSans-Oblique-109"/>
       <path d="M 53.71875 31.203125 
L 47.609375 0 
L 38.625 0 
L 40.28125 8.296875 
Q 36.328125 3.421875 31.265625 1 
Q 26.21875 -1.421875 20.015625 -1.421875 
Q 13.03125 -1.421875 8.5625 2.84375 
Q 4.109375 7.125 4.109375 13.8125 
Q 4.109375 23.390625 11.75 28.953125 
Q 19.390625 34.515625 32.8125 34.515625 
L 45.3125 34.515625 
L 45.796875 36.921875 
Q 45.90625 37.3125 45.953125 37.765625 
Q 46 38.234375 46 39.203125 
Q 46 43.5625 42.453125 45.96875 
Q 38.921875 48.390625 32.515625 48.390625 
Q 28.125 48.390625 23.5 47.265625 
Q 18.890625 46.140625 14.015625 43.890625 
L 15.578125 52.203125 
Q 20.65625 54.109375 25.515625 55.046875 
Q 30.375 56 34.90625 56 
Q 44.578125 56 49.625 51.796875 
Q 54.6875 47.609375 54.6875 39.59375 
Q 54.6875 37.984375 54.4375 35.8125 
Q 54.203125 33.640625 53.71875 31.203125 
z
M 44 27.484375 
L 35.015625 27.484375 
Q 23.96875 27.484375 18.671875 24.53125 
Q 13.375 21.578125 13.375 15.375 
Q 13.375 11.078125 16.078125 8.640625 
Q 18.796875 6.203125 23.578125 6.203125 
Q 30.90625 6.203125 36.375 11.453125 
Q 41.84375 16.703125 43.609375 25.484375 
z
" id="DejaVuSans-Oblique-97"/>
       <path d="M 60.015625 54.6875 
L 34.90625 27.875 
L 50.296875 0 
L 39.984375 0 
L 28.421875 21.6875 
L 8.296875 0 
L -2.59375 0 
L 24.3125 28.8125 
L 10.015625 54.6875 
L 20.3125 54.6875 
L 30.8125 34.90625 
L 49.125 54.6875 
z
" id="DejaVuSans-Oblique-120"/>
       <path d="M 25.390625 72.90625 
L 33.6875 72.90625 
L 8.296875 -9.28125 
L 0 -9.28125 
z
" id="DejaVuSans-47"/>
       <path d="M 16.890625 72.90625 
L 38.09375 72.90625 
Q 54.984375 72.90625 63.59375 65.75 
Q 72.21875 58.59375 72.21875 44.484375 
Q 72.21875 35.15625 68.9375 26.53125 
Q 65.671875 17.921875 59.90625 12.015625 
Q 54.109375 5.953125 45.171875 2.96875 
Q 36.234375 0 24.03125 0 
L 2.6875 0 
z
M 25.203125 64.796875 
L 14.203125 8.109375 
L 27.09375 8.109375 
Q 43.65625 8.109375 52.734375 17.625 
Q 61.8125 27.15625 61.8125 44.484375 
Q 61.8125 54.984375 55.953125 59.890625 
Q 50.09375 64.796875 37.59375 64.796875 
z
" id="DejaVuSans-Oblique-68"/>
      </defs>
      <use transform="translate(0 0.765625)" xlink:href="#DejaVuSans-Oblique-107"/>
      <use transform="translate(77.392578 0.765625)" xlink:href="#DejaVuSans-61"/>
      <use transform="translate(180.664062 0.765625)" xlink:href="#DejaVuSans-Oblique-114"/>
      <use transform="translate(226.42724 39.046875)scale(0.7)" xlink:href="#DejaVuSans-50"/>
      <use transform="translate(221.777344 -26.578125)scale(0.7)" xlink:href="#DejaVuSans-48"/>
      <use transform="translate(273.697747 0.765625)" xlink:href="#DejaVuSans-Oblique-70"/>
      <use transform="translate(331.217279 -15.640625)scale(0.7)" xlink:href="#DejaVuSans-Oblique-109"/>
      <use transform="translate(399.405755 -15.640625)scale(0.7)" xlink:href="#DejaVuSans-Oblique-97"/>
      <use transform="translate(442.301263 -15.640625)scale(0.7)" xlink:href="#DejaVuSans-Oblique-120"/>
      <use transform="translate(486.461419 0.765625)" xlink:href="#DejaVuSans-47"/>
      <use transform="translate(520.152826 0.765625)" xlink:href="#DejaVuSans-Oblique-68"/>
     </g>
    </g>
   </g>
   <g id="matplotlib.axis_2">
    <g id="ytick_1">
     <g id="line2d_54">
      <defs>
       <path d="M 0 0 
L -3.5 0 
" id="mb4e9772875" style="stroke:#000000;stroke-width:0.8;"/>
      </defs>
      <g>
       <use style="stroke:#000000;stroke-width:0.8;" x="62.516719" xlink:href="#mb4e9772875" y="130.721731"/>
      </g>
     </g>
     <g id="text_8">
      <!-- $\mathdefault{10^{-3}}$ -->
      <g transform="translate(32.016719 134.52095)scale(0.1 -0.1)">
       <defs>
        <path d="M 10.59375 35.5 
L 73.1875 35.5 
L 73.1875 27.203125 
L 10.59375 27.203125 
z
" id="DejaVuSans-8722"/>
       </defs>
       <use transform="translate(0 0.765625)" xlink:href="#DejaVuSans-49"/>
       <use transform="translate(63.623047 0.765625)" xlink:href="#DejaVuSans-48"/>
       <use transform="translate(128.203125 39.046875)scale(0.7)" xlink:href="#DejaVuSans-8722"/>
       <use transform="translate(186.855469 39.046875)scale(0.7)" xlink:href="#DejaVuSans-51"/>
      </g>
     </g>
    </g>
    <g id="ytick_2">
     <g id="line2d_55">
      <g>
       <use style="stroke:#000000;stroke-width:0.8;" x="62.516719" xlink:href="#mb4e9772875" y="90.327755"/>
      </g>
     </g>
     <g id="text_9">
      <!-- $\mathdefault{10^{-2}}$ -->
      <g transform="translate(32.016719 94.126974)scale(0.1 -0.1)">
       <use transform="translate(0 0.765625)" xlink:href="#DejaVuSans-49"/>
       <use transform="translate(63.623047 0.765625)" xlink:href="#DejaVuSans-48"/>
       <use transform="translate(128.203125 39.046875)scale(0.7)" xlink:href="#DejaVuSans-8722"/>
       <use transform="translate(186.855469 39.046875)scale(0.7)" xlink:href="#DejaVuSans-50"/>
      </g>
     </g>
    </g>
    <g id="ytick_3">
     <g id="line2d_56">
      <g>
       <use style="stroke:#000000;stroke-width:0.8;" x="62.516719" xlink:href="#mb4e9772875" y="49.933779"/>
      </g>
     </g>
     <g id="text_10">
      <!-- $\mathdefault{10^{-1}}$ -->
      <g transform="translate(32.016719 53.732998)scale(0.1 -0.1)">
       <use transform="translate(0 0.684375)" xlink:href="#DejaVuSans-49"/>
       <use transform="translate(63.623047 0.684375)" xlink:href="#DejaVuSans-48"/>
       <use transform="translate(128.203125 38.965625)scale(0.7)" xlink:href="#DejaVuSans-8722"/>
       <use transform="translate(186.855469 38.965625)scale(0.7)" xlink:href="#DejaVuSans-49"/>
      </g>
     </g>
    </g>
    <g id="ytick_4">
     <g id="line2d_57">
      <defs>
       <path d="M 0 0 
L -2 0 
" id="mb2e12e17e6" style="stroke:#000000;stroke-width:0.6;"/>
      </defs>
      <g>
       <use style="stroke:#000000;stroke-width:0.6;" x="62.516719" xlink:href="#mb2e12e17e6" y="158.955909"/>
      </g>
     </g>
    </g>
    <g id="ytick_5">
     <g id="line2d_58">
      <g>
       <use style="stroke:#000000;stroke-width:0.6;" x="62.516719" xlink:href="#mb2e12e17e6" y="151.842883"/>
      </g>
     </g>
    </g>
    <g id="ytick_6">
     <g id="line2d_59">
      <g>
       <use style="stroke:#000000;stroke-width:0.6;" x="62.516719" xlink:href="#mb2e12e17e6" y="146.796111"/>
      </g>
     </g>
    </g>
    <g id="ytick_7">
     <g id="line2d_60">
      <g>
       <use style="stroke:#000000;stroke-width:0.6;" x="62.516719" xlink:href="#mb2e12e17e6" y="142.88153"/>
      </g>
     </g>
    </g>
    <g id="ytick_8">
     <g id="line2d_61">
      <g>
       <use style="stroke:#000000;stroke-width:0.6;" x="62.516719" xlink:href="#mb2e12e17e6" y="139.683084"/>
      </g>
     </g>
    </g>
    <g id="ytick_9">
     <g id="line2d_62">
      <g>
       <use style="stroke:#000000;stroke-width:0.6;" x="62.516719" xlink:href="#mb2e12e17e6" y="136.978837"/>
      </g>
     </g>
    </g>
    <g id="ytick_10">
     <g id="line2d_63">
      <g>
       <use style="stroke:#000000;stroke-width:0.6;" x="62.516719" xlink:href="#mb2e12e17e6" y="134.636312"/>
      </g>
     </g>
    </g>
    <g id="ytick_11">
     <g id="line2d_64">
      <g>
       <use style="stroke:#000000;stroke-width:0.6;" x="62.516719" xlink:href="#mb2e12e17e6" y="132.570058"/>
      </g>
     </g>
    </g>
    <g id="ytick_12">
     <g id="line2d_65">
      <g>
       <use style="stroke:#000000;stroke-width:0.6;" x="62.516719" xlink:href="#mb2e12e17e6" y="118.561933"/>
      </g>
     </g>
    </g>
    <g id="ytick_13">
     <g id="line2d_66">
      <g>
       <use style="stroke:#000000;stroke-width:0.6;" x="62.516719" xlink:href="#mb2e12e17e6" y="111.448907"/>
      </g>
     </g>
    </g>
    <g id="ytick_14">
     <g id="line2d_67">
      <g>
       <use style="stroke:#000000;stroke-width:0.6;" x="62.516719" xlink:href="#mb2e12e17e6" y="106.402134"/>
      </g>
     </g>
    </g>
    <g id="ytick_15">
     <g id="line2d_68">
      <g>
       <use style="stroke:#000000;stroke-width:0.6;" x="62.516719" xlink:href="#mb2e12e17e6" y="102.487554"/>
      </g>
     </g>
    </g>
    <g id="ytick_16">
     <g id="line2d_69">
      <g>
       <use style="stroke:#000000;stroke-width:0.6;" x="62.516719" xlink:href="#mb2e12e17e6" y="99.289108"/>
      </g>
     </g>
    </g>
    <g id="ytick_17">
     <g id="line2d_70">
      <g>
       <use style="stroke:#000000;stroke-width:0.6;" x="62.516719" xlink:href="#mb2e12e17e6" y="96.584861"/>
      </g>
     </g>
    </g>
    <g id="ytick_18">
     <g id="line2d_71">
      <g>
       <use style="stroke:#000000;stroke-width:0.6;" x="62.516719" xlink:href="#mb2e12e17e6" y="94.242336"/>
      </g>
     </g>
    </g>
    <g id="ytick_19">
     <g id="line2d_72">
      <g>
       <use style="stroke:#000000;stroke-width:0.6;" x="62.516719" xlink:href="#mb2e12e17e6" y="92.176082"/>
      </g>
     </g>
    </g>
    <g id="ytick_20">
     <g id="line2d_73">
      <g>
       <use style="stroke:#000000;stroke-width:0.6;" x="62.516719" xlink:href="#mb2e12e17e6" y="78.167957"/>
      </g>
     </g>
    </g>
    <g id="ytick_21">
     <g id="line2d_74">
      <g>
       <use style="stroke:#000000;stroke-width:0.6;" x="62.516719" xlink:href="#mb2e12e17e6" y="71.05493"/>
      </g>
     </g>
    </g>
    <g id="ytick_22">
     <g id="line2d_75">
      <g>
       <use style="stroke:#000000;stroke-width:0.6;" x="62.516719" xlink:href="#mb2e12e17e6" y="66.008158"/>
      </g>
     </g>
    </g>
    <g id="ytick_23">
     <g id="line2d_76">
      <g>
       <use style="stroke:#000000;stroke-width:0.6;" x="62.516719" xlink:href="#mb2e12e17e6" y="62.093577"/>
      </g>
     </g>
    </g>
    <g id="ytick_24">
     <g id="line2d_77">
      <g>
       <use style="stroke:#000000;stroke-width:0.6;" x="62.516719" xlink:href="#mb2e12e17e6" y="58.895132"/>
      </g>
     </g>
    </g>
    <g id="ytick_25">
     <g id="line2d_78">
      <g>
       <use style="stroke:#000000;stroke-width:0.6;" x="62.516719" xlink:href="#mb2e12e17e6" y="56.190885"/>
      </g>
     </g>
    </g>
    <g id="ytick_26">
     <g id="line2d_79">
      <g>
       <use style="stroke:#000000;stroke-width:0.6;" x="62.516719" xlink:href="#mb2e12e17e6" y="53.84836"/>
      </g>
     </g>
    </g>
    <g id="ytick_27">
     <g id="line2d_80">
      <g>
       <use style="stroke:#000000;stroke-width:0.6;" x="62.516719" xlink:href="#mb2e12e17e6" y="51.782106"/>
      </g>
     </g>
    </g>
    <g id="ytick_28">
     <g id="line2d_81">
      <g>
       <use style="stroke:#000000;stroke-width:0.6;" x="62.516719" xlink:href="#mb2e12e17e6" y="37.77398"/>
      </g>
     </g>
    </g>
    <g id="ytick_29">
     <g id="line2d_82">
      <g>
       <use style="stroke:#000000;stroke-width:0.6;" x="62.516719" xlink:href="#mb2e12e17e6" y="30.660954"/>
      </g>
     </g>
    </g>
    <g id="ytick_30">
     <g id="line2d_83">
      <g>
       <use style="stroke:#000000;stroke-width:0.6;" x="62.516719" xlink:href="#mb2e12e17e6" y="25.614182"/>
      </g>
     </g>
    </g>
    <g id="ytick_31">
     <g id="line2d_84">
      <g>
       <use style="stroke:#000000;stroke-width:0.6;" x="62.516719" xlink:href="#mb2e12e17e6" y="21.699601"/>
      </g>
     </g>
    </g>
    <g id="ytick_32">
     <g id="line2d_85">
      <g>
       <use style="stroke:#000000;stroke-width:0.6;" x="62.516719" xlink:href="#mb2e12e17e6" y="18.501156"/>
      </g>
     </g>
    </g>
    <g id="ytick_33">
     <g id="line2d_86">
      <g>
       <use style="stroke:#000000;stroke-width:0.6;" x="62.516719" xlink:href="#mb2e12e17e6" y="15.796909"/>
      </g>
     </g>
    </g>
    <g id="ytick_34">
     <g id="line2d_87">
      <g>
       <use style="stroke:#000000;stroke-width:0.6;" x="62.516719" xlink:href="#mb2e12e17e6" y="13.454383"/>
      </g>
     </g>
    </g>
    <g id="ytick_35">
     <g id="line2d_88">
      <g>
       <use style="stroke:#000000;stroke-width:0.6;" x="62.516719" xlink:href="#mb2e12e17e6" y="11.38813"/>
      </g>
     </g>
    </g>
    <g id="text_11">
     <!-- $v/(r_0 F_{max})$ -->
     <g transform="translate(25.521094 113.93)rotate(-90)scale(0.12 -0.12)">
      <defs>
       <path d="M 7.171875 54.6875 
L 16.703125 54.6875 
L 24.703125 8.203125 
L 50.875 54.6875 
L 60.40625 54.6875 
L 29.296875 0 
L 17.1875 0 
z
" id="DejaVuSans-Oblique-118"/>
       <path d="M 31 75.875 
Q 24.46875 64.65625 21.28125 53.65625 
Q 18.109375 42.671875 18.109375 31.390625 
Q 18.109375 20.125 21.3125 9.0625 
Q 24.515625 -2 31 -13.1875 
L 23.1875 -13.1875 
Q 15.875 -1.703125 12.234375 9.375 
Q 8.59375 20.453125 8.59375 31.390625 
Q 8.59375 42.28125 12.203125 53.3125 
Q 15.828125 64.359375 23.1875 75.875 
z
" id="DejaVuSans-40"/>
       <path d="M 8.015625 75.875 
L 15.828125 75.875 
Q 23.140625 64.359375 26.78125 53.3125 
Q 30.421875 42.28125 30.421875 31.390625 
Q 30.421875 20.453125 26.78125 9.375 
Q 23.140625 -1.703125 15.828125 -13.1875 
L 8.015625 -13.1875 
Q 14.5 -2 17.703125 9.0625 
Q 20.90625 20.125 20.90625 31.390625 
Q 20.90625 42.671875 17.703125 53.65625 
Q 14.5 64.65625 8.015625 75.875 
z
" id="DejaVuSans-41"/>
      </defs>
      <use transform="translate(0 0.125)" xlink:href="#DejaVuSans-Oblique-118"/>
      <use transform="translate(59.179688 0.125)" xlink:href="#DejaVuSans-47"/>
      <use transform="translate(92.871094 0.125)" xlink:href="#DejaVuSans-40"/>
      <use transform="translate(131.884766 0.125)" xlink:href="#DejaVuSans-Oblique-114"/>
      <use transform="translate(172.998047 -16.28125)scale(0.7)" xlink:href="#DejaVuSans-48"/>
      <use transform="translate(220.268555 0.125)" xlink:href="#DejaVuSans-Oblique-70"/>
      <use transform="translate(277.788086 -16.28125)scale(0.7)" xlink:href="#DejaVuSans-Oblique-109"/>
      <use transform="translate(345.976562 -16.28125)scale(0.7)" xlink:href="#DejaVuSans-Oblique-97"/>
      <use transform="translate(388.87207 -16.28125)scale(0.7)" xlink:href="#DejaVuSans-Oblique-120"/>
      <use transform="translate(433.032227 0.125)" xlink:href="#DejaVuSans-41"/>
     </g>
    </g>
   </g>
   <g id="line2d_89">
    <path clip-path="url(#p948f08a491)" d="M 78.820504 17.595455 
L 109.811026 28.068595 
L 140.801548 38.879307 
L 171.792069 50.239484 
L 202.782591 62.316777 
L 233.773113 75.045018 
L 264.763635 88.329996 
L 295.754156 101.97154 
L 326.744678 115.848816 
L 357.7352 129.879164 
" style="fill:none;stroke:#808080;stroke-linecap:square;stroke-width:4;"/>
   </g>
   <g id="line2d_90">
    <path clip-path="url(#p948f08a491)" d="M 107.737148 27.320602 
L 138.72767 38.022438 
L 169.718191 49.246924 
L 200.708713 61.187089 
L 231.699235 73.94372 
L 262.689757 87.317297 
L 293.680278 101.150838 
L 324.6708 115.212411 
L 355.661322 129.385042 
L 386.651844 144.487712 
" style="fill:none;stroke:#808080;stroke-linecap:square;stroke-width:4;"/>
   </g>
   <g id="line2d_91">
    <path clip-path="url(#p948f08a491)" d="M 97.064875 23.728765 
L 128.055397 34.356038 
L 159.045919 45.433533 
L 190.03644 57.137605 
L 221.026962 69.576469 
L 252.017484 82.629603 
L 283.008006 96.104375 
L 313.998527 109.891032 
L 344.989049 123.858806 
L 375.979571 137.955346 
" style="fill:none;stroke:#808080;stroke-linecap:square;stroke-width:4;"/>
   </g>
   <g id="line2d_92">
    <path clip-path="url(#p948f08a491)" d="M 125.981519 33.561882 
L 156.972041 44.502507 
L 187.962562 56.071346 
L 218.953084 68.395497 
L 249.943606 81.487963 
L 280.934128 95.114233 
L 311.924649 109.101799 
L 342.915171 123.243697 
L 373.905693 137.473702 
L 404.896214 153.504545 
" style="fill:none;stroke:#808080;stroke-linecap:square;stroke-width:4;"/>
   </g>
   <g id="line2d_93">
    <path clip-path="url(#p948f08a491)" d="M 78.820504 17.613315 
L 109.811026 27.940843 
L 140.801548 38.268371 
L 171.792069 48.595898 
L 202.782591 58.923426 
L 233.773113 69.250954 
L 264.763635 79.578482 
L 295.754156 89.90601 
L 326.744678 100.233538 
L 357.7352 110.561066 
" style="fill:none;stroke:#000000;stroke-dasharray:2,3.3;stroke-dashoffset:0;stroke-width:2;"/>
   </g>
   <g id="line2d_94">
    <path clip-path="url(#p948f08a491)" d="M 125.981519 24.938051 
L 156.972041 38.963418 
L 187.962562 52.999553 
L 218.953084 67.047382 
L 249.943606 81.107957 
L 280.934128 95.182474 
L 311.924649 109.272305 
L 342.915171 123.379032 
L 373.905693 137.504492 
L 404.896214 151.650835 
" style="fill:none;stroke:#000000;stroke-dasharray:7.4,3.2;stroke-dashoffset:0;stroke-width:2;"/>
   </g>
   <g id="patch_3">
    <path d="M 62.516719 160.3 
L 62.516719 10.8 
" style="fill:none;stroke:#000000;stroke-linecap:square;stroke-linejoin:miter;stroke-width:0.8;"/>
   </g>
   <g id="patch_4">
    <path d="M 421.2 160.3 
L 421.2 10.8 
" style="fill:none;stroke:#000000;stroke-linecap:square;stroke-linejoin:miter;stroke-width:0.8;"/>
   </g>
   <g id="patch_5">
    <path d="M 62.516719 160.3 
L 421.2 160.3 
" style="fill:none;stroke:#000000;stroke-linecap:square;stroke-linejoin:miter;stroke-width:0.8;"/>
   </g>
   <g id="patch_6">
    <path d="M 62.516719 10.8 
L 421.2 10.8 
" style="fill:none;stroke:#000000;stroke-linecap:square;stroke-linejoin:miter;stroke-width:0.8;"/>
   </g>
  </g>
 </g>
 <defs>
  <clipPath id="p948f08a491">
   <rect height="149.5" width="358.683281" x="62.516719" y="10.8"/>
  </clipPath>
 </defs>
</svg>
