<?xml version="1.0" encoding="utf-8" standalone="no"?>
<!DOCTYPE svg PUBLIC "-//W3C//DTD SVG 1.1//EN"
  "http://www.w3.org/Graphics/SVG/1.1/DTD/svg11.dtd">
<!-- Created with matplotlib (https://matplotlib.org/) -->
<svg height="288pt" version="1.1" viewBox="0 0 576 288" width="576pt" xmlns="http://www.w3.org/2000/svg" xmlns:xlink="http://www.w3.org/1999/xlink">
 <metadata>
  <rdf:RDF xmlns:cc="http://creativecommons.org/ns#" xmlns:dc="http://purl.org/dc/elements/1.1/" xmlns:rdf="http://www.w3.org/1999/02/22-rdf-syntax-ns#">
   <cc:Work>
    <dc:type rdf:resource="http://purl.org/dc/dcmitype/StillImage"/>
    <dc:date>2022-12-06T15:02:30.493980</dc:date>
    <dc:format>image/svg+xml</dc:format>
    <dc:creator>
     <cc:Agent>
      <dc:title>Matplotlib v3.3.4, https://matplotlib.org/</dc:title>
     </cc:Agent>
    </dc:creator>
   </cc:Work>
  </rdf:RDF>
 </metadata>
 <defs>
  <style type="text/css">*{stroke-linecap:butt;stroke-linejoin:round;}</style>
 </defs>
 <g id="figure_1">
  <g id="patch_1">
   <path d="M 0 288 
L 576 288 
L 576 0 
L 0 0 
z
" style="fill:none;"/>
  </g>
  <g id="axes_1">
   <g id="patch_2">
    <path d="M 57.4 233.6 
L 294.4 233.6 
L 294.4 10.8 
L 57.4 10.8 
z
" style="fill:#ffffff;"/>
   </g>
   <g id="PathCollection_1">
    <defs>
     <path d="M 0 3 
C 0.795609 3 1.55874 2.683901 2.12132 2.12132 
C 2.683901 1.55874 3 0.795609 3 0 
C 3 -0.795609 2.683901 -1.55874 2.12132 -2.12132 
C 1.55874 -2.683901 0.795609 -3 0 -3 
C -0.795609 -3 -1.55874 -2.683901 -2.12132 -2.12132 
C -2.683901 -1.55874 -3 -0.795609 -3 0 
C -3 0.795609 -2.683901 1.55874 -2.12132 2.12132 
C -1.55874 2.683901 -0.795609 3 0 3 
z
" id="mb9e9d0df4b" style="stroke:#1f77b4;"/>
    </defs>
    <g clip-path="url(#pdca09db6b0)">
     <use style="fill:#1f77b4;stroke:#1f77b4;" x="283.627273" xlink:href="#mb9e9d0df4b" y="21.767643"/>
     <use style="fill:#1f77b4;stroke:#1f77b4;" x="283.625641" xlink:href="#mb9e9d0df4b" y="22.247945"/>
     <use style="fill:#1f77b4;stroke:#1f77b4;" x="283.579635" xlink:href="#mb9e9d0df4b" y="22.904678"/>
     <use style="fill:#1f77b4;stroke:#1f77b4;" x="283.115179" xlink:href="#mb9e9d0df4b" y="25.102018"/>
     <use style="fill:#1f77b4;stroke:#1f77b4;" x="280.889426" xlink:href="#mb9e9d0df4b" y="29.223029"/>
     <use style="fill:#1f77b4;stroke:#1f77b4;" x="274.671325" xlink:href="#mb9e9d0df4b" y="37.939296"/>
     <use style="fill:#1f77b4;stroke:#1f77b4;" x="262.225257" xlink:href="#mb9e9d0df4b" y="51.89407"/>
     <use style="fill:#1f77b4;stroke:#1f77b4;" x="243.044951" xlink:href="#mb9e9d0df4b" y="72.147067"/>
     <use style="fill:#1f77b4;stroke:#1f77b4;" x="218.608555" xlink:href="#mb9e9d0df4b" y="95.008093"/>
     <use style="fill:#1f77b4;stroke:#1f77b4;" x="191.864564" xlink:href="#mb9e9d0df4b" y="119.467347"/>
     <use style="fill:#1f77b4;stroke:#1f77b4;" x="165.530798" xlink:href="#mb9e9d0df4b" y="142.856286"/>
     <use style="fill:#1f77b4;stroke:#1f77b4;" x="141.59105" xlink:href="#mb9e9d0df4b" y="163.590005"/>
     <use style="fill:#1f77b4;stroke:#1f77b4;" x="121.039743" xlink:href="#mb9e9d0df4b" y="181.49116"/>
     <use style="fill:#1f77b4;stroke:#1f77b4;" x="104.104" xlink:href="#mb9e9d0df4b" y="196.067944"/>
     <use style="fill:#1f77b4;stroke:#1f77b4;" x="90.504331" xlink:href="#mb9e9d0df4b" y="207.267107"/>
    </g>
   </g>
   <g id="PathCollection_2">
    <defs>
     <path d="M 0 3 
C 0.795609 3 1.55874 2.683901 2.12132 2.12132 
C 2.683901 1.55874 3 0.795609 3 0 
C 3 -0.795609 2.683901 -1.55874 2.12132 -2.12132 
C 1.55874 -2.683901 0.795609 -3 0 -3 
C -0.795609 -3 -1.55874 -2.683901 -2.12132 -2.12132 
C -2.683901 -1.55874 -3 -0.795609 -3 0 
C -3 0.795609 -2.683901 1.55874 -2.12132 2.12132 
C -1.55874 2.683901 -0.795609 3 0 3 
z
" id="m26094705a6" style="stroke:#ff7f0e;"/>
    </defs>
    <g clip-path="url(#pdca09db6b0)">
     <use style="fill:#ff7f0e;stroke:#ff7f0e;" x="283.627104" xlink:href="#m26094705a6" y="22.707926"/>
     <use style="fill:#ff7f0e;stroke:#ff7f0e;" x="283.615594" xlink:href="#m26094705a6" y="23.620772"/>
     <use style="fill:#ff7f0e;stroke:#ff7f0e;" x="283.43657" xlink:href="#m26094705a6" y="25.220762"/>
     <use style="fill:#ff7f0e;stroke:#ff7f0e;" x="282.254561" xlink:href="#m26094705a6" y="28.59158"/>
     <use style="fill:#ff7f0e;stroke:#ff7f0e;" x="278.015899" xlink:href="#m26094705a6" y="35.577277"/>
     <use style="fill:#ff7f0e;stroke:#ff7f0e;" x="268.373485" xlink:href="#m26094705a6" y="48.109337"/>
     <use style="fill:#ff7f0e;stroke:#ff7f0e;" x="251.751341" xlink:href="#m26094705a6" y="66.24973"/>
     <use style="fill:#ff7f0e;stroke:#ff7f0e;" x="228.930343" xlink:href="#m26094705a6" y="87.824869"/>
     <use style="fill:#ff7f0e;stroke:#ff7f0e;" x="202.32686" xlink:href="#m26094705a6" y="112.615537"/>
     <use style="fill:#ff7f0e;stroke:#ff7f0e;" x="175.21316" xlink:href="#m26094705a6" y="137.062333"/>
     <use style="fill:#ff7f0e;stroke:#ff7f0e;" x="149.899269" xlink:href="#m26094705a6" y="158.029943"/>
     <use style="fill:#ff7f0e;stroke:#ff7f0e;" x="127.765108" xlink:href="#m26094705a6" y="177.300956"/>
     <use style="fill:#ff7f0e;stroke:#ff7f0e;" x="109.351339" xlink:href="#m26094705a6" y="192.584029"/>
     <use style="fill:#ff7f0e;stroke:#ff7f0e;" x="94.49748" xlink:href="#m26094705a6" y="204.845853"/>
     <use style="fill:#ff7f0e;stroke:#ff7f0e;" x="82.765229" xlink:href="#m26094705a6" y="214.732195"/>
    </g>
   </g>
   <g id="PathCollection_3">
    <defs>
     <path d="M 0 3 
C 0.795609 3 1.55874 2.683901 2.12132 2.12132 
C 2.683901 1.55874 3 0.795609 3 0 
C 3 -0.795609 2.683901 -1.55874 2.12132 -2.12132 
C 1.55874 -2.683901 0.795609 -3 0 -3 
C -0.795609 -3 -1.55874 -2.683901 -2.12132 -2.12132 
C -2.683901 -1.55874 -3 -0.795609 -3 0 
C -3 0.795609 -2.683901 1.55874 -2.12132 2.12132 
C -1.55874 2.683901 -0.795609 3 0 3 
z
" id="m9e81d6c021" style="stroke:#2ca02c;"/>
    </defs>
    <g clip-path="url(#pdca09db6b0)">
     <use style="fill:#2ca02c;stroke:#2ca02c;" x="283.623795" xlink:href="#m9e81d6c021" y="24.849699"/>
     <use style="fill:#2ca02c;stroke:#2ca02c;" x="283.5394" xlink:href="#m9e81d6c021" y="26.548268"/>
     <use style="fill:#2ca02c;stroke:#2ca02c;" x="282.837337" xlink:href="#m9e81d6c021" y="29.81654"/>
     <use style="fill:#2ca02c;stroke:#2ca02c;" x="279.808565" xlink:href="#m9e81d6c021" y="36.418695"/>
     <use style="fill:#2ca02c;stroke:#2ca02c;" x="271.688142" xlink:href="#m9e81d6c021" y="48.001128"/>
     <use style="fill:#2ca02c;stroke:#2ca02c;" x="256.848609" xlink:href="#m9e81d6c021" y="64.891281"/>
     <use style="fill:#2ca02c;stroke:#2ca02c;" x="235.01953" xlink:href="#m9e81d6c021" y="86.530988"/>
     <use style="fill:#2ca02c;stroke:#2ca02c;" x="208.591525" xlink:href="#m9e81d6c021" y="110.831287"/>
     <use style="fill:#2ca02c;stroke:#2ca02c;" x="180.647191" xlink:href="#m9e81d6c021" y="135.422116"/>
     <use style="fill:#2ca02c;stroke:#2ca02c;" x="154.280168" xlink:href="#m9e81d6c021" y="157.736374"/>
     <use style="fill:#2ca02c;stroke:#2ca02c;" x="131.050516" xlink:href="#m9e81d6c021" y="177.062393"/>
     <use style="fill:#2ca02c;stroke:#2ca02c;" x="111.601182" xlink:href="#m9e81d6c021" y="192.964513"/>
     <use style="fill:#2ca02c;stroke:#2ca02c;" x="95.927995" xlink:href="#m9e81d6c021" y="205.602773"/>
     <use style="fill:#2ca02c;stroke:#2ca02c;" x="83.597605" xlink:href="#m9e81d6c021" y="215.206663"/>
     <use style="fill:#2ca02c;stroke:#2ca02c;" x="74.072061" xlink:href="#m9e81d6c021" y="222.675104"/>
    </g>
   </g>
   <g id="PathCollection_4">
    <defs>
     <path d="M 0 3 
C 0.795609 3 1.55874 2.683901 2.12132 2.12132 
C 2.683901 1.55874 3 0.795609 3 0 
C 3 -0.795609 2.683901 -1.55874 2.12132 -2.12132 
C 1.55874 -2.683901 0.795609 -3 0 -3 
C -0.795609 -3 -1.55874 -2.683901 -2.12132 -2.12132 
C -2.683901 -1.55874 -3 -0.795609 -3 0 
C -3 0.795609 -2.683901 1.55874 -2.12132 2.12132 
C -1.55874 2.683901 -0.795609 3 0 3 
z
" id="mfea08c0176" style="stroke:#d62728;"/>
    </defs>
    <g clip-path="url(#pdca09db6b0)">
     <use style="fill:#d62728;stroke:#d62728;" x="283.613939" xlink:href="#mfea08c0176" y="28.437448"/>
     <use style="fill:#d62728;stroke:#d62728;" x="283.44512" xlink:href="#mfea08c0176" y="30.398947"/>
     <use style="fill:#d62728;stroke:#d62728;" x="282.467423" xlink:href="#mfea08c0176" y="34.611988"/>
     <use style="fill:#d62728;stroke:#d62728;" x="278.842295" xlink:href="#mfea08c0176" y="41.903609"/>
     <use style="fill:#d62728;stroke:#d62728;" x="270.979041" xlink:href="#mfea08c0176" y="49.006637"/>
     <use style="fill:#d62728;stroke:#d62728;" x="256.411382" xlink:href="#mfea08c0176" y="66.418171"/>
     <use style="fill:#d62728;stroke:#d62728;" x="234.112857" xlink:href="#mfea08c0176" y="89.792445"/>
     <use style="fill:#d62728;stroke:#d62728;" x="208.766308" xlink:href="#mfea08c0176" y="111.091651"/>
     <use style="fill:#d62728;stroke:#d62728;" x="180.84668" xlink:href="#mfea08c0176" y="134.850417"/>
     <use style="fill:#d62728;stroke:#d62728;" x="153.660575" xlink:href="#mfea08c0176" y="160.123771"/>
     <use style="fill:#d62728;stroke:#d62728;" x="130.970399" xlink:href="#mfea08c0176" y="178.485355"/>
     <use style="fill:#d62728;stroke:#d62728;" x="111.222874" xlink:href="#mfea08c0176" y="194.669848"/>
     <use style="fill:#d62728;stroke:#d62728;" x="97.665841" xlink:href="#mfea08c0176" y="202.73713"/>
     <use style="fill:#d62728;stroke:#d62728;" x="83.889228" xlink:href="#mfea08c0176" y="215.49865"/>
     <use style="fill:#d62728;stroke:#d62728;" x="75.112558" xlink:href="#mfea08c0176" y="221.070343"/>
    </g>
   </g>
   <g id="matplotlib.axis_1">
    <g id="xtick_1">
     <g id="line2d_1">
      <defs>
       <path d="M 0 0 
L 0 3.5 
" id="m4da21cfb5f" style="stroke:#000000;stroke-width:0.8;"/>
      </defs>
      <g>
       <use style="stroke:#000000;stroke-width:0.8;" x="92.786346" xlink:href="#m4da21cfb5f" y="233.6"/>
      </g>
     </g>
     <g id="text_1">
      <!-- 0.2 -->
      <g transform="translate(84.834784 248.198438)scale(0.1 -0.1)">
       <defs>
        <path d="M 31.78125 66.40625 
Q 24.171875 66.40625 20.328125 58.90625 
Q 16.5 51.421875 16.5 36.375 
Q 16.5 21.390625 20.328125 13.890625 
Q 24.171875 6.390625 31.78125 6.390625 
Q 39.453125 6.390625 43.28125 13.890625 
Q 47.125 21.390625 47.125 36.375 
Q 47.125 51.421875 43.28125 58.90625 
Q 39.453125 66.40625 31.78125 66.40625 
z
M 31.78125 74.21875 
Q 44.046875 74.21875 50.515625 64.515625 
Q 56.984375 54.828125 56.984375 36.375 
Q 56.984375 17.96875 50.515625 8.265625 
Q 44.046875 -1.421875 31.78125 -1.421875 
Q 19.53125 -1.421875 13.0625 8.265625 
Q 6.59375 17.96875 6.59375 36.375 
Q 6.59375 54.828125 13.0625 64.515625 
Q 19.53125 74.21875 31.78125 74.21875 
z
" id="DejaVuSans-48"/>
        <path d="M 10.6875 12.40625 
L 21 12.40625 
L 21 0 
L 10.6875 0 
z
" id="DejaVuSans-46"/>
        <path d="M 19.1875 8.296875 
L 53.609375 8.296875 
L 53.609375 0 
L 7.328125 0 
L 7.328125 8.296875 
Q 12.9375 14.109375 22.625 23.890625 
Q 32.328125 33.6875 34.8125 36.53125 
Q 39.546875 41.84375 41.421875 45.53125 
Q 43.3125 49.21875 43.3125 52.78125 
Q 43.3125 58.59375 39.234375 62.25 
Q 35.15625 65.921875 28.609375 65.921875 
Q 23.96875 65.921875 18.8125 64.3125 
Q 13.671875 62.703125 7.8125 59.421875 
L 7.8125 69.390625 
Q 13.765625 71.78125 18.9375 73 
Q 24.125 74.21875 28.421875 74.21875 
Q 39.75 74.21875 46.484375 68.546875 
Q 53.21875 62.890625 53.21875 53.421875 
Q 53.21875 48.921875 51.53125 44.890625 
Q 49.859375 40.875 45.40625 35.40625 
Q 44.1875 33.984375 37.640625 27.21875 
Q 31.109375 20.453125 19.1875 8.296875 
z
" id="DejaVuSans-50"/>
       </defs>
       <use xlink:href="#DejaVuSans-48"/>
       <use x="63.623047" xlink:href="#DejaVuSans-46"/>
       <use x="95.410156" xlink:href="#DejaVuSans-50"/>
      </g>
     </g>
    </g>
    <g id="xtick_2">
     <g id="line2d_2">
      <g>
       <use style="stroke:#000000;stroke-width:0.8;" x="140.496571" xlink:href="#m4da21cfb5f" y="233.6"/>
      </g>
     </g>
     <g id="text_2">
      <!-- 0.4 -->
      <g transform="translate(132.545009 248.198438)scale(0.1 -0.1)">
       <defs>
        <path d="M 37.796875 64.3125 
L 12.890625 25.390625 
L 37.796875 25.390625 
z
M 35.203125 72.90625 
L 47.609375 72.90625 
L 47.609375 25.390625 
L 58.015625 25.390625 
L 58.015625 17.1875 
L 47.609375 17.1875 
L 47.609375 0 
L 37.796875 0 
L 37.796875 17.1875 
L 4.890625 17.1875 
L 4.890625 26.703125 
z
" id="DejaVuSans-52"/>
       </defs>
       <use xlink:href="#DejaVuSans-48"/>
       <use x="63.623047" xlink:href="#DejaVuSans-46"/>
       <use x="95.410156" xlink:href="#DejaVuSans-52"/>
      </g>
     </g>
    </g>
    <g id="xtick_3">
     <g id="line2d_3">
      <g>
       <use style="stroke:#000000;stroke-width:0.8;" x="188.206796" xlink:href="#m4da21cfb5f" y="233.6"/>
      </g>
     </g>
     <g id="text_3">
      <!-- 0.6 -->
      <g transform="translate(180.255233 248.198438)scale(0.1 -0.1)">
       <defs>
        <path d="M 33.015625 40.375 
Q 26.375 40.375 22.484375 35.828125 
Q 18.609375 31.296875 18.609375 23.390625 
Q 18.609375 15.53125 22.484375 10.953125 
Q 26.375 6.390625 33.015625 6.390625 
Q 39.65625 6.390625 43.53125 10.953125 
Q 47.40625 15.53125 47.40625 23.390625 
Q 47.40625 31.296875 43.53125 35.828125 
Q 39.65625 40.375 33.015625 40.375 
z
M 52.59375 71.296875 
L 52.59375 62.3125 
Q 48.875 64.0625 45.09375 64.984375 
Q 41.3125 65.921875 37.59375 65.921875 
Q 27.828125 65.921875 22.671875 59.328125 
Q 17.53125 52.734375 16.796875 39.40625 
Q 19.671875 43.65625 24.015625 45.921875 
Q 28.375 48.1875 33.59375 48.1875 
Q 44.578125 48.1875 50.953125 41.515625 
Q 57.328125 34.859375 57.328125 23.390625 
Q 57.328125 12.15625 50.6875 5.359375 
Q 44.046875 -1.421875 33.015625 -1.421875 
Q 20.359375 -1.421875 13.671875 8.265625 
Q 6.984375 17.96875 6.984375 36.375 
Q 6.984375 53.65625 15.1875 63.9375 
Q 23.390625 74.21875 37.203125 74.21875 
Q 40.921875 74.21875 44.703125 73.484375 
Q 48.484375 72.75 52.59375 71.296875 
z
" id="DejaVuSans-54"/>
       </defs>
       <use xlink:href="#DejaVuSans-48"/>
       <use x="63.623047" xlink:href="#DejaVuSans-46"/>
       <use x="95.410156" xlink:href="#DejaVuSans-54"/>
      </g>
     </g>
    </g>
    <g id="xtick_4">
     <g id="line2d_4">
      <g>
       <use style="stroke:#000000;stroke-width:0.8;" x="235.917021" xlink:href="#m4da21cfb5f" y="233.6"/>
      </g>
     </g>
     <g id="text_4">
      <!-- 0.8 -->
      <g transform="translate(227.965458 248.198438)scale(0.1 -0.1)">
       <defs>
        <path d="M 31.78125 34.625 
Q 24.75 34.625 20.71875 30.859375 
Q 16.703125 27.09375 16.703125 20.515625 
Q 16.703125 13.921875 20.71875 10.15625 
Q 24.75 6.390625 31.78125 6.390625 
Q 38.8125 6.390625 42.859375 10.171875 
Q 46.921875 13.96875 46.921875 20.515625 
Q 46.921875 27.09375 42.890625 30.859375 
Q 38.875 34.625 31.78125 34.625 
z
M 21.921875 38.8125 
Q 15.578125 40.375 12.03125 44.71875 
Q 8.5 49.078125 8.5 55.328125 
Q 8.5 64.0625 14.71875 69.140625 
Q 20.953125 74.21875 31.78125 74.21875 
Q 42.671875 74.21875 48.875 69.140625 
Q 55.078125 64.0625 55.078125 55.328125 
Q 55.078125 49.078125 51.53125 44.71875 
Q 48 40.375 41.703125 38.8125 
Q 48.828125 37.15625 52.796875 32.3125 
Q 56.78125 27.484375 56.78125 20.515625 
Q 56.78125 9.90625 50.3125 4.234375 
Q 43.84375 -1.421875 31.78125 -1.421875 
Q 19.734375 -1.421875 13.25 4.234375 
Q 6.78125 9.90625 6.78125 20.515625 
Q 6.78125 27.484375 10.78125 32.3125 
Q 14.796875 37.15625 21.921875 38.8125 
z
M 18.3125 54.390625 
Q 18.3125 48.734375 21.84375 45.5625 
Q 25.390625 42.390625 31.78125 42.390625 
Q 38.140625 42.390625 41.71875 45.5625 
Q 45.3125 48.734375 45.3125 54.390625 
Q 45.3125 60.0625 41.71875 63.234375 
Q 38.140625 66.40625 31.78125 66.40625 
Q 25.390625 66.40625 21.84375 63.234375 
Q 18.3125 60.0625 18.3125 54.390625 
z
" id="DejaVuSans-56"/>
       </defs>
       <use xlink:href="#DejaVuSans-48"/>
       <use x="63.623047" xlink:href="#DejaVuSans-46"/>
       <use x="95.410156" xlink:href="#DejaVuSans-56"/>
      </g>
     </g>
    </g>
    <g id="xtick_5">
     <g id="line2d_5">
      <g>
       <use style="stroke:#000000;stroke-width:0.8;" x="283.627246" xlink:href="#m4da21cfb5f" y="233.6"/>
      </g>
     </g>
     <g id="text_5">
      <!-- 1.0 -->
      <g transform="translate(275.675683 248.198438)scale(0.1 -0.1)">
       <defs>
        <path d="M 12.40625 8.296875 
L 28.515625 8.296875 
L 28.515625 63.921875 
L 10.984375 60.40625 
L 10.984375 69.390625 
L 28.421875 72.90625 
L 38.28125 72.90625 
L 38.28125 8.296875 
L 54.390625 8.296875 
L 54.390625 0 
L 12.40625 0 
z
" id="DejaVuSans-49"/>
       </defs>
       <use xlink:href="#DejaVuSans-49"/>
       <use x="63.623047" xlink:href="#DejaVuSans-46"/>
       <use x="95.410156" xlink:href="#DejaVuSans-48"/>
      </g>
     </g>
    </g>
    <g id="text_6">
     <!-- $F_T$ -->
     <g transform="translate(168.62 264.915937)scale(0.14 -0.14)">
      <defs>
       <path d="M 16.890625 72.90625 
L 58.6875 72.90625 
L 57.078125 64.59375 
L 25.09375 64.59375 
L 20.90625 43.109375 
L 49.8125 43.109375 
L 48.1875 34.8125 
L 19.28125 34.8125 
L 12.5 0 
L 2.6875 0 
z
" id="DejaVuSans-Oblique-70"/>
       <path d="M 5.90625 72.90625 
L 67.578125 72.90625 
L 66.015625 64.59375 
L 39.984375 64.59375 
L 27.484375 0 
L 17.578125 0 
L 30.078125 64.59375 
L 4.296875 64.59375 
z
" id="DejaVuSans-Oblique-84"/>
      </defs>
      <use transform="translate(0 0.09375)" xlink:href="#DejaVuSans-Oblique-70"/>
      <use transform="translate(57.519531 -16.3125)scale(0.7)" xlink:href="#DejaVuSans-Oblique-84"/>
     </g>
    </g>
   </g>
   <g id="matplotlib.axis_2">
    <g id="ytick_1">
     <g id="line2d_6">
      <defs>
       <path d="M 0 0 
L -3.5 0 
" id="mabbddb6600" style="stroke:#000000;stroke-width:0.8;"/>
      </defs>
      <g>
       <use style="stroke:#000000;stroke-width:0.8;" x="57.4" xlink:href="#mabbddb6600" y="200.333448"/>
      </g>
     </g>
     <g id="text_7">
      <!-- 0.2 -->
      <g transform="translate(34.496875 204.132667)scale(0.1 -0.1)">
       <use xlink:href="#DejaVuSans-48"/>
       <use x="63.623047" xlink:href="#DejaVuSans-46"/>
       <use x="95.410156" xlink:href="#DejaVuSans-50"/>
      </g>
     </g>
    </g>
    <g id="ytick_2">
     <g id="line2d_7">
      <g>
       <use style="stroke:#000000;stroke-width:0.8;" x="57.4" xlink:href="#mabbddb6600" y="155.481036"/>
      </g>
     </g>
     <g id="text_8">
      <!-- 0.4 -->
      <g transform="translate(34.496875 159.280254)scale(0.1 -0.1)">
       <use xlink:href="#DejaVuSans-48"/>
       <use x="63.623047" xlink:href="#DejaVuSans-46"/>
       <use x="95.410156" xlink:href="#DejaVuSans-52"/>
      </g>
     </g>
    </g>
    <g id="ytick_3">
     <g id="line2d_8">
      <g>
       <use style="stroke:#000000;stroke-width:0.8;" x="57.4" xlink:href="#mabbddb6600" y="110.628623"/>
      </g>
     </g>
     <g id="text_9">
      <!-- 0.6 -->
      <g transform="translate(34.496875 114.427841)scale(0.1 -0.1)">
       <use xlink:href="#DejaVuSans-48"/>
       <use x="63.623047" xlink:href="#DejaVuSans-46"/>
       <use x="95.410156" xlink:href="#DejaVuSans-54"/>
      </g>
     </g>
    </g>
    <g id="ytick_4">
     <g id="line2d_9">
      <g>
       <use style="stroke:#000000;stroke-width:0.8;" x="57.4" xlink:href="#mabbddb6600" y="65.77621"/>
      </g>
     </g>
     <g id="text_10">
      <!-- 0.8 -->
      <g transform="translate(34.496875 69.575428)scale(0.1 -0.1)">
       <use xlink:href="#DejaVuSans-48"/>
       <use x="63.623047" xlink:href="#DejaVuSans-46"/>
       <use x="95.410156" xlink:href="#DejaVuSans-56"/>
      </g>
     </g>
    </g>
    <g id="ytick_5">
     <g id="line2d_10">
      <g>
       <use style="stroke:#000000;stroke-width:0.8;" x="57.4" xlink:href="#mabbddb6600" y="20.923797"/>
      </g>
     </g>
     <g id="text_11">
      <!-- 1.0 -->
      <g transform="translate(34.496875 24.723016)scale(0.1 -0.1)">
       <use xlink:href="#DejaVuSans-49"/>
       <use x="63.623047" xlink:href="#DejaVuSans-46"/>
       <use x="95.410156" xlink:href="#DejaVuSans-48"/>
      </g>
     </g>
    </g>
    <g id="text_12">
     <!-- $v^2 / (4 D)$ -->
     <g transform="translate(27.585313 147.68)rotate(-90)scale(0.14 -0.14)">
      <defs>
       <path d="M 7.171875 54.6875 
L 16.703125 54.6875 
L 24.703125 8.203125 
L 50.875 54.6875 
L 60.40625 54.6875 
L 29.296875 0 
L 17.1875 0 
z
" id="DejaVuSans-Oblique-118"/>
       <path d="M 25.390625 72.90625 
L 33.6875 72.90625 
L 8.296875 -9.28125 
L 0 -9.28125 
z
" id="DejaVuSans-47"/>
       <path d="M 31 75.875 
Q 24.46875 64.65625 21.28125 53.65625 
Q 18.109375 42.671875 18.109375 31.390625 
Q 18.109375 20.125 21.3125 9.0625 
Q 24.515625 -2 31 -13.1875 
L 23.1875 -13.1875 
Q 15.875 -1.703125 12.234375 9.375 
Q 8.59375 20.453125 8.59375 31.390625 
Q 8.59375 42.28125 12.203125 53.3125 
Q 15.828125 64.359375 23.1875 75.875 
z
" id="DejaVuSans-40"/>
       <path d="M 16.890625 72.90625 
L 38.09375 72.90625 
Q 54.984375 72.90625 63.59375 65.75 
Q 72.21875 58.59375 72.21875 44.484375 
Q 72.21875 35.15625 68.9375 26.53125 
Q 65.671875 17.921875 59.90625 12.015625 
Q 54.109375 5.953125 45.171875 2.96875 
Q 36.234375 0 24.03125 0 
L 2.6875 0 
z
M 25.203125 64.796875 
L 14.203125 8.109375 
L 27.09375 8.109375 
Q 43.65625 8.109375 52.734375 17.625 
Q 61.8125 27.15625 61.8125 44.484375 
Q 61.8125 54.984375 55.953125 59.890625 
Q 50.09375 64.796875 37.59375 64.796875 
z
" id="DejaVuSans-Oblique-68"/>
       <path d="M 8.015625 75.875 
L 15.828125 75.875 
Q 23.140625 64.359375 26.78125 53.3125 
Q 30.421875 42.28125 30.421875 31.390625 
Q 30.421875 20.453125 26.78125 9.375 
Q 23.140625 -1.703125 15.828125 -13.1875 
L 8.015625 -13.1875 
Q 14.5 -2 17.703125 9.0625 
Q 20.90625 20.125 20.90625 31.390625 
Q 20.90625 42.671875 17.703125 53.65625 
Q 14.5 64.65625 8.015625 75.875 
z
" id="DejaVuSans-41"/>
      </defs>
      <use transform="translate(0 0.765625)" xlink:href="#DejaVuSans-Oblique-118"/>
      <use transform="translate(63.645833 39.046875)scale(0.7)" xlink:href="#DejaVuSans-50"/>
      <use transform="translate(110.916341 0.765625)" xlink:href="#DejaVuSans-47"/>
      <use transform="translate(144.607747 0.765625)" xlink:href="#DejaVuSans-40"/>
      <use transform="translate(183.621419 0.765625)" xlink:href="#DejaVuSans-52"/>
      <use transform="translate(247.244466 0.765625)" xlink:href="#DejaVuSans-Oblique-68"/>
      <use transform="translate(324.246419 0.765625)" xlink:href="#DejaVuSans-41"/>
     </g>
    </g>
   </g>
   <g id="line2d_11">
    <path clip-path="url(#pdca09db6b0)" d="M 68.172727 223.472727 
L 72.569683 219.339147 
L 76.966638 215.205566 
L 81.363594 211.071985 
L 85.760549 206.938404 
L 90.157505 202.804824 
L 94.55446 198.671243 
L 98.951416 194.537662 
L 103.348372 190.404082 
L 107.745327 186.270501 
L 112.142283 182.13692 
L 116.539238 178.00334 
L 120.936194 173.869759 
L 125.333149 169.736178 
L 129.730105 165.602597 
L 134.12706 161.469017 
L 138.524016 157.335436 
L 142.920971 153.201855 
L 147.317927 149.068275 
L 151.714882 144.934694 
L 156.111838 140.801113 
L 160.508793 136.667532 
L 164.905749 132.533952 
L 169.302705 128.400371 
L 173.69966 124.26679 
L 178.096616 120.13321 
L 182.493571 115.999629 
L 186.890527 111.866048 
L 191.287482 107.732468 
L 195.684438 103.598887 
L 200.081393 99.465306 
L 204.478349 95.331725 
L 208.875304 91.198145 
L 213.27226 87.064564 
L 217.669215 82.930983 
L 222.066171 78.797403 
L 226.463126 74.663822 
L 230.860082 70.530241 
L 235.257038 66.39666 
L 239.653993 62.26308 
L 244.050949 58.129499 
L 248.447904 53.995918 
L 252.84486 49.862338 
L 257.241815 45.728757 
L 261.638771 41.595176 
L 266.035726 37.461596 
L 270.432682 33.328015 
L 274.829637 29.194434 
L 279.226593 25.060853 
L 283.623548 20.927273 
" style="fill:none;stroke:#000000;stroke-dasharray:5.55,2.4;stroke-dashoffset:0;stroke-width:1.5;"/>
   </g>
   <g id="patch_3">
    <path d="M 57.4 233.6 
L 57.4 10.8 
" style="fill:none;stroke:#000000;stroke-linecap:square;stroke-linejoin:miter;stroke-width:0.8;"/>
   </g>
   <g id="patch_4">
    <path d="M 294.4 233.6 
L 294.4 10.8 
" style="fill:none;stroke:#000000;stroke-linecap:square;stroke-linejoin:miter;stroke-width:0.8;"/>
   </g>
   <g id="patch_5">
    <path d="M 57.4 233.6 
L 294.4 233.6 
" style="fill:none;stroke:#000000;stroke-linecap:square;stroke-linejoin:miter;stroke-width:0.8;"/>
   </g>
   <g id="patch_6">
    <path d="M 57.4 10.8 
L 294.4 10.8 
" style="fill:none;stroke:#000000;stroke-linecap:square;stroke-linejoin:miter;stroke-width:0.8;"/>
   </g>
   <g id="legend_1">
    <g id="patch_7">
     <path d="M 64.4 77.5125 
L 162.323438 77.5125 
Q 164.323438 77.5125 164.323438 75.5125 
L 164.323438 17.8 
Q 164.323438 15.8 162.323438 15.8 
L 64.4 15.8 
Q 62.4 15.8 62.4 17.8 
L 62.4 75.5125 
Q 62.4 77.5125 64.4 77.5125 
z
" style="fill:#ffffff;opacity:0.8;stroke:#cccccc;stroke-linejoin:miter;"/>
    </g>
    <g id="PathCollection_5">
     <g>
      <use style="fill:#1f77b4;stroke:#1f77b4;" x="76.4" xlink:href="#mb9e9d0df4b" y="24.773438"/>
     </g>
    </g>
    <g id="text_13">
     <!-- cutoff=0.001 -->
     <g transform="translate(94.4 27.398438)scale(0.1 -0.1)">
      <defs>
       <path d="M 48.78125 52.59375 
L 48.78125 44.1875 
Q 44.96875 46.296875 41.140625 47.34375 
Q 37.3125 48.390625 33.40625 48.390625 
Q 24.65625 48.390625 19.8125 42.84375 
Q 14.984375 37.3125 14.984375 27.296875 
Q 14.984375 17.28125 19.8125 11.734375 
Q 24.65625 6.203125 33.40625 6.203125 
Q 37.3125 6.203125 41.140625 7.25 
Q 44.96875 8.296875 48.78125 10.40625 
L 48.78125 2.09375 
Q 45.015625 0.34375 40.984375 -0.53125 
Q 36.96875 -1.421875 32.421875 -1.421875 
Q 20.0625 -1.421875 12.78125 6.34375 
Q 5.515625 14.109375 5.515625 27.296875 
Q 5.515625 40.671875 12.859375 48.328125 
Q 20.21875 56 33.015625 56 
Q 37.15625 56 41.109375 55.140625 
Q 45.0625 54.296875 48.78125 52.59375 
z
" id="DejaVuSans-99"/>
       <path d="M 8.5 21.578125 
L 8.5 54.6875 
L 17.484375 54.6875 
L 17.484375 21.921875 
Q 17.484375 14.15625 20.5 10.265625 
Q 23.53125 6.390625 29.59375 6.390625 
Q 36.859375 6.390625 41.078125 11.03125 
Q 45.3125 15.671875 45.3125 23.6875 
L 45.3125 54.6875 
L 54.296875 54.6875 
L 54.296875 0 
L 45.3125 0 
L 45.3125 8.40625 
Q 42.046875 3.421875 37.71875 1 
Q 33.40625 -1.421875 27.6875 -1.421875 
Q 18.265625 -1.421875 13.375 4.4375 
Q 8.5 10.296875 8.5 21.578125 
z
M 31.109375 56 
z
" id="DejaVuSans-117"/>
       <path d="M 18.3125 70.21875 
L 18.3125 54.6875 
L 36.8125 54.6875 
L 36.8125 47.703125 
L 18.3125 47.703125 
L 18.3125 18.015625 
Q 18.3125 11.328125 20.140625 9.421875 
Q 21.96875 7.515625 27.59375 7.515625 
L 36.8125 7.515625 
L 36.8125 0 
L 27.59375 0 
Q 17.1875 0 13.234375 3.875 
Q 9.28125 7.765625 9.28125 18.015625 
L 9.28125 47.703125 
L 2.6875 47.703125 
L 2.6875 54.6875 
L 9.28125 54.6875 
L 9.28125 70.21875 
z
" id="DejaVuSans-116"/>
       <path d="M 30.609375 48.390625 
Q 23.390625 48.390625 19.1875 42.75 
Q 14.984375 37.109375 14.984375 27.296875 
Q 14.984375 17.484375 19.15625 11.84375 
Q 23.34375 6.203125 30.609375 6.203125 
Q 37.796875 6.203125 41.984375 11.859375 
Q 46.1875 17.53125 46.1875 27.296875 
Q 46.1875 37.015625 41.984375 42.703125 
Q 37.796875 48.390625 30.609375 48.390625 
z
M 30.609375 56 
Q 42.328125 56 49.015625 48.375 
Q 55.71875 40.765625 55.71875 27.296875 
Q 55.71875 13.875 49.015625 6.21875 
Q 42.328125 -1.421875 30.609375 -1.421875 
Q 18.84375 -1.421875 12.171875 6.21875 
Q 5.515625 13.875 5.515625 27.296875 
Q 5.515625 40.765625 12.171875 48.375 
Q 18.84375 56 30.609375 56 
z
" id="DejaVuSans-111"/>
       <path d="M 37.109375 75.984375 
L 37.109375 68.5 
L 28.515625 68.5 
Q 23.6875 68.5 21.796875 66.546875 
Q 19.921875 64.59375 19.921875 59.515625 
L 19.921875 54.6875 
L 34.71875 54.6875 
L 34.71875 47.703125 
L 19.921875 47.703125 
L 19.921875 0 
L 10.890625 0 
L 10.890625 47.703125 
L 2.296875 47.703125 
L 2.296875 54.6875 
L 10.890625 54.6875 
L 10.890625 58.5 
Q 10.890625 67.625 15.140625 71.796875 
Q 19.390625 75.984375 28.609375 75.984375 
z
" id="DejaVuSans-102"/>
       <path d="M 10.59375 45.40625 
L 73.1875 45.40625 
L 73.1875 37.203125 
L 10.59375 37.203125 
z
M 10.59375 25.484375 
L 73.1875 25.484375 
L 73.1875 17.1875 
L 10.59375 17.1875 
z
" id="DejaVuSans-61"/>
      </defs>
      <use xlink:href="#DejaVuSans-99"/>
      <use x="54.980469" xlink:href="#DejaVuSans-117"/>
      <use x="118.359375" xlink:href="#DejaVuSans-116"/>
      <use x="157.568359" xlink:href="#DejaVuSans-111"/>
      <use x="218.75" xlink:href="#DejaVuSans-102"/>
      <use x="253.955078" xlink:href="#DejaVuSans-102"/>
      <use x="289.160156" xlink:href="#DejaVuSans-61"/>
      <use x="372.949219" xlink:href="#DejaVuSans-48"/>
      <use x="436.572266" xlink:href="#DejaVuSans-46"/>
      <use x="468.359375" xlink:href="#DejaVuSans-48"/>
      <use x="531.982422" xlink:href="#DejaVuSans-48"/>
      <use x="595.605469" xlink:href="#DejaVuSans-49"/>
     </g>
    </g>
    <g id="PathCollection_6">
     <g>
      <use style="fill:#ff7f0e;stroke:#ff7f0e;" x="76.4" xlink:href="#m26094705a6" y="39.451562"/>
     </g>
    </g>
    <g id="text_14">
     <!-- cutoff=1 -->
     <g transform="translate(94.4 42.076562)scale(0.1 -0.1)">
      <use xlink:href="#DejaVuSans-99"/>
      <use x="54.980469" xlink:href="#DejaVuSans-117"/>
      <use x="118.359375" xlink:href="#DejaVuSans-116"/>
      <use x="157.568359" xlink:href="#DejaVuSans-111"/>
      <use x="218.75" xlink:href="#DejaVuSans-102"/>
      <use x="253.955078" xlink:href="#DejaVuSans-102"/>
      <use x="289.160156" xlink:href="#DejaVuSans-61"/>
      <use x="372.949219" xlink:href="#DejaVuSans-49"/>
     </g>
    </g>
    <g id="PathCollection_7">
     <g>
      <use style="fill:#2ca02c;stroke:#2ca02c;" x="76.4" xlink:href="#m9e81d6c021" y="54.129687"/>
     </g>
    </g>
    <g id="text_15">
     <!-- cutoff=1000 -->
     <g transform="translate(94.4 56.754687)scale(0.1 -0.1)">
      <use xlink:href="#DejaVuSans-99"/>
      <use x="54.980469" xlink:href="#DejaVuSans-117"/>
      <use x="118.359375" xlink:href="#DejaVuSans-116"/>
      <use x="157.568359" xlink:href="#DejaVuSans-111"/>
      <use x="218.75" xlink:href="#DejaVuSans-102"/>
      <use x="253.955078" xlink:href="#DejaVuSans-102"/>
      <use x="289.160156" xlink:href="#DejaVuSans-61"/>
      <use x="372.949219" xlink:href="#DejaVuSans-49"/>
      <use x="436.572266" xlink:href="#DejaVuSans-48"/>
      <use x="500.195312" xlink:href="#DejaVuSans-48"/>
      <use x="563.818359" xlink:href="#DejaVuSans-48"/>
     </g>
    </g>
    <g id="PathCollection_8">
     <g>
      <use style="fill:#d62728;stroke:#d62728;" x="76.4" xlink:href="#mfea08c0176" y="68.807813"/>
     </g>
    </g>
    <g id="text_16">
     <!-- poisson -->
     <g transform="translate(94.4 71.432813)scale(0.1 -0.1)">
      <defs>
       <path d="M 18.109375 8.203125 
L 18.109375 -20.796875 
L 9.078125 -20.796875 
L 9.078125 54.6875 
L 18.109375 54.6875 
L 18.109375 46.390625 
Q 20.953125 51.265625 25.265625 53.625 
Q 29.59375 56 35.59375 56 
Q 45.5625 56 51.78125 48.09375 
Q 58.015625 40.1875 58.015625 27.296875 
Q 58.015625 14.40625 51.78125 6.484375 
Q 45.5625 -1.421875 35.59375 -1.421875 
Q 29.59375 -1.421875 25.265625 0.953125 
Q 20.953125 3.328125 18.109375 8.203125 
z
M 48.6875 27.296875 
Q 48.6875 37.203125 44.609375 42.84375 
Q 40.53125 48.484375 33.40625 48.484375 
Q 26.265625 48.484375 22.1875 42.84375 
Q 18.109375 37.203125 18.109375 27.296875 
Q 18.109375 17.390625 22.1875 11.75 
Q 26.265625 6.109375 33.40625 6.109375 
Q 40.53125 6.109375 44.609375 11.75 
Q 48.6875 17.390625 48.6875 27.296875 
z
" id="DejaVuSans-112"/>
       <path d="M 9.421875 54.6875 
L 18.40625 54.6875 
L 18.40625 0 
L 9.421875 0 
z
M 9.421875 75.984375 
L 18.40625 75.984375 
L 18.40625 64.59375 
L 9.421875 64.59375 
z
" id="DejaVuSans-105"/>
       <path d="M 44.28125 53.078125 
L 44.28125 44.578125 
Q 40.484375 46.53125 36.375 47.5 
Q 32.28125 48.484375 27.875 48.484375 
Q 21.1875 48.484375 17.84375 46.4375 
Q 14.5 44.390625 14.5 40.28125 
Q 14.5 37.15625 16.890625 35.375 
Q 19.28125 33.59375 26.515625 31.984375 
L 29.59375 31.296875 
Q 39.15625 29.25 43.1875 25.515625 
Q 47.21875 21.78125 47.21875 15.09375 
Q 47.21875 7.46875 41.1875 3.015625 
Q 35.15625 -1.421875 24.609375 -1.421875 
Q 20.21875 -1.421875 15.453125 -0.5625 
Q 10.6875 0.296875 5.421875 2 
L 5.421875 11.28125 
Q 10.40625 8.6875 15.234375 7.390625 
Q 20.0625 6.109375 24.8125 6.109375 
Q 31.15625 6.109375 34.5625 8.28125 
Q 37.984375 10.453125 37.984375 14.40625 
Q 37.984375 18.0625 35.515625 20.015625 
Q 33.0625 21.96875 24.703125 23.78125 
L 21.578125 24.515625 
Q 13.234375 26.265625 9.515625 29.90625 
Q 5.8125 33.546875 5.8125 39.890625 
Q 5.8125 47.609375 11.28125 51.796875 
Q 16.75 56 26.8125 56 
Q 31.78125 56 36.171875 55.265625 
Q 40.578125 54.546875 44.28125 53.078125 
z
" id="DejaVuSans-115"/>
       <path d="M 54.890625 33.015625 
L 54.890625 0 
L 45.90625 0 
L 45.90625 32.71875 
Q 45.90625 40.484375 42.875 44.328125 
Q 39.84375 48.1875 33.796875 48.1875 
Q 26.515625 48.1875 22.3125 43.546875 
Q 18.109375 38.921875 18.109375 30.90625 
L 18.109375 0 
L 9.078125 0 
L 9.078125 54.6875 
L 18.109375 54.6875 
L 18.109375 46.1875 
Q 21.34375 51.125 25.703125 53.5625 
Q 30.078125 56 35.796875 56 
Q 45.21875 56 50.046875 50.171875 
Q 54.890625 44.34375 54.890625 33.015625 
z
" id="DejaVuSans-110"/>
      </defs>
      <use xlink:href="#DejaVuSans-112"/>
      <use x="63.476562" xlink:href="#DejaVuSans-111"/>
      <use x="124.658203" xlink:href="#DejaVuSans-105"/>
      <use x="152.441406" xlink:href="#DejaVuSans-115"/>
      <use x="204.541016" xlink:href="#DejaVuSans-115"/>
      <use x="256.640625" xlink:href="#DejaVuSans-111"/>
      <use x="317.822266" xlink:href="#DejaVuSans-110"/>
     </g>
    </g>
   </g>
  </g>
  <g id="axes_2">
   <g id="patch_8">
    <path d="M 328.2 233.6 
L 565.2 233.6 
L 565.2 10.8 
L 328.2 10.8 
z
" style="fill:#ffffff;"/>
   </g>
   <g id="PathCollection_9">
    <g clip-path="url(#pb4e9a6526d)">
     <use style="fill:#1f77b4;stroke:#1f77b4;" x="554.427273" xlink:href="#mb9e9d0df4b" y="21.767643"/>
     <use style="fill:#1f77b4;stroke:#1f77b4;" x="554.344699" xlink:href="#mb9e9d0df4b" y="22.247945"/>
     <use style="fill:#1f77b4;stroke:#1f77b4;" x="553.750866" xlink:href="#mb9e9d0df4b" y="22.904678"/>
     <use style="fill:#1f77b4;stroke:#1f77b4;" x="551.557243" xlink:href="#mb9e9d0df4b" y="25.102018"/>
     <use style="fill:#1f77b4;stroke:#1f77b4;" x="546.21462" xlink:href="#mb9e9d0df4b" y="29.223029"/>
     <use style="fill:#1f77b4;stroke:#1f77b4;" x="536.193446" xlink:href="#mb9e9d0df4b" y="37.939296"/>
     <use style="fill:#1f77b4;stroke:#1f77b4;" x="520.404845" xlink:href="#mb9e9d0df4b" y="51.89407"/>
     <use style="fill:#1f77b4;stroke:#1f77b4;" x="499.206262" xlink:href="#mb9e9d0df4b" y="72.147067"/>
     <use style="fill:#1f77b4;stroke:#1f77b4;" x="474.297408" xlink:href="#mb9e9d0df4b" y="95.008093"/>
     <use style="fill:#1f77b4;stroke:#1f77b4;" x="448.363107" xlink:href="#mb9e9d0df4b" y="119.467347"/>
     <use style="fill:#1f77b4;stroke:#1f77b4;" x="423.620673" xlink:href="#mb9e9d0df4b" y="142.856286"/>
     <use style="fill:#1f77b4;stroke:#1f77b4;" x="401.591128" xlink:href="#mb9e9d0df4b" y="163.590005"/>
     <use style="fill:#1f77b4;stroke:#1f77b4;" x="382.946822" xlink:href="#mb9e9d0df4b" y="181.49116"/>
     <use style="fill:#1f77b4;stroke:#1f77b4;" x="367.7397" xlink:href="#mb9e9d0df4b" y="196.067944"/>
     <use style="fill:#1f77b4;stroke:#1f77b4;" x="355.618177" xlink:href="#mb9e9d0df4b" y="207.267107"/>
    </g>
   </g>
   <g id="PathCollection_10">
    <g clip-path="url(#pb4e9a6526d)">
     <use style="fill:#ff7f0e;stroke:#ff7f0e;" x="554.404403" xlink:href="#m26094705a6" y="22.707926"/>
     <use style="fill:#ff7f0e;stroke:#ff7f0e;" x="554.098116" xlink:href="#m26094705a6" y="23.620772"/>
     <use style="fill:#ff7f0e;stroke:#ff7f0e;" x="552.645729" xlink:href="#m26094705a6" y="25.220762"/>
     <use style="fill:#ff7f0e;stroke:#ff7f0e;" x="548.506235" xlink:href="#m26094705a6" y="28.59158"/>
     <use style="fill:#ff7f0e;stroke:#ff7f0e;" x="539.926269" xlink:href="#m26094705a6" y="35.577277"/>
     <use style="fill:#ff7f0e;stroke:#ff7f0e;" x="525.978905" xlink:href="#m26094705a6" y="48.109337"/>
     <use style="fill:#ff7f0e;stroke:#ff7f0e;" x="506.171659" xlink:href="#m26094705a6" y="66.24973"/>
     <use style="fill:#ff7f0e;stroke:#ff7f0e;" x="482.027469" xlink:href="#m26094705a6" y="87.824869"/>
     <use style="fill:#ff7f0e;stroke:#ff7f0e;" x="455.780641" xlink:href="#m26094705a6" y="112.615537"/>
     <use style="fill:#ff7f0e;stroke:#ff7f0e;" x="430.230318" xlink:href="#m26094705a6" y="137.062333"/>
     <use style="fill:#ff7f0e;stroke:#ff7f0e;" x="407.066713" xlink:href="#m26094705a6" y="158.029943"/>
     <use style="fill:#ff7f0e;stroke:#ff7f0e;" x="387.213067" xlink:href="#m26094705a6" y="177.300956"/>
     <use style="fill:#ff7f0e;stroke:#ff7f0e;" x="370.937586" xlink:href="#m26094705a6" y="192.584029"/>
     <use style="fill:#ff7f0e;stroke:#ff7f0e;" x="357.950712" xlink:href="#m26094705a6" y="204.845853"/>
     <use style="fill:#ff7f0e;stroke:#ff7f0e;" x="347.775874" xlink:href="#m26094705a6" y="214.732195"/>
    </g>
   </g>
   <g id="PathCollection_11">
    <g clip-path="url(#pb4e9a6526d)">
     <use style="fill:#2ca02c;stroke:#2ca02c;" x="554.239682" xlink:href="#m9e81d6c021" y="24.849699"/>
     <use style="fill:#2ca02c;stroke:#2ca02c;" x="553.102814" xlink:href="#m9e81d6c021" y="26.548268"/>
     <use style="fill:#2ca02c;stroke:#2ca02c;" x="549.529708" xlink:href="#m9e81d6c021" y="29.81654"/>
     <use style="fill:#2ca02c;stroke:#2ca02c;" x="541.626802" xlink:href="#m9e81d6c021" y="36.418695"/>
     <use style="fill:#2ca02c;stroke:#2ca02c;" x="527.842855" xlink:href="#m9e81d6c021" y="48.001128"/>
     <use style="fill:#2ca02c;stroke:#2ca02c;" x="508.579926" xlink:href="#m9e81d6c021" y="64.891281"/>
     <use style="fill:#2ca02c;stroke:#2ca02c;" x="484.378468" xlink:href="#m9e81d6c021" y="86.530988"/>
     <use style="fill:#2ca02c;stroke:#2ca02c;" x="457.835043" xlink:href="#m9e81d6c021" y="110.831287"/>
     <use style="fill:#2ca02c;stroke:#2ca02c;" x="431.457656" xlink:href="#m9e81d6c021" y="135.422116"/>
     <use style="fill:#2ca02c;stroke:#2ca02c;" x="407.613511" xlink:href="#m9e81d6c021" y="157.736374"/>
     <use style="fill:#2ca02c;stroke:#2ca02c;" x="387.2027" xlink:href="#m9e81d6c021" y="177.062393"/>
     <use style="fill:#2ca02c;stroke:#2ca02c;" x="370.457107" xlink:href="#m9e81d6c021" y="192.964513"/>
     <use style="fill:#2ca02c;stroke:#2ca02c;" x="357.175671" xlink:href="#m9e81d6c021" y="205.602773"/>
     <use style="fill:#2ca02c;stroke:#2ca02c;" x="346.857196" xlink:href="#m9e81d6c021" y="215.206663"/>
     <use style="fill:#2ca02c;stroke:#2ca02c;" x="338.972727" xlink:href="#m9e81d6c021" y="222.675104"/>
    </g>
   </g>
   <g id="PathCollection_12">
    <g clip-path="url(#pb4e9a6526d)">
     <use style="fill:#d62728;stroke:#d62728;" x="553.943562" xlink:href="#mfea08c0176" y="28.437448"/>
     <use style="fill:#d62728;stroke:#d62728;" x="552.174162" xlink:href="#mfea08c0176" y="30.398947"/>
     <use style="fill:#d62728;stroke:#d62728;" x="547.831466" xlink:href="#mfea08c0176" y="34.611988"/>
     <use style="fill:#d62728;stroke:#d62728;" x="538.996112" xlink:href="#mfea08c0176" y="41.903609"/>
     <use style="fill:#d62728;stroke:#d62728;" x="526.32406" xlink:href="#mfea08c0176" y="49.006637"/>
     <use style="fill:#d62728;stroke:#d62728;" x="507.72047" xlink:href="#mfea08c0176" y="66.418171"/>
     <use style="fill:#d62728;stroke:#d62728;" x="483.029595" xlink:href="#mfea08c0176" y="89.792445"/>
     <use style="fill:#d62728;stroke:#d62728;" x="457.903482" xlink:href="#mfea08c0176" y="111.091651"/>
     <use style="fill:#d62728;stroke:#d62728;" x="431.585893" xlink:href="#mfea08c0176" y="134.850417"/>
     <use style="fill:#d62728;stroke:#d62728;" x="406.887485" xlink:href="#mfea08c0176" y="160.123771"/>
     <use style="fill:#d62728;stroke:#d62728;" x="387.080697" xlink:href="#mfea08c0176" y="178.485355"/>
     <use style="fill:#d62728;stroke:#d62728;" x="370.044032" xlink:href="#mfea08c0176" y="194.669848"/>
     <use style="fill:#d62728;stroke:#d62728;" x="358.943294" xlink:href="#mfea08c0176" y="202.73713"/>
     <use style="fill:#d62728;stroke:#d62728;" x="347.146572" xlink:href="#mfea08c0176" y="215.49865"/>
     <use style="fill:#d62728;stroke:#d62728;" x="340.022415" xlink:href="#mfea08c0176" y="221.070343"/>
    </g>
   </g>
   <g id="matplotlib.axis_3">
    <g id="xtick_6">
     <g id="line2d_12">
      <g>
       <use style="stroke:#000000;stroke-width:0.8;" x="363.586772" xlink:href="#m4da21cfb5f" y="233.6"/>
      </g>
     </g>
     <g id="text_17">
      <!-- 0.2 -->
      <g transform="translate(355.635209 248.198438)scale(0.1 -0.1)">
       <use xlink:href="#DejaVuSans-48"/>
       <use x="63.623047" xlink:href="#DejaVuSans-46"/>
       <use x="95.410156" xlink:href="#DejaVuSans-50"/>
      </g>
     </g>
    </g>
    <g id="xtick_7">
     <g id="line2d_13">
      <g>
       <use style="stroke:#000000;stroke-width:0.8;" x="411.297821" xlink:href="#m4da21cfb5f" y="233.6"/>
      </g>
     </g>
     <g id="text_18">
      <!-- 0.4 -->
      <g transform="translate(403.346259 248.198438)scale(0.1 -0.1)">
       <use xlink:href="#DejaVuSans-48"/>
       <use x="63.623047" xlink:href="#DejaVuSans-46"/>
       <use x="95.410156" xlink:href="#DejaVuSans-52"/>
      </g>
     </g>
    </g>
    <g id="xtick_8">
     <g id="line2d_14">
      <g>
       <use style="stroke:#000000;stroke-width:0.8;" x="459.008871" xlink:href="#m4da21cfb5f" y="233.6"/>
      </g>
     </g>
     <g id="text_19">
      <!-- 0.6 -->
      <g transform="translate(451.057308 248.198438)scale(0.1 -0.1)">
       <use xlink:href="#DejaVuSans-48"/>
       <use x="63.623047" xlink:href="#DejaVuSans-46"/>
       <use x="95.410156" xlink:href="#DejaVuSans-54"/>
      </g>
     </g>
    </g>
    <g id="xtick_9">
     <g id="line2d_15">
      <g>
       <use style="stroke:#000000;stroke-width:0.8;" x="506.719921" xlink:href="#m4da21cfb5f" y="233.6"/>
      </g>
     </g>
     <g id="text_20">
      <!-- 0.8 -->
      <g transform="translate(498.768358 248.198438)scale(0.1 -0.1)">
       <use xlink:href="#DejaVuSans-48"/>
       <use x="63.623047" xlink:href="#DejaVuSans-46"/>
       <use x="95.410156" xlink:href="#DejaVuSans-56"/>
      </g>
     </g>
    </g>
    <g id="xtick_10">
     <g id="line2d_16">
      <g>
       <use style="stroke:#000000;stroke-width:0.8;" x="554.43097" xlink:href="#m4da21cfb5f" y="233.6"/>
      </g>
     </g>
     <g id="text_21">
      <!-- 1.0 -->
      <g transform="translate(546.479408 248.198438)scale(0.1 -0.1)">
       <use xlink:href="#DejaVuSans-49"/>
       <use x="63.623047" xlink:href="#DejaVuSans-46"/>
       <use x="95.410156" xlink:href="#DejaVuSans-48"/>
      </g>
     </g>
    </g>
    <g id="text_22">
     <!-- $F_T + \xi_0 (D s_T^2)^{1/3}$ -->
     <g transform="translate(397.35 267.018125)scale(0.14 -0.14)">
      <defs>
       <path d="M 46 62.703125 
L 46 35.5 
L 73.1875 35.5 
L 73.1875 27.203125 
L 46 27.203125 
L 46 0 
L 37.796875 0 
L 37.796875 27.203125 
L 10.59375 27.203125 
L 10.59375 35.5 
L 37.796875 35.5 
L 37.796875 62.703125 
z
" id="DejaVuSans-43"/>
       <path d="M 31.5 6.203125 
Q 37.9375 6.15625 41.0625 2.484375 
Q 44.4375 -1.375 43.3125 -7.234375 
Q 42.1875 -12.84375 37.84375 -16.75 
Q 33.109375 -21 25.140625 -21 
Q 25.875 -17.328125 26.5625 -13.625 
Q 29.890625 -13.875 32.375 -11.71875 
Q 34.28125 -10.015625 34.625 -8.203125 
Q 35.109375 -5.609375 33.984375 -3.46875 
Q 32.8125 -1.421875 30.03125 -1.421875 
Q -0.390625 -1.421875 3.765625 19.921875 
Q 6.59375 34.578125 23.6875 38.875 
Q 10.359375 40.625 12.84375 53.328125 
Q 14.703125 62.9375 26.21875 66.9375 
L 16.0625 66.9375 
L 17.828125 75.984375 
L 56.34375 75.984375 
L 54.59375 66.9375 
Q 23.875 66.9375 21.09375 52.734375 
Q 19.28125 43.40625 45.015625 42.96875 
L 43.40625 34.671875 
Q 15.765625 35.75 12.796875 19.921875 
Q 10.296875 6.6875 31.5 6.203125 
z
" id="DejaVuSans-Oblique-958"/>
       <path d="M 50 53.078125 
L 48.296875 44.578125 
Q 44.734375 46.53125 40.765625 47.5 
Q 36.8125 48.484375 32.625 48.484375 
Q 25.53125 48.484375 21.453125 46.0625 
Q 17.390625 43.65625 17.390625 39.5 
Q 17.390625 34.671875 26.859375 32.078125 
Q 27.59375 31.890625 27.9375 31.78125 
L 30.8125 30.90625 
Q 39.796875 28.421875 42.796875 25.6875 
Q 45.796875 22.953125 45.796875 18.21875 
Q 45.796875 9.515625 38.890625 4.046875 
Q 31.984375 -1.421875 20.796875 -1.421875 
Q 16.453125 -1.421875 11.671875 -0.578125 
Q 6.890625 0.25 1.125 2 
L 2.875 11.28125 
Q 7.8125 8.734375 12.59375 7.421875 
Q 17.390625 6.109375 21.78125 6.109375 
Q 28.375 6.109375 32.5 8.9375 
Q 36.625 11.765625 36.625 16.109375 
Q 36.625 20.796875 25.78125 23.6875 
L 24.859375 23.921875 
L 21.78125 24.703125 
Q 14.9375 26.515625 11.765625 29.46875 
Q 8.59375 32.421875 8.59375 37.015625 
Q 8.59375 45.75 15.15625 50.875 
Q 21.734375 56 33.015625 56 
Q 37.453125 56 41.671875 55.265625 
Q 45.90625 54.546875 50 53.078125 
z
" id="DejaVuSans-Oblique-115"/>
       <path d="M 40.578125 39.3125 
Q 47.65625 37.796875 51.625 33 
Q 55.609375 28.21875 55.609375 21.1875 
Q 55.609375 10.40625 48.1875 4.484375 
Q 40.765625 -1.421875 27.09375 -1.421875 
Q 22.515625 -1.421875 17.65625 -0.515625 
Q 12.796875 0.390625 7.625 2.203125 
L 7.625 11.71875 
Q 11.71875 9.328125 16.59375 8.109375 
Q 21.484375 6.890625 26.8125 6.890625 
Q 36.078125 6.890625 40.9375 10.546875 
Q 45.796875 14.203125 45.796875 21.1875 
Q 45.796875 27.640625 41.28125 31.265625 
Q 36.765625 34.90625 28.71875 34.90625 
L 20.21875 34.90625 
L 20.21875 43.015625 
L 29.109375 43.015625 
Q 36.375 43.015625 40.234375 45.921875 
Q 44.09375 48.828125 44.09375 54.296875 
Q 44.09375 59.90625 40.109375 62.90625 
Q 36.140625 65.921875 28.71875 65.921875 
Q 24.65625 65.921875 20.015625 65.03125 
Q 15.375 64.15625 9.8125 62.3125 
L 9.8125 71.09375 
Q 15.4375 72.65625 20.34375 73.4375 
Q 25.25 74.21875 29.59375 74.21875 
Q 40.828125 74.21875 47.359375 69.109375 
Q 53.90625 64.015625 53.90625 55.328125 
Q 53.90625 49.265625 50.4375 45.09375 
Q 46.96875 40.921875 40.578125 39.3125 
z
" id="DejaVuSans-51"/>
      </defs>
      <use transform="translate(0 0.765625)" xlink:href="#DejaVuSans-Oblique-70"/>
      <use transform="translate(57.519531 -15.640625)scale(0.7)" xlink:href="#DejaVuSans-Oblique-84"/>
      <use transform="translate(122.495117 0.765625)" xlink:href="#DejaVuSans-43"/>
      <use transform="translate(225.766602 0.765625)" xlink:href="#DejaVuSans-Oblique-958"/>
      <use transform="translate(281.52832 -15.640625)scale(0.7)" xlink:href="#DejaVuSans-48"/>
      <use transform="translate(328.798828 0.765625)" xlink:href="#DejaVuSans-40"/>
      <use transform="translate(367.8125 0.765625)" xlink:href="#DejaVuSans-Oblique-68"/>
      <use transform="translate(444.814453 0.765625)" xlink:href="#DejaVuSans-Oblique-115"/>
      <use transform="translate(501.563958 39.046875)scale(0.7)" xlink:href="#DejaVuSans-50"/>
      <use transform="translate(496.914062 -26.578125)scale(0.7)" xlink:href="#DejaVuSans-Oblique-84"/>
      <use transform="translate(548.834466 0.765625)" xlink:href="#DejaVuSans-41"/>
      <use transform="translate(588.805169 39.046875)scale(0.7)" xlink:href="#DejaVuSans-49"/>
      <use transform="translate(633.341302 39.046875)scale(0.7)" xlink:href="#DejaVuSans-47"/>
      <use transform="translate(656.925286 39.046875)scale(0.7)" xlink:href="#DejaVuSans-51"/>
     </g>
    </g>
   </g>
   <g id="matplotlib.axis_4">
    <g id="ytick_6">
     <g id="line2d_17">
      <g>
       <use style="stroke:#000000;stroke-width:0.8;" x="328.2" xlink:href="#mabbddb6600" y="200.333448"/>
      </g>
     </g>
     <g id="text_23">
      <!-- 0.2 -->
      <g transform="translate(305.296875 204.132667)scale(0.1 -0.1)">
       <use xlink:href="#DejaVuSans-48"/>
       <use x="63.623047" xlink:href="#DejaVuSans-46"/>
       <use x="95.410156" xlink:href="#DejaVuSans-50"/>
      </g>
     </g>
    </g>
    <g id="ytick_7">
     <g id="line2d_18">
      <g>
       <use style="stroke:#000000;stroke-width:0.8;" x="328.2" xlink:href="#mabbddb6600" y="155.481036"/>
      </g>
     </g>
     <g id="text_24">
      <!-- 0.4 -->
      <g transform="translate(305.296875 159.280254)scale(0.1 -0.1)">
       <use xlink:href="#DejaVuSans-48"/>
       <use x="63.623047" xlink:href="#DejaVuSans-46"/>
       <use x="95.410156" xlink:href="#DejaVuSans-52"/>
      </g>
     </g>
    </g>
    <g id="ytick_8">
     <g id="line2d_19">
      <g>
       <use style="stroke:#000000;stroke-width:0.8;" x="328.2" xlink:href="#mabbddb6600" y="110.628623"/>
      </g>
     </g>
     <g id="text_25">
      <!-- 0.6 -->
      <g transform="translate(305.296875 114.427841)scale(0.1 -0.1)">
       <use xlink:href="#DejaVuSans-48"/>
       <use x="63.623047" xlink:href="#DejaVuSans-46"/>
       <use x="95.410156" xlink:href="#DejaVuSans-54"/>
      </g>
     </g>
    </g>
    <g id="ytick_9">
     <g id="line2d_20">
      <g>
       <use style="stroke:#000000;stroke-width:0.8;" x="328.2" xlink:href="#mabbddb6600" y="65.77621"/>
      </g>
     </g>
     <g id="text_26">
      <!-- 0.8 -->
      <g transform="translate(305.296875 69.575428)scale(0.1 -0.1)">
       <use xlink:href="#DejaVuSans-48"/>
       <use x="63.623047" xlink:href="#DejaVuSans-46"/>
       <use x="95.410156" xlink:href="#DejaVuSans-56"/>
      </g>
     </g>
    </g>
    <g id="ytick_10">
     <g id="line2d_21">
      <g>
       <use style="stroke:#000000;stroke-width:0.8;" x="328.2" xlink:href="#mabbddb6600" y="20.923797"/>
      </g>
     </g>
     <g id="text_27">
      <!-- 1.0 -->
      <g transform="translate(305.296875 24.723016)scale(0.1 -0.1)">
       <use xlink:href="#DejaVuSans-49"/>
       <use x="63.623047" xlink:href="#DejaVuSans-46"/>
       <use x="95.410156" xlink:href="#DejaVuSans-48"/>
      </g>
     </g>
    </g>
   </g>
   <g id="line2d_22">
    <path clip-path="url(#pb4e9a6526d)" d="M 338.972727 223.472727 
L 343.369759 219.339147 
L 347.76679 215.205566 
L 352.163822 211.071985 
L 356.560853 206.938404 
L 360.957885 202.804824 
L 365.354917 198.671243 
L 369.751948 194.537662 
L 374.14898 190.404082 
L 378.546011 186.270501 
L 382.943043 182.13692 
L 387.340074 178.00334 
L 391.737106 173.869759 
L 396.134137 169.736178 
L 400.531169 165.602597 
L 404.9282 161.469017 
L 409.325232 157.335436 
L 413.722263 153.201855 
L 418.119295 149.068275 
L 422.516327 144.934694 
L 426.913358 140.801113 
L 431.31039 136.667532 
L 435.707421 132.533952 
L 440.104453 128.400371 
L 444.501484 124.26679 
L 448.898516 120.13321 
L 453.295547 115.999629 
L 457.692579 111.866048 
L 462.08961 107.732468 
L 466.486642 103.598887 
L 470.883673 99.465306 
L 475.280705 95.331725 
L 479.677737 91.198145 
L 484.074768 87.064564 
L 488.4718 82.930983 
L 492.868831 78.797403 
L 497.265863 74.663822 
L 501.662894 70.530241 
L 506.059926 66.39666 
L 510.456957 62.26308 
L 514.853989 58.129499 
L 519.25102 53.995918 
L 523.648052 49.862338 
L 528.045083 45.728757 
L 532.442115 41.595176 
L 536.839147 37.461596 
L 541.236178 33.328015 
L 545.63321 29.194434 
L 550.030241 25.060853 
L 554.427273 20.927273 
" style="fill:none;stroke:#000000;stroke-dasharray:5.55,2.4;stroke-dashoffset:0;stroke-width:1.5;"/>
   </g>
   <g id="patch_9">
    <path d="M 328.2 233.6 
L 328.2 10.8 
" style="fill:none;stroke:#000000;stroke-linecap:square;stroke-linejoin:miter;stroke-width:0.8;"/>
   </g>
   <g id="patch_10">
    <path d="M 565.2 233.6 
L 565.2 10.8 
" style="fill:none;stroke:#000000;stroke-linecap:square;stroke-linejoin:miter;stroke-width:0.8;"/>
   </g>
   <g id="patch_11">
    <path d="M 328.2 233.6 
L 565.2 233.6 
" style="fill:none;stroke:#000000;stroke-linecap:square;stroke-linejoin:miter;stroke-width:0.8;"/>
   </g>
   <g id="patch_12">
    <path d="M 328.2 10.8 
L 565.2 10.8 
" style="fill:none;stroke:#000000;stroke-linecap:square;stroke-linejoin:miter;stroke-width:0.8;"/>
   </g>
  </g>
 </g>
 <defs>
  <clipPath id="pdca09db6b0">
   <rect height="222.8" width="237" x="57.4" y="10.8"/>
  </clipPath>
  <clipPath id="pb4e9a6526d">
   <rect height="222.8" width="237" x="328.2" y="10.8"/>
  </clipPath>
 </defs>
</svg>
