<?xml version="1.0" encoding="utf-8" standalone="no"?>
<!DOCTYPE svg PUBLIC "-//W3C//DTD SVG 1.1//EN"
  "http://www.w3.org/Graphics/SVG/1.1/DTD/svg11.dtd">
<!-- Created with matplotlib (https://matplotlib.org/) -->
<svg height="180pt" version="1.1" viewBox="0 0 216 180" width="216pt" xmlns="http://www.w3.org/2000/svg" xmlns:xlink="http://www.w3.org/1999/xlink">
 <metadata>
  <rdf:RDF xmlns:cc="http://creativecommons.org/ns#" xmlns:dc="http://purl.org/dc/elements/1.1/" xmlns:rdf="http://www.w3.org/1999/02/22-rdf-syntax-ns#">
   <cc:Work>
    <dc:type rdf:resource="http://purl.org/dc/dcmitype/StillImage"/>
    <dc:date>2023-04-19T14:15:01.358416</dc:date>
    <dc:format>image/svg+xml</dc:format>
    <dc:creator>
     <cc:Agent>
      <dc:title>Matplotlib v3.3.4, https://matplotlib.org/</dc:title>
     </cc:Agent>
    </dc:creator>
   </cc:Work>
  </rdf:RDF>
 </metadata>
 <defs>
  <style type="text/css">*{stroke-linecap:butt;stroke-linejoin:round;}</style>
 </defs>
 <g id="figure_1">
  <g id="patch_1">
   <path d="M 0 180 
L 216 180 
L 216 0 
L 0 0 
z
" style="fill:none;"/>
  </g>
  <g id="axes_1">
   <g id="patch_2">
    <path d="M 64.55 129 
L 205.2 129 
L 205.2 10.8 
L 64.55 10.8 
z
" style="fill:#ffffff;"/>
   </g>
   <g id="PathCollection_1">
    <defs>
     <path d="M -4.1833 4.1833 
L 4.1833 -4.1833 
M -4.1833 -4.1833 
L 4.1833 4.1833 
" id="m35f0d495e9" style="stroke:#0504aa;stroke-width:1.5;"/>
    </defs>
    <g clip-path="url(#p8cf9b22169)">
     <use style="fill:#0504aa;stroke:#0504aa;stroke-width:1.5;" x="70.943182" xlink:href="#m35f0d495e9" y="67.678791"/>
     <use style="fill:#0504aa;stroke:#0504aa;stroke-width:1.5;" x="85.150253" xlink:href="#m35f0d495e9" y="68.275331"/>
     <use style="fill:#0504aa;stroke:#0504aa;stroke-width:1.5;" x="99.357323" xlink:href="#m35f0d495e9" y="70.003023"/>
     <use style="fill:#0504aa;stroke:#0504aa;stroke-width:1.5;" x="113.564394" xlink:href="#m35f0d495e9" y="73.673937"/>
     <use style="fill:#0504aa;stroke:#0504aa;stroke-width:1.5;" x="127.771465" xlink:href="#m35f0d495e9" y="79.679472"/>
     <use style="fill:#0504aa;stroke:#0504aa;stroke-width:1.5;" x="141.978535" xlink:href="#m35f0d495e9" y="87.036644"/>
     <use style="fill:#0504aa;stroke:#0504aa;stroke-width:1.5;" x="156.185606" xlink:href="#m35f0d495e9" y="95.108591"/>
     <use style="fill:#0504aa;stroke:#0504aa;stroke-width:1.5;" x="170.392677" xlink:href="#m35f0d495e9" y="102.560467"/>
     <use style="fill:#0504aa;stroke:#0504aa;stroke-width:1.5;" x="184.599747" xlink:href="#m35f0d495e9" y="109.144032"/>
     <use style="fill:#0504aa;stroke:#0504aa;stroke-width:1.5;" x="198.806818" xlink:href="#m35f0d495e9" y="114.732596"/>
    </g>
   </g>
   <g id="PathCollection_2">
    <defs>
     <path d="M -4.1833 0 
L 4.1833 0 
M 0 4.1833 
L 0 -4.1833 
" id="m4658ac4aa6" style="stroke:#0165fc;stroke-width:1.5;"/>
    </defs>
    <g clip-path="url(#p8cf9b22169)">
     <use style="fill:#0165fc;stroke:#0165fc;stroke-width:1.5;" x="70.943182" xlink:href="#m4658ac4aa6" y="16.172727"/>
     <use style="fill:#0165fc;stroke:#0165fc;stroke-width:1.5;" x="85.150253" xlink:href="#m4658ac4aa6" y="18.41219"/>
     <use style="fill:#0165fc;stroke:#0165fc;stroke-width:1.5;" x="99.357323" xlink:href="#m4658ac4aa6" y="24.082501"/>
     <use style="fill:#0165fc;stroke:#0165fc;stroke-width:1.5;" x="113.564394" xlink:href="#m4658ac4aa6" y="34.01887"/>
     <use style="fill:#0165fc;stroke:#0165fc;stroke-width:1.5;" x="127.771465" xlink:href="#m4658ac4aa6" y="47.515772"/>
     <use style="fill:#0165fc;stroke:#0165fc;stroke-width:1.5;" x="141.978535" xlink:href="#m4658ac4aa6" y="62.003651"/>
     <use style="fill:#0165fc;stroke:#0165fc;stroke-width:1.5;" x="156.185606" xlink:href="#m4658ac4aa6" y="75.814249"/>
     <use style="fill:#0165fc;stroke:#0165fc;stroke-width:1.5;" x="170.392677" xlink:href="#m4658ac4aa6" y="87.542556"/>
     <use style="fill:#0165fc;stroke:#0165fc;stroke-width:1.5;" x="184.599747" xlink:href="#m4658ac4aa6" y="97.769717"/>
     <use style="fill:#0165fc;stroke:#0165fc;stroke-width:1.5;" x="198.806818" xlink:href="#m4658ac4aa6" y="108.570317"/>
    </g>
   </g>
   <g id="PathCollection_3">
    <defs>
     <path d="M 0 0 
L -4.1833 -0 
M 0 0 
L 2.09165 3.34664 
M 0 0 
L 2.09165 -3.34664 
" id="m64afd833fe" style="stroke:#840000;stroke-width:1.5;"/>
    </defs>
    <g clip-path="url(#p8cf9b22169)">
     <use style="fill:#840000;stroke:#840000;stroke-width:1.5;" x="70.943182" xlink:href="#m64afd833fe" y="88.750246"/>
     <use style="fill:#840000;stroke:#840000;stroke-width:1.5;" x="85.150253" xlink:href="#m64afd833fe" y="89.458329"/>
     <use style="fill:#840000;stroke:#840000;stroke-width:1.5;" x="99.357323" xlink:href="#m64afd833fe" y="91.364813"/>
     <use style="fill:#840000;stroke:#840000;stroke-width:1.5;" x="113.564394" xlink:href="#m64afd833fe" y="94.83087"/>
     <use style="fill:#840000;stroke:#840000;stroke-width:1.5;" x="127.771465" xlink:href="#m64afd833fe" y="99.769737"/>
     <use style="fill:#840000;stroke:#840000;stroke-width:1.5;" x="141.978535" xlink:href="#m64afd833fe" y="105.264316"/>
     <use style="fill:#840000;stroke:#840000;stroke-width:1.5;" x="156.185606" xlink:href="#m64afd833fe" y="110.786391"/>
     <use style="fill:#840000;stroke:#840000;stroke-width:1.5;" x="170.392677" xlink:href="#m64afd833fe" y="115.767473"/>
     <use style="fill:#840000;stroke:#840000;stroke-width:1.5;" x="184.599747" xlink:href="#m64afd833fe" y="120.068536"/>
     <use style="fill:#840000;stroke:#840000;stroke-width:1.5;" x="198.806818" xlink:href="#m64afd833fe" y="123.627273"/>
    </g>
   </g>
   <g id="PathCollection_4">
    <defs>
     <path d="M 0 0 
L 4.1833 0 
M 0 0 
L -2.09165 -3.34664 
M 0 0 
L -2.09165 3.34664 
" id="m958574e4ad" style="stroke:#ff474c;stroke-width:1.5;"/>
    </defs>
    <g clip-path="url(#p8cf9b22169)">
     <use style="fill:#ff474c;stroke:#ff474c;stroke-width:1.5;" x="70.943182" xlink:href="#m958574e4ad" y="52.707877"/>
     <use style="fill:#ff474c;stroke:#ff474c;stroke-width:1.5;" x="85.150253" xlink:href="#m958574e4ad" y="55.383219"/>
     <use style="fill:#ff474c;stroke:#ff474c;stroke-width:1.5;" x="99.357323" xlink:href="#m958574e4ad" y="61.058474"/>
     <use style="fill:#ff474c;stroke:#ff474c;stroke-width:1.5;" x="113.564394" xlink:href="#m958574e4ad" y="69.585502"/>
     <use style="fill:#ff474c;stroke:#ff474c;stroke-width:1.5;" x="127.771465" xlink:href="#m958574e4ad" y="79.751319"/>
     <use style="fill:#ff474c;stroke:#ff474c;stroke-width:1.5;" x="141.978535" xlink:href="#m958574e4ad" y="89.797121"/>
     <use style="fill:#ff474c;stroke:#ff474c;stroke-width:1.5;" x="156.185606" xlink:href="#m958574e4ad" y="99.000504"/>
     <use style="fill:#ff474c;stroke:#ff474c;stroke-width:1.5;" x="170.392677" xlink:href="#m958574e4ad" y="106.692637"/>
     <use style="fill:#ff474c;stroke:#ff474c;stroke-width:1.5;" x="184.599747" xlink:href="#m958574e4ad" y="113.03988"/>
     <use style="fill:#ff474c;stroke:#ff474c;stroke-width:1.5;" x="198.806818" xlink:href="#m958574e4ad" y="119.945958"/>
    </g>
   </g>
   <g id="matplotlib.axis_1">
    <g id="xtick_1">
     <g id="line2d_1">
      <defs>
       <path d="M 0 0 
L 0 3.5 
" id="mfa57cc41f0" style="stroke:#000000;stroke-width:0.8;"/>
      </defs>
      <g>
       <use style="stroke:#000000;stroke-width:0.8;" x="70.943182" xlink:href="#mfa57cc41f0" y="129"/>
      </g>
     </g>
     <g id="text_1">
      <!-- $\mathdefault{10^{-2}}$ -->
      <g transform="translate(59.193182 143.598437)scale(0.1 -0.1)">
       <defs>
        <path d="M 12.40625 8.296875 
L 28.515625 8.296875 
L 28.515625 63.921875 
L 10.984375 60.40625 
L 10.984375 69.390625 
L 28.421875 72.90625 
L 38.28125 72.90625 
L 38.28125 8.296875 
L 54.390625 8.296875 
L 54.390625 0 
L 12.40625 0 
z
" id="DejaVuSans-49"/>
        <path d="M 31.78125 66.40625 
Q 24.171875 66.40625 20.328125 58.90625 
Q 16.5 51.421875 16.5 36.375 
Q 16.5 21.390625 20.328125 13.890625 
Q 24.171875 6.390625 31.78125 6.390625 
Q 39.453125 6.390625 43.28125 13.890625 
Q 47.125 21.390625 47.125 36.375 
Q 47.125 51.421875 43.28125 58.90625 
Q 39.453125 66.40625 31.78125 66.40625 
z
M 31.78125 74.21875 
Q 44.046875 74.21875 50.515625 64.515625 
Q 56.984375 54.828125 56.984375 36.375 
Q 56.984375 17.96875 50.515625 8.265625 
Q 44.046875 -1.421875 31.78125 -1.421875 
Q 19.53125 -1.421875 13.0625 8.265625 
Q 6.59375 17.96875 6.59375 36.375 
Q 6.59375 54.828125 13.0625 64.515625 
Q 19.53125 74.21875 31.78125 74.21875 
z
" id="DejaVuSans-48"/>
        <path d="M 10.59375 35.5 
L 73.1875 35.5 
L 73.1875 27.203125 
L 10.59375 27.203125 
z
" id="DejaVuSans-8722"/>
        <path d="M 19.1875 8.296875 
L 53.609375 8.296875 
L 53.609375 0 
L 7.328125 0 
L 7.328125 8.296875 
Q 12.9375 14.109375 22.625 23.890625 
Q 32.328125 33.6875 34.8125 36.53125 
Q 39.546875 41.84375 41.421875 45.53125 
Q 43.3125 49.21875 43.3125 52.78125 
Q 43.3125 58.59375 39.234375 62.25 
Q 35.15625 65.921875 28.609375 65.921875 
Q 23.96875 65.921875 18.8125 64.3125 
Q 13.671875 62.703125 7.8125 59.421875 
L 7.8125 69.390625 
Q 13.765625 71.78125 18.9375 73 
Q 24.125 74.21875 28.421875 74.21875 
Q 39.75 74.21875 46.484375 68.546875 
Q 53.21875 62.890625 53.21875 53.421875 
Q 53.21875 48.921875 51.53125 44.890625 
Q 49.859375 40.875 45.40625 35.40625 
Q 44.1875 33.984375 37.640625 27.21875 
Q 31.109375 20.453125 19.1875 8.296875 
z
" id="DejaVuSans-50"/>
       </defs>
       <use transform="translate(0 0.765625)" xlink:href="#DejaVuSans-49"/>
       <use transform="translate(63.623047 0.765625)" xlink:href="#DejaVuSans-48"/>
       <use transform="translate(128.203125 39.046875)scale(0.7)" xlink:href="#DejaVuSans-8722"/>
       <use transform="translate(186.855469 39.046875)scale(0.7)" xlink:href="#DejaVuSans-50"/>
      </g>
     </g>
    </g>
    <g id="xtick_2">
     <g id="line2d_2">
      <g>
       <use style="stroke:#000000;stroke-width:0.8;" x="126.511182" xlink:href="#mfa57cc41f0" y="129"/>
      </g>
     </g>
     <g id="text_2">
      <!-- $\mathdefault{10^{-1}}$ -->
      <g transform="translate(114.761182 143.598437)scale(0.1 -0.1)">
       <use transform="translate(0 0.684375)" xlink:href="#DejaVuSans-49"/>
       <use transform="translate(63.623047 0.684375)" xlink:href="#DejaVuSans-48"/>
       <use transform="translate(128.203125 38.965625)scale(0.7)" xlink:href="#DejaVuSans-8722"/>
       <use transform="translate(186.855469 38.965625)scale(0.7)" xlink:href="#DejaVuSans-49"/>
      </g>
     </g>
    </g>
    <g id="xtick_3">
     <g id="line2d_3">
      <g>
       <use style="stroke:#000000;stroke-width:0.8;" x="182.079183" xlink:href="#mfa57cc41f0" y="129"/>
      </g>
     </g>
     <g id="text_3">
      <!-- $\mathdefault{10^{0}}$ -->
      <g transform="translate(173.279183 143.598437)scale(0.1 -0.1)">
       <use transform="translate(0 0.765625)" xlink:href="#DejaVuSans-49"/>
       <use transform="translate(63.623047 0.765625)" xlink:href="#DejaVuSans-48"/>
       <use transform="translate(128.203125 39.046875)scale(0.7)" xlink:href="#DejaVuSans-48"/>
      </g>
     </g>
    </g>
    <g id="xtick_4">
     <g id="line2d_4">
      <defs>
       <path d="M 0 0 
L 0 2 
" id="m12b9b6e7df" style="stroke:#000000;stroke-width:0.6;"/>
      </defs>
      <g>
       <use style="stroke:#000000;stroke-width:0.6;" x="65.558086" xlink:href="#m12b9b6e7df" y="129"/>
      </g>
     </g>
    </g>
    <g id="xtick_5">
     <g id="line2d_5">
      <g>
       <use style="stroke:#000000;stroke-width:0.6;" x="68.40053" xlink:href="#m12b9b6e7df" y="129"/>
      </g>
     </g>
    </g>
    <g id="xtick_6">
     <g id="line2d_6">
      <g>
       <use style="stroke:#000000;stroke-width:0.6;" x="87.670817" xlink:href="#m12b9b6e7df" y="129"/>
      </g>
     </g>
    </g>
    <g id="xtick_7">
     <g id="line2d_7">
      <g>
       <use style="stroke:#000000;stroke-width:0.6;" x="97.455856" xlink:href="#m12b9b6e7df" y="129"/>
      </g>
     </g>
    </g>
    <g id="xtick_8">
     <g id="line2d_8">
      <g>
       <use style="stroke:#000000;stroke-width:0.6;" x="104.398452" xlink:href="#m12b9b6e7df" y="129"/>
      </g>
     </g>
    </g>
    <g id="xtick_9">
     <g id="line2d_9">
      <g>
       <use style="stroke:#000000;stroke-width:0.6;" x="109.783547" xlink:href="#m12b9b6e7df" y="129"/>
      </g>
     </g>
    </g>
    <g id="xtick_10">
     <g id="line2d_10">
      <g>
       <use style="stroke:#000000;stroke-width:0.6;" x="114.183491" xlink:href="#m12b9b6e7df" y="129"/>
      </g>
     </g>
    </g>
    <g id="xtick_11">
     <g id="line2d_11">
      <g>
       <use style="stroke:#000000;stroke-width:0.6;" x="117.90359" xlink:href="#m12b9b6e7df" y="129"/>
      </g>
     </g>
    </g>
    <g id="xtick_12">
     <g id="line2d_12">
      <g>
       <use style="stroke:#000000;stroke-width:0.6;" x="121.126087" xlink:href="#m12b9b6e7df" y="129"/>
      </g>
     </g>
    </g>
    <g id="xtick_13">
     <g id="line2d_13">
      <g>
       <use style="stroke:#000000;stroke-width:0.6;" x="123.96853" xlink:href="#m12b9b6e7df" y="129"/>
      </g>
     </g>
    </g>
    <g id="xtick_14">
     <g id="line2d_14">
      <g>
       <use style="stroke:#000000;stroke-width:0.6;" x="143.238818" xlink:href="#m12b9b6e7df" y="129"/>
      </g>
     </g>
    </g>
    <g id="xtick_15">
     <g id="line2d_15">
      <g>
       <use style="stroke:#000000;stroke-width:0.6;" x="153.023857" xlink:href="#m12b9b6e7df" y="129"/>
      </g>
     </g>
    </g>
    <g id="xtick_16">
     <g id="line2d_16">
      <g>
       <use style="stroke:#000000;stroke-width:0.6;" x="159.966453" xlink:href="#m12b9b6e7df" y="129"/>
      </g>
     </g>
    </g>
    <g id="xtick_17">
     <g id="line2d_17">
      <g>
       <use style="stroke:#000000;stroke-width:0.6;" x="165.351548" xlink:href="#m12b9b6e7df" y="129"/>
      </g>
     </g>
    </g>
    <g id="xtick_18">
     <g id="line2d_18">
      <g>
       <use style="stroke:#000000;stroke-width:0.6;" x="169.751492" xlink:href="#m12b9b6e7df" y="129"/>
      </g>
     </g>
    </g>
    <g id="xtick_19">
     <g id="line2d_19">
      <g>
       <use style="stroke:#000000;stroke-width:0.6;" x="173.471591" xlink:href="#m12b9b6e7df" y="129"/>
      </g>
     </g>
    </g>
    <g id="xtick_20">
     <g id="line2d_20">
      <g>
       <use style="stroke:#000000;stroke-width:0.6;" x="176.694088" xlink:href="#m12b9b6e7df" y="129"/>
      </g>
     </g>
    </g>
    <g id="xtick_21">
     <g id="line2d_21">
      <g>
       <use style="stroke:#000000;stroke-width:0.6;" x="179.536531" xlink:href="#m12b9b6e7df" y="129"/>
      </g>
     </g>
    </g>
    <g id="xtick_22">
     <g id="line2d_22">
      <g>
       <use style="stroke:#000000;stroke-width:0.6;" x="198.806818" xlink:href="#m12b9b6e7df" y="129"/>
      </g>
     </g>
    </g>
    <g id="text_4">
     <!-- $r_0$ -->
     <g transform="translate(128.645 160.315938)scale(0.14 -0.14)">
      <defs>
       <path d="M 44.578125 46.390625 
Q 43.21875 47.125 41.453125 47.515625 
Q 39.703125 47.90625 37.703125 47.90625 
Q 30.515625 47.90625 25.140625 42.453125 
Q 19.78125 37.015625 18.015625 27.875 
L 12.5 0 
L 3.515625 0 
L 14.203125 54.6875 
L 23.1875 54.6875 
L 21.484375 46.1875 
Q 25.046875 50.921875 30 53.453125 
Q 34.96875 56 40.578125 56 
Q 42.046875 56 43.453125 55.828125 
Q 44.875 55.671875 46.296875 55.28125 
z
" id="DejaVuSans-Oblique-114"/>
      </defs>
      <use xlink:href="#DejaVuSans-Oblique-114"/>
      <use transform="translate(41.113281 -16.40625)scale(0.7)" xlink:href="#DejaVuSans-48"/>
     </g>
    </g>
   </g>
   <g id="matplotlib.axis_2">
    <g id="ytick_1">
     <g id="line2d_23">
      <defs>
       <path d="M 0 0 
L -3.5 0 
" id="m3d3dddee64" style="stroke:#000000;stroke-width:0.8;"/>
      </defs>
      <g>
       <use style="stroke:#000000;stroke-width:0.8;" x="64.55" xlink:href="#m3d3dddee64" y="110.459645"/>
      </g>
     </g>
     <g id="text_5">
      <!-- 0.0025 -->
      <g transform="translate(22.559375 114.258864)scale(0.1 -0.1)">
       <defs>
        <path d="M 10.6875 12.40625 
L 21 12.40625 
L 21 0 
L 10.6875 0 
z
" id="DejaVuSans-46"/>
        <path d="M 10.796875 72.90625 
L 49.515625 72.90625 
L 49.515625 64.59375 
L 19.828125 64.59375 
L 19.828125 46.734375 
Q 21.96875 47.46875 24.109375 47.828125 
Q 26.265625 48.1875 28.421875 48.1875 
Q 40.625 48.1875 47.75 41.5 
Q 54.890625 34.8125 54.890625 23.390625 
Q 54.890625 11.625 47.5625 5.09375 
Q 40.234375 -1.421875 26.90625 -1.421875 
Q 22.3125 -1.421875 17.546875 -0.640625 
Q 12.796875 0.140625 7.71875 1.703125 
L 7.71875 11.625 
Q 12.109375 9.234375 16.796875 8.0625 
Q 21.484375 6.890625 26.703125 6.890625 
Q 35.15625 6.890625 40.078125 11.328125 
Q 45.015625 15.765625 45.015625 23.390625 
Q 45.015625 31 40.078125 35.4375 
Q 35.15625 39.890625 26.703125 39.890625 
Q 22.75 39.890625 18.8125 39.015625 
Q 14.890625 38.140625 10.796875 36.28125 
z
" id="DejaVuSans-53"/>
       </defs>
       <use xlink:href="#DejaVuSans-48"/>
       <use x="63.623047" xlink:href="#DejaVuSans-46"/>
       <use x="95.410156" xlink:href="#DejaVuSans-48"/>
       <use x="159.033203" xlink:href="#DejaVuSans-48"/>
       <use x="222.65625" xlink:href="#DejaVuSans-50"/>
       <use x="286.279297" xlink:href="#DejaVuSans-53"/>
      </g>
     </g>
    </g>
    <g id="ytick_2">
     <g id="line2d_24">
      <g>
       <use style="stroke:#000000;stroke-width:0.8;" x="64.55" xlink:href="#m3d3dddee64" y="82.100111"/>
      </g>
     </g>
     <g id="text_6">
      <!-- 0.0050 -->
      <g transform="translate(22.559375 85.89933)scale(0.1 -0.1)">
       <use xlink:href="#DejaVuSans-48"/>
       <use x="63.623047" xlink:href="#DejaVuSans-46"/>
       <use x="95.410156" xlink:href="#DejaVuSans-48"/>
       <use x="159.033203" xlink:href="#DejaVuSans-48"/>
       <use x="222.65625" xlink:href="#DejaVuSans-53"/>
       <use x="286.279297" xlink:href="#DejaVuSans-48"/>
      </g>
     </g>
    </g>
    <g id="ytick_3">
     <g id="line2d_25">
      <g>
       <use style="stroke:#000000;stroke-width:0.8;" x="64.55" xlink:href="#m3d3dddee64" y="53.740577"/>
      </g>
     </g>
     <g id="text_7">
      <!-- 0.0075 -->
      <g transform="translate(22.559375 57.539796)scale(0.1 -0.1)">
       <defs>
        <path d="M 8.203125 72.90625 
L 55.078125 72.90625 
L 55.078125 68.703125 
L 28.609375 0 
L 18.3125 0 
L 43.21875 64.59375 
L 8.203125 64.59375 
z
" id="DejaVuSans-55"/>
       </defs>
       <use xlink:href="#DejaVuSans-48"/>
       <use x="63.623047" xlink:href="#DejaVuSans-46"/>
       <use x="95.410156" xlink:href="#DejaVuSans-48"/>
       <use x="159.033203" xlink:href="#DejaVuSans-48"/>
       <use x="222.65625" xlink:href="#DejaVuSans-55"/>
       <use x="286.279297" xlink:href="#DejaVuSans-53"/>
      </g>
     </g>
    </g>
    <g id="ytick_4">
     <g id="line2d_26">
      <g>
       <use style="stroke:#000000;stroke-width:0.8;" x="64.55" xlink:href="#m3d3dddee64" y="25.381043"/>
      </g>
     </g>
     <g id="text_8">
      <!-- 0.0100 -->
      <g transform="translate(22.559375 29.180262)scale(0.1 -0.1)">
       <use xlink:href="#DejaVuSans-48"/>
       <use x="63.623047" xlink:href="#DejaVuSans-46"/>
       <use x="95.410156" xlink:href="#DejaVuSans-48"/>
       <use x="159.033203" xlink:href="#DejaVuSans-49"/>
       <use x="222.65625" xlink:href="#DejaVuSans-48"/>
       <use x="286.279297" xlink:href="#DejaVuSans-48"/>
      </g>
     </g>
    </g>
    <g id="text_9">
     <!-- $v$ -->
     <g transform="translate(15.647812 74.1)rotate(-90)scale(0.14 -0.14)">
      <defs>
       <path d="M 7.171875 54.6875 
L 16.703125 54.6875 
L 24.703125 8.203125 
L 50.875 54.6875 
L 60.40625 54.6875 
L 29.296875 0 
L 17.1875 0 
z
" id="DejaVuSans-Oblique-118"/>
      </defs>
      <use transform="translate(0 0.3125)" xlink:href="#DejaVuSans-Oblique-118"/>
     </g>
    </g>
   </g>
   <g id="patch_3">
    <path d="M 64.55 129 
L 64.55 10.8 
" style="fill:none;stroke:#000000;stroke-linecap:square;stroke-linejoin:miter;stroke-width:0.8;"/>
   </g>
   <g id="patch_4">
    <path d="M 205.2 129 
L 205.2 10.8 
" style="fill:none;stroke:#000000;stroke-linecap:square;stroke-linejoin:miter;stroke-width:0.8;"/>
   </g>
   <g id="patch_5">
    <path d="M 64.55 129 
L 205.2 129 
" style="fill:none;stroke:#000000;stroke-linecap:square;stroke-linejoin:miter;stroke-width:0.8;"/>
   </g>
   <g id="patch_6">
    <path d="M 64.55 10.8 
L 205.2 10.8 
" style="fill:none;stroke:#000000;stroke-linecap:square;stroke-linejoin:miter;stroke-width:0.8;"/>
   </g>
  </g>
 </g>
 <defs>
  <clipPath id="p8cf9b22169">
   <rect height="118.2" width="140.65" x="64.55" y="10.8"/>
  </clipPath>
 </defs>
</svg>
