<?xml version="1.0" encoding="utf-8" standalone="no"?>
<!DOCTYPE svg PUBLIC "-//W3C//DTD SVG 1.1//EN"
  "http://www.w3.org/Graphics/SVG/1.1/DTD/svg11.dtd">
<!-- Created with matplotlib (https://matplotlib.org/) -->
<svg height="432pt" version="1.1" viewBox="0 0 252 432" width="252pt" xmlns="http://www.w3.org/2000/svg" xmlns:xlink="http://www.w3.org/1999/xlink">
 <metadata>
  <rdf:RDF xmlns:cc="http://creativecommons.org/ns#" xmlns:dc="http://purl.org/dc/elements/1.1/" xmlns:rdf="http://www.w3.org/1999/02/22-rdf-syntax-ns#">
   <cc:Work>
    <dc:type rdf:resource="http://purl.org/dc/dcmitype/StillImage"/>
    <dc:date>2023-07-03T09:45:41.234116</dc:date>
    <dc:format>image/svg+xml</dc:format>
    <dc:creator>
     <cc:Agent>
      <dc:title>Matplotlib v3.3.4, https://matplotlib.org/</dc:title>
     </cc:Agent>
    </dc:creator>
   </cc:Work>
  </rdf:RDF>
 </metadata>
 <defs>
  <style type="text/css">*{stroke-linecap:butt;stroke-linejoin:round;}</style>
 </defs>
 <g id="figure_1">
  <g id="patch_1">
   <path d="M 0 432 
L 252 432 
L 252 0 
L 0 0 
z
" style="fill:none;"/>
  </g>
  <g id="axes_1">
   <g id="patch_2">
    <path d="M 70.925 184.05 
L 233.991967 184.05 
L 233.991967 10.8 
L 70.925 10.8 
z
" style="fill:#ffffff;"/>
   </g>
   <g id="PathCollection_1">
    <defs>
     <path d="M -5 5 
L 5 -5 
M -5 -5 
L 5 5 
" id="mb97f791bdd" style="stroke:#033500;stroke-width:1.5;"/>
    </defs>
    <g clip-path="url(#pbf7217b1dd)">
     <use style="fill:#033500;stroke:#033500;stroke-width:1.5;" x="78.337135" xlink:href="#mb97f791bdd" y="59.307221"/>
     <use style="fill:#033500;stroke:#033500;stroke-width:1.5;" x="87.947351" xlink:href="#mb97f791bdd" y="92.473755"/>
     <use style="fill:#033500;stroke:#033500;stroke-width:1.5;" x="99.193349" xlink:href="#mb97f791bdd" y="117.367386"/>
     <use style="fill:#033500;stroke:#033500;stroke-width:1.5;" x="112.58631" xlink:href="#mb97f791bdd" y="135.628518"/>
     <use style="fill:#033500;stroke:#033500;stroke-width:1.5;" x="128.432943" xlink:href="#mb97f791bdd" y="149.545244"/>
     <use style="fill:#033500;stroke:#033500;stroke-width:1.5;" x="147.142194" xlink:href="#mb97f791bdd" y="160.148982"/>
     <use style="fill:#033500;stroke:#033500;stroke-width:1.5;" x="169.32748" xlink:href="#mb97f791bdd" y="167.694558"/>
     <use style="fill:#033500;stroke:#033500;stroke-width:1.5;" x="195.60222" xlink:href="#mb97f791bdd" y="173.157435"/>
     <use style="fill:#033500;stroke:#033500;stroke-width:1.5;" x="226.579832" xlink:href="#mb97f791bdd" y="176.175"/>
    </g>
   </g>
   <g id="PathCollection_2">
    <defs>
     <path d="M -5 0 
L 5 0 
M 0 5 
L 0 -5 
" id="m4b203c09db" style="stroke:#40a368;stroke-width:1.5;"/>
    </defs>
    <g clip-path="url(#pbf7217b1dd)">
     <use style="fill:#40a368;stroke:#40a368;stroke-width:1.5;" x="78.337135" xlink:href="#m4b203c09db" y="18.675"/>
     <use style="fill:#40a368;stroke:#40a368;stroke-width:1.5;" x="87.947351" xlink:href="#m4b203c09db" y="63.850004"/>
     <use style="fill:#40a368;stroke:#40a368;stroke-width:1.5;" x="99.193349" xlink:href="#m4b203c09db" y="99.492003"/>
     <use style="fill:#40a368;stroke:#40a368;stroke-width:1.5;" x="112.58631" xlink:href="#m4b203c09db" y="122.305005"/>
     <use style="fill:#40a368;stroke:#40a368;stroke-width:1.5;" x="128.432943" xlink:href="#m4b203c09db" y="140.622693"/>
     <use style="fill:#40a368;stroke:#40a368;stroke-width:1.5;" x="147.142194" xlink:href="#m4b203c09db" y="154.625041"/>
     <use style="fill:#40a368;stroke:#40a368;stroke-width:1.5;" x="169.32748" xlink:href="#m4b203c09db" y="164.405095"/>
     <use style="fill:#40a368;stroke:#40a368;stroke-width:1.5;" x="195.60222" xlink:href="#m4b203c09db" y="171.29973"/>
     <use style="fill:#40a368;stroke:#40a368;stroke-width:1.5;" x="226.579832" xlink:href="#m4b203c09db" y="175.943121"/>
    </g>
   </g>
   <g id="matplotlib.axis_1">
    <g id="xtick_1">
     <g id="line2d_1">
      <defs>
       <path d="M 0 0 
L 0 3.5 
" id="m204782f30a" style="stroke:#000000;stroke-width:0.8;"/>
      </defs>
      <g>
       <use style="stroke:#000000;stroke-width:0.8;" x="77.314771" xlink:href="#m204782f30a" y="184.05"/>
      </g>
     </g>
     <g id="text_1">
      <!-- 0.05 -->
      <g transform="translate(66.181959 198.648437)scale(0.1 -0.1)">
       <defs>
        <path d="M 31.78125 66.40625 
Q 24.171875 66.40625 20.328125 58.90625 
Q 16.5 51.421875 16.5 36.375 
Q 16.5 21.390625 20.328125 13.890625 
Q 24.171875 6.390625 31.78125 6.390625 
Q 39.453125 6.390625 43.28125 13.890625 
Q 47.125 21.390625 47.125 36.375 
Q 47.125 51.421875 43.28125 58.90625 
Q 39.453125 66.40625 31.78125 66.40625 
z
M 31.78125 74.21875 
Q 44.046875 74.21875 50.515625 64.515625 
Q 56.984375 54.828125 56.984375 36.375 
Q 56.984375 17.96875 50.515625 8.265625 
Q 44.046875 -1.421875 31.78125 -1.421875 
Q 19.53125 -1.421875 13.0625 8.265625 
Q 6.59375 17.96875 6.59375 36.375 
Q 6.59375 54.828125 13.0625 64.515625 
Q 19.53125 74.21875 31.78125 74.21875 
z
" id="DejaVuSans-48"/>
        <path d="M 10.6875 12.40625 
L 21 12.40625 
L 21 0 
L 10.6875 0 
z
" id="DejaVuSans-46"/>
        <path d="M 10.796875 72.90625 
L 49.515625 72.90625 
L 49.515625 64.59375 
L 19.828125 64.59375 
L 19.828125 46.734375 
Q 21.96875 47.46875 24.109375 47.828125 
Q 26.265625 48.1875 28.421875 48.1875 
Q 40.625 48.1875 47.75 41.5 
Q 54.890625 34.8125 54.890625 23.390625 
Q 54.890625 11.625 47.5625 5.09375 
Q 40.234375 -1.421875 26.90625 -1.421875 
Q 22.3125 -1.421875 17.546875 -0.640625 
Q 12.796875 0.140625 7.71875 1.703125 
L 7.71875 11.625 
Q 12.109375 9.234375 16.796875 8.0625 
Q 21.484375 6.890625 26.703125 6.890625 
Q 35.15625 6.890625 40.078125 11.328125 
Q 45.015625 15.765625 45.015625 23.390625 
Q 45.015625 31 40.078125 35.4375 
Q 35.15625 39.890625 26.703125 39.890625 
Q 22.75 39.890625 18.8125 39.015625 
Q 14.890625 38.140625 10.796875 36.28125 
z
" id="DejaVuSans-53"/>
       </defs>
       <use xlink:href="#DejaVuSans-48"/>
       <use x="63.623047" xlink:href="#DejaVuSans-46"/>
       <use x="95.410156" xlink:href="#DejaVuSans-48"/>
       <use x="159.033203" xlink:href="#DejaVuSans-53"/>
      </g>
     </g>
    </g>
    <g id="xtick_2">
     <g id="line2d_2">
      <g>
       <use style="stroke:#000000;stroke-width:0.8;" x="128.432943" xlink:href="#m204782f30a" y="184.05"/>
      </g>
     </g>
     <g id="text_2">
      <!-- 0.10 -->
      <g transform="translate(117.30013 198.648437)scale(0.1 -0.1)">
       <defs>
        <path d="M 12.40625 8.296875 
L 28.515625 8.296875 
L 28.515625 63.921875 
L 10.984375 60.40625 
L 10.984375 69.390625 
L 28.421875 72.90625 
L 38.28125 72.90625 
L 38.28125 8.296875 
L 54.390625 8.296875 
L 54.390625 0 
L 12.40625 0 
z
" id="DejaVuSans-49"/>
       </defs>
       <use xlink:href="#DejaVuSans-48"/>
       <use x="63.623047" xlink:href="#DejaVuSans-46"/>
       <use x="95.410156" xlink:href="#DejaVuSans-49"/>
       <use x="159.033203" xlink:href="#DejaVuSans-48"/>
      </g>
     </g>
    </g>
    <g id="xtick_3">
     <g id="line2d_3">
      <g>
       <use style="stroke:#000000;stroke-width:0.8;" x="179.551114" xlink:href="#m204782f30a" y="184.05"/>
      </g>
     </g>
     <g id="text_3">
      <!-- 0.15 -->
      <g transform="translate(168.418302 198.648437)scale(0.1 -0.1)">
       <use xlink:href="#DejaVuSans-48"/>
       <use x="63.623047" xlink:href="#DejaVuSans-46"/>
       <use x="95.410156" xlink:href="#DejaVuSans-49"/>
       <use x="159.033203" xlink:href="#DejaVuSans-53"/>
      </g>
     </g>
    </g>
    <g id="xtick_4">
     <g id="line2d_4">
      <g>
       <use style="stroke:#000000;stroke-width:0.8;" x="230.669286" xlink:href="#m204782f30a" y="184.05"/>
      </g>
     </g>
     <g id="text_4">
      <!-- 0.20 -->
      <g transform="translate(219.536473 198.648437)scale(0.1 -0.1)">
       <defs>
        <path d="M 19.1875 8.296875 
L 53.609375 8.296875 
L 53.609375 0 
L 7.328125 0 
L 7.328125 8.296875 
Q 12.9375 14.109375 22.625 23.890625 
Q 32.328125 33.6875 34.8125 36.53125 
Q 39.546875 41.84375 41.421875 45.53125 
Q 43.3125 49.21875 43.3125 52.78125 
Q 43.3125 58.59375 39.234375 62.25 
Q 35.15625 65.921875 28.609375 65.921875 
Q 23.96875 65.921875 18.8125 64.3125 
Q 13.671875 62.703125 7.8125 59.421875 
L 7.8125 69.390625 
Q 13.765625 71.78125 18.9375 73 
Q 24.125 74.21875 28.421875 74.21875 
Q 39.75 74.21875 46.484375 68.546875 
Q 53.21875 62.890625 53.21875 53.421875 
Q 53.21875 48.921875 51.53125 44.890625 
Q 49.859375 40.875 45.40625 35.40625 
Q 44.1875 33.984375 37.640625 27.21875 
Q 31.109375 20.453125 19.1875 8.296875 
z
" id="DejaVuSans-50"/>
       </defs>
       <use xlink:href="#DejaVuSans-48"/>
       <use x="63.623047" xlink:href="#DejaVuSans-46"/>
       <use x="95.410156" xlink:href="#DejaVuSans-50"/>
       <use x="159.033203" xlink:href="#DejaVuSans-48"/>
      </g>
     </g>
    </g>
   </g>
   <g id="matplotlib.axis_2">
    <g id="ytick_1">
     <g id="line2d_5">
      <defs>
       <path d="M 0 0 
L -3.5 0 
" id="m145dade1bc" style="stroke:#000000;stroke-width:0.8;"/>
      </defs>
      <g>
       <use style="stroke:#000000;stroke-width:0.8;" x="70.925" xlink:href="#m145dade1bc" y="180.965931"/>
      </g>
     </g>
     <g id="text_5">
      <!-- 0 -->
      <g transform="translate(57.5625 184.76515)scale(0.1 -0.1)">
       <use xlink:href="#DejaVuSans-48"/>
      </g>
     </g>
    </g>
    <g id="ytick_2">
     <g id="line2d_6">
      <g>
       <use style="stroke:#000000;stroke-width:0.8;" x="70.925" xlink:href="#m145dade1bc" y="142.270536"/>
      </g>
     </g>
     <g id="text_6">
      <!-- 10 -->
      <g transform="translate(51.2 146.069755)scale(0.1 -0.1)">
       <use xlink:href="#DejaVuSans-49"/>
       <use x="63.623047" xlink:href="#DejaVuSans-48"/>
      </g>
     </g>
    </g>
    <g id="ytick_3">
     <g id="line2d_7">
      <g>
       <use style="stroke:#000000;stroke-width:0.8;" x="70.925" xlink:href="#m145dade1bc" y="103.57514"/>
      </g>
     </g>
     <g id="text_7">
      <!-- 20 -->
      <g transform="translate(51.2 107.374359)scale(0.1 -0.1)">
       <use xlink:href="#DejaVuSans-50"/>
       <use x="63.623047" xlink:href="#DejaVuSans-48"/>
      </g>
     </g>
    </g>
    <g id="ytick_4">
     <g id="line2d_8">
      <g>
       <use style="stroke:#000000;stroke-width:0.8;" x="70.925" xlink:href="#m145dade1bc" y="64.879745"/>
      </g>
     </g>
     <g id="text_8">
      <!-- 30 -->
      <g transform="translate(51.2 68.678963)scale(0.1 -0.1)">
       <defs>
        <path d="M 40.578125 39.3125 
Q 47.65625 37.796875 51.625 33 
Q 55.609375 28.21875 55.609375 21.1875 
Q 55.609375 10.40625 48.1875 4.484375 
Q 40.765625 -1.421875 27.09375 -1.421875 
Q 22.515625 -1.421875 17.65625 -0.515625 
Q 12.796875 0.390625 7.625 2.203125 
L 7.625 11.71875 
Q 11.71875 9.328125 16.59375 8.109375 
Q 21.484375 6.890625 26.8125 6.890625 
Q 36.078125 6.890625 40.9375 10.546875 
Q 45.796875 14.203125 45.796875 21.1875 
Q 45.796875 27.640625 41.28125 31.265625 
Q 36.765625 34.90625 28.71875 34.90625 
L 20.21875 34.90625 
L 20.21875 43.015625 
L 29.109375 43.015625 
Q 36.375 43.015625 40.234375 45.921875 
Q 44.09375 48.828125 44.09375 54.296875 
Q 44.09375 59.90625 40.109375 62.90625 
Q 36.140625 65.921875 28.71875 65.921875 
Q 24.65625 65.921875 20.015625 65.03125 
Q 15.375 64.15625 9.8125 62.3125 
L 9.8125 71.09375 
Q 15.4375 72.65625 20.34375 73.4375 
Q 25.25 74.21875 29.59375 74.21875 
Q 40.828125 74.21875 47.359375 69.109375 
Q 53.90625 64.015625 53.90625 55.328125 
Q 53.90625 49.265625 50.4375 45.09375 
Q 46.96875 40.921875 40.578125 39.3125 
z
" id="DejaVuSans-51"/>
       </defs>
       <use xlink:href="#DejaVuSans-51"/>
       <use x="63.623047" xlink:href="#DejaVuSans-48"/>
      </g>
     </g>
    </g>
    <g id="ytick_5">
     <g id="line2d_9">
      <g>
       <use style="stroke:#000000;stroke-width:0.8;" x="70.925" xlink:href="#m145dade1bc" y="26.184349"/>
      </g>
     </g>
     <g id="text_9">
      <!-- 40 -->
      <g transform="translate(51.2 29.983568)scale(0.1 -0.1)">
       <defs>
        <path d="M 37.796875 64.3125 
L 12.890625 25.390625 
L 37.796875 25.390625 
z
M 35.203125 72.90625 
L 47.609375 72.90625 
L 47.609375 25.390625 
L 58.015625 25.390625 
L 58.015625 17.1875 
L 47.609375 17.1875 
L 47.609375 0 
L 37.796875 0 
L 37.796875 17.1875 
L 4.890625 17.1875 
L 4.890625 26.703125 
z
" id="DejaVuSans-52"/>
       </defs>
       <use xlink:href="#DejaVuSans-52"/>
       <use x="63.623047" xlink:href="#DejaVuSans-48"/>
      </g>
     </g>
    </g>
    <g id="text_10">
     <!-- $r_0$ -->
     <g transform="translate(44.704375 102.765)rotate(-90)scale(0.12 -0.12)">
      <defs>
       <path d="M 44.578125 46.390625 
Q 43.21875 47.125 41.453125 47.515625 
Q 39.703125 47.90625 37.703125 47.90625 
Q 30.515625 47.90625 25.140625 42.453125 
Q 19.78125 37.015625 18.015625 27.875 
L 12.5 0 
L 3.515625 0 
L 14.203125 54.6875 
L 23.1875 54.6875 
L 21.484375 46.1875 
Q 25.046875 50.921875 30 53.453125 
Q 34.96875 56 40.578125 56 
Q 42.046875 56 43.453125 55.828125 
Q 44.875 55.671875 46.296875 55.28125 
z
" id="DejaVuSans-Oblique-114"/>
      </defs>
      <use xlink:href="#DejaVuSans-Oblique-114"/>
      <use transform="translate(41.113281 -16.40625)scale(0.7)" xlink:href="#DejaVuSans-48"/>
     </g>
    </g>
   </g>
   <g id="line2d_10">
    <path clip-path="url(#pbf7217b1dd)" d="M 78.337135 59.307221 
L 87.947351 92.473755 
L 99.193349 117.367386 
L 112.58631 135.628518 
L 128.432943 149.545244 
L 147.142194 160.148982 
L 169.32748 167.694558 
L 195.60222 173.157435 
L 226.579832 176.175 
" style="fill:none;stroke:#033500;stroke-linecap:square;stroke-width:1.5;"/>
   </g>
   <g id="line2d_11">
    <path clip-path="url(#pbf7217b1dd)" d="M 78.337135 18.675 
L 87.947351 63.850004 
L 99.193349 99.492003 
L 112.58631 122.305005 
L 128.432943 140.622693 
L 147.142194 154.625041 
L 169.32748 164.405095 
L 195.60222 171.29973 
L 226.579832 175.943121 
" style="fill:none;stroke:#40a368;stroke-linecap:square;stroke-width:1.5;"/>
   </g>
   <g id="patch_3">
    <path d="M 70.925 184.05 
L 70.925 10.8 
" style="fill:none;stroke:#000000;stroke-linecap:square;stroke-linejoin:miter;stroke-width:0.8;"/>
   </g>
   <g id="patch_4">
    <path d="M 233.991967 184.05 
L 233.991967 10.8 
" style="fill:none;stroke:#000000;stroke-linecap:square;stroke-linejoin:miter;stroke-width:0.8;"/>
   </g>
   <g id="patch_5">
    <path d="M 70.925 184.05 
L 233.991967 184.05 
" style="fill:none;stroke:#000000;stroke-linecap:square;stroke-linejoin:miter;stroke-width:0.8;"/>
   </g>
   <g id="patch_6">
    <path d="M 70.925 10.8 
L 233.991967 10.8 
" style="fill:none;stroke:#000000;stroke-linecap:square;stroke-linejoin:miter;stroke-width:0.8;"/>
   </g>
   <g id="legend_1">
    <g id="patch_7">
     <path d="M 139.091967 48.15625 
L 226.991967 48.15625 
Q 228.991967 48.15625 228.991967 46.15625 
L 228.991967 17.8 
Q 228.991967 15.8 226.991967 15.8 
L 139.091967 15.8 
Q 137.091967 15.8 137.091967 17.8 
L 137.091967 46.15625 
Q 137.091967 48.15625 139.091967 48.15625 
z
" style="fill:#ffffff;opacity:0.8;stroke:#cccccc;stroke-linejoin:miter;"/>
    </g>
    <g id="PathCollection_3">
     <g>
      <use style="fill:#033500;stroke:#033500;stroke-width:1.5;" x="151.091967" xlink:href="#mb97f791bdd" y="24.773438"/>
     </g>
    </g>
    <g id="text_11">
     <!-- $Nh$=1e+08 -->
     <g transform="translate(169.091967 27.398438)scale(0.1 -0.1)">
      <defs>
       <path d="M 16.890625 72.90625 
L 30.171875 72.90625 
L 50.296875 10.40625 
L 62.5 72.90625 
L 72.125 72.90625 
L 57.90625 0 
L 44.578125 0 
L 24.515625 62.890625 
L 12.3125 0 
L 2.6875 0 
z
" id="DejaVuSans-Oblique-78"/>
       <path d="M 55.71875 33.015625 
L 49.3125 0 
L 40.28125 0 
L 46.6875 32.671875 
Q 47.125 34.96875 47.359375 36.71875 
Q 47.609375 38.484375 47.609375 39.5 
Q 47.609375 43.609375 45.015625 45.890625 
Q 42.4375 48.1875 37.796875 48.1875 
Q 30.5625 48.1875 25.265625 43.296875 
Q 19.96875 38.421875 18.40625 30.328125 
L 12.5 0 
L 3.515625 0 
L 18.3125 75.984375 
L 27.296875 75.984375 
L 21.484375 46.09375 
Q 24.90625 50.6875 30.21875 53.34375 
Q 35.546875 56 41.40625 56 
Q 48.640625 56 52.609375 52.09375 
Q 56.59375 48.1875 56.59375 41.109375 
Q 56.59375 39.359375 56.375 37.359375 
Q 56.15625 35.359375 55.71875 33.015625 
z
" id="DejaVuSans-Oblique-104"/>
       <path d="M 10.59375 45.40625 
L 73.1875 45.40625 
L 73.1875 37.203125 
L 10.59375 37.203125 
z
M 10.59375 25.484375 
L 73.1875 25.484375 
L 73.1875 17.1875 
L 10.59375 17.1875 
z
" id="DejaVuSans-61"/>
       <path d="M 56.203125 29.59375 
L 56.203125 25.203125 
L 14.890625 25.203125 
Q 15.484375 15.921875 20.484375 11.0625 
Q 25.484375 6.203125 34.421875 6.203125 
Q 39.59375 6.203125 44.453125 7.46875 
Q 49.3125 8.734375 54.109375 11.28125 
L 54.109375 2.78125 
Q 49.265625 0.734375 44.1875 -0.34375 
Q 39.109375 -1.421875 33.890625 -1.421875 
Q 20.796875 -1.421875 13.15625 6.1875 
Q 5.515625 13.8125 5.515625 26.8125 
Q 5.515625 40.234375 12.765625 48.109375 
Q 20.015625 56 32.328125 56 
Q 43.359375 56 49.78125 48.890625 
Q 56.203125 41.796875 56.203125 29.59375 
z
M 47.21875 32.234375 
Q 47.125 39.59375 43.09375 43.984375 
Q 39.0625 48.390625 32.421875 48.390625 
Q 24.90625 48.390625 20.390625 44.140625 
Q 15.875 39.890625 15.1875 32.171875 
z
" id="DejaVuSans-101"/>
       <path d="M 46 62.703125 
L 46 35.5 
L 73.1875 35.5 
L 73.1875 27.203125 
L 46 27.203125 
L 46 0 
L 37.796875 0 
L 37.796875 27.203125 
L 10.59375 27.203125 
L 10.59375 35.5 
L 37.796875 35.5 
L 37.796875 62.703125 
z
" id="DejaVuSans-43"/>
       <path d="M 31.78125 34.625 
Q 24.75 34.625 20.71875 30.859375 
Q 16.703125 27.09375 16.703125 20.515625 
Q 16.703125 13.921875 20.71875 10.15625 
Q 24.75 6.390625 31.78125 6.390625 
Q 38.8125 6.390625 42.859375 10.171875 
Q 46.921875 13.96875 46.921875 20.515625 
Q 46.921875 27.09375 42.890625 30.859375 
Q 38.875 34.625 31.78125 34.625 
z
M 21.921875 38.8125 
Q 15.578125 40.375 12.03125 44.71875 
Q 8.5 49.078125 8.5 55.328125 
Q 8.5 64.0625 14.71875 69.140625 
Q 20.953125 74.21875 31.78125 74.21875 
Q 42.671875 74.21875 48.875 69.140625 
Q 55.078125 64.0625 55.078125 55.328125 
Q 55.078125 49.078125 51.53125 44.71875 
Q 48 40.375 41.703125 38.8125 
Q 48.828125 37.15625 52.796875 32.3125 
Q 56.78125 27.484375 56.78125 20.515625 
Q 56.78125 9.90625 50.3125 4.234375 
Q 43.84375 -1.421875 31.78125 -1.421875 
Q 19.734375 -1.421875 13.25 4.234375 
Q 6.78125 9.90625 6.78125 20.515625 
Q 6.78125 27.484375 10.78125 32.3125 
Q 14.796875 37.15625 21.921875 38.8125 
z
M 18.3125 54.390625 
Q 18.3125 48.734375 21.84375 45.5625 
Q 25.390625 42.390625 31.78125 42.390625 
Q 38.140625 42.390625 41.71875 45.5625 
Q 45.3125 48.734375 45.3125 54.390625 
Q 45.3125 60.0625 41.71875 63.234375 
Q 38.140625 66.40625 31.78125 66.40625 
Q 25.390625 66.40625 21.84375 63.234375 
Q 18.3125 60.0625 18.3125 54.390625 
z
" id="DejaVuSans-56"/>
      </defs>
      <use transform="translate(0 0.015625)" xlink:href="#DejaVuSans-Oblique-78"/>
      <use transform="translate(74.804688 0.015625)" xlink:href="#DejaVuSans-Oblique-104"/>
      <use transform="translate(138.183594 0.015625)" xlink:href="#DejaVuSans-61"/>
      <use transform="translate(221.972656 0.015625)" xlink:href="#DejaVuSans-49"/>
      <use transform="translate(285.595703 0.015625)" xlink:href="#DejaVuSans-101"/>
      <use transform="translate(347.119141 0.015625)" xlink:href="#DejaVuSans-43"/>
      <use transform="translate(430.908203 0.015625)" xlink:href="#DejaVuSans-48"/>
      <use transform="translate(494.53125 0.015625)" xlink:href="#DejaVuSans-56"/>
     </g>
    </g>
    <g id="PathCollection_4">
     <g>
      <use style="fill:#40a368;stroke:#40a368;stroke-width:1.5;" x="151.091967" xlink:href="#m4b203c09db" y="39.451563"/>
     </g>
    </g>
    <g id="text_12">
     <!-- $Nh$=1e+09 -->
     <g transform="translate(169.091967 42.076563)scale(0.1 -0.1)">
      <defs>
       <path d="M 10.984375 1.515625 
L 10.984375 10.5 
Q 14.703125 8.734375 18.5 7.8125 
Q 22.3125 6.890625 25.984375 6.890625 
Q 35.75 6.890625 40.890625 13.453125 
Q 46.046875 20.015625 46.78125 33.40625 
Q 43.953125 29.203125 39.59375 26.953125 
Q 35.25 24.703125 29.984375 24.703125 
Q 19.046875 24.703125 12.671875 31.3125 
Q 6.296875 37.9375 6.296875 49.421875 
Q 6.296875 60.640625 12.9375 67.421875 
Q 19.578125 74.21875 30.609375 74.21875 
Q 43.265625 74.21875 49.921875 64.515625 
Q 56.59375 54.828125 56.59375 36.375 
Q 56.59375 19.140625 48.40625 8.859375 
Q 40.234375 -1.421875 26.421875 -1.421875 
Q 22.703125 -1.421875 18.890625 -0.6875 
Q 15.09375 0.046875 10.984375 1.515625 
z
M 30.609375 32.421875 
Q 37.25 32.421875 41.125 36.953125 
Q 45.015625 41.5 45.015625 49.421875 
Q 45.015625 57.28125 41.125 61.84375 
Q 37.25 66.40625 30.609375 66.40625 
Q 23.96875 66.40625 20.09375 61.84375 
Q 16.21875 57.28125 16.21875 49.421875 
Q 16.21875 41.5 20.09375 36.953125 
Q 23.96875 32.421875 30.609375 32.421875 
z
" id="DejaVuSans-57"/>
      </defs>
      <use transform="translate(0 0.015625)" xlink:href="#DejaVuSans-Oblique-78"/>
      <use transform="translate(74.804688 0.015625)" xlink:href="#DejaVuSans-Oblique-104"/>
      <use transform="translate(138.183594 0.015625)" xlink:href="#DejaVuSans-61"/>
      <use transform="translate(221.972656 0.015625)" xlink:href="#DejaVuSans-49"/>
      <use transform="translate(285.595703 0.015625)" xlink:href="#DejaVuSans-101"/>
      <use transform="translate(347.119141 0.015625)" xlink:href="#DejaVuSans-43"/>
      <use transform="translate(430.908203 0.015625)" xlink:href="#DejaVuSans-48"/>
      <use transform="translate(494.53125 0.015625)" xlink:href="#DejaVuSans-57"/>
     </g>
    </g>
   </g>
  </g>
  <g id="axes_2">
   <g id="patch_8">
    <path d="M 70.925 385.1 
L 233.991967 385.1 
L 233.991967 211.85 
L 70.925 211.85 
z
" style="fill:#ffffff;"/>
   </g>
   <g id="PathCollection_5">
    <g clip-path="url(#p3dd6c92e6b)">
     <use style="fill:#033500;stroke:#033500;stroke-width:1.5;" x="78.337135" xlink:href="#mb97f791bdd" y="220.430102"/>
     <use style="fill:#033500;stroke:#033500;stroke-width:1.5;" x="87.947351" xlink:href="#mb97f791bdd" y="253.531024"/>
     <use style="fill:#033500;stroke:#033500;stroke-width:1.5;" x="99.193349" xlink:href="#mb97f791bdd" y="281.548538"/>
     <use style="fill:#033500;stroke:#033500;stroke-width:1.5;" x="112.58631" xlink:href="#mb97f791bdd" y="303.69783"/>
     <use style="fill:#033500;stroke:#033500;stroke-width:1.5;" x="128.432943" xlink:href="#mb97f791bdd" y="323.446263"/>
     <use style="fill:#033500;stroke:#033500;stroke-width:1.5;" x="147.142194" xlink:href="#mb97f791bdd" y="340.728534"/>
     <use style="fill:#033500;stroke:#033500;stroke-width:1.5;" x="169.32748" xlink:href="#mb97f791bdd" y="354.892021"/>
     <use style="fill:#033500;stroke:#033500;stroke-width:1.5;" x="195.60222" xlink:href="#mb97f791bdd" y="367.373336"/>
     <use style="fill:#033500;stroke:#033500;stroke-width:1.5;" x="226.579832" xlink:href="#mb97f791bdd" y="376.321147"/>
    </g>
   </g>
   <g id="PathCollection_6">
    <g clip-path="url(#p3dd6c92e6b)">
     <use style="fill:#40a368;stroke:#40a368;stroke-width:1.5;" x="78.337135" xlink:href="#m4b203c09db" y="219.725"/>
     <use style="fill:#40a368;stroke:#40a368;stroke-width:1.5;" x="87.947351" xlink:href="#m4b203c09db" y="252.888175"/>
     <use style="fill:#40a368;stroke:#40a368;stroke-width:1.5;" x="99.193349" xlink:href="#m4b203c09db" y="281.84529"/>
     <use style="fill:#40a368;stroke:#40a368;stroke-width:1.5;" x="112.58631" xlink:href="#m4b203c09db" y="303.116257"/>
     <use style="fill:#40a368;stroke:#40a368;stroke-width:1.5;" x="128.432943" xlink:href="#m4b203c09db" y="322.961904"/>
     <use style="fill:#40a368;stroke:#40a368;stroke-width:1.5;" x="147.142194" xlink:href="#m4b203c09db" y="340.489232"/>
     <use style="fill:#40a368;stroke:#40a368;stroke-width:1.5;" x="169.32748" xlink:href="#m4b203c09db" y="354.700763"/>
     <use style="fill:#40a368;stroke:#40a368;stroke-width:1.5;" x="195.60222" xlink:href="#m4b203c09db" y="367.257024"/>
     <use style="fill:#40a368;stroke:#40a368;stroke-width:1.5;" x="226.579832" xlink:href="#m4b203c09db" y="377.225"/>
    </g>
   </g>
   <g id="matplotlib.axis_3">
    <g id="xtick_5">
     <g id="line2d_12">
      <g>
       <use style="stroke:#000000;stroke-width:0.8;" x="77.314771" xlink:href="#m204782f30a" y="385.1"/>
      </g>
     </g>
     <g id="text_13">
      <!-- 0.05 -->
      <g transform="translate(66.181959 399.698437)scale(0.1 -0.1)">
       <use xlink:href="#DejaVuSans-48"/>
       <use x="63.623047" xlink:href="#DejaVuSans-46"/>
       <use x="95.410156" xlink:href="#DejaVuSans-48"/>
       <use x="159.033203" xlink:href="#DejaVuSans-53"/>
      </g>
     </g>
    </g>
    <g id="xtick_6">
     <g id="line2d_13">
      <g>
       <use style="stroke:#000000;stroke-width:0.8;" x="128.432943" xlink:href="#m204782f30a" y="385.1"/>
      </g>
     </g>
     <g id="text_14">
      <!-- 0.10 -->
      <g transform="translate(117.30013 399.698437)scale(0.1 -0.1)">
       <use xlink:href="#DejaVuSans-48"/>
       <use x="63.623047" xlink:href="#DejaVuSans-46"/>
       <use x="95.410156" xlink:href="#DejaVuSans-49"/>
       <use x="159.033203" xlink:href="#DejaVuSans-48"/>
      </g>
     </g>
    </g>
    <g id="xtick_7">
     <g id="line2d_14">
      <g>
       <use style="stroke:#000000;stroke-width:0.8;" x="179.551114" xlink:href="#m204782f30a" y="385.1"/>
      </g>
     </g>
     <g id="text_15">
      <!-- 0.15 -->
      <g transform="translate(168.418302 399.698437)scale(0.1 -0.1)">
       <use xlink:href="#DejaVuSans-48"/>
       <use x="63.623047" xlink:href="#DejaVuSans-46"/>
       <use x="95.410156" xlink:href="#DejaVuSans-49"/>
       <use x="159.033203" xlink:href="#DejaVuSans-53"/>
      </g>
     </g>
    </g>
    <g id="xtick_8">
     <g id="line2d_15">
      <g>
       <use style="stroke:#000000;stroke-width:0.8;" x="230.669286" xlink:href="#m204782f30a" y="385.1"/>
      </g>
     </g>
     <g id="text_16">
      <!-- 0.20 -->
      <g transform="translate(219.536473 399.698437)scale(0.1 -0.1)">
       <use xlink:href="#DejaVuSans-48"/>
       <use x="63.623047" xlink:href="#DejaVuSans-46"/>
       <use x="95.410156" xlink:href="#DejaVuSans-50"/>
       <use x="159.033203" xlink:href="#DejaVuSans-48"/>
      </g>
     </g>
    </g>
    <g id="text_17">
     <!-- $U_d$ -->
     <g transform="translate(145.198484 414.89625)scale(0.12 -0.12)">
      <defs>
       <path d="M 15.484375 72.90625 
L 25.390625 72.90625 
L 16.796875 28.609375 
Q 16.265625 25.640625 16.046875 23.703125 
Q 15.828125 21.78125 15.828125 20.3125 
Q 15.828125 13.578125 19.578125 10.078125 
Q 23.34375 6.59375 30.609375 6.59375 
Q 40.046875 6.59375 45.28125 11.765625 
Q 50.53125 16.9375 52.78125 28.609375 
L 61.375 72.90625 
L 71.296875 72.90625 
L 62.5 27.390625 
Q 59.625 12.640625 51.5625 5.609375 
Q 43.5 -1.421875 29.5 -1.421875 
Q 18.5625 -1.421875 12.1875 4.078125 
Q 5.8125 9.578125 5.8125 19 
Q 5.8125 20.703125 6.046875 22.828125 
Q 6.296875 24.953125 6.78125 27.390625 
z
" id="DejaVuSans-Oblique-85"/>
       <path d="M 41.796875 8.203125 
Q 38.1875 3.46875 33.25 1.015625 
Q 28.328125 -1.421875 22.3125 -1.421875 
Q 14.109375 -1.421875 9.34375 4.171875 
Q 4.59375 9.765625 4.59375 19.484375 
Q 4.59375 27.59375 7.46875 34.9375 
Q 10.359375 42.28125 15.828125 48.09375 
Q 19.4375 51.953125 23.96875 53.96875 
Q 28.515625 56 33.5 56 
Q 38.765625 56 42.796875 53.453125 
Q 46.828125 50.921875 49.03125 46.1875 
L 54.890625 75.984375 
L 63.921875 75.984375 
L 49.125 0 
L 40.09375 0 
z
M 13.921875 21.09375 
Q 13.921875 14.015625 17.109375 10.0625 
Q 20.3125 6.109375 25.984375 6.109375 
Q 30.171875 6.109375 33.765625 8.125 
Q 37.359375 10.15625 40.09375 14.109375 
Q 42.96875 18.21875 44.625 23.578125 
Q 46.296875 28.953125 46.296875 34.1875 
Q 46.296875 40.96875 43.09375 44.765625 
Q 39.890625 48.578125 34.28125 48.578125 
Q 30.03125 48.578125 26.359375 46.578125 
Q 22.703125 44.578125 20.125 40.828125 
Q 17.28125 36.765625 15.59375 31.390625 
Q 13.921875 26.03125 13.921875 21.09375 
z
" id="DejaVuSans-Oblique-100"/>
      </defs>
      <use transform="translate(0 0.09375)" xlink:href="#DejaVuSans-Oblique-85"/>
      <use transform="translate(73.193359 -16.3125)scale(0.7)" xlink:href="#DejaVuSans-Oblique-100"/>
     </g>
    </g>
   </g>
   <g id="matplotlib.axis_4">
    <g id="ytick_6">
     <g id="line2d_16">
      <g>
       <use style="stroke:#000000;stroke-width:0.8;" x="70.925" xlink:href="#m145dade1bc" y="384.43269"/>
      </g>
     </g>
     <g id="text_18">
      <!-- 0.00025 -->
      <g transform="translate(22.571875 388.231909)scale(0.1 -0.1)">
       <use xlink:href="#DejaVuSans-48"/>
       <use x="63.623047" xlink:href="#DejaVuSans-46"/>
       <use x="95.410156" xlink:href="#DejaVuSans-48"/>
       <use x="159.033203" xlink:href="#DejaVuSans-48"/>
       <use x="222.65625" xlink:href="#DejaVuSans-48"/>
       <use x="286.279297" xlink:href="#DejaVuSans-50"/>
       <use x="349.902344" xlink:href="#DejaVuSans-53"/>
      </g>
     </g>
    </g>
    <g id="ytick_7">
     <g id="line2d_17">
      <g>
       <use style="stroke:#000000;stroke-width:0.8;" x="70.925" xlink:href="#m145dade1bc" y="360.758698"/>
      </g>
     </g>
     <g id="text_19">
      <!-- 0.00050 -->
      <g transform="translate(22.571875 364.557917)scale(0.1 -0.1)">
       <use xlink:href="#DejaVuSans-48"/>
       <use x="63.623047" xlink:href="#DejaVuSans-46"/>
       <use x="95.410156" xlink:href="#DejaVuSans-48"/>
       <use x="159.033203" xlink:href="#DejaVuSans-48"/>
       <use x="222.65625" xlink:href="#DejaVuSans-48"/>
       <use x="286.279297" xlink:href="#DejaVuSans-53"/>
       <use x="349.902344" xlink:href="#DejaVuSans-48"/>
      </g>
     </g>
    </g>
    <g id="ytick_8">
     <g id="line2d_18">
      <g>
       <use style="stroke:#000000;stroke-width:0.8;" x="70.925" xlink:href="#m145dade1bc" y="337.084707"/>
      </g>
     </g>
     <g id="text_20">
      <!-- 0.00075 -->
      <g transform="translate(22.571875 340.883925)scale(0.1 -0.1)">
       <defs>
        <path d="M 8.203125 72.90625 
L 55.078125 72.90625 
L 55.078125 68.703125 
L 28.609375 0 
L 18.3125 0 
L 43.21875 64.59375 
L 8.203125 64.59375 
z
" id="DejaVuSans-55"/>
       </defs>
       <use xlink:href="#DejaVuSans-48"/>
       <use x="63.623047" xlink:href="#DejaVuSans-46"/>
       <use x="95.410156" xlink:href="#DejaVuSans-48"/>
       <use x="159.033203" xlink:href="#DejaVuSans-48"/>
       <use x="222.65625" xlink:href="#DejaVuSans-48"/>
       <use x="286.279297" xlink:href="#DejaVuSans-55"/>
       <use x="349.902344" xlink:href="#DejaVuSans-53"/>
      </g>
     </g>
    </g>
    <g id="ytick_9">
     <g id="line2d_19">
      <g>
       <use style="stroke:#000000;stroke-width:0.8;" x="70.925" xlink:href="#m145dade1bc" y="313.410715"/>
      </g>
     </g>
     <g id="text_21">
      <!-- 0.00100 -->
      <g transform="translate(22.571875 317.209934)scale(0.1 -0.1)">
       <use xlink:href="#DejaVuSans-48"/>
       <use x="63.623047" xlink:href="#DejaVuSans-46"/>
       <use x="95.410156" xlink:href="#DejaVuSans-48"/>
       <use x="159.033203" xlink:href="#DejaVuSans-48"/>
       <use x="222.65625" xlink:href="#DejaVuSans-49"/>
       <use x="286.279297" xlink:href="#DejaVuSans-48"/>
       <use x="349.902344" xlink:href="#DejaVuSans-48"/>
      </g>
     </g>
    </g>
    <g id="ytick_10">
     <g id="line2d_20">
      <g>
       <use style="stroke:#000000;stroke-width:0.8;" x="70.925" xlink:href="#m145dade1bc" y="289.736724"/>
      </g>
     </g>
     <g id="text_22">
      <!-- 0.00125 -->
      <g transform="translate(22.571875 293.535942)scale(0.1 -0.1)">
       <use xlink:href="#DejaVuSans-48"/>
       <use x="63.623047" xlink:href="#DejaVuSans-46"/>
       <use x="95.410156" xlink:href="#DejaVuSans-48"/>
       <use x="159.033203" xlink:href="#DejaVuSans-48"/>
       <use x="222.65625" xlink:href="#DejaVuSans-49"/>
       <use x="286.279297" xlink:href="#DejaVuSans-50"/>
       <use x="349.902344" xlink:href="#DejaVuSans-53"/>
      </g>
     </g>
    </g>
    <g id="ytick_11">
     <g id="line2d_21">
      <g>
       <use style="stroke:#000000;stroke-width:0.8;" x="70.925" xlink:href="#m145dade1bc" y="266.062732"/>
      </g>
     </g>
     <g id="text_23">
      <!-- 0.00150 -->
      <g transform="translate(22.571875 269.861951)scale(0.1 -0.1)">
       <use xlink:href="#DejaVuSans-48"/>
       <use x="63.623047" xlink:href="#DejaVuSans-46"/>
       <use x="95.410156" xlink:href="#DejaVuSans-48"/>
       <use x="159.033203" xlink:href="#DejaVuSans-48"/>
       <use x="222.65625" xlink:href="#DejaVuSans-49"/>
       <use x="286.279297" xlink:href="#DejaVuSans-53"/>
       <use x="349.902344" xlink:href="#DejaVuSans-48"/>
      </g>
     </g>
    </g>
    <g id="ytick_12">
     <g id="line2d_22">
      <g>
       <use style="stroke:#000000;stroke-width:0.8;" x="70.925" xlink:href="#m145dade1bc" y="242.38874"/>
      </g>
     </g>
     <g id="text_24">
      <!-- 0.00175 -->
      <g transform="translate(22.571875 246.187959)scale(0.1 -0.1)">
       <use xlink:href="#DejaVuSans-48"/>
       <use x="63.623047" xlink:href="#DejaVuSans-46"/>
       <use x="95.410156" xlink:href="#DejaVuSans-48"/>
       <use x="159.033203" xlink:href="#DejaVuSans-48"/>
       <use x="222.65625" xlink:href="#DejaVuSans-49"/>
       <use x="286.279297" xlink:href="#DejaVuSans-55"/>
       <use x="349.902344" xlink:href="#DejaVuSans-53"/>
      </g>
     </g>
    </g>
    <g id="ytick_13">
     <g id="line2d_23">
      <g>
       <use style="stroke:#000000;stroke-width:0.8;" x="70.925" xlink:href="#m145dade1bc" y="218.714749"/>
      </g>
     </g>
     <g id="text_25">
      <!-- 0.00200 -->
      <g transform="translate(22.571875 222.513968)scale(0.1 -0.1)">
       <use xlink:href="#DejaVuSans-48"/>
       <use x="63.623047" xlink:href="#DejaVuSans-46"/>
       <use x="95.410156" xlink:href="#DejaVuSans-48"/>
       <use x="159.033203" xlink:href="#DejaVuSans-48"/>
       <use x="222.65625" xlink:href="#DejaVuSans-50"/>
       <use x="286.279297" xlink:href="#DejaVuSans-48"/>
       <use x="349.902344" xlink:href="#DejaVuSans-48"/>
      </g>
     </g>
    </g>
    <g id="text_26">
     <!-- $\mu_x$ -->
     <g transform="translate(16.051875 304.955)rotate(-90)scale(0.12 -0.12)">
      <defs>
       <path d="M -1.3125 -20.796875 
L 13.375 54.6875 
L 22.40625 54.6875 
L 15.765625 20.65625 
Q 15.578125 19.625 15.421875 18.359375 
Q 15.28125 17.09375 15.28125 15.828125 
Q 15.28125 11.28125 18.140625 8.828125 
Q 21 6.390625 26.3125 6.390625 
Q 33.546875 6.390625 37.984375 10.484375 
Q 42.4375 14.59375 44 22.796875 
L 50.203125 54.6875 
L 59.1875 54.6875 
L 51.03125 12.640625 
Q 50.828125 11.71875 50.75 11.03125 
Q 50.6875 10.359375 50.6875 9.8125 
Q 50.6875 8.296875 51.296875 7.59375 
Q 51.90625 6.890625 53.21875 6.890625 
Q 53.71875 6.890625 54.5625 7.125 
Q 55.421875 7.375 56.984375 8.015625 
L 55.609375 0.78125 
Q 53.46875 -0.296875 51.515625 -0.859375 
Q 49.5625 -1.421875 47.703125 -1.421875 
Q 44.484375 -1.421875 42.65625 0.625 
Q 40.828125 2.6875 40.828125 6.296875 
Q 38.09375 2.390625 34.296875 0.484375 
Q 30.515625 -1.421875 25.390625 -1.421875 
Q 20.84375 -1.421875 17.453125 0.671875 
Q 14.0625 2.78125 12.984375 6.203125 
L 7.71875 -20.796875 
z
" id="DejaVuSans-Oblique-956"/>
       <path d="M 60.015625 54.6875 
L 34.90625 27.875 
L 50.296875 0 
L 39.984375 0 
L 28.421875 21.6875 
L 8.296875 0 
L -2.59375 0 
L 24.3125 28.8125 
L 10.015625 54.6875 
L 20.3125 54.6875 
L 30.8125 34.90625 
L 49.125 54.6875 
z
" id="DejaVuSans-Oblique-120"/>
      </defs>
      <use transform="translate(0 0.3125)" xlink:href="#DejaVuSans-Oblique-956"/>
      <use transform="translate(63.623047 -16.09375)scale(0.7)" xlink:href="#DejaVuSans-Oblique-120"/>
     </g>
    </g>
   </g>
   <g id="line2d_24">
    <path clip-path="url(#p3dd6c92e6b)" d="M 78.337135 220.430102 
L 87.947351 253.531024 
L 99.193349 281.548538 
L 112.58631 303.69783 
L 128.432943 323.446263 
L 147.142194 340.728534 
L 169.32748 354.892021 
L 195.60222 367.373336 
L 226.579832 376.321147 
" style="fill:none;stroke:#033500;stroke-linecap:square;stroke-width:1.5;"/>
   </g>
   <g id="line2d_25">
    <path clip-path="url(#p3dd6c92e6b)" d="M 78.337135 219.725 
L 87.947351 252.888175 
L 99.193349 281.84529 
L 112.58631 303.116257 
L 128.432943 322.961904 
L 147.142194 340.489232 
L 169.32748 354.700763 
L 195.60222 367.257024 
L 226.579832 377.225 
" style="fill:none;stroke:#40a368;stroke-linecap:square;stroke-width:1.5;"/>
   </g>
   <g id="patch_9">
    <path d="M 70.925 385.1 
L 70.925 211.85 
" style="fill:none;stroke:#000000;stroke-linecap:square;stroke-linejoin:miter;stroke-width:0.8;"/>
   </g>
   <g id="patch_10">
    <path d="M 233.991967 385.1 
L 233.991967 211.85 
" style="fill:none;stroke:#000000;stroke-linecap:square;stroke-linejoin:miter;stroke-width:0.8;"/>
   </g>
   <g id="patch_11">
    <path d="M 70.925 385.1 
L 233.991967 385.1 
" style="fill:none;stroke:#000000;stroke-linecap:square;stroke-linejoin:miter;stroke-width:0.8;"/>
   </g>
   <g id="patch_12">
    <path d="M 70.925 211.85 
L 233.991967 211.85 
" style="fill:none;stroke:#000000;stroke-linecap:square;stroke-linejoin:miter;stroke-width:0.8;"/>
   </g>
  </g>
 </g>
 <defs>
  <clipPath id="pbf7217b1dd">
   <rect height="173.25" width="163.066967" x="70.925" y="10.8"/>
  </clipPath>
  <clipPath id="p3dd6c92e6b">
   <rect height="173.25" width="163.066967" x="70.925" y="211.85"/>
  </clipPath>
 </defs>
</svg>
