<?xml version="1.0" encoding="utf-8" standalone="no"?>
<!DOCTYPE svg PUBLIC "-//W3C//DTD SVG 1.1//EN"
  "http://www.w3.org/Graphics/SVG/1.1/DTD/svg11.dtd">
<!-- Created with matplotlib (https://matplotlib.org/) -->
<svg height="432pt" version="1.1" viewBox="0 0 252 432" width="252pt" xmlns="http://www.w3.org/2000/svg" xmlns:xlink="http://www.w3.org/1999/xlink">
 <metadata>
  <rdf:RDF xmlns:cc="http://creativecommons.org/ns#" xmlns:dc="http://purl.org/dc/elements/1.1/" xmlns:rdf="http://www.w3.org/1999/02/22-rdf-syntax-ns#">
   <cc:Work>
    <dc:type rdf:resource="http://purl.org/dc/dcmitype/StillImage"/>
    <dc:date>2023-07-03T09:46:18.809029</dc:date>
    <dc:format>image/svg+xml</dc:format>
    <dc:creator>
     <cc:Agent>
      <dc:title>Matplotlib v3.3.4, https://matplotlib.org/</dc:title>
     </cc:Agent>
    </dc:creator>
   </cc:Work>
  </rdf:RDF>
 </metadata>
 <defs>
  <style type="text/css">*{stroke-linecap:butt;stroke-linejoin:round;}</style>
 </defs>
 <g id="figure_1">
  <g id="patch_1">
   <path d="M 0 432 
L 252 432 
L 252 0 
L 0 0 
z
" style="fill:none;"/>
  </g>
  <g id="axes_1">
   <g id="patch_2">
    <path d="M 57.175 184.05 
L 233.991967 184.05 
L 233.991967 10.8 
L 57.175 10.8 
z
" style="fill:#ffffff;"/>
   </g>
   <g id="PathCollection_1">
    <defs>
     <path d="M -5 5 
L 5 -5 
M -5 -5 
L 5 5 
" id="mc3ebedeee0" style="stroke:#033500;stroke-width:1.5;"/>
    </defs>
    <g clip-path="url(#p8e54998a4e)">
     <use style="fill:#033500;stroke:#033500;stroke-width:1.5;" x="65.212135" xlink:href="#mc3ebedeee0" y="173.96168"/>
     <use style="fill:#033500;stroke:#033500;stroke-width:1.5;" x="75.632696" xlink:href="#mc3ebedeee0" y="170.942911"/>
     <use style="fill:#033500;stroke:#033500;stroke-width:1.5;" x="87.82697" xlink:href="#mc3ebedeee0" y="166.669078"/>
     <use style="fill:#033500;stroke:#033500;stroke-width:1.5;" x="102.349241" xlink:href="#mc3ebedeee0" y="160.695763"/>
     <use style="fill:#033500;stroke:#033500;stroke-width:1.5;" x="119.532081" xlink:href="#mc3ebedeee0" y="151.238121"/>
     <use style="fill:#033500;stroke:#033500;stroke-width:1.5;" x="139.818918" xlink:href="#mc3ebedeee0" y="135.553231"/>
     <use style="fill:#033500;stroke:#033500;stroke-width:1.5;" x="163.874894" xlink:href="#mc3ebedeee0" y="109.728176"/>
     <use style="fill:#033500;stroke:#033500;stroke-width:1.5;" x="192.365151" xlink:href="#mc3ebedeee0" y="58.703725"/>
     <use style="fill:#033500;stroke:#033500;stroke-width:1.5;" x="225.954832" xlink:href="#mc3ebedeee0" y="18.675"/>
    </g>
   </g>
   <g id="PathCollection_2">
    <defs>
     <path d="M -5 0 
L 5 0 
M 0 5 
L 0 -5 
" id="m5fec6cde8f" style="stroke:#40a368;stroke-width:1.5;"/>
    </defs>
    <g clip-path="url(#p8e54998a4e)">
     <use style="fill:#40a368;stroke:#40a368;stroke-width:1.5;" x="65.212135" xlink:href="#m5fec6cde8f" y="176.175"/>
     <use style="fill:#40a368;stroke:#40a368;stroke-width:1.5;" x="75.632696" xlink:href="#m5fec6cde8f" y="173.729618"/>
     <use style="fill:#40a368;stroke:#40a368;stroke-width:1.5;" x="87.82697" xlink:href="#m5fec6cde8f" y="169.951913"/>
     <use style="fill:#40a368;stroke:#40a368;stroke-width:1.5;" x="102.349241" xlink:href="#m5fec6cde8f" y="165.901184"/>
     <use style="fill:#40a368;stroke:#40a368;stroke-width:1.5;" x="119.532081" xlink:href="#m5fec6cde8f" y="158.368649"/>
     <use style="fill:#40a368;stroke:#40a368;stroke-width:1.5;" x="139.818918" xlink:href="#m5fec6cde8f" y="145.591183"/>
     <use style="fill:#40a368;stroke:#40a368;stroke-width:1.5;" x="163.874894" xlink:href="#m5fec6cde8f" y="125.746091"/>
     <use style="fill:#40a368;stroke:#40a368;stroke-width:1.5;" x="192.365151" xlink:href="#m5fec6cde8f" y="84.932902"/>
     <use style="fill:#40a368;stroke:#40a368;stroke-width:1.5;" x="225.954832" xlink:href="#m5fec6cde8f" y="38.997572"/>
    </g>
   </g>
   <g id="matplotlib.axis_1">
    <g id="xtick_1">
     <g id="line2d_1">
      <defs>
       <path d="M 0 0 
L 0 3.5 
" id="m5a35c1df79" style="stroke:#000000;stroke-width:0.8;"/>
      </defs>
      <g>
       <use style="stroke:#000000;stroke-width:0.8;" x="64.103565" xlink:href="#m5a35c1df79" y="184.05"/>
      </g>
     </g>
     <g id="text_1">
      <!-- 0.05 -->
      <g transform="translate(52.970752 198.648438)scale(0.1 -0.1)">
       <defs>
        <path d="M 31.78125 66.40625 
Q 24.171875 66.40625 20.328125 58.90625 
Q 16.5 51.421875 16.5 36.375 
Q 16.5 21.390625 20.328125 13.890625 
Q 24.171875 6.390625 31.78125 6.390625 
Q 39.453125 6.390625 43.28125 13.890625 
Q 47.125 21.390625 47.125 36.375 
Q 47.125 51.421875 43.28125 58.90625 
Q 39.453125 66.40625 31.78125 66.40625 
z
M 31.78125 74.21875 
Q 44.046875 74.21875 50.515625 64.515625 
Q 56.984375 54.828125 56.984375 36.375 
Q 56.984375 17.96875 50.515625 8.265625 
Q 44.046875 -1.421875 31.78125 -1.421875 
Q 19.53125 -1.421875 13.0625 8.265625 
Q 6.59375 17.96875 6.59375 36.375 
Q 6.59375 54.828125 13.0625 64.515625 
Q 19.53125 74.21875 31.78125 74.21875 
z
" id="DejaVuSans-48"/>
        <path d="M 10.6875 12.40625 
L 21 12.40625 
L 21 0 
L 10.6875 0 
z
" id="DejaVuSans-46"/>
        <path d="M 10.796875 72.90625 
L 49.515625 72.90625 
L 49.515625 64.59375 
L 19.828125 64.59375 
L 19.828125 46.734375 
Q 21.96875 47.46875 24.109375 47.828125 
Q 26.265625 48.1875 28.421875 48.1875 
Q 40.625 48.1875 47.75 41.5 
Q 54.890625 34.8125 54.890625 23.390625 
Q 54.890625 11.625 47.5625 5.09375 
Q 40.234375 -1.421875 26.90625 -1.421875 
Q 22.3125 -1.421875 17.546875 -0.640625 
Q 12.796875 0.140625 7.71875 1.703125 
L 7.71875 11.625 
Q 12.109375 9.234375 16.796875 8.0625 
Q 21.484375 6.890625 26.703125 6.890625 
Q 35.15625 6.890625 40.078125 11.328125 
Q 45.015625 15.765625 45.015625 23.390625 
Q 45.015625 31 40.078125 35.4375 
Q 35.15625 39.890625 26.703125 39.890625 
Q 22.75 39.890625 18.8125 39.015625 
Q 14.890625 38.140625 10.796875 36.28125 
z
" id="DejaVuSans-53"/>
       </defs>
       <use xlink:href="#DejaVuSans-48"/>
       <use x="63.623047" xlink:href="#DejaVuSans-46"/>
       <use x="95.410156" xlink:href="#DejaVuSans-48"/>
       <use x="159.033203" xlink:href="#DejaVuSans-53"/>
      </g>
     </g>
    </g>
    <g id="xtick_2">
     <g id="line2d_2">
      <g>
       <use style="stroke:#000000;stroke-width:0.8;" x="119.532081" xlink:href="#m5a35c1df79" y="184.05"/>
      </g>
     </g>
     <g id="text_2">
      <!-- 0.10 -->
      <g transform="translate(108.399268 198.648438)scale(0.1 -0.1)">
       <defs>
        <path d="M 12.40625 8.296875 
L 28.515625 8.296875 
L 28.515625 63.921875 
L 10.984375 60.40625 
L 10.984375 69.390625 
L 28.421875 72.90625 
L 38.28125 72.90625 
L 38.28125 8.296875 
L 54.390625 8.296875 
L 54.390625 0 
L 12.40625 0 
z
" id="DejaVuSans-49"/>
       </defs>
       <use xlink:href="#DejaVuSans-48"/>
       <use x="63.623047" xlink:href="#DejaVuSans-46"/>
       <use x="95.410156" xlink:href="#DejaVuSans-49"/>
       <use x="159.033203" xlink:href="#DejaVuSans-48"/>
      </g>
     </g>
    </g>
    <g id="xtick_3">
     <g id="line2d_3">
      <g>
       <use style="stroke:#000000;stroke-width:0.8;" x="174.960597" xlink:href="#m5a35c1df79" y="184.05"/>
      </g>
     </g>
     <g id="text_3">
      <!-- 0.15 -->
      <g transform="translate(163.827785 198.648438)scale(0.1 -0.1)">
       <use xlink:href="#DejaVuSans-48"/>
       <use x="63.623047" xlink:href="#DejaVuSans-46"/>
       <use x="95.410156" xlink:href="#DejaVuSans-49"/>
       <use x="159.033203" xlink:href="#DejaVuSans-53"/>
      </g>
     </g>
    </g>
    <g id="xtick_4">
     <g id="line2d_4">
      <g>
       <use style="stroke:#000000;stroke-width:0.8;" x="230.389114" xlink:href="#m5a35c1df79" y="184.05"/>
      </g>
     </g>
     <g id="text_4">
      <!-- 0.20 -->
      <g transform="translate(219.256301 198.648438)scale(0.1 -0.1)">
       <defs>
        <path d="M 19.1875 8.296875 
L 53.609375 8.296875 
L 53.609375 0 
L 7.328125 0 
L 7.328125 8.296875 
Q 12.9375 14.109375 22.625 23.890625 
Q 32.328125 33.6875 34.8125 36.53125 
Q 39.546875 41.84375 41.421875 45.53125 
Q 43.3125 49.21875 43.3125 52.78125 
Q 43.3125 58.59375 39.234375 62.25 
Q 35.15625 65.921875 28.609375 65.921875 
Q 23.96875 65.921875 18.8125 64.3125 
Q 13.671875 62.703125 7.8125 59.421875 
L 7.8125 69.390625 
Q 13.765625 71.78125 18.9375 73 
Q 24.125 74.21875 28.421875 74.21875 
Q 39.75 74.21875 46.484375 68.546875 
Q 53.21875 62.890625 53.21875 53.421875 
Q 53.21875 48.921875 51.53125 44.890625 
Q 49.859375 40.875 45.40625 35.40625 
Q 44.1875 33.984375 37.640625 27.21875 
Q 31.109375 20.453125 19.1875 8.296875 
z
" id="DejaVuSans-50"/>
       </defs>
       <use xlink:href="#DejaVuSans-48"/>
       <use x="63.623047" xlink:href="#DejaVuSans-46"/>
       <use x="95.410156" xlink:href="#DejaVuSans-50"/>
       <use x="159.033203" xlink:href="#DejaVuSans-48"/>
      </g>
     </g>
    </g>
   </g>
   <g id="matplotlib.axis_2">
    <g id="ytick_1">
     <g id="line2d_5">
      <defs>
       <path d="M 0 0 
L -3.5 0 
" id="m1ed32967a0" style="stroke:#000000;stroke-width:0.8;"/>
      </defs>
      <g>
       <use style="stroke:#000000;stroke-width:0.8;" x="57.175" xlink:href="#m1ed32967a0" y="181.792164"/>
      </g>
     </g>
     <g id="text_5">
      <!-- 0.00 -->
      <g transform="translate(27.909375 185.591383)scale(0.1 -0.1)">
       <use xlink:href="#DejaVuSans-48"/>
       <use x="63.623047" xlink:href="#DejaVuSans-46"/>
       <use x="95.410156" xlink:href="#DejaVuSans-48"/>
       <use x="159.033203" xlink:href="#DejaVuSans-48"/>
      </g>
     </g>
    </g>
    <g id="ytick_2">
     <g id="line2d_6">
      <g>
       <use style="stroke:#000000;stroke-width:0.8;" x="57.175" xlink:href="#m1ed32967a0" y="143.662611"/>
      </g>
     </g>
     <g id="text_6">
      <!-- 0.05 -->
      <g transform="translate(27.909375 147.46183)scale(0.1 -0.1)">
       <use xlink:href="#DejaVuSans-48"/>
       <use x="63.623047" xlink:href="#DejaVuSans-46"/>
       <use x="95.410156" xlink:href="#DejaVuSans-48"/>
       <use x="159.033203" xlink:href="#DejaVuSans-53"/>
      </g>
     </g>
    </g>
    <g id="ytick_3">
     <g id="line2d_7">
      <g>
       <use style="stroke:#000000;stroke-width:0.8;" x="57.175" xlink:href="#m1ed32967a0" y="105.533059"/>
      </g>
     </g>
     <g id="text_7">
      <!-- 0.10 -->
      <g transform="translate(27.909375 109.332278)scale(0.1 -0.1)">
       <use xlink:href="#DejaVuSans-48"/>
       <use x="63.623047" xlink:href="#DejaVuSans-46"/>
       <use x="95.410156" xlink:href="#DejaVuSans-49"/>
       <use x="159.033203" xlink:href="#DejaVuSans-48"/>
      </g>
     </g>
    </g>
    <g id="ytick_4">
     <g id="line2d_8">
      <g>
       <use style="stroke:#000000;stroke-width:0.8;" x="57.175" xlink:href="#m1ed32967a0" y="67.403506"/>
      </g>
     </g>
     <g id="text_8">
      <!-- 0.15 -->
      <g transform="translate(27.909375 71.202725)scale(0.1 -0.1)">
       <use xlink:href="#DejaVuSans-48"/>
       <use x="63.623047" xlink:href="#DejaVuSans-46"/>
       <use x="95.410156" xlink:href="#DejaVuSans-49"/>
       <use x="159.033203" xlink:href="#DejaVuSans-53"/>
      </g>
     </g>
    </g>
    <g id="ytick_5">
     <g id="line2d_9">
      <g>
       <use style="stroke:#000000;stroke-width:0.8;" x="57.175" xlink:href="#m1ed32967a0" y="29.273954"/>
      </g>
     </g>
     <g id="text_9">
      <!-- 0.20 -->
      <g transform="translate(27.909375 33.073173)scale(0.1 -0.1)">
       <use xlink:href="#DejaVuSans-48"/>
       <use x="63.623047" xlink:href="#DejaVuSans-46"/>
       <use x="95.410156" xlink:href="#DejaVuSans-50"/>
       <use x="159.033203" xlink:href="#DejaVuSans-48"/>
      </g>
     </g>
    </g>
    <g id="text_10">
     <!-- incidence -->
     <g transform="translate(21.41375 126.154688)rotate(-90)scale(0.12 -0.12)">
      <defs>
       <path d="M 9.421875 54.6875 
L 18.40625 54.6875 
L 18.40625 0 
L 9.421875 0 
z
M 9.421875 75.984375 
L 18.40625 75.984375 
L 18.40625 64.59375 
L 9.421875 64.59375 
z
" id="DejaVuSans-105"/>
       <path d="M 54.890625 33.015625 
L 54.890625 0 
L 45.90625 0 
L 45.90625 32.71875 
Q 45.90625 40.484375 42.875 44.328125 
Q 39.84375 48.1875 33.796875 48.1875 
Q 26.515625 48.1875 22.3125 43.546875 
Q 18.109375 38.921875 18.109375 30.90625 
L 18.109375 0 
L 9.078125 0 
L 9.078125 54.6875 
L 18.109375 54.6875 
L 18.109375 46.1875 
Q 21.34375 51.125 25.703125 53.5625 
Q 30.078125 56 35.796875 56 
Q 45.21875 56 50.046875 50.171875 
Q 54.890625 44.34375 54.890625 33.015625 
z
" id="DejaVuSans-110"/>
       <path d="M 48.78125 52.59375 
L 48.78125 44.1875 
Q 44.96875 46.296875 41.140625 47.34375 
Q 37.3125 48.390625 33.40625 48.390625 
Q 24.65625 48.390625 19.8125 42.84375 
Q 14.984375 37.3125 14.984375 27.296875 
Q 14.984375 17.28125 19.8125 11.734375 
Q 24.65625 6.203125 33.40625 6.203125 
Q 37.3125 6.203125 41.140625 7.25 
Q 44.96875 8.296875 48.78125 10.40625 
L 48.78125 2.09375 
Q 45.015625 0.34375 40.984375 -0.53125 
Q 36.96875 -1.421875 32.421875 -1.421875 
Q 20.0625 -1.421875 12.78125 6.34375 
Q 5.515625 14.109375 5.515625 27.296875 
Q 5.515625 40.671875 12.859375 48.328125 
Q 20.21875 56 33.015625 56 
Q 37.15625 56 41.109375 55.140625 
Q 45.0625 54.296875 48.78125 52.59375 
z
" id="DejaVuSans-99"/>
       <path d="M 45.40625 46.390625 
L 45.40625 75.984375 
L 54.390625 75.984375 
L 54.390625 0 
L 45.40625 0 
L 45.40625 8.203125 
Q 42.578125 3.328125 38.25 0.953125 
Q 33.9375 -1.421875 27.875 -1.421875 
Q 17.96875 -1.421875 11.734375 6.484375 
Q 5.515625 14.40625 5.515625 27.296875 
Q 5.515625 40.1875 11.734375 48.09375 
Q 17.96875 56 27.875 56 
Q 33.9375 56 38.25 53.625 
Q 42.578125 51.265625 45.40625 46.390625 
z
M 14.796875 27.296875 
Q 14.796875 17.390625 18.875 11.75 
Q 22.953125 6.109375 30.078125 6.109375 
Q 37.203125 6.109375 41.296875 11.75 
Q 45.40625 17.390625 45.40625 27.296875 
Q 45.40625 37.203125 41.296875 42.84375 
Q 37.203125 48.484375 30.078125 48.484375 
Q 22.953125 48.484375 18.875 42.84375 
Q 14.796875 37.203125 14.796875 27.296875 
z
" id="DejaVuSans-100"/>
       <path d="M 56.203125 29.59375 
L 56.203125 25.203125 
L 14.890625 25.203125 
Q 15.484375 15.921875 20.484375 11.0625 
Q 25.484375 6.203125 34.421875 6.203125 
Q 39.59375 6.203125 44.453125 7.46875 
Q 49.3125 8.734375 54.109375 11.28125 
L 54.109375 2.78125 
Q 49.265625 0.734375 44.1875 -0.34375 
Q 39.109375 -1.421875 33.890625 -1.421875 
Q 20.796875 -1.421875 13.15625 6.1875 
Q 5.515625 13.8125 5.515625 26.8125 
Q 5.515625 40.234375 12.765625 48.109375 
Q 20.015625 56 32.328125 56 
Q 43.359375 56 49.78125 48.890625 
Q 56.203125 41.796875 56.203125 29.59375 
z
M 47.21875 32.234375 
Q 47.125 39.59375 43.09375 43.984375 
Q 39.0625 48.390625 32.421875 48.390625 
Q 24.90625 48.390625 20.390625 44.140625 
Q 15.875 39.890625 15.1875 32.171875 
z
" id="DejaVuSans-101"/>
      </defs>
      <use xlink:href="#DejaVuSans-105"/>
      <use x="27.783203" xlink:href="#DejaVuSans-110"/>
      <use x="91.162109" xlink:href="#DejaVuSans-99"/>
      <use x="146.142578" xlink:href="#DejaVuSans-105"/>
      <use x="173.925781" xlink:href="#DejaVuSans-100"/>
      <use x="237.402344" xlink:href="#DejaVuSans-101"/>
      <use x="298.925781" xlink:href="#DejaVuSans-110"/>
      <use x="362.304688" xlink:href="#DejaVuSans-99"/>
      <use x="417.285156" xlink:href="#DejaVuSans-101"/>
     </g>
    </g>
   </g>
   <g id="line2d_10">
    <path clip-path="url(#p8e54998a4e)" d="M 65.212135 173.96168 
L 75.632696 170.942911 
L 87.82697 166.669078 
L 102.349241 160.695763 
L 119.532081 151.238121 
L 139.818918 135.553231 
L 163.874894 109.728176 
L 192.365151 58.703725 
L 225.954832 18.675 
" style="fill:none;stroke:#033500;stroke-linecap:square;stroke-width:1.5;"/>
   </g>
   <g id="line2d_11">
    <path clip-path="url(#p8e54998a4e)" d="M 65.212135 176.175 
L 75.632696 173.729618 
L 87.82697 169.951913 
L 102.349241 165.901184 
L 119.532081 158.368649 
L 139.818918 145.591183 
L 163.874894 125.746091 
L 192.365151 84.932902 
L 225.954832 38.997572 
" style="fill:none;stroke:#40a368;stroke-linecap:square;stroke-width:1.5;"/>
   </g>
   <g id="patch_3">
    <path d="M 57.175 184.05 
L 57.175 10.8 
" style="fill:none;stroke:#000000;stroke-linecap:square;stroke-linejoin:miter;stroke-width:0.8;"/>
   </g>
   <g id="patch_4">
    <path d="M 233.991967 184.05 
L 233.991967 10.8 
" style="fill:none;stroke:#000000;stroke-linecap:square;stroke-linejoin:miter;stroke-width:0.8;"/>
   </g>
   <g id="patch_5">
    <path d="M 57.175 184.05 
L 233.991967 184.05 
" style="fill:none;stroke:#000000;stroke-linecap:square;stroke-linejoin:miter;stroke-width:0.8;"/>
   </g>
   <g id="patch_6">
    <path d="M 57.175 10.8 
L 233.991967 10.8 
" style="fill:none;stroke:#000000;stroke-linecap:square;stroke-linejoin:miter;stroke-width:0.8;"/>
   </g>
  </g>
  <g id="axes_2">
   <g id="patch_7">
    <path d="M 57.175 385.1 
L 233.991967 385.1 
L 233.991967 211.85 
L 57.175 211.85 
z
" style="fill:#ffffff;"/>
   </g>
   <g id="PathCollection_3">
    <g clip-path="url(#p499ee0246a)">
     <use style="fill:#033500;stroke:#033500;stroke-width:1.5;" x="65.212135" xlink:href="#mc3ebedeee0" y="266.048529"/>
     <use style="fill:#033500;stroke:#033500;stroke-width:1.5;" x="75.632696" xlink:href="#mc3ebedeee0" y="282.17598"/>
     <use style="fill:#033500;stroke:#033500;stroke-width:1.5;" x="87.82697" xlink:href="#mc3ebedeee0" y="295.901471"/>
     <use style="fill:#033500;stroke:#033500;stroke-width:1.5;" x="102.349241" xlink:href="#mc3ebedeee0" y="314.945588"/>
     <use style="fill:#033500;stroke:#033500;stroke-width:1.5;" x="119.532081" xlink:href="#mc3ebedeee0" y="329.014216"/>
     <use style="fill:#033500;stroke:#033500;stroke-width:1.5;" x="139.818918" xlink:href="#mc3ebedeee0" y="342.396569"/>
     <use style="fill:#033500;stroke:#033500;stroke-width:1.5;" x="163.874894" xlink:href="#mc3ebedeee0" y="354.406373"/>
     <use style="fill:#033500;stroke:#033500;stroke-width:1.5;" x="192.365151" xlink:href="#mc3ebedeee0" y="367.27402"/>
     <use style="fill:#033500;stroke:#033500;stroke-width:1.5;" x="225.954832" xlink:href="#mc3ebedeee0" y="377.225"/>
    </g>
   </g>
   <g id="PathCollection_4">
    <g clip-path="url(#p499ee0246a)">
     <use style="fill:#40a368;stroke:#40a368;stroke-width:1.5;" x="65.212135" xlink:href="#m5fec6cde8f" y="219.725"/>
     <use style="fill:#40a368;stroke:#40a368;stroke-width:1.5;" x="75.632696" xlink:href="#m5fec6cde8f" y="242.028922"/>
     <use style="fill:#40a368;stroke:#40a368;stroke-width:1.5;" x="87.82697" xlink:href="#m5fec6cde8f" y="268.793627"/>
     <use style="fill:#40a368;stroke:#40a368;stroke-width:1.5;" x="102.349241" xlink:href="#m5fec6cde8f" y="289.210294"/>
     <use style="fill:#40a368;stroke:#40a368;stroke-width:1.5;" x="119.532081" xlink:href="#m5fec6cde8f" y="308.940686"/>
     <use style="fill:#40a368;stroke:#40a368;stroke-width:1.5;" x="139.818918" xlink:href="#m5fec6cde8f" y="326.783824"/>
     <use style="fill:#40a368;stroke:#40a368;stroke-width:1.5;" x="163.874894" xlink:href="#m5fec6cde8f" y="343.082843"/>
     <use style="fill:#40a368;stroke:#40a368;stroke-width:1.5;" x="192.365151" xlink:href="#m5fec6cde8f" y="358.695588"/>
     <use style="fill:#40a368;stroke:#40a368;stroke-width:1.5;" x="225.954832" xlink:href="#m5fec6cde8f" y="371.220098"/>
    </g>
   </g>
   <g id="matplotlib.axis_3">
    <g id="xtick_5">
     <g id="line2d_12">
      <g>
       <use style="stroke:#000000;stroke-width:0.8;" x="64.103565" xlink:href="#m5a35c1df79" y="385.1"/>
      </g>
     </g>
     <g id="text_11">
      <!-- 0.05 -->
      <g transform="translate(52.970752 399.698438)scale(0.1 -0.1)">
       <use xlink:href="#DejaVuSans-48"/>
       <use x="63.623047" xlink:href="#DejaVuSans-46"/>
       <use x="95.410156" xlink:href="#DejaVuSans-48"/>
       <use x="159.033203" xlink:href="#DejaVuSans-53"/>
      </g>
     </g>
    </g>
    <g id="xtick_6">
     <g id="line2d_13">
      <g>
       <use style="stroke:#000000;stroke-width:0.8;" x="119.532081" xlink:href="#m5a35c1df79" y="385.1"/>
      </g>
     </g>
     <g id="text_12">
      <!-- 0.10 -->
      <g transform="translate(108.399268 399.698438)scale(0.1 -0.1)">
       <use xlink:href="#DejaVuSans-48"/>
       <use x="63.623047" xlink:href="#DejaVuSans-46"/>
       <use x="95.410156" xlink:href="#DejaVuSans-49"/>
       <use x="159.033203" xlink:href="#DejaVuSans-48"/>
      </g>
     </g>
    </g>
    <g id="xtick_7">
     <g id="line2d_14">
      <g>
       <use style="stroke:#000000;stroke-width:0.8;" x="174.960597" xlink:href="#m5a35c1df79" y="385.1"/>
      </g>
     </g>
     <g id="text_13">
      <!-- 0.15 -->
      <g transform="translate(163.827785 399.698438)scale(0.1 -0.1)">
       <use xlink:href="#DejaVuSans-48"/>
       <use x="63.623047" xlink:href="#DejaVuSans-46"/>
       <use x="95.410156" xlink:href="#DejaVuSans-49"/>
       <use x="159.033203" xlink:href="#DejaVuSans-53"/>
      </g>
     </g>
    </g>
    <g id="xtick_8">
     <g id="line2d_15">
      <g>
       <use style="stroke:#000000;stroke-width:0.8;" x="230.389114" xlink:href="#m5a35c1df79" y="385.1"/>
      </g>
     </g>
     <g id="text_14">
      <!-- 0.20 -->
      <g transform="translate(219.256301 399.698438)scale(0.1 -0.1)">
       <use xlink:href="#DejaVuSans-48"/>
       <use x="63.623047" xlink:href="#DejaVuSans-46"/>
       <use x="95.410156" xlink:href="#DejaVuSans-50"/>
       <use x="159.033203" xlink:href="#DejaVuSans-48"/>
      </g>
     </g>
    </g>
    <g id="text_15">
     <!-- $U_d$ -->
     <g transform="translate(138.323484 414.89625)scale(0.12 -0.12)">
      <defs>
       <path d="M 15.484375 72.90625 
L 25.390625 72.90625 
L 16.796875 28.609375 
Q 16.265625 25.640625 16.046875 23.703125 
Q 15.828125 21.78125 15.828125 20.3125 
Q 15.828125 13.578125 19.578125 10.078125 
Q 23.34375 6.59375 30.609375 6.59375 
Q 40.046875 6.59375 45.28125 11.765625 
Q 50.53125 16.9375 52.78125 28.609375 
L 61.375 72.90625 
L 71.296875 72.90625 
L 62.5 27.390625 
Q 59.625 12.640625 51.5625 5.609375 
Q 43.5 -1.421875 29.5 -1.421875 
Q 18.5625 -1.421875 12.1875 4.078125 
Q 5.8125 9.578125 5.8125 19 
Q 5.8125 20.703125 6.046875 22.828125 
Q 6.296875 24.953125 6.78125 27.390625 
z
" id="DejaVuSans-Oblique-85"/>
       <path d="M 41.796875 8.203125 
Q 38.1875 3.46875 33.25 1.015625 
Q 28.328125 -1.421875 22.3125 -1.421875 
Q 14.109375 -1.421875 9.34375 4.171875 
Q 4.59375 9.765625 4.59375 19.484375 
Q 4.59375 27.59375 7.46875 34.9375 
Q 10.359375 42.28125 15.828125 48.09375 
Q 19.4375 51.953125 23.96875 53.96875 
Q 28.515625 56 33.5 56 
Q 38.765625 56 42.796875 53.453125 
Q 46.828125 50.921875 49.03125 46.1875 
L 54.890625 75.984375 
L 63.921875 75.984375 
L 49.125 0 
L 40.09375 0 
z
M 13.921875 21.09375 
Q 13.921875 14.015625 17.109375 10.0625 
Q 20.3125 6.109375 25.984375 6.109375 
Q 30.171875 6.109375 33.765625 8.125 
Q 37.359375 10.15625 40.09375 14.109375 
Q 42.96875 18.21875 44.625 23.578125 
Q 46.296875 28.953125 46.296875 34.1875 
Q 46.296875 40.96875 43.09375 44.765625 
Q 39.890625 48.578125 34.28125 48.578125 
Q 30.03125 48.578125 26.359375 46.578125 
Q 22.703125 44.578125 20.125 40.828125 
Q 17.28125 36.765625 15.59375 31.390625 
Q 13.921875 26.03125 13.921875 21.09375 
z
" id="DejaVuSans-Oblique-100"/>
      </defs>
      <use transform="translate(0 0.09375)" xlink:href="#DejaVuSans-Oblique-85"/>
      <use transform="translate(73.193359 -16.3125)scale(0.7)" xlink:href="#DejaVuSans-Oblique-100"/>
     </g>
    </g>
   </g>
   <g id="matplotlib.axis_4">
    <g id="ytick_6">
     <g id="line2d_16">
      <g>
       <use style="stroke:#000000;stroke-width:0.8;" x="57.175" xlink:href="#m1ed32967a0" y="366.715905"/>
      </g>
     </g>
     <g id="text_16">
      <!-- 1.0 -->
      <g transform="translate(34.271875 370.515124)scale(0.1 -0.1)">
       <use xlink:href="#DejaVuSans-49"/>
       <use x="63.623047" xlink:href="#DejaVuSans-46"/>
       <use x="95.410156" xlink:href="#DejaVuSans-48"/>
      </g>
     </g>
    </g>
    <g id="ytick_7">
     <g id="line2d_17">
      <g>
       <use style="stroke:#000000;stroke-width:0.8;" x="57.175" xlink:href="#m1ed32967a0" y="339.84371"/>
      </g>
     </g>
     <g id="text_17">
      <!-- 1.5 -->
      <g transform="translate(34.271875 343.642929)scale(0.1 -0.1)">
       <use xlink:href="#DejaVuSans-49"/>
       <use x="63.623047" xlink:href="#DejaVuSans-46"/>
       <use x="95.410156" xlink:href="#DejaVuSans-53"/>
      </g>
     </g>
    </g>
    <g id="ytick_8">
     <g id="line2d_18">
      <g>
       <use style="stroke:#000000;stroke-width:0.8;" x="57.175" xlink:href="#m1ed32967a0" y="312.971515"/>
      </g>
     </g>
     <g id="text_18">
      <!-- 2.0 -->
      <g transform="translate(34.271875 316.770734)scale(0.1 -0.1)">
       <use xlink:href="#DejaVuSans-50"/>
       <use x="63.623047" xlink:href="#DejaVuSans-46"/>
       <use x="95.410156" xlink:href="#DejaVuSans-48"/>
      </g>
     </g>
    </g>
    <g id="ytick_9">
     <g id="line2d_19">
      <g>
       <use style="stroke:#000000;stroke-width:0.8;" x="57.175" xlink:href="#m1ed32967a0" y="286.099321"/>
      </g>
     </g>
     <g id="text_19">
      <!-- 2.5 -->
      <g transform="translate(34.271875 289.89854)scale(0.1 -0.1)">
       <use xlink:href="#DejaVuSans-50"/>
       <use x="63.623047" xlink:href="#DejaVuSans-46"/>
       <use x="95.410156" xlink:href="#DejaVuSans-53"/>
      </g>
     </g>
    </g>
    <g id="ytick_10">
     <g id="line2d_20">
      <g>
       <use style="stroke:#000000;stroke-width:0.8;" x="57.175" xlink:href="#m1ed32967a0" y="259.227126"/>
      </g>
     </g>
     <g id="text_20">
      <!-- 3.0 -->
      <g transform="translate(34.271875 263.026345)scale(0.1 -0.1)">
       <defs>
        <path d="M 40.578125 39.3125 
Q 47.65625 37.796875 51.625 33 
Q 55.609375 28.21875 55.609375 21.1875 
Q 55.609375 10.40625 48.1875 4.484375 
Q 40.765625 -1.421875 27.09375 -1.421875 
Q 22.515625 -1.421875 17.65625 -0.515625 
Q 12.796875 0.390625 7.625 2.203125 
L 7.625 11.71875 
Q 11.71875 9.328125 16.59375 8.109375 
Q 21.484375 6.890625 26.8125 6.890625 
Q 36.078125 6.890625 40.9375 10.546875 
Q 45.796875 14.203125 45.796875 21.1875 
Q 45.796875 27.640625 41.28125 31.265625 
Q 36.765625 34.90625 28.71875 34.90625 
L 20.21875 34.90625 
L 20.21875 43.015625 
L 29.109375 43.015625 
Q 36.375 43.015625 40.234375 45.921875 
Q 44.09375 48.828125 44.09375 54.296875 
Q 44.09375 59.90625 40.109375 62.90625 
Q 36.140625 65.921875 28.71875 65.921875 
Q 24.65625 65.921875 20.015625 65.03125 
Q 15.375 64.15625 9.8125 62.3125 
L 9.8125 71.09375 
Q 15.4375 72.65625 20.34375 73.4375 
Q 25.25 74.21875 29.59375 74.21875 
Q 40.828125 74.21875 47.359375 69.109375 
Q 53.90625 64.015625 53.90625 55.328125 
Q 53.90625 49.265625 50.4375 45.09375 
Q 46.96875 40.921875 40.578125 39.3125 
z
" id="DejaVuSans-51"/>
       </defs>
       <use xlink:href="#DejaVuSans-51"/>
       <use x="63.623047" xlink:href="#DejaVuSans-46"/>
       <use x="95.410156" xlink:href="#DejaVuSans-48"/>
      </g>
     </g>
    </g>
    <g id="ytick_11">
     <g id="line2d_21">
      <g>
       <use style="stroke:#000000;stroke-width:0.8;" x="57.175" xlink:href="#m1ed32967a0" y="232.354931"/>
      </g>
     </g>
     <g id="text_21">
      <!-- 3.5 -->
      <g transform="translate(34.271875 236.15415)scale(0.1 -0.1)">
       <use xlink:href="#DejaVuSans-51"/>
       <use x="63.623047" xlink:href="#DejaVuSans-46"/>
       <use x="95.410156" xlink:href="#DejaVuSans-53"/>
      </g>
     </g>
    </g>
    <g id="text_22">
     <!-- $T_{mrca}$ -->
     <g transform="translate(27.77625 313.055)rotate(-90)scale(0.12 -0.12)">
      <defs>
       <path d="M 5.90625 72.90625 
L 67.578125 72.90625 
L 66.015625 64.59375 
L 39.984375 64.59375 
L 27.484375 0 
L 17.578125 0 
L 30.078125 64.59375 
L 4.296875 64.59375 
z
" id="DejaVuSans-Oblique-84"/>
       <path d="M 89.796875 33.015625 
L 83.40625 0 
L 74.421875 0 
L 80.71875 32.71875 
Q 81.109375 34.8125 81.296875 36.328125 
Q 81.5 37.84375 81.5 38.921875 
Q 81.5 43.3125 79.046875 45.75 
Q 76.609375 48.1875 72.21875 48.1875 
Q 65.671875 48.1875 60.546875 43.28125 
Q 55.421875 38.375 53.90625 30.515625 
L 47.90625 0 
L 38.921875 0 
L 45.3125 32.71875 
Q 45.703125 34.515625 45.890625 36.046875 
Q 46.09375 37.59375 46.09375 38.8125 
Q 46.09375 43.265625 43.65625 45.71875 
Q 41.21875 48.1875 36.921875 48.1875 
Q 30.28125 48.1875 25.140625 43.28125 
Q 20.015625 38.375 18.5 30.515625 
L 12.5 0 
L 3.515625 0 
L 14.203125 54.6875 
L 23.1875 54.6875 
L 21.484375 46.1875 
Q 25.140625 50.984375 30.046875 53.484375 
Q 34.96875 56 40.578125 56 
Q 46.53125 56 50.359375 52.875 
Q 54.203125 49.75 54.984375 44.1875 
Q 59.078125 49.953125 64.46875 52.96875 
Q 69.875 56 75.875 56 
Q 82.90625 56 86.734375 51.953125 
Q 90.578125 47.90625 90.578125 40.484375 
Q 90.578125 38.875 90.375 36.9375 
Q 90.1875 35.015625 89.796875 33.015625 
z
" id="DejaVuSans-Oblique-109"/>
       <path d="M 44.578125 46.390625 
Q 43.21875 47.125 41.453125 47.515625 
Q 39.703125 47.90625 37.703125 47.90625 
Q 30.515625 47.90625 25.140625 42.453125 
Q 19.78125 37.015625 18.015625 27.875 
L 12.5 0 
L 3.515625 0 
L 14.203125 54.6875 
L 23.1875 54.6875 
L 21.484375 46.1875 
Q 25.046875 50.921875 30 53.453125 
Q 34.96875 56 40.578125 56 
Q 42.046875 56 43.453125 55.828125 
Q 44.875 55.671875 46.296875 55.28125 
z
" id="DejaVuSans-Oblique-114"/>
       <path d="M 53.609375 52.59375 
L 51.8125 43.703125 
Q 48.578125 46.046875 44.9375 47.21875 
Q 41.3125 48.390625 37.40625 48.390625 
Q 33.109375 48.390625 29.21875 46.875 
Q 25.34375 45.359375 22.703125 42.578125 
Q 18.5 38.328125 16.203125 32.609375 
Q 13.921875 26.90625 13.921875 20.796875 
Q 13.921875 13.421875 17.609375 9.8125 
Q 21.296875 6.203125 28.8125 6.203125 
Q 32.515625 6.203125 36.6875 7.328125 
Q 40.875 8.453125 45.40625 10.6875 
L 43.703125 1.8125 
Q 39.796875 0.203125 35.671875 -0.609375 
Q 31.546875 -1.421875 27.203125 -1.421875 
Q 16.3125 -1.421875 10.453125 4.015625 
Q 4.59375 9.46875 4.59375 19.578125 
Q 4.59375 28.078125 7.640625 35.234375 
Q 10.6875 42.390625 16.703125 48.09375 
Q 20.796875 52 26.3125 54 
Q 31.84375 56 38.375 56 
Q 42.1875 56 45.9375 55.140625 
Q 49.703125 54.296875 53.609375 52.59375 
z
" id="DejaVuSans-Oblique-99"/>
       <path d="M 53.71875 31.203125 
L 47.609375 0 
L 38.625 0 
L 40.28125 8.296875 
Q 36.328125 3.421875 31.265625 1 
Q 26.21875 -1.421875 20.015625 -1.421875 
Q 13.03125 -1.421875 8.5625 2.84375 
Q 4.109375 7.125 4.109375 13.8125 
Q 4.109375 23.390625 11.75 28.953125 
Q 19.390625 34.515625 32.8125 34.515625 
L 45.3125 34.515625 
L 45.796875 36.921875 
Q 45.90625 37.3125 45.953125 37.765625 
Q 46 38.234375 46 39.203125 
Q 46 43.5625 42.453125 45.96875 
Q 38.921875 48.390625 32.515625 48.390625 
Q 28.125 48.390625 23.5 47.265625 
Q 18.890625 46.140625 14.015625 43.890625 
L 15.578125 52.203125 
Q 20.65625 54.109375 25.515625 55.046875 
Q 30.375 56 34.90625 56 
Q 44.578125 56 49.625 51.796875 
Q 54.6875 47.609375 54.6875 39.59375 
Q 54.6875 37.984375 54.4375 35.8125 
Q 54.203125 33.640625 53.71875 31.203125 
z
M 44 27.484375 
L 35.015625 27.484375 
Q 23.96875 27.484375 18.671875 24.53125 
Q 13.375 21.578125 13.375 15.375 
Q 13.375 11.078125 16.078125 8.640625 
Q 18.796875 6.203125 23.578125 6.203125 
Q 30.90625 6.203125 36.375 11.453125 
Q 41.84375 16.703125 43.609375 25.484375 
z
" id="DejaVuSans-Oblique-97"/>
      </defs>
      <use transform="translate(0 0.09375)" xlink:href="#DejaVuSans-Oblique-84"/>
      <use transform="translate(61.083984 -16.3125)scale(0.7)" xlink:href="#DejaVuSans-Oblique-109"/>
      <use transform="translate(129.272461 -16.3125)scale(0.7)" xlink:href="#DejaVuSans-Oblique-114"/>
      <use transform="translate(158.051758 -16.3125)scale(0.7)" xlink:href="#DejaVuSans-Oblique-99"/>
      <use transform="translate(196.538086 -16.3125)scale(0.7)" xlink:href="#DejaVuSans-Oblique-97"/>
     </g>
    </g>
   </g>
   <g id="line2d_22">
    <path clip-path="url(#p499ee0246a)" d="M 65.212135 266.048529 
L 75.632696 282.17598 
L 87.82697 295.901471 
L 102.349241 314.945588 
L 119.532081 329.014216 
L 139.818918 342.396569 
L 163.874894 354.406373 
L 192.365151 367.27402 
L 225.954832 377.225 
" style="fill:none;stroke:#033500;stroke-linecap:square;stroke-width:1.5;"/>
   </g>
   <g id="line2d_23">
    <path clip-path="url(#p499ee0246a)" d="M 65.212135 219.725 
L 75.632696 242.028922 
L 87.82697 268.793627 
L 102.349241 289.210294 
L 119.532081 308.940686 
L 139.818918 326.783824 
L 163.874894 343.082843 
L 192.365151 358.695588 
L 225.954832 371.220098 
" style="fill:none;stroke:#40a368;stroke-linecap:square;stroke-width:1.5;"/>
   </g>
   <g id="patch_8">
    <path d="M 57.175 385.1 
L 57.175 211.85 
" style="fill:none;stroke:#000000;stroke-linecap:square;stroke-linejoin:miter;stroke-width:0.8;"/>
   </g>
   <g id="patch_9">
    <path d="M 233.991967 385.1 
L 233.991967 211.85 
" style="fill:none;stroke:#000000;stroke-linecap:square;stroke-linejoin:miter;stroke-width:0.8;"/>
   </g>
   <g id="patch_10">
    <path d="M 57.175 385.1 
L 233.991967 385.1 
" style="fill:none;stroke:#000000;stroke-linecap:square;stroke-linejoin:miter;stroke-width:0.8;"/>
   </g>
   <g id="patch_11">
    <path d="M 57.175 211.85 
L 233.991967 211.85 
" style="fill:none;stroke:#000000;stroke-linecap:square;stroke-linejoin:miter;stroke-width:0.8;"/>
   </g>
  </g>
 </g>
 <defs>
  <clipPath id="p8e54998a4e">
   <rect height="173.25" width="176.816967" x="57.175" y="10.8"/>
  </clipPath>
  <clipPath id="p499ee0246a">
   <rect height="173.25" width="176.816967" x="57.175" y="211.85"/>
  </clipPath>
 </defs>
</svg>
