<?xml version="1.0" encoding="utf-8" standalone="no"?>
<!DOCTYPE svg PUBLIC "-//W3C//DTD SVG 1.1//EN"
  "http://www.w3.org/Graphics/SVG/1.1/DTD/svg11.dtd">
<!-- Created with matplotlib (https://matplotlib.org/) -->
<svg height="93.6pt" version="1.1" viewBox="0 0 504 93.6" width="504pt" xmlns="http://www.w3.org/2000/svg" xmlns:xlink="http://www.w3.org/1999/xlink">
 <metadata>
  <rdf:RDF xmlns:cc="http://creativecommons.org/ns#" xmlns:dc="http://purl.org/dc/elements/1.1/" xmlns:rdf="http://www.w3.org/1999/02/22-rdf-syntax-ns#">
   <cc:Work>
    <dc:type rdf:resource="http://purl.org/dc/dcmitype/StillImage"/>
    <dc:date>2022-10-26T16:23:31.139932</dc:date>
    <dc:format>image/svg+xml</dc:format>
    <dc:creator>
     <cc:Agent>
      <dc:title>Matplotlib v3.3.4, https://matplotlib.org/</dc:title>
     </cc:Agent>
    </dc:creator>
   </cc:Work>
  </rdf:RDF>
 </metadata>
 <defs>
  <style type="text/css">*{stroke-linecap:butt;stroke-linejoin:round;}</style>
 </defs>
 <g id="figure_1">
  <g id="patch_1">
   <path d="M 0 93.6 
L 504 93.6 
L 504 0 
L 0 0 
z
" style="fill:none;"/>
  </g>
  <g id="axes_1">
   <g id="patch_2">
    <path d="M 63 81.9 
L 453.6 81.9 
L 453.6 11.232 
L 63 11.232 
z
" style="fill:#ffffff;"/>
   </g>
   <g id="matplotlib.axis_1">
    <g id="xtick_1">
     <g id="line2d_1">
      <defs>
       <path d="M 0 0 
L 0 3.5 
" id="m70e7cdf88c" style="stroke:#000000;stroke-width:0.8;"/>
      </defs>
      <g>
       <use style="stroke:#000000;stroke-width:0.8;" x="81.363151" xlink:href="#m70e7cdf88c" y="81.9"/>
      </g>
     </g>
     <g id="text_1">
      <!-- 1.30 -->
      <g transform="translate(70.230339 96.498438)scale(0.1 -0.1)">
       <defs>
        <path d="M 12.40625 8.296875 
L 28.515625 8.296875 
L 28.515625 63.921875 
L 10.984375 60.40625 
L 10.984375 69.390625 
L 28.421875 72.90625 
L 38.28125 72.90625 
L 38.28125 8.296875 
L 54.390625 8.296875 
L 54.390625 0 
L 12.40625 0 
z
" id="DejaVuSans-49"/>
        <path d="M 10.6875 12.40625 
L 21 12.40625 
L 21 0 
L 10.6875 0 
z
" id="DejaVuSans-46"/>
        <path d="M 40.578125 39.3125 
Q 47.65625 37.796875 51.625 33 
Q 55.609375 28.21875 55.609375 21.1875 
Q 55.609375 10.40625 48.1875 4.484375 
Q 40.765625 -1.421875 27.09375 -1.421875 
Q 22.515625 -1.421875 17.65625 -0.515625 
Q 12.796875 0.390625 7.625 2.203125 
L 7.625 11.71875 
Q 11.71875 9.328125 16.59375 8.109375 
Q 21.484375 6.890625 26.8125 6.890625 
Q 36.078125 6.890625 40.9375 10.546875 
Q 45.796875 14.203125 45.796875 21.1875 
Q 45.796875 27.640625 41.28125 31.265625 
Q 36.765625 34.90625 28.71875 34.90625 
L 20.21875 34.90625 
L 20.21875 43.015625 
L 29.109375 43.015625 
Q 36.375 43.015625 40.234375 45.921875 
Q 44.09375 48.828125 44.09375 54.296875 
Q 44.09375 59.90625 40.109375 62.90625 
Q 36.140625 65.921875 28.71875 65.921875 
Q 24.65625 65.921875 20.015625 65.03125 
Q 15.375 64.15625 9.8125 62.3125 
L 9.8125 71.09375 
Q 15.4375 72.65625 20.34375 73.4375 
Q 25.25 74.21875 29.59375 74.21875 
Q 40.828125 74.21875 47.359375 69.109375 
Q 53.90625 64.015625 53.90625 55.328125 
Q 53.90625 49.265625 50.4375 45.09375 
Q 46.96875 40.921875 40.578125 39.3125 
z
" id="DejaVuSans-51"/>
        <path d="M 31.78125 66.40625 
Q 24.171875 66.40625 20.328125 58.90625 
Q 16.5 51.421875 16.5 36.375 
Q 16.5 21.390625 20.328125 13.890625 
Q 24.171875 6.390625 31.78125 6.390625 
Q 39.453125 6.390625 43.28125 13.890625 
Q 47.125 21.390625 47.125 36.375 
Q 47.125 51.421875 43.28125 58.90625 
Q 39.453125 66.40625 31.78125 66.40625 
z
M 31.78125 74.21875 
Q 44.046875 74.21875 50.515625 64.515625 
Q 56.984375 54.828125 56.984375 36.375 
Q 56.984375 17.96875 50.515625 8.265625 
Q 44.046875 -1.421875 31.78125 -1.421875 
Q 19.53125 -1.421875 13.0625 8.265625 
Q 6.59375 17.96875 6.59375 36.375 
Q 6.59375 54.828125 13.0625 64.515625 
Q 19.53125 74.21875 31.78125 74.21875 
z
" id="DejaVuSans-48"/>
       </defs>
       <use xlink:href="#DejaVuSans-49"/>
       <use x="63.623047" xlink:href="#DejaVuSans-46"/>
       <use x="95.410156" xlink:href="#DejaVuSans-51"/>
       <use x="159.033203" xlink:href="#DejaVuSans-48"/>
      </g>
     </g>
    </g>
    <g id="xtick_2">
     <g id="line2d_2">
      <g>
       <use style="stroke:#000000;stroke-width:0.8;" x="152.340722" xlink:href="#m70e7cdf88c" y="81.9"/>
      </g>
     </g>
     <g id="text_2">
      <!-- 1.35 -->
      <g transform="translate(141.20791 96.498438)scale(0.1 -0.1)">
       <defs>
        <path d="M 10.796875 72.90625 
L 49.515625 72.90625 
L 49.515625 64.59375 
L 19.828125 64.59375 
L 19.828125 46.734375 
Q 21.96875 47.46875 24.109375 47.828125 
Q 26.265625 48.1875 28.421875 48.1875 
Q 40.625 48.1875 47.75 41.5 
Q 54.890625 34.8125 54.890625 23.390625 
Q 54.890625 11.625 47.5625 5.09375 
Q 40.234375 -1.421875 26.90625 -1.421875 
Q 22.3125 -1.421875 17.546875 -0.640625 
Q 12.796875 0.140625 7.71875 1.703125 
L 7.71875 11.625 
Q 12.109375 9.234375 16.796875 8.0625 
Q 21.484375 6.890625 26.703125 6.890625 
Q 35.15625 6.890625 40.078125 11.328125 
Q 45.015625 15.765625 45.015625 23.390625 
Q 45.015625 31 40.078125 35.4375 
Q 35.15625 39.890625 26.703125 39.890625 
Q 22.75 39.890625 18.8125 39.015625 
Q 14.890625 38.140625 10.796875 36.28125 
z
" id="DejaVuSans-53"/>
       </defs>
       <use xlink:href="#DejaVuSans-49"/>
       <use x="63.623047" xlink:href="#DejaVuSans-46"/>
       <use x="95.410156" xlink:href="#DejaVuSans-51"/>
       <use x="159.033203" xlink:href="#DejaVuSans-53"/>
      </g>
     </g>
    </g>
    <g id="xtick_3">
     <g id="line2d_3">
      <g>
       <use style="stroke:#000000;stroke-width:0.8;" x="223.318293" xlink:href="#m70e7cdf88c" y="81.9"/>
      </g>
     </g>
     <g id="text_3">
      <!-- 1.40 -->
      <g transform="translate(212.185481 96.498438)scale(0.1 -0.1)">
       <defs>
        <path d="M 37.796875 64.3125 
L 12.890625 25.390625 
L 37.796875 25.390625 
z
M 35.203125 72.90625 
L 47.609375 72.90625 
L 47.609375 25.390625 
L 58.015625 25.390625 
L 58.015625 17.1875 
L 47.609375 17.1875 
L 47.609375 0 
L 37.796875 0 
L 37.796875 17.1875 
L 4.890625 17.1875 
L 4.890625 26.703125 
z
" id="DejaVuSans-52"/>
       </defs>
       <use xlink:href="#DejaVuSans-49"/>
       <use x="63.623047" xlink:href="#DejaVuSans-46"/>
       <use x="95.410156" xlink:href="#DejaVuSans-52"/>
       <use x="159.033203" xlink:href="#DejaVuSans-48"/>
      </g>
     </g>
    </g>
    <g id="xtick_4">
     <g id="line2d_4">
      <g>
       <use style="stroke:#000000;stroke-width:0.8;" x="294.295864" xlink:href="#m70e7cdf88c" y="81.9"/>
      </g>
     </g>
     <g id="text_4">
      <!-- 1.45 -->
      <g transform="translate(283.163052 96.498438)scale(0.1 -0.1)">
       <use xlink:href="#DejaVuSans-49"/>
       <use x="63.623047" xlink:href="#DejaVuSans-46"/>
       <use x="95.410156" xlink:href="#DejaVuSans-52"/>
       <use x="159.033203" xlink:href="#DejaVuSans-53"/>
      </g>
     </g>
    </g>
    <g id="xtick_5">
     <g id="line2d_5">
      <g>
       <use style="stroke:#000000;stroke-width:0.8;" x="365.273435" xlink:href="#m70e7cdf88c" y="81.9"/>
      </g>
     </g>
     <g id="text_5">
      <!-- 1.50 -->
      <g transform="translate(354.140623 96.498438)scale(0.1 -0.1)">
       <use xlink:href="#DejaVuSans-49"/>
       <use x="63.623047" xlink:href="#DejaVuSans-46"/>
       <use x="95.410156" xlink:href="#DejaVuSans-53"/>
       <use x="159.033203" xlink:href="#DejaVuSans-48"/>
      </g>
     </g>
    </g>
    <g id="xtick_6">
     <g id="line2d_6">
      <g>
       <use style="stroke:#000000;stroke-width:0.8;" x="436.251006" xlink:href="#m70e7cdf88c" y="81.9"/>
      </g>
     </g>
     <g id="text_6">
      <!-- 1.55 -->
      <g transform="translate(425.118194 96.498438)scale(0.1 -0.1)">
       <use xlink:href="#DejaVuSans-49"/>
       <use x="63.623047" xlink:href="#DejaVuSans-46"/>
       <use x="95.410156" xlink:href="#DejaVuSans-53"/>
       <use x="159.033203" xlink:href="#DejaVuSans-53"/>
      </g>
     </g>
    </g>
   </g>
   <g id="matplotlib.axis_2">
    <g id="ytick_1">
     <g id="line2d_7">
      <defs>
       <path d="M 0 0 
L -3.5 0 
" id="m0a55ce8717" style="stroke:#000000;stroke-width:0.8;"/>
      </defs>
      <g>
       <use style="stroke:#000000;stroke-width:0.8;" x="63" xlink:href="#m0a55ce8717" y="78.687919"/>
      </g>
     </g>
     <g id="text_7">
      <!-- 0.0 -->
      <g transform="translate(40.096875 82.487137)scale(0.1 -0.1)">
       <use xlink:href="#DejaVuSans-48"/>
       <use x="63.623047" xlink:href="#DejaVuSans-46"/>
       <use x="95.410156" xlink:href="#DejaVuSans-48"/>
      </g>
     </g>
    </g>
    <g id="ytick_2">
     <g id="line2d_8">
      <g>
       <use style="stroke:#000000;stroke-width:0.8;" x="63" xlink:href="#m0a55ce8717" y="46.56605"/>
      </g>
     </g>
     <g id="text_8">
      <!-- 0.5 -->
      <g transform="translate(40.096875 50.365269)scale(0.1 -0.1)">
       <use xlink:href="#DejaVuSans-48"/>
       <use x="63.623047" xlink:href="#DejaVuSans-46"/>
       <use x="95.410156" xlink:href="#DejaVuSans-53"/>
      </g>
     </g>
    </g>
    <g id="ytick_3">
     <g id="line2d_9">
      <g>
       <use style="stroke:#000000;stroke-width:0.8;" x="63" xlink:href="#m0a55ce8717" y="14.444182"/>
      </g>
     </g>
     <g id="text_9">
      <!-- 1.0 -->
      <g transform="translate(40.096875 18.243401)scale(0.1 -0.1)">
       <use xlink:href="#DejaVuSans-49"/>
       <use x="63.623047" xlink:href="#DejaVuSans-46"/>
       <use x="95.410156" xlink:href="#DejaVuSans-48"/>
      </g>
     </g>
    </g>
   </g>
   <g id="line2d_10">
    <path clip-path="url(#pc7c5794202)" d="M 80.754545 78.581957 
L 136.2375 78.41826 
L 161.20483 78.145671 
L 177.849716 77.751305 
L 188.946307 77.298099 
L 197.26875 76.794358 
L 205.591193 76.083909 
L 211.139489 75.454487 
L 216.687784 74.663181 
L 222.23608 73.670187 
L 227.784375 72.427887 
L 233.33267 70.880578 
L 238.880966 68.965047 
L 244.429261 66.612561 
L 247.203409 65.250424 
L 249.977557 63.752975 
L 252.751705 62.11239 
L 255.525852 60.321855 
L 258.3 58.376014 
L 261.074148 56.271486 
L 263.848295 54.007465 
L 266.622443 51.586379 
L 272.170739 46.303203 
L 277.719034 40.533638 
L 291.589773 25.62888 
L 294.36392 22.955527 
L 297.138068 20.530077 
L 299.912216 18.42156 
L 302.686364 16.698244 
L 305.460511 15.424562 
L 308.234659 14.657712 
L 311.008807 14.444182 
L 313.782955 14.816411 
L 316.557102 15.789915 
L 319.33125 17.361144 
L 322.105398 19.506363 
L 324.879545 22.181737 
L 327.653693 25.324734 
L 330.427841 28.856815 
L 333.201989 32.687242 
L 338.750284 40.847566 
L 344.29858 49.020441 
L 347.072727 52.893492 
L 349.846875 56.532698 
L 352.621023 59.888782 
L 355.39517 62.928791 
L 358.169318 65.635452 
L 360.943466 68.005625 
L 363.717614 70.048125 
L 366.491761 71.781173 
L 369.265909 73.229759 
L 372.040057 74.423112 
L 374.814205 75.392465 
L 377.588352 76.169201 
L 380.3625 76.783419 
L 385.910795 77.632668 
L 391.459091 78.126399 
L 397.007386 78.400494 
L 405.32983 78.589705 
L 421.974716 78.678824 
L 435.845455 78.686911 
L 435.845455 78.686911 
" style="fill:none;stroke:#1f77b4;stroke-linecap:square;stroke-width:1.5;"/>
   </g>
   <g id="line2d_11">
    <path clip-path="url(#pc7c5794202)" d="M 80.754545 41.695188 
L 100.17358 38.813213 
L 119.592614 35.716841 
L 139.011648 32.401873 
L 158.430682 28.876746 
L 183.398011 24.104118 
L 208.365341 19.33545 
L 219.461932 17.408059 
L 227.784375 16.152625 
L 236.106818 15.159979 
L 241.655114 14.704209 
L 247.203409 14.46548 
L 252.751705 14.497806 
L 258.3 14.862199 
L 263.848295 15.625463 
L 266.622443 16.178614 
L 269.396591 16.857796 
L 272.170739 17.671204 
L 274.944886 18.626749 
L 277.719034 19.731538 
L 280.493182 20.991265 
L 283.26733 22.410264 
L 286.041477 23.990834 
L 288.815625 25.733346 
L 291.589773 27.635265 
L 294.36392 29.691272 
L 299.912216 34.227896 
L 305.460511 39.23411 
L 313.782955 47.257541 
L 322.105398 55.257734 
L 327.653693 60.204657 
L 330.427841 62.488047 
L 333.201989 64.619264 
L 335.976136 66.584582 
L 338.750284 68.374889 
L 341.524432 69.985789 
L 344.29858 71.417396 
L 347.072727 72.673932 
L 349.846875 73.763167 
L 352.621023 74.695718 
L 355.39517 75.484312 
L 358.169318 76.143034 
L 363.717614 77.129819 
L 369.265909 77.771267 
L 374.814205 78.169335 
L 383.136648 78.482436 
L 394.233239 78.635268 
L 421.974716 78.686941 
L 435.845455 78.687818 
L 435.845455 78.687818 
" style="fill:none;stroke:#ff7f0e;stroke-linecap:square;stroke-width:1.5;"/>
   </g>
   <g id="line2d_12">
    <path clip-path="url(#pc7c5794202)" d="M 80.754545 34.339937 
L 105.721875 30.193181 
L 166.753125 19.92897 
L 180.623864 17.908911 
L 191.720455 16.517879 
L 200.042898 15.655892 
L 208.365341 14.992294 
L 216.687784 14.57174 
L 225.010227 14.444182 
L 230.558523 14.548669 
L 236.106818 14.824454 
L 241.655114 15.288696 
L 247.203409 15.958299 
L 252.751705 16.849276 
L 258.3 17.975937 
L 263.848295 19.34991 
L 269.396591 20.978995 
L 274.944886 22.865903 
L 280.493182 25.006951 
L 286.041477 27.390838 
L 291.589773 29.997684 
L 297.138068 32.798522 
L 305.460511 37.27845 
L 330.427841 51.13611 
L 335.976136 53.970095 
L 341.524432 56.626176 
L 347.072727 59.08157 
L 352.621023 61.324297 
L 358.169318 63.35204 
L 363.717614 65.170286 
L 369.265909 66.790151 
L 374.814205 68.226283 
L 380.3625 69.49508 
L 388.684943 71.121155 
L 397.007386 72.462397 
L 405.32983 73.566899 
L 413.652273 74.475777 
L 424.748864 75.441933 
L 435.845455 76.186514 
L 435.845455 76.186514 
" style="fill:none;stroke:#2ca02c;stroke-linecap:square;stroke-width:1.5;"/>
   </g>
   <g id="patch_3">
    <path d="M 63 81.9 
L 63 11.232 
" style="fill:none;stroke:#000000;stroke-linecap:square;stroke-linejoin:miter;stroke-width:0.8;"/>
   </g>
   <g id="patch_4">
    <path d="M 453.6 81.9 
L 453.6 11.232 
" style="fill:none;stroke:#000000;stroke-linecap:square;stroke-linejoin:miter;stroke-width:0.8;"/>
   </g>
   <g id="patch_5">
    <path d="M 63 81.9 
L 453.6 81.9 
" style="fill:none;stroke:#000000;stroke-linecap:square;stroke-linejoin:miter;stroke-width:0.8;"/>
   </g>
   <g id="patch_6">
    <path d="M 63 11.232 
L 453.6 11.232 
" style="fill:none;stroke:#000000;stroke-linecap:square;stroke-linejoin:miter;stroke-width:0.8;"/>
   </g>
  </g>
  <g id="axes_2">
   <g id="matplotlib.axis_3">
    <g id="ytick_4">
     <g id="line2d_13">
      <defs>
       <path d="M 0 0 
L 3.5 0 
" id="m7b87d8616f" style="stroke:#000000;stroke-width:0.8;"/>
      </defs>
      <g>
       <use style="stroke:#000000;stroke-width:0.8;" x="453.6" xlink:href="#m7b87d8616f" y="59.887202"/>
      </g>
     </g>
     <g id="text_10">
      <!-- 0.0 -->
      <g transform="translate(460.6 63.686421)scale(0.1 -0.1)">
       <use xlink:href="#DejaVuSans-48"/>
       <use x="63.623047" xlink:href="#DejaVuSans-46"/>
       <use x="95.410156" xlink:href="#DejaVuSans-48"/>
      </g>
     </g>
    </g>
    <g id="ytick_5">
     <g id="line2d_14">
      <g>
       <use style="stroke:#000000;stroke-width:0.8;" x="453.6" xlink:href="#m7b87d8616f" y="35.188441"/>
      </g>
     </g>
     <g id="text_11">
      <!-- 0.5 -->
      <g transform="translate(460.6 38.98766)scale(0.1 -0.1)">
       <use xlink:href="#DejaVuSans-48"/>
       <use x="63.623047" xlink:href="#DejaVuSans-46"/>
       <use x="95.410156" xlink:href="#DejaVuSans-53"/>
      </g>
     </g>
    </g>
   </g>
   <g id="line2d_15">
    <path clip-path="url(#pc7c5794202)" d="M 80.754545 63.948436 
L 125.140909 70.032016 
L 147.334091 72.85828 
L 163.978977 74.780213 
L 177.849716 76.189619 
L 191.720455 77.360786 
L 202.817045 78.075006 
L 213.913636 78.537949 
L 222.23608 78.683615 
L 230.558523 78.622027 
L 238.880966 78.316254 
L 247.203409 77.72333 
L 252.751705 77.144513 
L 258.3 76.400459 
L 263.848295 75.474497 
L 269.396591 74.349703 
L 274.944886 73.009686 
L 280.493182 71.439717 
L 286.041477 69.62821 
L 291.589773 67.568554 
L 297.138068 65.261161 
L 302.686364 62.715504 
L 308.234659 59.951777 
L 316.557102 55.469872 
L 327.653693 49.115088 
L 338.750284 42.745266 
L 347.072727 38.223816 
L 352.621023 35.41168 
L 358.169318 32.793128 
L 363.717614 30.382458 
L 369.265909 28.183966 
L 374.814205 26.194106 
L 380.3625 24.40378 
L 385.910795 22.8004 
L 391.459091 21.369536 
L 399.781534 19.513773 
L 408.103977 17.96265 
L 416.42642 16.670413 
L 424.748864 15.596502 
L 435.845455 14.444182 
L 435.845455 14.444182 
" style="fill:none;stroke:#1f77b4;stroke-linecap:square;stroke-width:1.5;"/>
   </g>
   <g id="patch_7">
    <path d="M 63 81.9 
L 63 11.232 
" style="fill:none;stroke:#000000;stroke-linecap:square;stroke-linejoin:miter;stroke-width:0.8;"/>
   </g>
   <g id="patch_8">
    <path d="M 453.6 81.9 
L 453.6 11.232 
" style="fill:none;stroke:#000000;stroke-linecap:square;stroke-linejoin:miter;stroke-width:0.8;"/>
   </g>
   <g id="patch_9">
    <path d="M 63 81.9 
L 453.6 81.9 
" style="fill:none;stroke:#000000;stroke-linecap:square;stroke-linejoin:miter;stroke-width:0.8;"/>
   </g>
   <g id="patch_10">
    <path d="M 63 11.232 
L 453.6 11.232 
" style="fill:none;stroke:#000000;stroke-linecap:square;stroke-linejoin:miter;stroke-width:0.8;"/>
   </g>
  </g>
 </g>
 <defs>
  <clipPath id="pc7c5794202">
   <rect height="70.668" width="390.6" x="63" y="11.232"/>
  </clipPath>
 </defs>
</svg>
