<?xml version="1.0" encoding="utf-8" standalone="no"?>
<!DOCTYPE svg PUBLIC "-//W3C//DTD SVG 1.1//EN"
  "http://www.w3.org/Graphics/SVG/1.1/DTD/svg11.dtd">
<!-- Created with matplotlib (https://matplotlib.org/) -->
<svg height="216pt" version="1.1" viewBox="0 0 180 216" width="180pt" xmlns="http://www.w3.org/2000/svg" xmlns:xlink="http://www.w3.org/1999/xlink">
 <metadata>
  <rdf:RDF xmlns:cc="http://creativecommons.org/ns#" xmlns:dc="http://purl.org/dc/elements/1.1/" xmlns:rdf="http://www.w3.org/1999/02/22-rdf-syntax-ns#">
   <cc:Work>
    <dc:type rdf:resource="http://purl.org/dc/dcmitype/StillImage"/>
    <dc:date>2023-06-21T11:01:19.488405</dc:date>
    <dc:format>image/svg+xml</dc:format>
    <dc:creator>
     <cc:Agent>
      <dc:title>Matplotlib v3.3.4, https://matplotlib.org/</dc:title>
     </cc:Agent>
    </dc:creator>
   </cc:Work>
  </rdf:RDF>
 </metadata>
 <defs>
  <style type="text/css">*{stroke-linecap:butt;stroke-linejoin:round;}</style>
 </defs>
 <g id="figure_1">
  <g id="patch_1">
   <path d="M 0 216 
L 180 216 
L 180 0 
L 0 0 
z
" style="fill:none;"/>
  </g>
  <g id="axes_1">
   <g id="patch_2">
    <path d="M 70.15 167.8 
L 164.213776 167.8 
L 164.213776 10.8 
L 70.15 10.8 
z
" style="fill:#ffffff;"/>
   </g>
   <g id="PathCollection_1">
    <defs>
     <path d="M 0 3 
C 0.795609 3 1.55874 2.683901 2.12132 2.12132 
C 2.683901 1.55874 3 0.795609 3 0 
C 3 -0.795609 2.683901 -1.55874 2.12132 -2.12132 
C 1.55874 -2.683901 0.795609 -3 0 -3 
C -0.795609 -3 -1.55874 -2.683901 -2.12132 -2.12132 
C -2.683901 -1.55874 -3 -0.795609 -3 0 
C -3 0.795609 -2.683901 1.55874 -2.12132 2.12132 
C -1.55874 2.683901 -0.795609 3 0 3 
z
" id="m3f4ba3e24f" style="stroke:#000000;"/>
    </defs>
    <g clip-path="url(#p7fafab4c00)">
     <use style="stroke:#000000;" x="159.93815" xlink:href="#m3f4ba3e24f" y="23.40698"/>
     <use style="stroke:#000000;" x="159.659018" xlink:href="#m3f4ba3e24f" y="24.149664"/>
     <use style="stroke:#000000;" x="158.829329" xlink:href="#m3f4ba3e24f" y="25.820814"/>
     <use style="stroke:#000000;" x="157.2398" xlink:href="#m3f4ba3e24f" y="28.08725"/>
     <use style="stroke:#000000;" x="154.762331" xlink:href="#m3f4ba3e24f" y="31.219712"/>
     <use style="stroke:#000000;" x="150.933974" xlink:href="#m3f4ba3e24f" y="36.829352"/>
     <use style="stroke:#000000;" x="145.550859" xlink:href="#m3f4ba3e24f" y="44.899954"/>
     <use style="stroke:#000000;" x="139.610507" xlink:href="#m3f4ba3e24f" y="53.860537"/>
     <use style="stroke:#000000;" x="132.199614" xlink:href="#m3f4ba3e24f" y="65.463148"/>
     <use style="stroke:#000000;" x="124.860375" xlink:href="#m3f4ba3e24f" y="77.194015"/>
     <use style="stroke:#000000;" x="116.940899" xlink:href="#m3f4ba3e24f" y="89.907467"/>
     <use style="stroke:#000000;" x="109.49816" xlink:href="#m3f4ba3e24f" y="102.022972"/>
     <use style="stroke:#000000;" x="102.732971" xlink:href="#m3f4ba3e24f" y="113.022498"/>
     <use style="stroke:#000000;" x="96.411963" xlink:href="#m3f4ba3e24f" y="123.435424"/>
     <use style="stroke:#000000;" x="91.002598" xlink:href="#m3f4ba3e24f" y="132.348841"/>
     <use style="stroke:#000000;" x="86.344593" xlink:href="#m3f4ba3e24f" y="140.062557"/>
     <use style="stroke:#000000;" x="82.485753" xlink:href="#m3f4ba3e24f" y="146.490759"/>
     <use style="stroke:#000000;" x="79.242234" xlink:href="#m3f4ba3e24f" y="151.936806"/>
     <use style="stroke:#000000;" x="76.590541" xlink:href="#m3f4ba3e24f" y="156.372715"/>
     <use style="stroke:#000000;" x="74.425626" xlink:href="#m3f4ba3e24f" y="160.023817"/>
    </g>
   </g>
   <g id="PathCollection_2">
    <defs>
     <path d="M -3 3 
L 3 -3 
M -3 -3 
L 3 3 
" id="m9cadd79b80" style="stroke:#008000;stroke-width:1.5;"/>
    </defs>
    <g clip-path="url(#p7fafab4c00)">
     <use style="fill:#008000;stroke:#008000;stroke-width:1.5;" x="155.941295" xlink:href="#m9cadd79b80" y="37.061003"/>
     <use style="fill:#008000;stroke:#008000;stroke-width:1.5;" x="152.818411" xlink:href="#m9cadd79b80" y="36.347455"/>
     <use style="fill:#008000;stroke:#008000;stroke-width:1.5;" x="148.166989" xlink:href="#m9cadd79b80" y="45.541962"/>
     <use style="fill:#008000;stroke:#008000;stroke-width:1.5;" x="142.202323" xlink:href="#m9cadd79b80" y="51.168715"/>
     <use style="fill:#008000;stroke:#008000;stroke-width:1.5;" x="135.260995" xlink:href="#m9cadd79b80" y="58.622984"/>
     <use style="fill:#008000;stroke:#008000;stroke-width:1.5;" x="127.012768" xlink:href="#m9cadd79b80" y="75.223997"/>
     <use style="fill:#008000;stroke:#008000;stroke-width:1.5;" x="119.495662" xlink:href="#m9cadd79b80" y="87.951384"/>
     <use style="fill:#008000;stroke:#008000;stroke-width:1.5;" x="111.741848" xlink:href="#m9cadd79b80" y="97.424282"/>
     <use style="fill:#008000;stroke:#008000;stroke-width:1.5;" x="104.199823" xlink:href="#m9cadd79b80" y="108.198557"/>
     <use style="fill:#008000;stroke:#008000;stroke-width:1.5;" x="96.152298" xlink:href="#m9cadd79b80" y="125.777301"/>
     <use style="fill:#008000;stroke:#008000;stroke-width:1.5;" x="90.553228" xlink:href="#m9cadd79b80" y="134.556629"/>
     <use style="fill:#008000;stroke:#008000;stroke-width:1.5;" x="85.184631" xlink:href="#m9cadd79b80" y="144.235973"/>
     <use style="fill:#008000;stroke:#008000;stroke-width:1.5;" x="81.449791" xlink:href="#m9cadd79b80" y="150.825131"/>
     <use style="fill:#008000;stroke:#008000;stroke-width:1.5;" x="77.174313" xlink:href="#m9cadd79b80" y="157.148913"/>
     <use style="fill:#008000;stroke:#008000;stroke-width:1.5;" x="75.644188" xlink:href="#m9cadd79b80" y="158.140862"/>
    </g>
   </g>
   <g id="matplotlib.axis_1">
    <g id="xtick_1">
     <g id="line2d_1">
      <defs>
       <path d="M 0 0 
L 0 3.5 
" id="m940af459c7" style="stroke:#000000;stroke-width:0.8;"/>
      </defs>
      <g>
       <use style="stroke:#000000;stroke-width:0.8;" x="113.361742" xlink:href="#m940af459c7" y="167.8"/>
      </g>
     </g>
     <g id="text_1">
      <!-- 0.01 -->
      <g transform="translate(102.22893 182.398438)scale(0.1 -0.1)">
       <defs>
        <path d="M 31.78125 66.40625 
Q 24.171875 66.40625 20.328125 58.90625 
Q 16.5 51.421875 16.5 36.375 
Q 16.5 21.390625 20.328125 13.890625 
Q 24.171875 6.390625 31.78125 6.390625 
Q 39.453125 6.390625 43.28125 13.890625 
Q 47.125 21.390625 47.125 36.375 
Q 47.125 51.421875 43.28125 58.90625 
Q 39.453125 66.40625 31.78125 66.40625 
z
M 31.78125 74.21875 
Q 44.046875 74.21875 50.515625 64.515625 
Q 56.984375 54.828125 56.984375 36.375 
Q 56.984375 17.96875 50.515625 8.265625 
Q 44.046875 -1.421875 31.78125 -1.421875 
Q 19.53125 -1.421875 13.0625 8.265625 
Q 6.59375 17.96875 6.59375 36.375 
Q 6.59375 54.828125 13.0625 64.515625 
Q 19.53125 74.21875 31.78125 74.21875 
z
" id="DejaVuSans-48"/>
        <path d="M 10.6875 12.40625 
L 21 12.40625 
L 21 0 
L 10.6875 0 
z
" id="DejaVuSans-46"/>
        <path d="M 12.40625 8.296875 
L 28.515625 8.296875 
L 28.515625 63.921875 
L 10.984375 60.40625 
L 10.984375 69.390625 
L 28.421875 72.90625 
L 38.28125 72.90625 
L 38.28125 8.296875 
L 54.390625 8.296875 
L 54.390625 0 
L 12.40625 0 
z
" id="DejaVuSans-49"/>
       </defs>
       <use xlink:href="#DejaVuSans-48"/>
       <use x="63.623047" xlink:href="#DejaVuSans-46"/>
       <use x="95.410156" xlink:href="#DejaVuSans-48"/>
       <use x="159.033203" xlink:href="#DejaVuSans-49"/>
      </g>
     </g>
    </g>
    <g id="xtick_2">
     <g id="line2d_2">
      <g>
       <use style="stroke:#000000;stroke-width:0.8;" x="160.032303" xlink:href="#m940af459c7" y="167.8"/>
      </g>
     </g>
     <g id="text_2">
      <!-- 0.02 -->
      <g transform="translate(148.899491 182.398438)scale(0.1 -0.1)">
       <defs>
        <path d="M 19.1875 8.296875 
L 53.609375 8.296875 
L 53.609375 0 
L 7.328125 0 
L 7.328125 8.296875 
Q 12.9375 14.109375 22.625 23.890625 
Q 32.328125 33.6875 34.8125 36.53125 
Q 39.546875 41.84375 41.421875 45.53125 
Q 43.3125 49.21875 43.3125 52.78125 
Q 43.3125 58.59375 39.234375 62.25 
Q 35.15625 65.921875 28.609375 65.921875 
Q 23.96875 65.921875 18.8125 64.3125 
Q 13.671875 62.703125 7.8125 59.421875 
L 7.8125 69.390625 
Q 13.765625 71.78125 18.9375 73 
Q 24.125 74.21875 28.421875 74.21875 
Q 39.75 74.21875 46.484375 68.546875 
Q 53.21875 62.890625 53.21875 53.421875 
Q 53.21875 48.921875 51.53125 44.890625 
Q 49.859375 40.875 45.40625 35.40625 
Q 44.1875 33.984375 37.640625 27.21875 
Q 31.109375 20.453125 19.1875 8.296875 
z
" id="DejaVuSans-50"/>
       </defs>
       <use xlink:href="#DejaVuSans-48"/>
       <use x="63.623047" xlink:href="#DejaVuSans-46"/>
       <use x="95.410156" xlink:href="#DejaVuSans-48"/>
       <use x="159.033203" xlink:href="#DejaVuSans-50"/>
      </g>
     </g>
    </g>
    <g id="text_3">
     <!-- $F_T + \sigma_T$ -->
     <g transform="translate(93.731888 199.115938)scale(0.14 -0.14)">
      <defs>
       <path d="M 16.890625 72.90625 
L 58.6875 72.90625 
L 57.078125 64.59375 
L 25.09375 64.59375 
L 20.90625 43.109375 
L 49.8125 43.109375 
L 48.1875 34.8125 
L 19.28125 34.8125 
L 12.5 0 
L 2.6875 0 
z
" id="DejaVuSans-Oblique-70"/>
       <path d="M 5.90625 72.90625 
L 67.578125 72.90625 
L 66.015625 64.59375 
L 39.984375 64.59375 
L 27.484375 0 
L 17.578125 0 
L 30.078125 64.59375 
L 4.296875 64.59375 
z
" id="DejaVuSans-Oblique-84"/>
       <path d="M 46 62.703125 
L 46 35.5 
L 73.1875 35.5 
L 73.1875 27.203125 
L 46 27.203125 
L 46 0 
L 37.796875 0 
L 37.796875 27.203125 
L 10.59375 27.203125 
L 10.59375 35.5 
L 37.796875 35.5 
L 37.796875 62.703125 
z
" id="DejaVuSans-43"/>
       <path d="M 34.671875 47.5625 
Q 27.25 47.5625 22.21875 42.1875 
Q 16.890625 36.578125 15.140625 27.296875 
Q 13.1875 17.484375 16.3125 11.8125 
Q 19.390625 6.203125 26.65625 6.203125 
Q 33.84375 6.203125 39.109375 11.859375 
Q 44.4375 17.53125 46.34375 27.296875 
Q 48.046875 36.234375 45.015625 42.1875 
Q 42.1875 47.5625 34.671875 47.5625 
z
M 36.078125 54.734375 
L 65.921875 54.6875 
L 64.15625 45.703125 
L 54.109375 45.703125 
Q 57.90625 38.09375 55.859375 27.296875 
Q 53.21875 13.875 45.0625 6.25 
Q 36.859375 -1.421875 25.140625 -1.421875 
Q 13.375 -1.421875 8.203125 6.25 
Q 3.03125 13.875 5.671875 27.296875 
Q 8.25 40.765625 16.40625 48.390625 
Q 23.1875 54.734375 36.078125 54.734375 
z
" id="DejaVuSans-Oblique-963"/>
      </defs>
      <use transform="translate(0 0.09375)" xlink:href="#DejaVuSans-Oblique-70"/>
      <use transform="translate(57.519531 -16.3125)scale(0.7)" xlink:href="#DejaVuSans-Oblique-84"/>
      <use transform="translate(122.495117 0.09375)" xlink:href="#DejaVuSans-43"/>
      <use transform="translate(225.766602 0.09375)" xlink:href="#DejaVuSans-Oblique-963"/>
      <use transform="translate(289.145508 -16.3125)scale(0.7)" xlink:href="#DejaVuSans-Oblique-84"/>
     </g>
    </g>
   </g>
   <g id="matplotlib.axis_2">
    <g id="ytick_1">
     <g id="line2d_3">
      <defs>
       <path d="M 0 0 
L -3.5 0 
" id="m3e3a75be8c" style="stroke:#000000;stroke-width:0.8;"/>
      </defs>
      <g>
       <use style="stroke:#000000;stroke-width:0.8;" x="70.15" xlink:href="#m3e3a75be8c" y="134.624589"/>
      </g>
     </g>
     <g id="text_4">
      <!-- 0.005 -->
      <g transform="translate(34.521875 138.423808)scale(0.1 -0.1)">
       <defs>
        <path d="M 10.796875 72.90625 
L 49.515625 72.90625 
L 49.515625 64.59375 
L 19.828125 64.59375 
L 19.828125 46.734375 
Q 21.96875 47.46875 24.109375 47.828125 
Q 26.265625 48.1875 28.421875 48.1875 
Q 40.625 48.1875 47.75 41.5 
Q 54.890625 34.8125 54.890625 23.390625 
Q 54.890625 11.625 47.5625 5.09375 
Q 40.234375 -1.421875 26.90625 -1.421875 
Q 22.3125 -1.421875 17.546875 -0.640625 
Q 12.796875 0.140625 7.71875 1.703125 
L 7.71875 11.625 
Q 12.109375 9.234375 16.796875 8.0625 
Q 21.484375 6.890625 26.703125 6.890625 
Q 35.15625 6.890625 40.078125 11.328125 
Q 45.015625 15.765625 45.015625 23.390625 
Q 45.015625 31 40.078125 35.4375 
Q 35.15625 39.890625 26.703125 39.890625 
Q 22.75 39.890625 18.8125 39.015625 
Q 14.890625 38.140625 10.796875 36.28125 
z
" id="DejaVuSans-53"/>
       </defs>
       <use xlink:href="#DejaVuSans-48"/>
       <use x="63.623047" xlink:href="#DejaVuSans-46"/>
       <use x="95.410156" xlink:href="#DejaVuSans-48"/>
       <use x="159.033203" xlink:href="#DejaVuSans-48"/>
       <use x="222.65625" xlink:href="#DejaVuSans-53"/>
      </g>
     </g>
    </g>
    <g id="ytick_2">
     <g id="line2d_4">
      <g>
       <use style="stroke:#000000;stroke-width:0.8;" x="70.15" xlink:href="#m3e3a75be8c" y="95.676131"/>
      </g>
     </g>
     <g id="text_5">
      <!-- 0.010 -->
      <g transform="translate(34.521875 99.475349)scale(0.1 -0.1)">
       <use xlink:href="#DejaVuSans-48"/>
       <use x="63.623047" xlink:href="#DejaVuSans-46"/>
       <use x="95.410156" xlink:href="#DejaVuSans-48"/>
       <use x="159.033203" xlink:href="#DejaVuSans-49"/>
       <use x="222.65625" xlink:href="#DejaVuSans-48"/>
      </g>
     </g>
    </g>
    <g id="ytick_3">
     <g id="line2d_5">
      <g>
       <use style="stroke:#000000;stroke-width:0.8;" x="70.15" xlink:href="#m3e3a75be8c" y="56.727672"/>
      </g>
     </g>
     <g id="text_6">
      <!-- 0.015 -->
      <g transform="translate(34.521875 60.526891)scale(0.1 -0.1)">
       <use xlink:href="#DejaVuSans-48"/>
       <use x="63.623047" xlink:href="#DejaVuSans-46"/>
       <use x="95.410156" xlink:href="#DejaVuSans-48"/>
       <use x="159.033203" xlink:href="#DejaVuSans-49"/>
       <use x="222.65625" xlink:href="#DejaVuSans-53"/>
      </g>
     </g>
    </g>
    <g id="ytick_4">
     <g id="line2d_6">
      <g>
       <use style="stroke:#000000;stroke-width:0.8;" x="70.15" xlink:href="#m3e3a75be8c" y="17.779214"/>
      </g>
     </g>
     <g id="text_7">
      <!-- 0.020 -->
      <g transform="translate(34.521875 21.578433)scale(0.1 -0.1)">
       <use xlink:href="#DejaVuSans-48"/>
       <use x="63.623047" xlink:href="#DejaVuSans-46"/>
       <use x="95.410156" xlink:href="#DejaVuSans-48"/>
       <use x="159.033203" xlink:href="#DejaVuSans-50"/>
       <use x="222.65625" xlink:href="#DejaVuSans-48"/>
      </g>
     </g>
    </g>
    <g id="text_8">
     <!-- $v^2 / (4 D)$ -->
     <g transform="translate(27.610313 114.78)rotate(-90)scale(0.14 -0.14)">
      <defs>
       <path d="M 7.171875 54.6875 
L 16.703125 54.6875 
L 24.703125 8.203125 
L 50.875 54.6875 
L 60.40625 54.6875 
L 29.296875 0 
L 17.1875 0 
z
" id="DejaVuSans-Oblique-118"/>
       <path d="M 25.390625 72.90625 
L 33.6875 72.90625 
L 8.296875 -9.28125 
L 0 -9.28125 
z
" id="DejaVuSans-47"/>
       <path d="M 31 75.875 
Q 24.46875 64.65625 21.28125 53.65625 
Q 18.109375 42.671875 18.109375 31.390625 
Q 18.109375 20.125 21.3125 9.0625 
Q 24.515625 -2 31 -13.1875 
L 23.1875 -13.1875 
Q 15.875 -1.703125 12.234375 9.375 
Q 8.59375 20.453125 8.59375 31.390625 
Q 8.59375 42.28125 12.203125 53.3125 
Q 15.828125 64.359375 23.1875 75.875 
z
" id="DejaVuSans-40"/>
       <path d="M 37.796875 64.3125 
L 12.890625 25.390625 
L 37.796875 25.390625 
z
M 35.203125 72.90625 
L 47.609375 72.90625 
L 47.609375 25.390625 
L 58.015625 25.390625 
L 58.015625 17.1875 
L 47.609375 17.1875 
L 47.609375 0 
L 37.796875 0 
L 37.796875 17.1875 
L 4.890625 17.1875 
L 4.890625 26.703125 
z
" id="DejaVuSans-52"/>
       <path d="M 16.890625 72.90625 
L 38.09375 72.90625 
Q 54.984375 72.90625 63.59375 65.75 
Q 72.21875 58.59375 72.21875 44.484375 
Q 72.21875 35.15625 68.9375 26.53125 
Q 65.671875 17.921875 59.90625 12.015625 
Q 54.109375 5.953125 45.171875 2.96875 
Q 36.234375 0 24.03125 0 
L 2.6875 0 
z
M 25.203125 64.796875 
L 14.203125 8.109375 
L 27.09375 8.109375 
Q 43.65625 8.109375 52.734375 17.625 
Q 61.8125 27.15625 61.8125 44.484375 
Q 61.8125 54.984375 55.953125 59.890625 
Q 50.09375 64.796875 37.59375 64.796875 
z
" id="DejaVuSans-Oblique-68"/>
       <path d="M 8.015625 75.875 
L 15.828125 75.875 
Q 23.140625 64.359375 26.78125 53.3125 
Q 30.421875 42.28125 30.421875 31.390625 
Q 30.421875 20.453125 26.78125 9.375 
Q 23.140625 -1.703125 15.828125 -13.1875 
L 8.015625 -13.1875 
Q 14.5 -2 17.703125 9.0625 
Q 20.90625 20.125 20.90625 31.390625 
Q 20.90625 42.671875 17.703125 53.65625 
Q 14.5 64.65625 8.015625 75.875 
z
" id="DejaVuSans-41"/>
      </defs>
      <use transform="translate(0 0.765625)" xlink:href="#DejaVuSans-Oblique-118"/>
      <use transform="translate(63.645833 39.046875)scale(0.7)" xlink:href="#DejaVuSans-50"/>
      <use transform="translate(110.916341 0.765625)" xlink:href="#DejaVuSans-47"/>
      <use transform="translate(144.607747 0.765625)" xlink:href="#DejaVuSans-40"/>
      <use transform="translate(183.621419 0.765625)" xlink:href="#DejaVuSans-52"/>
      <use transform="translate(247.244466 0.765625)" xlink:href="#DejaVuSans-Oblique-68"/>
      <use transform="translate(324.246419 0.765625)" xlink:href="#DejaVuSans-41"/>
     </g>
    </g>
   </g>
   <g id="line2d_7">
    <path clip-path="url(#p7fafab4c00)" d="M 74.425626 160.663636 
L 76.17078 157.750835 
L 77.915933 154.838033 
L 79.661087 151.925232 
L 81.40624 149.01243 
L 83.151394 146.099629 
L 84.896547 143.186827 
L 86.641701 140.274026 
L 88.386855 137.361224 
L 90.132008 134.448423 
L 91.877162 131.535622 
L 93.622315 128.62282 
L 95.367469 125.710019 
L 97.112622 122.797217 
L 98.857776 119.884416 
L 100.602929 116.971614 
L 102.348083 114.058813 
L 104.093236 111.146011 
L 105.83839 108.23321 
L 107.583544 105.320408 
L 109.328697 102.407607 
L 111.073851 99.494805 
L 112.819004 96.582004 
L 114.564158 93.669202 
L 116.309311 90.756401 
L 118.054465 87.843599 
L 119.799618 84.930798 
L 121.544772 82.017996 
L 123.289925 79.105195 
L 125.035079 76.192393 
L 126.780232 73.279592 
L 128.525386 70.36679 
L 130.27054 67.453989 
L 132.015693 64.541187 
L 133.760847 61.628386 
L 135.506 58.715584 
L 137.251154 55.802783 
L 138.996307 52.889981 
L 140.741461 49.97718 
L 142.486614 47.064378 
L 144.231768 44.151577 
L 145.976921 41.238776 
L 147.722075 38.325974 
L 149.467229 35.413173 
L 151.212382 32.500371 
L 152.957536 29.58757 
L 154.702689 26.674768 
L 156.447843 23.761967 
L 158.192996 20.849165 
L 159.93815 17.936364 
" style="fill:none;stroke:#000000;stroke-linecap:square;stroke-width:1.5;"/>
   </g>
   <g id="patch_3">
    <path d="M 70.15 167.8 
L 70.15 10.8 
" style="fill:none;stroke:#000000;stroke-linecap:square;stroke-linejoin:miter;stroke-width:0.8;"/>
   </g>
   <g id="patch_4">
    <path d="M 164.213776 167.8 
L 164.213776 10.8 
" style="fill:none;stroke:#000000;stroke-linecap:square;stroke-linejoin:miter;stroke-width:0.8;"/>
   </g>
   <g id="patch_5">
    <path d="M 70.15 167.8 
L 164.213776 167.8 
" style="fill:none;stroke:#000000;stroke-linecap:square;stroke-linejoin:miter;stroke-width:0.8;"/>
   </g>
   <g id="patch_6">
    <path d="M 70.15 10.8 
L 164.213776 10.8 
" style="fill:none;stroke:#000000;stroke-linecap:square;stroke-linejoin:miter;stroke-width:0.8;"/>
   </g>
  </g>
 </g>
 <defs>
  <clipPath id="p7fafab4c00">
   <rect height="157" width="94.063776" x="70.15" y="10.8"/>
  </clipPath>
 </defs>
</svg>
