<?xml version="1.0" encoding="utf-8" standalone="no"?>
<!DOCTYPE svg PUBLIC "-//W3C//DTD SVG 1.1//EN"
  "http://www.w3.org/Graphics/SVG/1.1/DTD/svg11.dtd">
<!-- Created with matplotlib (https://matplotlib.org/) -->
<svg height="180pt" version="1.1" viewBox="0 0 216 180" width="216pt" xmlns="http://www.w3.org/2000/svg" xmlns:xlink="http://www.w3.org/1999/xlink">
 <metadata>
  <rdf:RDF xmlns:cc="http://creativecommons.org/ns#" xmlns:dc="http://purl.org/dc/elements/1.1/" xmlns:rdf="http://www.w3.org/1999/02/22-rdf-syntax-ns#">
   <cc:Work>
    <dc:type rdf:resource="http://purl.org/dc/dcmitype/StillImage"/>
    <dc:date>2023-06-21T11:46:26.626447</dc:date>
    <dc:format>image/svg+xml</dc:format>
    <dc:creator>
     <cc:Agent>
      <dc:title>Matplotlib v3.3.4, https://matplotlib.org/</dc:title>
     </cc:Agent>
    </dc:creator>
   </cc:Work>
  </rdf:RDF>
 </metadata>
 <defs>
  <style type="text/css">*{stroke-linecap:butt;stroke-linejoin:round;}</style>
 </defs>
 <g id="figure_1">
  <g id="patch_1">
   <path d="M 0 180 
L 216 180 
L 216 0 
L 0 0 
z
" style="fill:none;"/>
  </g>
  <g id="axes_1">
   <g id="patch_2">
    <path d="M 42.175 129 
L 203.550536 129 
L 203.550536 10.8 
L 42.175 10.8 
z
" style="fill:#ffffff;"/>
   </g>
   <g id="PathCollection_1">
    <defs>
     <path d="M -4.1833 4.1833 
L 4.1833 -4.1833 
M -4.1833 -4.1833 
L 4.1833 4.1833 
" id="maeae764a94" style="stroke:#0504aa;stroke-width:1.5;"/>
    </defs>
    <g clip-path="url(#pba77103314)">
     <use style="fill:#0504aa;stroke:#0504aa;stroke-width:1.5;" x="49.510252" xlink:href="#maeae764a94" y="79.801164"/>
     <use style="fill:#0504aa;stroke:#0504aa;stroke-width:1.5;" x="65.810811" xlink:href="#maeae764a94" y="81.83487"/>
     <use style="fill:#0504aa;stroke:#0504aa;stroke-width:1.5;" x="82.11137" xlink:href="#maeae764a94" y="85.148617"/>
     <use style="fill:#0504aa;stroke:#0504aa;stroke-width:1.5;" x="98.411929" xlink:href="#maeae764a94" y="90.215748"/>
     <use style="fill:#0504aa;stroke:#0504aa;stroke-width:1.5;" x="114.712489" xlink:href="#maeae764a94" y="96.270532"/>
     <use style="fill:#0504aa;stroke:#0504aa;stroke-width:1.5;" x="131.013048" xlink:href="#maeae764a94" y="102.513511"/>
     <use style="fill:#0504aa;stroke:#0504aa;stroke-width:1.5;" x="147.313607" xlink:href="#maeae764a94" y="108.640687"/>
     <use style="fill:#0504aa;stroke:#0504aa;stroke-width:1.5;" x="163.614166" xlink:href="#maeae764a94" y="114.337645"/>
     <use style="fill:#0504aa;stroke:#0504aa;stroke-width:1.5;" x="179.914725" xlink:href="#maeae764a94" y="119.32687"/>
     <use style="fill:#0504aa;stroke:#0504aa;stroke-width:1.5;" x="196.215285" xlink:href="#maeae764a94" y="123.627273"/>
    </g>
   </g>
   <g id="PathCollection_2">
    <defs>
     <path d="M -4.1833 0 
L 4.1833 0 
M 0 4.1833 
L 0 -4.1833 
" id="m96a82d77a9" style="stroke:#0165fc;stroke-width:1.5;"/>
    </defs>
    <g clip-path="url(#pba77103314)">
     <use style="fill:#0165fc;stroke:#0165fc;stroke-width:1.5;" x="49.510252" xlink:href="#m96a82d77a9" y="54.381936"/>
     <use style="fill:#0165fc;stroke:#0165fc;stroke-width:1.5;" x="65.810811" xlink:href="#m96a82d77a9" y="58.168596"/>
     <use style="fill:#0165fc;stroke:#0165fc;stroke-width:1.5;" x="82.11137" xlink:href="#m96a82d77a9" y="64.001978"/>
     <use style="fill:#0165fc;stroke:#0165fc;stroke-width:1.5;" x="98.411929" xlink:href="#m96a82d77a9" y="71.839083"/>
     <use style="fill:#0165fc;stroke:#0165fc;stroke-width:1.5;" x="114.712489" xlink:href="#m96a82d77a9" y="80.887074"/>
     <use style="fill:#0165fc;stroke:#0165fc;stroke-width:1.5;" x="131.013048" xlink:href="#m96a82d77a9" y="89.641252"/>
     <use style="fill:#0165fc;stroke:#0165fc;stroke-width:1.5;" x="147.313607" xlink:href="#m96a82d77a9" y="98.030299"/>
     <use style="fill:#0165fc;stroke:#0165fc;stroke-width:1.5;" x="163.614166" xlink:href="#m96a82d77a9" y="105.599075"/>
     <use style="fill:#0165fc;stroke:#0165fc;stroke-width:1.5;" x="179.914725" xlink:href="#m96a82d77a9" y="112.138756"/>
     <use style="fill:#0165fc;stroke:#0165fc;stroke-width:1.5;" x="196.215285" xlink:href="#m96a82d77a9" y="117.745056"/>
    </g>
   </g>
   <g id="PathCollection_3">
    <defs>
     <path d="M 0 0 
L -4.1833 -0 
M 0 0 
L 2.09165 3.34664 
M 0 0 
L 2.09165 -3.34664 
" id="m2ddac48466" style="stroke:#840000;stroke-width:1.5;"/>
    </defs>
    <g clip-path="url(#pba77103314)">
     <use style="fill:#840000;stroke:#840000;stroke-width:1.5;" x="49.510252" xlink:href="#m2ddac48466" y="52.866427"/>
     <use style="fill:#840000;stroke:#840000;stroke-width:1.5;" x="65.810811" xlink:href="#m2ddac48466" y="54.716294"/>
     <use style="fill:#840000;stroke:#840000;stroke-width:1.5;" x="82.11137" xlink:href="#m2ddac48466" y="58.226521"/>
     <use style="fill:#840000;stroke:#840000;stroke-width:1.5;" x="98.411929" xlink:href="#m2ddac48466" y="64.03645"/>
     <use style="fill:#840000;stroke:#840000;stroke-width:1.5;" x="114.712489" xlink:href="#m2ddac48466" y="71.862458"/>
     <use style="fill:#840000;stroke:#840000;stroke-width:1.5;" x="131.013048" xlink:href="#m2ddac48466" y="80.510676"/>
     <use style="fill:#840000;stroke:#840000;stroke-width:1.5;" x="147.313607" xlink:href="#m2ddac48466" y="89.424597"/>
     <use style="fill:#840000;stroke:#840000;stroke-width:1.5;" x="163.614166" xlink:href="#m2ddac48466" y="97.963488"/>
     <use style="fill:#840000;stroke:#840000;stroke-width:1.5;" x="179.914725" xlink:href="#m2ddac48466" y="105.566122"/>
     <use style="fill:#840000;stroke:#840000;stroke-width:1.5;" x="196.215285" xlink:href="#m2ddac48466" y="112.279289"/>
    </g>
   </g>
   <g id="PathCollection_4">
    <defs>
     <path d="M 0 0 
L 4.1833 0 
M 0 0 
L -2.09165 -3.34664 
M 0 0 
L -2.09165 3.34664 
" id="m55d1dd4fa5" style="stroke:#ff474c;stroke-width:1.5;"/>
    </defs>
    <g clip-path="url(#pba77103314)">
     <use style="fill:#ff474c;stroke:#ff474c;stroke-width:1.5;" x="49.510252" xlink:href="#m55d1dd4fa5" y="16.172727"/>
     <use style="fill:#ff474c;stroke:#ff474c;stroke-width:1.5;" x="65.810811" xlink:href="#m55d1dd4fa5" y="19.73068"/>
     <use style="fill:#ff474c;stroke:#ff474c;stroke-width:1.5;" x="82.11137" xlink:href="#m55d1dd4fa5" y="26.059236"/>
     <use style="fill:#ff474c;stroke:#ff474c;stroke-width:1.5;" x="98.411929" xlink:href="#m55d1dd4fa5" y="35.631517"/>
     <use style="fill:#ff474c;stroke:#ff474c;stroke-width:1.5;" x="114.712489" xlink:href="#m55d1dd4fa5" y="47.61043"/>
     <use style="fill:#ff474c;stroke:#ff474c;stroke-width:1.5;" x="131.013048" xlink:href="#m55d1dd4fa5" y="60.089602"/>
     <use style="fill:#ff474c;stroke:#ff474c;stroke-width:1.5;" x="147.313607" xlink:href="#m55d1dd4fa5" y="72.520217"/>
     <use style="fill:#ff474c;stroke:#ff474c;stroke-width:1.5;" x="163.614166" xlink:href="#m55d1dd4fa5" y="83.997817"/>
     <use style="fill:#ff474c;stroke:#ff474c;stroke-width:1.5;" x="179.914725" xlink:href="#m55d1dd4fa5" y="94.086833"/>
     <use style="fill:#ff474c;stroke:#ff474c;stroke-width:1.5;" x="196.215285" xlink:href="#m55d1dd4fa5" y="102.849217"/>
    </g>
   </g>
   <g id="matplotlib.axis_1">
    <g id="xtick_1">
     <g id="line2d_1">
      <defs>
       <path d="M 0 0 
L 0 3.5 
" id="m63b6595489" style="stroke:#000000;stroke-width:0.8;"/>
      </defs>
      <g>
       <use style="stroke:#000000;stroke-width:0.8;" x="49.510252" xlink:href="#m63b6595489" y="129"/>
      </g>
     </g>
     <g id="text_1">
      <!-- $\mathdefault{10^{0}}$ -->
      <g transform="translate(40.710252 143.598437)scale(0.1 -0.1)">
       <defs>
        <path d="M 12.40625 8.296875 
L 28.515625 8.296875 
L 28.515625 63.921875 
L 10.984375 60.40625 
L 10.984375 69.390625 
L 28.421875 72.90625 
L 38.28125 72.90625 
L 38.28125 8.296875 
L 54.390625 8.296875 
L 54.390625 0 
L 12.40625 0 
z
" id="DejaVuSans-49"/>
        <path d="M 31.78125 66.40625 
Q 24.171875 66.40625 20.328125 58.90625 
Q 16.5 51.421875 16.5 36.375 
Q 16.5 21.390625 20.328125 13.890625 
Q 24.171875 6.390625 31.78125 6.390625 
Q 39.453125 6.390625 43.28125 13.890625 
Q 47.125 21.390625 47.125 36.375 
Q 47.125 51.421875 43.28125 58.90625 
Q 39.453125 66.40625 31.78125 66.40625 
z
M 31.78125 74.21875 
Q 44.046875 74.21875 50.515625 64.515625 
Q 56.984375 54.828125 56.984375 36.375 
Q 56.984375 17.96875 50.515625 8.265625 
Q 44.046875 -1.421875 31.78125 -1.421875 
Q 19.53125 -1.421875 13.0625 8.265625 
Q 6.59375 17.96875 6.59375 36.375 
Q 6.59375 54.828125 13.0625 64.515625 
Q 19.53125 74.21875 31.78125 74.21875 
z
" id="DejaVuSans-48"/>
       </defs>
       <use transform="translate(0 0.765625)" xlink:href="#DejaVuSans-49"/>
       <use transform="translate(63.623047 0.765625)" xlink:href="#DejaVuSans-48"/>
       <use transform="translate(128.203125 39.046875)scale(0.7)" xlink:href="#DejaVuSans-48"/>
      </g>
     </g>
    </g>
    <g id="xtick_2">
     <g id="line2d_2">
      <g>
       <use style="stroke:#000000;stroke-width:0.8;" x="122.862768" xlink:href="#m63b6595489" y="129"/>
      </g>
     </g>
     <g id="text_2">
      <!-- $\mathdefault{10^{1}}$ -->
      <g transform="translate(114.062768 143.598437)scale(0.1 -0.1)">
       <use transform="translate(0 0.684375)" xlink:href="#DejaVuSans-49"/>
       <use transform="translate(63.623047 0.684375)" xlink:href="#DejaVuSans-48"/>
       <use transform="translate(128.203125 38.965625)scale(0.7)" xlink:href="#DejaVuSans-49"/>
      </g>
     </g>
    </g>
    <g id="xtick_3">
     <g id="line2d_3">
      <g>
       <use style="stroke:#000000;stroke-width:0.8;" x="196.215285" xlink:href="#m63b6595489" y="129"/>
      </g>
     </g>
     <g id="text_3">
      <!-- $\mathdefault{10^{2}}$ -->
      <g transform="translate(187.415285 143.598437)scale(0.1 -0.1)">
       <defs>
        <path d="M 19.1875 8.296875 
L 53.609375 8.296875 
L 53.609375 0 
L 7.328125 0 
L 7.328125 8.296875 
Q 12.9375 14.109375 22.625 23.890625 
Q 32.328125 33.6875 34.8125 36.53125 
Q 39.546875 41.84375 41.421875 45.53125 
Q 43.3125 49.21875 43.3125 52.78125 
Q 43.3125 58.59375 39.234375 62.25 
Q 35.15625 65.921875 28.609375 65.921875 
Q 23.96875 65.921875 18.8125 64.3125 
Q 13.671875 62.703125 7.8125 59.421875 
L 7.8125 69.390625 
Q 13.765625 71.78125 18.9375 73 
Q 24.125 74.21875 28.421875 74.21875 
Q 39.75 74.21875 46.484375 68.546875 
Q 53.21875 62.890625 53.21875 53.421875 
Q 53.21875 48.921875 51.53125 44.890625 
Q 49.859375 40.875 45.40625 35.40625 
Q 44.1875 33.984375 37.640625 27.21875 
Q 31.109375 20.453125 19.1875 8.296875 
z
" id="DejaVuSans-50"/>
       </defs>
       <use transform="translate(0 0.765625)" xlink:href="#DejaVuSans-49"/>
       <use transform="translate(63.623047 0.765625)" xlink:href="#DejaVuSans-48"/>
       <use transform="translate(128.203125 39.046875)scale(0.7)" xlink:href="#DejaVuSans-50"/>
      </g>
     </g>
    </g>
    <g id="xtick_4">
     <g id="line2d_4">
      <defs>
       <path d="M 0 0 
L 0 2 
" id="m93389f2880" style="stroke:#000000;stroke-width:0.6;"/>
      </defs>
      <g>
       <use style="stroke:#000000;stroke-width:0.6;" x="42.401658" xlink:href="#m93389f2880" y="129"/>
      </g>
     </g>
    </g>
    <g id="xtick_5">
     <g id="line2d_5">
      <g>
       <use style="stroke:#000000;stroke-width:0.6;" x="46.153825" xlink:href="#m93389f2880" y="129"/>
      </g>
     </g>
    </g>
    <g id="xtick_6">
     <g id="line2d_6">
      <g>
       <use style="stroke:#000000;stroke-width:0.6;" x="71.591559" xlink:href="#m93389f2880" y="129"/>
      </g>
     </g>
    </g>
    <g id="xtick_7">
     <g id="line2d_7">
      <g>
       <use style="stroke:#000000;stroke-width:0.6;" x="84.508296" xlink:href="#m93389f2880" y="129"/>
      </g>
     </g>
    </g>
    <g id="xtick_8">
     <g id="line2d_8">
      <g>
       <use style="stroke:#000000;stroke-width:0.6;" x="93.672867" xlink:href="#m93389f2880" y="129"/>
      </g>
     </g>
    </g>
    <g id="xtick_9">
     <g id="line2d_9">
      <g>
       <use style="stroke:#000000;stroke-width:0.6;" x="100.78146" xlink:href="#m93389f2880" y="129"/>
      </g>
     </g>
    </g>
    <g id="xtick_10">
     <g id="line2d_10">
      <g>
       <use style="stroke:#000000;stroke-width:0.6;" x="106.589604" xlink:href="#m93389f2880" y="129"/>
      </g>
     </g>
    </g>
    <g id="xtick_11">
     <g id="line2d_11">
      <g>
       <use style="stroke:#000000;stroke-width:0.6;" x="111.50032" xlink:href="#m93389f2880" y="129"/>
      </g>
     </g>
    </g>
    <g id="xtick_12">
     <g id="line2d_12">
      <g>
       <use style="stroke:#000000;stroke-width:0.6;" x="115.754175" xlink:href="#m93389f2880" y="129"/>
      </g>
     </g>
    </g>
    <g id="xtick_13">
     <g id="line2d_13">
      <g>
       <use style="stroke:#000000;stroke-width:0.6;" x="119.506341" xlink:href="#m93389f2880" y="129"/>
      </g>
     </g>
    </g>
    <g id="xtick_14">
     <g id="line2d_14">
      <g>
       <use style="stroke:#000000;stroke-width:0.6;" x="144.944076" xlink:href="#m93389f2880" y="129"/>
      </g>
     </g>
    </g>
    <g id="xtick_15">
     <g id="line2d_15">
      <g>
       <use style="stroke:#000000;stroke-width:0.6;" x="157.860813" xlink:href="#m93389f2880" y="129"/>
      </g>
     </g>
    </g>
    <g id="xtick_16">
     <g id="line2d_16">
      <g>
       <use style="stroke:#000000;stroke-width:0.6;" x="167.025384" xlink:href="#m93389f2880" y="129"/>
      </g>
     </g>
    </g>
    <g id="xtick_17">
     <g id="line2d_17">
      <g>
       <use style="stroke:#000000;stroke-width:0.6;" x="174.133977" xlink:href="#m93389f2880" y="129"/>
      </g>
     </g>
    </g>
    <g id="xtick_18">
     <g id="line2d_18">
      <g>
       <use style="stroke:#000000;stroke-width:0.6;" x="179.942121" xlink:href="#m93389f2880" y="129"/>
      </g>
     </g>
    </g>
    <g id="xtick_19">
     <g id="line2d_19">
      <g>
       <use style="stroke:#000000;stroke-width:0.6;" x="184.852836" xlink:href="#m93389f2880" y="129"/>
      </g>
     </g>
    </g>
    <g id="xtick_20">
     <g id="line2d_20">
      <g>
       <use style="stroke:#000000;stroke-width:0.6;" x="189.106691" xlink:href="#m93389f2880" y="129"/>
      </g>
     </g>
    </g>
    <g id="xtick_21">
     <g id="line2d_21">
      <g>
       <use style="stroke:#000000;stroke-width:0.6;" x="192.858857" xlink:href="#m93389f2880" y="129"/>
      </g>
     </g>
    </g>
    <g id="text_4">
     <!-- $r_0$ -->
     <g transform="translate(116.632768 160.315938)scale(0.14 -0.14)">
      <defs>
       <path d="M 44.578125 46.390625 
Q 43.21875 47.125 41.453125 47.515625 
Q 39.703125 47.90625 37.703125 47.90625 
Q 30.515625 47.90625 25.140625 42.453125 
Q 19.78125 37.015625 18.015625 27.875 
L 12.5 0 
L 3.515625 0 
L 14.203125 54.6875 
L 23.1875 54.6875 
L 21.484375 46.1875 
Q 25.046875 50.921875 30 53.453125 
Q 34.96875 56 40.578125 56 
Q 42.046875 56 43.453125 55.828125 
Q 44.875 55.671875 46.296875 55.28125 
z
" id="DejaVuSans-Oblique-114"/>
      </defs>
      <use xlink:href="#DejaVuSans-Oblique-114"/>
      <use transform="translate(41.113281 -16.40625)scale(0.7)" xlink:href="#DejaVuSans-48"/>
     </g>
    </g>
   </g>
   <g id="matplotlib.axis_2">
    <g id="ytick_1">
     <g id="line2d_22">
      <defs>
       <path d="M 0 0 
L -3.5 0 
" id="m367bcf3749" style="stroke:#000000;stroke-width:0.8;"/>
      </defs>
      <g>
       <use style="stroke:#000000;stroke-width:0.8;" x="42.175" xlink:href="#m367bcf3749" y="102.593502"/>
      </g>
     </g>
     <g id="text_5">
      <!-- 2 -->
      <g transform="translate(28.8125 106.392721)scale(0.1 -0.1)">
       <use xlink:href="#DejaVuSans-50"/>
      </g>
     </g>
    </g>
    <g id="ytick_2">
     <g id="line2d_23">
      <g>
       <use style="stroke:#000000;stroke-width:0.8;" x="42.175" xlink:href="#m367bcf3749" y="62.584045"/>
      </g>
     </g>
     <g id="text_6">
      <!-- 4 -->
      <g transform="translate(28.8125 66.383264)scale(0.1 -0.1)">
       <defs>
        <path d="M 37.796875 64.3125 
L 12.890625 25.390625 
L 37.796875 25.390625 
z
M 35.203125 72.90625 
L 47.609375 72.90625 
L 47.609375 25.390625 
L 58.015625 25.390625 
L 58.015625 17.1875 
L 47.609375 17.1875 
L 47.609375 0 
L 37.796875 0 
L 37.796875 17.1875 
L 4.890625 17.1875 
L 4.890625 26.703125 
z
" id="DejaVuSans-52"/>
       </defs>
       <use xlink:href="#DejaVuSans-52"/>
      </g>
     </g>
    </g>
    <g id="ytick_3">
     <g id="line2d_24">
      <g>
       <use style="stroke:#000000;stroke-width:0.8;" x="42.175" xlink:href="#m367bcf3749" y="22.574588"/>
      </g>
     </g>
     <g id="text_7">
      <!-- 6 -->
      <g transform="translate(28.8125 26.373807)scale(0.1 -0.1)">
       <defs>
        <path d="M 33.015625 40.375 
Q 26.375 40.375 22.484375 35.828125 
Q 18.609375 31.296875 18.609375 23.390625 
Q 18.609375 15.53125 22.484375 10.953125 
Q 26.375 6.390625 33.015625 6.390625 
Q 39.65625 6.390625 43.53125 10.953125 
Q 47.40625 15.53125 47.40625 23.390625 
Q 47.40625 31.296875 43.53125 35.828125 
Q 39.65625 40.375 33.015625 40.375 
z
M 52.59375 71.296875 
L 52.59375 62.3125 
Q 48.875 64.0625 45.09375 64.984375 
Q 41.3125 65.921875 37.59375 65.921875 
Q 27.828125 65.921875 22.671875 59.328125 
Q 17.53125 52.734375 16.796875 39.40625 
Q 19.671875 43.65625 24.015625 45.921875 
Q 28.375 48.1875 33.59375 48.1875 
Q 44.578125 48.1875 50.953125 41.515625 
Q 57.328125 34.859375 57.328125 23.390625 
Q 57.328125 12.15625 50.6875 5.359375 
Q 44.046875 -1.421875 33.015625 -1.421875 
Q 20.359375 -1.421875 13.671875 8.265625 
Q 6.984375 17.96875 6.984375 36.375 
Q 6.984375 53.65625 15.1875 63.9375 
Q 23.390625 74.21875 37.203125 74.21875 
Q 40.921875 74.21875 44.703125 73.484375 
Q 48.484375 72.75 52.59375 71.296875 
z
" id="DejaVuSans-54"/>
       </defs>
       <use xlink:href="#DejaVuSans-54"/>
      </g>
     </g>
    </g>
    <g id="text_8">
     <!-- $v$ -->
     <g transform="translate(21.900938 74.1)rotate(-90)scale(0.14 -0.14)">
      <defs>
       <path d="M 7.171875 54.6875 
L 16.703125 54.6875 
L 24.703125 8.203125 
L 50.875 54.6875 
L 60.40625 54.6875 
L 29.296875 0 
L 17.1875 0 
z
" id="DejaVuSans-Oblique-118"/>
      </defs>
      <use transform="translate(0 0.3125)" xlink:href="#DejaVuSans-Oblique-118"/>
     </g>
    </g>
   </g>
   <g id="patch_3">
    <path d="M 42.175 129 
L 42.175 10.8 
" style="fill:none;stroke:#000000;stroke-linecap:square;stroke-linejoin:miter;stroke-width:0.8;"/>
   </g>
   <g id="patch_4">
    <path d="M 203.550536 129 
L 203.550536 10.8 
" style="fill:none;stroke:#000000;stroke-linecap:square;stroke-linejoin:miter;stroke-width:0.8;"/>
   </g>
   <g id="patch_5">
    <path d="M 42.175 129 
L 203.550536 129 
" style="fill:none;stroke:#000000;stroke-linecap:square;stroke-linejoin:miter;stroke-width:0.8;"/>
   </g>
   <g id="patch_6">
    <path d="M 42.175 10.8 
L 203.550536 10.8 
" style="fill:none;stroke:#000000;stroke-linecap:square;stroke-linejoin:miter;stroke-width:0.8;"/>
   </g>
  </g>
 </g>
 <defs>
  <clipPath id="pba77103314">
   <rect height="118.2" width="161.375536" x="42.175" y="10.8"/>
  </clipPath>
 </defs>
</svg>
