<?xml version="1.0" encoding="utf-8" standalone="no"?>
<!DOCTYPE svg PUBLIC "-//W3C//DTD SVG 1.1//EN"
  "http://www.w3.org/Graphics/SVG/1.1/DTD/svg11.dtd">
<!-- Created with matplotlib (https://matplotlib.org/) -->
<svg height="288pt" version="1.1" viewBox="0 0 288 288" width="288pt" xmlns="http://www.w3.org/2000/svg" xmlns:xlink="http://www.w3.org/1999/xlink">
 <metadata>
  <rdf:RDF xmlns:cc="http://creativecommons.org/ns#" xmlns:dc="http://purl.org/dc/elements/1.1/" xmlns:rdf="http://www.w3.org/1999/02/22-rdf-syntax-ns#">
   <cc:Work>
    <dc:type rdf:resource="http://purl.org/dc/dcmitype/StillImage"/>
    <dc:date>2023-04-20T14:32:09.099239</dc:date>
    <dc:format>image/svg+xml</dc:format>
    <dc:creator>
     <cc:Agent>
      <dc:title>Matplotlib v3.3.4, https://matplotlib.org/</dc:title>
     </cc:Agent>
    </dc:creator>
   </cc:Work>
  </rdf:RDF>
 </metadata>
 <defs>
  <style type="text/css">*{stroke-linecap:butt;stroke-linejoin:round;}</style>
 </defs>
 <g id="figure_1">
  <g id="patch_1">
   <path d="M 0 288 
L 288 288 
L 288 0 
L 0 0 
z
" style="fill:none;"/>
  </g>
  <g id="axes_1">
   <g id="patch_2">
    <path d="M 56.4 234.6 
L 277.2 234.6 
L 277.2 21.8 
L 56.4 21.8 
z
" style="fill:#ffffff;"/>
   </g>
   <g id="PathCollection_1">
    <defs>
     <path d="M 0 3 
C 0.795609 3 1.55874 2.683901 2.12132 2.12132 
C 2.683901 1.55874 3 0.795609 3 0 
C 3 -0.795609 2.683901 -1.55874 2.12132 -2.12132 
C 1.55874 -2.683901 0.795609 -3 0 -3 
C -0.795609 -3 -1.55874 -2.683901 -2.12132 -2.12132 
C -2.683901 -1.55874 -3 -0.795609 -3 0 
C -3 0.795609 -2.683901 1.55874 -2.12132 2.12132 
C -1.55874 2.683901 -0.795609 3 0 3 
z
" id="md54f585d28" style="stroke:#1f77b4;"/>
    </defs>
    <g clip-path="url(#p372604ec0e)">
     <use style="fill:#1f77b4;stroke:#1f77b4;" x="267.163636" xlink:href="#md54f585d28" y="32.83072"/>
     <use style="fill:#1f77b4;stroke:#1f77b4;" x="266.985791" xlink:href="#md54f585d28" y="33.423447"/>
     <use style="fill:#1f77b4;stroke:#1f77b4;" x="266.023381" xlink:href="#md54f585d28" y="34.320581"/>
     <use style="fill:#1f77b4;stroke:#1f77b4;" x="263.05455" xlink:href="#md54f585d28" y="37.157314"/>
     <use style="fill:#1f77b4;stroke:#1f77b4;" x="256.508631" xlink:href="#md54f585d28" y="42.878586"/>
     <use style="fill:#1f77b4;stroke:#1f77b4;" x="245.282642" xlink:href="#md54f585d28" y="52.857539"/>
     <use style="fill:#1f77b4;stroke:#1f77b4;" x="228.971172" xlink:href="#md54f585d28" y="68.04417"/>
     <use style="fill:#1f77b4;stroke:#1f77b4;" x="208.123538" xlink:href="#md54f585d28" y="87.290821"/>
     <use style="fill:#1f77b4;stroke:#1f77b4;" x="184.888028" xlink:href="#md54f585d28" y="109.910003"/>
     <use style="fill:#1f77b4;stroke:#1f77b4;" x="161.403036" xlink:href="#md54f585d28" y="132.157107"/>
     <use style="fill:#1f77b4;stroke:#1f77b4;" x="139.839956" xlink:href="#md54f585d28" y="153.507391"/>
     <use style="fill:#1f77b4;stroke:#1f77b4;" x="121.02319" xlink:href="#md54f585d28" y="171.551654"/>
     <use style="fill:#1f77b4;stroke:#1f77b4;" x="105.416697" xlink:href="#md54f585d28" y="186.865513"/>
     <use style="fill:#1f77b4;stroke:#1f77b4;" x="92.854768" xlink:href="#md54f585d28" y="198.943944"/>
     <use style="fill:#1f77b4;stroke:#1f77b4;" x="82.978602" xlink:href="#md54f585d28" y="208.670521"/>
    </g>
   </g>
   <g id="PathCollection_2">
    <defs>
     <path d="M 0 3 
C 0.795609 3 1.55874 2.683901 2.12132 2.12132 
C 2.683901 1.55874 3 0.795609 3 0 
C 3 -0.795609 2.683901 -1.55874 2.12132 -2.12132 
C 1.55874 -2.683901 0.795609 -3 0 -3 
C -0.795609 -3 -1.55874 -2.683901 -2.12132 -2.12132 
C -2.683901 -1.55874 -3 -0.795609 -3 0 
C -3 0.795609 -2.683901 1.55874 -2.12132 2.12132 
C -1.55874 2.683901 -0.795609 3 0 3 
z
" id="m5afcb1a572" style="stroke:#ff7f0e;"/>
    </defs>
    <g clip-path="url(#p372604ec0e)">
     <use style="fill:#ff7f0e;stroke:#ff7f0e;" x="267.083838" xlink:href="#m5afcb1a572" y="34.444545"/>
     <use style="fill:#ff7f0e;stroke:#ff7f0e;" x="266.424063" xlink:href="#m5afcb1a572" y="35.486278"/>
     <use style="fill:#ff7f0e;stroke:#ff7f0e;" x="264.051196" xlink:href="#m5afcb1a572" y="37.688042"/>
     <use style="fill:#ff7f0e;stroke:#ff7f0e;" x="258.385619" xlink:href="#m5afcb1a572" y="42.407181"/>
     <use style="fill:#ff7f0e;stroke:#ff7f0e;" x="247.856819" xlink:href="#m5afcb1a572" y="51.519436"/>
     <use style="fill:#ff7f0e;stroke:#ff7f0e;" x="232.145231" xlink:href="#m5afcb1a572" y="65.841857"/>
     <use style="fill:#ff7f0e;stroke:#ff7f0e;" x="211.965801" xlink:href="#m5afcb1a572" y="84.261395"/>
     <use style="fill:#ff7f0e;stroke:#ff7f0e;" x="188.627198" xlink:href="#m5afcb1a572" y="106.546303"/>
     <use style="fill:#ff7f0e;stroke:#ff7f0e;" x="164.624975" xlink:href="#m5afcb1a572" y="129.558211"/>
     <use style="fill:#ff7f0e;stroke:#ff7f0e;" x="142.328068" xlink:href="#m5afcb1a572" y="150.7497"/>
     <use style="fill:#ff7f0e;stroke:#ff7f0e;" x="122.841564" xlink:href="#m5afcb1a572" y="170.050165"/>
     <use style="fill:#ff7f0e;stroke:#ff7f0e;" x="106.517433" xlink:href="#m5afcb1a572" y="185.455869"/>
     <use style="fill:#ff7f0e;stroke:#ff7f0e;" x="93.462856" xlink:href="#m5afcb1a572" y="198.162632"/>
     <use style="fill:#ff7f0e;stroke:#ff7f0e;" x="83.188801" xlink:href="#m5afcb1a572" y="207.828795"/>
     <use style="fill:#ff7f0e;stroke:#ff7f0e;" x="75.275985" xlink:href="#m5afcb1a572" y="215.654254"/>
    </g>
   </g>
   <g id="PathCollection_3">
    <defs>
     <path d="M 0 3 
C 0.795609 3 1.55874 2.683901 2.12132 2.12132 
C 2.683901 1.55874 3 0.795609 3 0 
C 3 -0.795609 2.683901 -1.55874 2.12132 -2.12132 
C 1.55874 -2.683901 0.795609 -3 0 -3 
C -0.795609 -3 -1.55874 -2.683901 -2.12132 -2.12132 
C -2.683901 -1.55874 -3 -0.795609 -3 0 
C -3 0.795609 -2.683901 1.55874 -2.12132 2.12132 
C -1.55874 2.683901 -0.795609 3 0 3 
z
" id="mf07e7690fb" style="stroke:#2ca02c;"/>
    </defs>
    <g clip-path="url(#p372604ec0e)">
     <use style="fill:#2ca02c;stroke:#2ca02c;" x="266.494752" xlink:href="#mf07e7690fb" y="37.767325"/>
     <use style="fill:#2ca02c;stroke:#2ca02c;" x="264.065941" xlink:href="#mf07e7690fb" y="40.50555"/>
     <use style="fill:#2ca02c;stroke:#2ca02c;" x="258.193851" xlink:href="#mf07e7690fb" y="45.352652"/>
     <use style="fill:#2ca02c;stroke:#2ca02c;" x="247.161598" xlink:href="#mf07e7690fb" y="54.598769"/>
     <use style="fill:#2ca02c;stroke:#2ca02c;" x="230.274309" xlink:href="#mf07e7690fb" y="68.958566"/>
     <use style="fill:#2ca02c;stroke:#2ca02c;" x="208.879572" xlink:href="#mf07e7690fb" y="88.360955"/>
     <use style="fill:#2ca02c;stroke:#2ca02c;" x="185.076081" xlink:href="#mf07e7690fb" y="109.935797"/>
     <use style="fill:#2ca02c;stroke:#2ca02c;" x="160.533512" xlink:href="#mf07e7690fb" y="133.21001"/>
     <use style="fill:#2ca02c;stroke:#2ca02c;" x="137.611206" xlink:href="#mf07e7690fb" y="155.33131"/>
     <use style="fill:#2ca02c;stroke:#2ca02c;" x="118.066073" xlink:href="#mf07e7690fb" y="173.804515"/>
     <use style="fill:#2ca02c;stroke:#2ca02c;" x="102.088754" xlink:href="#mf07e7690fb" y="189.491555"/>
     <use style="fill:#2ca02c;stroke:#2ca02c;" x="89.333565" xlink:href="#mf07e7690fb" y="201.773784"/>
     <use style="fill:#2ca02c;stroke:#2ca02c;" x="79.47603" xlink:href="#mf07e7690fb" y="211.460283"/>
     <use style="fill:#2ca02c;stroke:#2ca02c;" x="72.008478" xlink:href="#mf07e7690fb" y="219.086618"/>
     <use style="fill:#2ca02c;stroke:#2ca02c;" x="66.436364" xlink:href="#mf07e7690fb" y="224.284342"/>
    </g>
   </g>
   <g id="PathCollection_4">
    <defs>
     <path d="M 0 3 
C 0.795609 3 1.55874 2.683901 2.12132 2.12132 
C 2.683901 1.55874 3 0.795609 3 0 
C 3 -0.795609 2.683901 -1.55874 2.12132 -2.12132 
C 1.55874 -2.683901 0.795609 -3 0 -3 
C -0.795609 -3 -1.55874 -2.683901 -2.12132 -2.12132 
C -2.683901 -1.55874 -3 -0.795609 -3 0 
C -3 0.795609 -2.683901 1.55874 -2.12132 2.12132 
C -1.55874 2.683901 -0.795609 3 0 3 
z
" id="m0ea207c62e" style="stroke:#d62728;"/>
    </defs>
    <g clip-path="url(#p372604ec0e)">
     <use style="fill:#d62728;stroke:#d62728;" x="265.72186" xlink:href="#m0ea207c62e" y="39.222207"/>
     <use style="fill:#d62728;stroke:#d62728;" x="263.019389" xlink:href="#m0ea207c62e" y="40.414466"/>
     <use style="fill:#d62728;stroke:#d62728;" x="256.95878" xlink:href="#m0ea207c62e" y="45.980682"/>
     <use style="fill:#d62728;stroke:#d62728;" x="247.464593" xlink:href="#m0ea207c62e" y="52.803399"/>
     <use style="fill:#d62728;stroke:#d62728;" x="232.318093" xlink:href="#m0ea207c62e" y="67.090757"/>
     <use style="fill:#d62728;stroke:#d62728;" x="214.118957" xlink:href="#m0ea207c62e" y="83.95837"/>
     <use style="fill:#d62728;stroke:#d62728;" x="193.261721" xlink:href="#m0ea207c62e" y="101.997864"/>
     <use style="fill:#d62728;stroke:#d62728;" x="171.5467" xlink:href="#m0ea207c62e" y="121.803882"/>
     <use style="fill:#d62728;stroke:#d62728;" x="151.368949" xlink:href="#m0ea207c62e" y="139.180331"/>
     <use style="fill:#d62728;stroke:#d62728;" x="130.438237" xlink:href="#m0ea207c62e" y="161.832389"/>
     <use style="fill:#d62728;stroke:#d62728;" x="112.763374" xlink:href="#m0ea207c62e" y="180.133594"/>
     <use style="fill:#d62728;stroke:#d62728;" x="99.093446" xlink:href="#m0ea207c62e" y="192.929673"/>
     <use style="fill:#d62728;stroke:#d62728;" x="87.10776" xlink:href="#m0ea207c62e" y="205.059632"/>
     <use style="fill:#d62728;stroke:#d62728;" x="79.478494" xlink:href="#m0ea207c62e" y="211.471967"/>
     <use style="fill:#d62728;stroke:#d62728;" x="71.767974" xlink:href="#m0ea207c62e" y="220.477363"/>
    </g>
   </g>
   <g id="matplotlib.axis_1">
    <g id="xtick_1">
     <g id="line2d_1">
      <defs>
       <path d="M 0 0 
L 0 3.5 
" id="m1888f19695" style="stroke:#000000;stroke-width:0.8;"/>
      </defs>
      <g>
       <use style="stroke:#000000;stroke-width:0.8;" x="105.447654" xlink:href="#m1888f19695" y="234.6"/>
      </g>
     </g>
     <g id="text_1">
      <!-- 1 -->
      <g transform="translate(102.266404 249.198438)scale(0.1 -0.1)">
       <defs>
        <path d="M 12.40625 8.296875 
L 28.515625 8.296875 
L 28.515625 63.921875 
L 10.984375 60.40625 
L 10.984375 69.390625 
L 28.421875 72.90625 
L 38.28125 72.90625 
L 38.28125 8.296875 
L 54.390625 8.296875 
L 54.390625 0 
L 12.40625 0 
z
" id="DejaVuSans-49"/>
       </defs>
       <use xlink:href="#DejaVuSans-49"/>
      </g>
     </g>
    </g>
    <g id="xtick_2">
     <g id="line2d_2">
      <g>
       <use style="stroke:#000000;stroke-width:0.8;" x="159.357324" xlink:href="#m1888f19695" y="234.6"/>
      </g>
     </g>
     <g id="text_2">
      <!-- 2 -->
      <g transform="translate(156.176074 249.198438)scale(0.1 -0.1)">
       <defs>
        <path d="M 19.1875 8.296875 
L 53.609375 8.296875 
L 53.609375 0 
L 7.328125 0 
L 7.328125 8.296875 
Q 12.9375 14.109375 22.625 23.890625 
Q 32.328125 33.6875 34.8125 36.53125 
Q 39.546875 41.84375 41.421875 45.53125 
Q 43.3125 49.21875 43.3125 52.78125 
Q 43.3125 58.59375 39.234375 62.25 
Q 35.15625 65.921875 28.609375 65.921875 
Q 23.96875 65.921875 18.8125 64.3125 
Q 13.671875 62.703125 7.8125 59.421875 
L 7.8125 69.390625 
Q 13.765625 71.78125 18.9375 73 
Q 24.125 74.21875 28.421875 74.21875 
Q 39.75 74.21875 46.484375 68.546875 
Q 53.21875 62.890625 53.21875 53.421875 
Q 53.21875 48.921875 51.53125 44.890625 
Q 49.859375 40.875 45.40625 35.40625 
Q 44.1875 33.984375 37.640625 27.21875 
Q 31.109375 20.453125 19.1875 8.296875 
z
" id="DejaVuSans-50"/>
       </defs>
       <use xlink:href="#DejaVuSans-50"/>
      </g>
     </g>
    </g>
    <g id="xtick_3">
     <g id="line2d_3">
      <g>
       <use style="stroke:#000000;stroke-width:0.8;" x="213.266994" xlink:href="#m1888f19695" y="234.6"/>
      </g>
     </g>
     <g id="text_3">
      <!-- 3 -->
      <g transform="translate(210.085744 249.198438)scale(0.1 -0.1)">
       <defs>
        <path d="M 40.578125 39.3125 
Q 47.65625 37.796875 51.625 33 
Q 55.609375 28.21875 55.609375 21.1875 
Q 55.609375 10.40625 48.1875 4.484375 
Q 40.765625 -1.421875 27.09375 -1.421875 
Q 22.515625 -1.421875 17.65625 -0.515625 
Q 12.796875 0.390625 7.625 2.203125 
L 7.625 11.71875 
Q 11.71875 9.328125 16.59375 8.109375 
Q 21.484375 6.890625 26.8125 6.890625 
Q 36.078125 6.890625 40.9375 10.546875 
Q 45.796875 14.203125 45.796875 21.1875 
Q 45.796875 27.640625 41.28125 31.265625 
Q 36.765625 34.90625 28.71875 34.90625 
L 20.21875 34.90625 
L 20.21875 43.015625 
L 29.109375 43.015625 
Q 36.375 43.015625 40.234375 45.921875 
Q 44.09375 48.828125 44.09375 54.296875 
Q 44.09375 59.90625 40.109375 62.90625 
Q 36.140625 65.921875 28.71875 65.921875 
Q 24.65625 65.921875 20.015625 65.03125 
Q 15.375 64.15625 9.8125 62.3125 
L 9.8125 71.09375 
Q 15.4375 72.65625 20.34375 73.4375 
Q 25.25 74.21875 29.59375 74.21875 
Q 40.828125 74.21875 47.359375 69.109375 
Q 53.90625 64.015625 53.90625 55.328125 
Q 53.90625 49.265625 50.4375 45.09375 
Q 46.96875 40.921875 40.578125 39.3125 
z
" id="DejaVuSans-51"/>
       </defs>
       <use xlink:href="#DejaVuSans-51"/>
      </g>
     </g>
    </g>
    <g id="xtick_4">
     <g id="line2d_4">
      <g>
       <use style="stroke:#000000;stroke-width:0.8;" x="267.176664" xlink:href="#m1888f19695" y="234.6"/>
      </g>
     </g>
     <g id="text_4">
      <!-- 4 -->
      <g transform="translate(263.995414 249.198438)scale(0.1 -0.1)">
       <defs>
        <path d="M 37.796875 64.3125 
L 12.890625 25.390625 
L 37.796875 25.390625 
z
M 35.203125 72.90625 
L 47.609375 72.90625 
L 47.609375 25.390625 
L 58.015625 25.390625 
L 58.015625 17.1875 
L 47.609375 17.1875 
L 47.609375 0 
L 37.796875 0 
L 37.796875 17.1875 
L 4.890625 17.1875 
L 4.890625 26.703125 
z
" id="DejaVuSans-52"/>
       </defs>
       <use xlink:href="#DejaVuSans-52"/>
      </g>
     </g>
    </g>
    <g id="text_5">
     <!-- $4 D F_T + 4 \xi_0 (D^2 s_T)^{2/3}$ -->
     <g transform="translate(99.81 268.018125)scale(0.14 -0.14)">
      <defs>
       <path d="M 16.890625 72.90625 
L 38.09375 72.90625 
Q 54.984375 72.90625 63.59375 65.75 
Q 72.21875 58.59375 72.21875 44.484375 
Q 72.21875 35.15625 68.9375 26.53125 
Q 65.671875 17.921875 59.90625 12.015625 
Q 54.109375 5.953125 45.171875 2.96875 
Q 36.234375 0 24.03125 0 
L 2.6875 0 
z
M 25.203125 64.796875 
L 14.203125 8.109375 
L 27.09375 8.109375 
Q 43.65625 8.109375 52.734375 17.625 
Q 61.8125 27.15625 61.8125 44.484375 
Q 61.8125 54.984375 55.953125 59.890625 
Q 50.09375 64.796875 37.59375 64.796875 
z
" id="DejaVuSans-Oblique-68"/>
       <path d="M 16.890625 72.90625 
L 58.6875 72.90625 
L 57.078125 64.59375 
L 25.09375 64.59375 
L 20.90625 43.109375 
L 49.8125 43.109375 
L 48.1875 34.8125 
L 19.28125 34.8125 
L 12.5 0 
L 2.6875 0 
z
" id="DejaVuSans-Oblique-70"/>
       <path d="M 5.90625 72.90625 
L 67.578125 72.90625 
L 66.015625 64.59375 
L 39.984375 64.59375 
L 27.484375 0 
L 17.578125 0 
L 30.078125 64.59375 
L 4.296875 64.59375 
z
" id="DejaVuSans-Oblique-84"/>
       <path d="M 46 62.703125 
L 46 35.5 
L 73.1875 35.5 
L 73.1875 27.203125 
L 46 27.203125 
L 46 0 
L 37.796875 0 
L 37.796875 27.203125 
L 10.59375 27.203125 
L 10.59375 35.5 
L 37.796875 35.5 
L 37.796875 62.703125 
z
" id="DejaVuSans-43"/>
       <path d="M 31.5 6.203125 
Q 37.9375 6.15625 41.0625 2.484375 
Q 44.4375 -1.375 43.3125 -7.234375 
Q 42.1875 -12.84375 37.84375 -16.75 
Q 33.109375 -21 25.140625 -21 
Q 25.875 -17.328125 26.5625 -13.625 
Q 29.890625 -13.875 32.375 -11.71875 
Q 34.28125 -10.015625 34.625 -8.203125 
Q 35.109375 -5.609375 33.984375 -3.46875 
Q 32.8125 -1.421875 30.03125 -1.421875 
Q -0.390625 -1.421875 3.765625 19.921875 
Q 6.59375 34.578125 23.6875 38.875 
Q 10.359375 40.625 12.84375 53.328125 
Q 14.703125 62.9375 26.21875 66.9375 
L 16.0625 66.9375 
L 17.828125 75.984375 
L 56.34375 75.984375 
L 54.59375 66.9375 
Q 23.875 66.9375 21.09375 52.734375 
Q 19.28125 43.40625 45.015625 42.96875 
L 43.40625 34.671875 
Q 15.765625 35.75 12.796875 19.921875 
Q 10.296875 6.6875 31.5 6.203125 
z
" id="DejaVuSans-Oblique-958"/>
       <path d="M 31.78125 66.40625 
Q 24.171875 66.40625 20.328125 58.90625 
Q 16.5 51.421875 16.5 36.375 
Q 16.5 21.390625 20.328125 13.890625 
Q 24.171875 6.390625 31.78125 6.390625 
Q 39.453125 6.390625 43.28125 13.890625 
Q 47.125 21.390625 47.125 36.375 
Q 47.125 51.421875 43.28125 58.90625 
Q 39.453125 66.40625 31.78125 66.40625 
z
M 31.78125 74.21875 
Q 44.046875 74.21875 50.515625 64.515625 
Q 56.984375 54.828125 56.984375 36.375 
Q 56.984375 17.96875 50.515625 8.265625 
Q 44.046875 -1.421875 31.78125 -1.421875 
Q 19.53125 -1.421875 13.0625 8.265625 
Q 6.59375 17.96875 6.59375 36.375 
Q 6.59375 54.828125 13.0625 64.515625 
Q 19.53125 74.21875 31.78125 74.21875 
z
" id="DejaVuSans-48"/>
       <path d="M 31 75.875 
Q 24.46875 64.65625 21.28125 53.65625 
Q 18.109375 42.671875 18.109375 31.390625 
Q 18.109375 20.125 21.3125 9.0625 
Q 24.515625 -2 31 -13.1875 
L 23.1875 -13.1875 
Q 15.875 -1.703125 12.234375 9.375 
Q 8.59375 20.453125 8.59375 31.390625 
Q 8.59375 42.28125 12.203125 53.3125 
Q 15.828125 64.359375 23.1875 75.875 
z
" id="DejaVuSans-40"/>
       <path d="M 50 53.078125 
L 48.296875 44.578125 
Q 44.734375 46.53125 40.765625 47.5 
Q 36.8125 48.484375 32.625 48.484375 
Q 25.53125 48.484375 21.453125 46.0625 
Q 17.390625 43.65625 17.390625 39.5 
Q 17.390625 34.671875 26.859375 32.078125 
Q 27.59375 31.890625 27.9375 31.78125 
L 30.8125 30.90625 
Q 39.796875 28.421875 42.796875 25.6875 
Q 45.796875 22.953125 45.796875 18.21875 
Q 45.796875 9.515625 38.890625 4.046875 
Q 31.984375 -1.421875 20.796875 -1.421875 
Q 16.453125 -1.421875 11.671875 -0.578125 
Q 6.890625 0.25 1.125 2 
L 2.875 11.28125 
Q 7.8125 8.734375 12.59375 7.421875 
Q 17.390625 6.109375 21.78125 6.109375 
Q 28.375 6.109375 32.5 8.9375 
Q 36.625 11.765625 36.625 16.109375 
Q 36.625 20.796875 25.78125 23.6875 
L 24.859375 23.921875 
L 21.78125 24.703125 
Q 14.9375 26.515625 11.765625 29.46875 
Q 8.59375 32.421875 8.59375 37.015625 
Q 8.59375 45.75 15.15625 50.875 
Q 21.734375 56 33.015625 56 
Q 37.453125 56 41.671875 55.265625 
Q 45.90625 54.546875 50 53.078125 
z
" id="DejaVuSans-Oblique-115"/>
       <path d="M 8.015625 75.875 
L 15.828125 75.875 
Q 23.140625 64.359375 26.78125 53.3125 
Q 30.421875 42.28125 30.421875 31.390625 
Q 30.421875 20.453125 26.78125 9.375 
Q 23.140625 -1.703125 15.828125 -13.1875 
L 8.015625 -13.1875 
Q 14.5 -2 17.703125 9.0625 
Q 20.90625 20.125 20.90625 31.390625 
Q 20.90625 42.671875 17.703125 53.65625 
Q 14.5 64.65625 8.015625 75.875 
z
" id="DejaVuSans-41"/>
       <path d="M 25.390625 72.90625 
L 33.6875 72.90625 
L 8.296875 -9.28125 
L 0 -9.28125 
z
" id="DejaVuSans-47"/>
      </defs>
      <use transform="translate(0 0.765625)" xlink:href="#DejaVuSans-52"/>
      <use transform="translate(63.623047 0.765625)" xlink:href="#DejaVuSans-Oblique-68"/>
      <use transform="translate(140.625 0.765625)" xlink:href="#DejaVuSans-Oblique-70"/>
      <use transform="translate(198.144531 -15.640625)scale(0.7)" xlink:href="#DejaVuSans-Oblique-84"/>
      <use transform="translate(263.120117 0.765625)" xlink:href="#DejaVuSans-43"/>
      <use transform="translate(366.391602 0.765625)" xlink:href="#DejaVuSans-52"/>
      <use transform="translate(430.014648 0.765625)" xlink:href="#DejaVuSans-Oblique-958"/>
      <use transform="translate(485.776367 -15.640625)scale(0.7)" xlink:href="#DejaVuSans-48"/>
      <use transform="translate(533.046875 0.765625)" xlink:href="#DejaVuSans-40"/>
      <use transform="translate(572.060547 0.765625)" xlink:href="#DejaVuSans-Oblique-68"/>
      <use transform="translate(656.079271 39.046875)scale(0.7)" xlink:href="#DejaVuSans-50"/>
      <use transform="translate(703.349779 0.765625)" xlink:href="#DejaVuSans-Oblique-115"/>
      <use transform="translate(755.449388 -15.640625)scale(0.7)" xlink:href="#DejaVuSans-Oblique-84"/>
      <use transform="translate(800.942552 0.765625)" xlink:href="#DejaVuSans-41"/>
      <use transform="translate(840.913255 39.046875)scale(0.7)" xlink:href="#DejaVuSans-50"/>
      <use transform="translate(885.449388 39.046875)scale(0.7)" xlink:href="#DejaVuSans-47"/>
      <use transform="translate(909.033372 39.046875)scale(0.7)" xlink:href="#DejaVuSans-51"/>
     </g>
    </g>
    <g id="text_6">
     <!-- 1e−5 -->
     <g transform="translate(249.942187 261.876562)scale(0.1 -0.1)">
      <defs>
       <path d="M 56.203125 29.59375 
L 56.203125 25.203125 
L 14.890625 25.203125 
Q 15.484375 15.921875 20.484375 11.0625 
Q 25.484375 6.203125 34.421875 6.203125 
Q 39.59375 6.203125 44.453125 7.46875 
Q 49.3125 8.734375 54.109375 11.28125 
L 54.109375 2.78125 
Q 49.265625 0.734375 44.1875 -0.34375 
Q 39.109375 -1.421875 33.890625 -1.421875 
Q 20.796875 -1.421875 13.15625 6.1875 
Q 5.515625 13.8125 5.515625 26.8125 
Q 5.515625 40.234375 12.765625 48.109375 
Q 20.015625 56 32.328125 56 
Q 43.359375 56 49.78125 48.890625 
Q 56.203125 41.796875 56.203125 29.59375 
z
M 47.21875 32.234375 
Q 47.125 39.59375 43.09375 43.984375 
Q 39.0625 48.390625 32.421875 48.390625 
Q 24.90625 48.390625 20.390625 44.140625 
Q 15.875 39.890625 15.1875 32.171875 
z
" id="DejaVuSans-101"/>
       <path d="M 10.59375 35.5 
L 73.1875 35.5 
L 73.1875 27.203125 
L 10.59375 27.203125 
z
" id="DejaVuSans-8722"/>
       <path d="M 10.796875 72.90625 
L 49.515625 72.90625 
L 49.515625 64.59375 
L 19.828125 64.59375 
L 19.828125 46.734375 
Q 21.96875 47.46875 24.109375 47.828125 
Q 26.265625 48.1875 28.421875 48.1875 
Q 40.625 48.1875 47.75 41.5 
Q 54.890625 34.8125 54.890625 23.390625 
Q 54.890625 11.625 47.5625 5.09375 
Q 40.234375 -1.421875 26.90625 -1.421875 
Q 22.3125 -1.421875 17.546875 -0.640625 
Q 12.796875 0.140625 7.71875 1.703125 
L 7.71875 11.625 
Q 12.109375 9.234375 16.796875 8.0625 
Q 21.484375 6.890625 26.703125 6.890625 
Q 35.15625 6.890625 40.078125 11.328125 
Q 45.015625 15.765625 45.015625 23.390625 
Q 45.015625 31 40.078125 35.4375 
Q 35.15625 39.890625 26.703125 39.890625 
Q 22.75 39.890625 18.8125 39.015625 
Q 14.890625 38.140625 10.796875 36.28125 
z
" id="DejaVuSans-53"/>
      </defs>
      <use xlink:href="#DejaVuSans-49"/>
      <use x="63.623047" xlink:href="#DejaVuSans-101"/>
      <use x="125.146484" xlink:href="#DejaVuSans-8722"/>
      <use x="208.935547" xlink:href="#DejaVuSans-53"/>
     </g>
    </g>
   </g>
   <g id="matplotlib.axis_2">
    <g id="ytick_1">
     <g id="line2d_5">
      <defs>
       <path d="M 0 0 
L -3.5 0 
" id="mcd7b24ae60" style="stroke:#000000;stroke-width:0.8;"/>
      </defs>
      <g>
       <use style="stroke:#000000;stroke-width:0.8;" x="56.4" xlink:href="#mcd7b24ae60" y="213.307646"/>
      </g>
     </g>
     <g id="text_7">
      <!-- 0.5 -->
      <g transform="translate(33.496875 217.106865)scale(0.1 -0.1)">
       <defs>
        <path d="M 10.6875 12.40625 
L 21 12.40625 
L 21 0 
L 10.6875 0 
z
" id="DejaVuSans-46"/>
       </defs>
       <use xlink:href="#DejaVuSans-48"/>
       <use x="63.623047" xlink:href="#DejaVuSans-46"/>
       <use x="95.410156" xlink:href="#DejaVuSans-53"/>
      </g>
     </g>
    </g>
    <g id="ytick_2">
     <g id="line2d_6">
      <g>
       <use style="stroke:#000000;stroke-width:0.8;" x="56.4" xlink:href="#mcd7b24ae60" y="187.329435"/>
      </g>
     </g>
     <g id="text_8">
      <!-- 1.0 -->
      <g transform="translate(33.496875 191.128654)scale(0.1 -0.1)">
       <use xlink:href="#DejaVuSans-49"/>
       <use x="63.623047" xlink:href="#DejaVuSans-46"/>
       <use x="95.410156" xlink:href="#DejaVuSans-48"/>
      </g>
     </g>
    </g>
    <g id="ytick_3">
     <g id="line2d_7">
      <g>
       <use style="stroke:#000000;stroke-width:0.8;" x="56.4" xlink:href="#mcd7b24ae60" y="161.351225"/>
      </g>
     </g>
     <g id="text_9">
      <!-- 1.5 -->
      <g transform="translate(33.496875 165.150443)scale(0.1 -0.1)">
       <use xlink:href="#DejaVuSans-49"/>
       <use x="63.623047" xlink:href="#DejaVuSans-46"/>
       <use x="95.410156" xlink:href="#DejaVuSans-53"/>
      </g>
     </g>
    </g>
    <g id="ytick_4">
     <g id="line2d_8">
      <g>
       <use style="stroke:#000000;stroke-width:0.8;" x="56.4" xlink:href="#mcd7b24ae60" y="135.373014"/>
      </g>
     </g>
     <g id="text_10">
      <!-- 2.0 -->
      <g transform="translate(33.496875 139.172233)scale(0.1 -0.1)">
       <use xlink:href="#DejaVuSans-50"/>
       <use x="63.623047" xlink:href="#DejaVuSans-46"/>
       <use x="95.410156" xlink:href="#DejaVuSans-48"/>
      </g>
     </g>
    </g>
    <g id="ytick_5">
     <g id="line2d_9">
      <g>
       <use style="stroke:#000000;stroke-width:0.8;" x="56.4" xlink:href="#mcd7b24ae60" y="109.394803"/>
      </g>
     </g>
     <g id="text_11">
      <!-- 2.5 -->
      <g transform="translate(33.496875 113.194022)scale(0.1 -0.1)">
       <use xlink:href="#DejaVuSans-50"/>
       <use x="63.623047" xlink:href="#DejaVuSans-46"/>
       <use x="95.410156" xlink:href="#DejaVuSans-53"/>
      </g>
     </g>
    </g>
    <g id="ytick_6">
     <g id="line2d_10">
      <g>
       <use style="stroke:#000000;stroke-width:0.8;" x="56.4" xlink:href="#mcd7b24ae60" y="83.416593"/>
      </g>
     </g>
     <g id="text_12">
      <!-- 3.0 -->
      <g transform="translate(33.496875 87.215812)scale(0.1 -0.1)">
       <use xlink:href="#DejaVuSans-51"/>
       <use x="63.623047" xlink:href="#DejaVuSans-46"/>
       <use x="95.410156" xlink:href="#DejaVuSans-48"/>
      </g>
     </g>
    </g>
    <g id="ytick_7">
     <g id="line2d_11">
      <g>
       <use style="stroke:#000000;stroke-width:0.8;" x="56.4" xlink:href="#mcd7b24ae60" y="57.438382"/>
      </g>
     </g>
     <g id="text_13">
      <!-- 3.5 -->
      <g transform="translate(33.496875 61.237601)scale(0.1 -0.1)">
       <use xlink:href="#DejaVuSans-51"/>
       <use x="63.623047" xlink:href="#DejaVuSans-46"/>
       <use x="95.410156" xlink:href="#DejaVuSans-53"/>
      </g>
     </g>
    </g>
    <g id="ytick_8">
     <g id="line2d_12">
      <g>
       <use style="stroke:#000000;stroke-width:0.8;" x="56.4" xlink:href="#mcd7b24ae60" y="31.460172"/>
      </g>
     </g>
     <g id="text_14">
      <!-- 4.0 -->
      <g transform="translate(33.496875 35.25939)scale(0.1 -0.1)">
       <use xlink:href="#DejaVuSans-52"/>
       <use x="63.623047" xlink:href="#DejaVuSans-46"/>
       <use x="95.410156" xlink:href="#DejaVuSans-48"/>
      </g>
     </g>
    </g>
    <g id="text_15">
     <!-- $v^2$ -->
     <g transform="translate(26.585312 135.97)rotate(-90)scale(0.14 -0.14)">
      <defs>
       <path d="M 7.171875 54.6875 
L 16.703125 54.6875 
L 24.703125 8.203125 
L 50.875 54.6875 
L 60.40625 54.6875 
L 29.296875 0 
L 17.1875 0 
z
" id="DejaVuSans-Oblique-118"/>
      </defs>
      <use transform="translate(0 0.765625)" xlink:href="#DejaVuSans-Oblique-118"/>
      <use transform="translate(63.645833 39.046875)scale(0.7)" xlink:href="#DejaVuSans-50"/>
     </g>
    </g>
    <g id="text_16">
     <!-- 1e−5 -->
     <g transform="translate(56.4 18.8)scale(0.1 -0.1)">
      <use xlink:href="#DejaVuSans-49"/>
      <use x="63.623047" xlink:href="#DejaVuSans-101"/>
      <use x="125.146484" xlink:href="#DejaVuSans-8722"/>
      <use x="208.935547" xlink:href="#DejaVuSans-53"/>
     </g>
    </g>
   </g>
   <g id="line2d_13">
    <path clip-path="url(#p372604ec0e)" d="M 66.436364 224.927273 
L 70.532839 220.979221 
L 74.629314 217.031169 
L 78.725788 213.083117 
L 82.822263 209.135065 
L 86.918738 205.187013 
L 91.015213 201.238961 
L 95.111688 197.290909 
L 99.208163 193.342857 
L 103.304638 189.394805 
L 107.401113 185.446753 
L 111.497588 181.498701 
L 115.594063 177.550649 
L 119.690538 173.602597 
L 123.787013 169.654545 
L 127.883488 165.706494 
L 131.979963 161.758442 
L 136.076438 157.81039 
L 140.172913 153.862338 
L 144.269388 149.914286 
L 148.365863 145.966234 
L 152.462338 142.018182 
L 156.558813 138.07013 
L 160.655288 134.122078 
L 164.751763 130.174026 
L 168.848237 126.225974 
L 172.944712 122.277922 
L 177.041187 118.32987 
L 181.137662 114.381818 
L 185.234137 110.433766 
L 189.330612 106.485714 
L 193.427087 102.537662 
L 197.523562 98.58961 
L 201.620037 94.641558 
L 205.716512 90.693506 
L 209.812987 86.745455 
L 213.909462 82.797403 
L 218.005937 78.849351 
L 222.102412 74.901299 
L 226.198887 70.953247 
L 230.295362 67.005195 
L 234.391837 63.057143 
L 238.488312 59.109091 
L 242.584787 55.161039 
L 246.681262 51.212987 
L 250.777737 47.264935 
L 254.874212 43.316883 
L 258.970686 39.368831 
L 263.067161 35.420779 
L 267.163636 31.472727 
" style="fill:none;stroke:#000000;stroke-dasharray:5.55,2.4;stroke-dashoffset:0;stroke-width:1.5;"/>
   </g>
   <g id="patch_3">
    <path d="M 56.4 234.6 
L 56.4 21.8 
" style="fill:none;stroke:#000000;stroke-linecap:square;stroke-linejoin:miter;stroke-width:0.8;"/>
   </g>
   <g id="patch_4">
    <path d="M 277.2 234.6 
L 277.2 21.8 
" style="fill:none;stroke:#000000;stroke-linecap:square;stroke-linejoin:miter;stroke-width:0.8;"/>
   </g>
   <g id="patch_5">
    <path d="M 56.4 234.6 
L 277.2 234.6 
" style="fill:none;stroke:#000000;stroke-linecap:square;stroke-linejoin:miter;stroke-width:0.8;"/>
   </g>
   <g id="patch_6">
    <path d="M 56.4 21.8 
L 277.2 21.8 
" style="fill:none;stroke:#000000;stroke-linecap:square;stroke-linejoin:miter;stroke-width:0.8;"/>
   </g>
   <g id="legend_1">
    <g id="patch_7">
     <path d="M 63.4 88.5125 
L 161.323438 88.5125 
Q 163.323438 88.5125 163.323438 86.5125 
L 163.323438 28.8 
Q 163.323438 26.8 161.323438 26.8 
L 63.4 26.8 
Q 61.4 26.8 61.4 28.8 
L 61.4 86.5125 
Q 61.4 88.5125 63.4 88.5125 
z
" style="fill:#ffffff;opacity:0.8;stroke:#cccccc;stroke-linejoin:miter;"/>
    </g>
    <g id="PathCollection_5">
     <g>
      <use style="fill:#1f77b4;stroke:#1f77b4;" x="75.4" xlink:href="#md54f585d28" y="35.773438"/>
     </g>
    </g>
    <g id="text_17">
     <!-- cutoff=0.001 -->
     <g transform="translate(93.4 38.398438)scale(0.1 -0.1)">
      <defs>
       <path d="M 48.78125 52.59375 
L 48.78125 44.1875 
Q 44.96875 46.296875 41.140625 47.34375 
Q 37.3125 48.390625 33.40625 48.390625 
Q 24.65625 48.390625 19.8125 42.84375 
Q 14.984375 37.3125 14.984375 27.296875 
Q 14.984375 17.28125 19.8125 11.734375 
Q 24.65625 6.203125 33.40625 6.203125 
Q 37.3125 6.203125 41.140625 7.25 
Q 44.96875 8.296875 48.78125 10.40625 
L 48.78125 2.09375 
Q 45.015625 0.34375 40.984375 -0.53125 
Q 36.96875 -1.421875 32.421875 -1.421875 
Q 20.0625 -1.421875 12.78125 6.34375 
Q 5.515625 14.109375 5.515625 27.296875 
Q 5.515625 40.671875 12.859375 48.328125 
Q 20.21875 56 33.015625 56 
Q 37.15625 56 41.109375 55.140625 
Q 45.0625 54.296875 48.78125 52.59375 
z
" id="DejaVuSans-99"/>
       <path d="M 8.5 21.578125 
L 8.5 54.6875 
L 17.484375 54.6875 
L 17.484375 21.921875 
Q 17.484375 14.15625 20.5 10.265625 
Q 23.53125 6.390625 29.59375 6.390625 
Q 36.859375 6.390625 41.078125 11.03125 
Q 45.3125 15.671875 45.3125 23.6875 
L 45.3125 54.6875 
L 54.296875 54.6875 
L 54.296875 0 
L 45.3125 0 
L 45.3125 8.40625 
Q 42.046875 3.421875 37.71875 1 
Q 33.40625 -1.421875 27.6875 -1.421875 
Q 18.265625 -1.421875 13.375 4.4375 
Q 8.5 10.296875 8.5 21.578125 
z
M 31.109375 56 
z
" id="DejaVuSans-117"/>
       <path d="M 18.3125 70.21875 
L 18.3125 54.6875 
L 36.8125 54.6875 
L 36.8125 47.703125 
L 18.3125 47.703125 
L 18.3125 18.015625 
Q 18.3125 11.328125 20.140625 9.421875 
Q 21.96875 7.515625 27.59375 7.515625 
L 36.8125 7.515625 
L 36.8125 0 
L 27.59375 0 
Q 17.1875 0 13.234375 3.875 
Q 9.28125 7.765625 9.28125 18.015625 
L 9.28125 47.703125 
L 2.6875 47.703125 
L 2.6875 54.6875 
L 9.28125 54.6875 
L 9.28125 70.21875 
z
" id="DejaVuSans-116"/>
       <path d="M 30.609375 48.390625 
Q 23.390625 48.390625 19.1875 42.75 
Q 14.984375 37.109375 14.984375 27.296875 
Q 14.984375 17.484375 19.15625 11.84375 
Q 23.34375 6.203125 30.609375 6.203125 
Q 37.796875 6.203125 41.984375 11.859375 
Q 46.1875 17.53125 46.1875 27.296875 
Q 46.1875 37.015625 41.984375 42.703125 
Q 37.796875 48.390625 30.609375 48.390625 
z
M 30.609375 56 
Q 42.328125 56 49.015625 48.375 
Q 55.71875 40.765625 55.71875 27.296875 
Q 55.71875 13.875 49.015625 6.21875 
Q 42.328125 -1.421875 30.609375 -1.421875 
Q 18.84375 -1.421875 12.171875 6.21875 
Q 5.515625 13.875 5.515625 27.296875 
Q 5.515625 40.765625 12.171875 48.375 
Q 18.84375 56 30.609375 56 
z
" id="DejaVuSans-111"/>
       <path d="M 37.109375 75.984375 
L 37.109375 68.5 
L 28.515625 68.5 
Q 23.6875 68.5 21.796875 66.546875 
Q 19.921875 64.59375 19.921875 59.515625 
L 19.921875 54.6875 
L 34.71875 54.6875 
L 34.71875 47.703125 
L 19.921875 47.703125 
L 19.921875 0 
L 10.890625 0 
L 10.890625 47.703125 
L 2.296875 47.703125 
L 2.296875 54.6875 
L 10.890625 54.6875 
L 10.890625 58.5 
Q 10.890625 67.625 15.140625 71.796875 
Q 19.390625 75.984375 28.609375 75.984375 
z
" id="DejaVuSans-102"/>
       <path d="M 10.59375 45.40625 
L 73.1875 45.40625 
L 73.1875 37.203125 
L 10.59375 37.203125 
z
M 10.59375 25.484375 
L 73.1875 25.484375 
L 73.1875 17.1875 
L 10.59375 17.1875 
z
" id="DejaVuSans-61"/>
      </defs>
      <use xlink:href="#DejaVuSans-99"/>
      <use x="54.980469" xlink:href="#DejaVuSans-117"/>
      <use x="118.359375" xlink:href="#DejaVuSans-116"/>
      <use x="157.568359" xlink:href="#DejaVuSans-111"/>
      <use x="218.75" xlink:href="#DejaVuSans-102"/>
      <use x="253.955078" xlink:href="#DejaVuSans-102"/>
      <use x="289.160156" xlink:href="#DejaVuSans-61"/>
      <use x="372.949219" xlink:href="#DejaVuSans-48"/>
      <use x="436.572266" xlink:href="#DejaVuSans-46"/>
      <use x="468.359375" xlink:href="#DejaVuSans-48"/>
      <use x="531.982422" xlink:href="#DejaVuSans-48"/>
      <use x="595.605469" xlink:href="#DejaVuSans-49"/>
     </g>
    </g>
    <g id="PathCollection_6">
     <g>
      <use style="fill:#ff7f0e;stroke:#ff7f0e;" x="75.4" xlink:href="#m5afcb1a572" y="50.451562"/>
     </g>
    </g>
    <g id="text_18">
     <!-- cutoff=1 -->
     <g transform="translate(93.4 53.076562)scale(0.1 -0.1)">
      <use xlink:href="#DejaVuSans-99"/>
      <use x="54.980469" xlink:href="#DejaVuSans-117"/>
      <use x="118.359375" xlink:href="#DejaVuSans-116"/>
      <use x="157.568359" xlink:href="#DejaVuSans-111"/>
      <use x="218.75" xlink:href="#DejaVuSans-102"/>
      <use x="253.955078" xlink:href="#DejaVuSans-102"/>
      <use x="289.160156" xlink:href="#DejaVuSans-61"/>
      <use x="372.949219" xlink:href="#DejaVuSans-49"/>
     </g>
    </g>
    <g id="PathCollection_7">
     <g>
      <use style="fill:#2ca02c;stroke:#2ca02c;" x="75.4" xlink:href="#mf07e7690fb" y="65.129687"/>
     </g>
    </g>
    <g id="text_19">
     <!-- cutoff=1000 -->
     <g transform="translate(93.4 67.754687)scale(0.1 -0.1)">
      <use xlink:href="#DejaVuSans-99"/>
      <use x="54.980469" xlink:href="#DejaVuSans-117"/>
      <use x="118.359375" xlink:href="#DejaVuSans-116"/>
      <use x="157.568359" xlink:href="#DejaVuSans-111"/>
      <use x="218.75" xlink:href="#DejaVuSans-102"/>
      <use x="253.955078" xlink:href="#DejaVuSans-102"/>
      <use x="289.160156" xlink:href="#DejaVuSans-61"/>
      <use x="372.949219" xlink:href="#DejaVuSans-49"/>
      <use x="436.572266" xlink:href="#DejaVuSans-48"/>
      <use x="500.195312" xlink:href="#DejaVuSans-48"/>
      <use x="563.818359" xlink:href="#DejaVuSans-48"/>
     </g>
    </g>
    <g id="PathCollection_8">
     <g>
      <use style="fill:#d62728;stroke:#d62728;" x="75.4" xlink:href="#m0ea207c62e" y="79.807813"/>
     </g>
    </g>
    <g id="text_20">
     <!-- poisson -->
     <g transform="translate(93.4 82.432813)scale(0.1 -0.1)">
      <defs>
       <path d="M 18.109375 8.203125 
L 18.109375 -20.796875 
L 9.078125 -20.796875 
L 9.078125 54.6875 
L 18.109375 54.6875 
L 18.109375 46.390625 
Q 20.953125 51.265625 25.265625 53.625 
Q 29.59375 56 35.59375 56 
Q 45.5625 56 51.78125 48.09375 
Q 58.015625 40.1875 58.015625 27.296875 
Q 58.015625 14.40625 51.78125 6.484375 
Q 45.5625 -1.421875 35.59375 -1.421875 
Q 29.59375 -1.421875 25.265625 0.953125 
Q 20.953125 3.328125 18.109375 8.203125 
z
M 48.6875 27.296875 
Q 48.6875 37.203125 44.609375 42.84375 
Q 40.53125 48.484375 33.40625 48.484375 
Q 26.265625 48.484375 22.1875 42.84375 
Q 18.109375 37.203125 18.109375 27.296875 
Q 18.109375 17.390625 22.1875 11.75 
Q 26.265625 6.109375 33.40625 6.109375 
Q 40.53125 6.109375 44.609375 11.75 
Q 48.6875 17.390625 48.6875 27.296875 
z
" id="DejaVuSans-112"/>
       <path d="M 9.421875 54.6875 
L 18.40625 54.6875 
L 18.40625 0 
L 9.421875 0 
z
M 9.421875 75.984375 
L 18.40625 75.984375 
L 18.40625 64.59375 
L 9.421875 64.59375 
z
" id="DejaVuSans-105"/>
       <path d="M 44.28125 53.078125 
L 44.28125 44.578125 
Q 40.484375 46.53125 36.375 47.5 
Q 32.28125 48.484375 27.875 48.484375 
Q 21.1875 48.484375 17.84375 46.4375 
Q 14.5 44.390625 14.5 40.28125 
Q 14.5 37.15625 16.890625 35.375 
Q 19.28125 33.59375 26.515625 31.984375 
L 29.59375 31.296875 
Q 39.15625 29.25 43.1875 25.515625 
Q 47.21875 21.78125 47.21875 15.09375 
Q 47.21875 7.46875 41.1875 3.015625 
Q 35.15625 -1.421875 24.609375 -1.421875 
Q 20.21875 -1.421875 15.453125 -0.5625 
Q 10.6875 0.296875 5.421875 2 
L 5.421875 11.28125 
Q 10.40625 8.6875 15.234375 7.390625 
Q 20.0625 6.109375 24.8125 6.109375 
Q 31.15625 6.109375 34.5625 8.28125 
Q 37.984375 10.453125 37.984375 14.40625 
Q 37.984375 18.0625 35.515625 20.015625 
Q 33.0625 21.96875 24.703125 23.78125 
L 21.578125 24.515625 
Q 13.234375 26.265625 9.515625 29.90625 
Q 5.8125 33.546875 5.8125 39.890625 
Q 5.8125 47.609375 11.28125 51.796875 
Q 16.75 56 26.8125 56 
Q 31.78125 56 36.171875 55.265625 
Q 40.578125 54.546875 44.28125 53.078125 
z
" id="DejaVuSans-115"/>
       <path d="M 54.890625 33.015625 
L 54.890625 0 
L 45.90625 0 
L 45.90625 32.71875 
Q 45.90625 40.484375 42.875 44.328125 
Q 39.84375 48.1875 33.796875 48.1875 
Q 26.515625 48.1875 22.3125 43.546875 
Q 18.109375 38.921875 18.109375 30.90625 
L 18.109375 0 
L 9.078125 0 
L 9.078125 54.6875 
L 18.109375 54.6875 
L 18.109375 46.1875 
Q 21.34375 51.125 25.703125 53.5625 
Q 30.078125 56 35.796875 56 
Q 45.21875 56 50.046875 50.171875 
Q 54.890625 44.34375 54.890625 33.015625 
z
" id="DejaVuSans-110"/>
      </defs>
      <use xlink:href="#DejaVuSans-112"/>
      <use x="63.476562" xlink:href="#DejaVuSans-111"/>
      <use x="124.658203" xlink:href="#DejaVuSans-105"/>
      <use x="152.441406" xlink:href="#DejaVuSans-115"/>
      <use x="204.541016" xlink:href="#DejaVuSans-115"/>
      <use x="256.640625" xlink:href="#DejaVuSans-111"/>
      <use x="317.822266" xlink:href="#DejaVuSans-110"/>
     </g>
    </g>
   </g>
  </g>
 </g>
 <defs>
  <clipPath id="p372604ec0e">
   <rect height="212.8" width="220.8" x="56.4" y="21.8"/>
  </clipPath>
 </defs>
</svg>
