<?xml version="1.0" encoding="UTF-8" standalone="no"?>
<!-- Created with Inkscape (http://www.inkscape.org/) -->

<svg
   width="152.39999mm"
   height="101.6mm"
   viewBox="0 0 152.39999 101.6"
   version="1.1"
   id="svg5"
   xml:space="preserve"
   inkscape:version="1.2.2 (1:1.2.2+202212051552+b0a8486541)"
   sodipodi:docname="es_virulence_stochastic.svg"
   xmlns:inkscape="http://www.inkscape.org/namespaces/inkscape"
   xmlns:sodipodi="http://sodipodi.sourceforge.net/DTD/sodipodi-0.dtd"
   xmlns:xlink="http://www.w3.org/1999/xlink"
   xmlns="http://www.w3.org/2000/svg"
   xmlns:svg="http://www.w3.org/2000/svg"><sodipodi:namedview
     id="namedview7"
     pagecolor="#ffffff"
     bordercolor="#666666"
     borderopacity="1.0"
     inkscape:showpageshadow="2"
     inkscape:pageopacity="0.0"
     inkscape:pagecheckerboard="0"
     inkscape:deskcolor="#d1d1d1"
     inkscape:document-units="mm"
     showgrid="false"
     inkscape:zoom="0.5946522"
     inkscape:cx="333.80857"
     inkscape:cy="185.82291"
     inkscape:window-width="1846"
     inkscape:window-height="1136"
     inkscape:window-x="0"
     inkscape:window-y="0"
     inkscape:window-maximized="1"
     inkscape:current-layer="layer1" /><defs
     id="defs2"><style
       type="text/css"
       id="style1507">*{stroke-linecap:butt;stroke-linejoin:round;}</style><path
       d="M 0,0 V 3.5"
       id="m752bc1824b"
       style="stroke:#000000;stroke-width:0.8" /><path
       d="m 12.40625,8.296875 h 16.109375 v 55.625 L 10.984375,60.40625 v 8.984375 l 17.4375,3.515625 H 38.28125 V 8.296875 H 54.390625 V 0 H 12.40625 Z"
       id="DejaVuSans-49" /><path
       d="m 31.78125,66.40625 q -7.609375,0 -11.453125,-7.5 Q 16.5,51.421875 16.5,36.375 q 0,-14.984375 3.828125,-22.484375 3.84375,-7.5 11.453125,-7.5 7.671875,0 11.5,7.5 3.84375,7.5 3.84375,22.484375 0,15.046875 -3.84375,22.53125 -3.828125,7.5 -11.5,7.5 z m 0,7.8125 q 12.265625,0 18.734375,-9.703125 6.46875,-9.6875 6.46875,-28.140625 0,-18.40625 -6.46875,-28.109375 -6.46875,-9.6875 -18.734375,-9.6875 -12.25,0 -18.71875,9.6875 Q 6.59375,17.96875 6.59375,36.375 q 0,18.453125 6.46875,28.140625 6.46875,9.703125 18.71875,9.703125 z"
       id="DejaVuSans-48" /><path
       d="M 10.59375,35.5 H 73.1875 V 27.203125 H 10.59375 Z"
       id="DejaVuSans-8722" /><path
       d="M 0,0 V 2"
       id="m4e41242ccf"
       style="stroke:#000000;stroke-width:0.6" /><path
       d="m 44.578125,46.390625 q -1.359375,0.734375 -3.125,1.125 -1.75,0.390625 -3.75,0.390625 -7.1875,0 -12.5625,-5.453125 -5.359375,-5.4375 -7.125,-14.578125 L 12.5,0 H 3.515625 l 10.6875,54.6875 H 23.1875 l -1.703125,-8.5 Q 25.046875,50.921875 30,53.453125 34.96875,56 40.578125,56 q 1.46875,0 2.875,-0.171875 1.421875,-0.15625 2.84375,-0.546875 z"
       id="DejaVuSans-Oblique-114" /><path
       d="M 0,0 H -3.5"
       id="m0bab330fea"
       style="stroke:#000000;stroke-width:0.8" /><path
       d="M 10.6875,12.40625 H 21 V 0 H 10.6875 Z"
       id="DejaVuSans-46" /><path
       d="m 33.015625,40.375 q -6.640625,0 -10.53125,-4.546875 -3.875,-4.53125 -3.875,-12.4375 0,-7.859375 3.875,-12.4375 3.890625,-4.5625 10.53125,-4.5625 6.640625,0 10.515625,4.5625 3.875,4.578125 3.875,12.4375 0,7.90625 -3.875,12.4375 Q 39.65625,40.375 33.015625,40.375 Z M 52.59375,71.296875 V 62.3125 q -3.71875,1.75 -7.5,2.671875 -3.78125,0.9375 -7.5,0.9375 -9.765625,0 -14.921875,-6.59375 -5.140625,-6.59375 -5.875,-19.921875 2.875,4.25 7.21875,6.515625 4.359375,2.265625 9.578125,2.265625 10.984375,0 17.359375,-6.671875 6.375,-6.65625 6.375,-18.125 0,-11.234375 -6.640625,-18.03125 -6.640625,-6.78125 -17.671875,-6.78125 -12.65625,0 -19.34375,9.6875 -6.6875,9.703125 -6.6875,28.109375 0,17.28125 8.203125,27.5625 8.203125,10.28125 22.015625,10.28125 3.71875,0 7.5,-0.734375 3.78125,-0.734375 7.890625,-2.1875 z"
       id="DejaVuSans-54" /><path
       d="m 8.203125,72.90625 h 46.875 V 68.703125 L 28.609375,0 H 18.3125 L 43.21875,64.59375 H 8.203125 Z"
       id="DejaVuSans-55" /><path
       d="m 31.78125,34.625 q -7.03125,0 -11.0625,-3.765625 -4.015625,-3.765625 -4.015625,-10.34375 0,-6.59375 4.015625,-10.359375 4.03125,-3.765625 11.0625,-3.765625 7.03125,0 11.078125,3.78125 4.0625,3.796875 4.0625,10.34375 0,6.578125 -4.03125,10.34375 Q 38.875,34.625 31.78125,34.625 Z m -9.859375,4.1875 Q 15.578125,40.375 12.03125,44.71875 8.5,49.078125 8.5,55.328125 q 0,8.734375 6.21875,13.8125 6.234375,5.078125 17.0625,5.078125 10.890625,0 17.09375,-5.078125 6.203125,-5.078125 6.203125,-13.8125 0,-6.25 -3.546875,-10.609375 Q 48,40.375 41.703125,38.8125 q 7.125,-1.65625 11.09375,-6.5 3.984375,-4.828125 3.984375,-11.796875 0,-10.609375 -6.46875,-16.28125 -6.46875,-5.65625 -18.53125,-5.65625 -12.046875,0 -18.53125,5.65625 -6.46875,5.671875 -6.46875,16.28125 0,6.96875 4,11.796875 4.015625,4.84375 11.140625,6.5 z M 18.3125,54.390625 q 0,-5.65625 3.53125,-8.828125 3.546875,-3.171875 9.9375,-3.171875 6.359375,0 9.9375,3.171875 3.59375,3.171875 3.59375,8.828125 0,5.671875 -3.59375,8.84375 -3.578125,3.171875 -9.9375,3.171875 -6.390625,0 -9.9375,-3.171875 Q 18.3125,60.0625 18.3125,54.390625 Z"
       id="DejaVuSans-56" /><path
       d="M 10.984375,1.515625 V 10.5 Q 14.703125,8.734375 18.5,7.8125 q 3.8125,-0.921875 7.484375,-0.921875 9.765625,0 14.90625,6.5625 5.15625,6.5625 5.890625,19.953125 -2.828125,-4.203125 -7.1875,-6.453125 -4.34375,-2.25 -9.609375,-2.25 -10.9375,0 -17.3125,6.609375 -6.375,6.625 -6.375,18.109375 0,11.21875 6.640625,18 6.640625,6.796875 17.671875,6.796875 12.65625,0 19.3125,-9.703125 6.671875,-9.6875 6.671875,-28.140625 0,-17.234375 -8.1875,-27.515625 -8.171875,-10.28125 -21.984375,-10.28125 -3.71875,0 -7.53125,0.734375 -3.796875,0.734375 -7.90625,2.203125 z m 19.625,30.90625 q 6.640625,0 10.515625,4.53125 3.890625,4.546875 3.890625,12.46875 0,7.859375 -3.890625,12.421875 -3.875,4.5625 -10.515625,4.5625 -6.640625,0 -10.515625,-4.5625 -3.875,-4.5625 -3.875,-12.421875 0,-7.921875 3.875,-12.46875 3.875,-4.53125 10.515625,-4.53125 z"
       id="DejaVuSans-57" /><path
       d="m 40.921875,25.4375 0.04687,11.28125 q 0.04687,11.53125 -8.640625,11.578125 -6.5,0.04687 -10.546875,-5.375 -5.078125,-6.6875 -6.796875,-15.625 -2.09375,-10.75 0.546875,-15.875 2.734375,-5.21875 8.640625,-5.21875 6.546875,0 12.0625,10.40625 z M 33.84375,55.90625 q 15.234375,0.25 15.03125,-15.53125 0,0 7.625,14.3125 h 8 l -15.765625,-29.640625 -0.15625,-10.6875 q 0,-2.390625 1.328125,-4.390625 Q 51.421875,7.625 52.984375,7.625 h 4.34375 L 55.859375,0 H 50.4375 Q 45.84375,0 42.53125,4.109375 40.96875,6.15625 40.921875,10.453125 37.75,5.21875 32.28125,0.78125 q -2.59375,-2.046875 -9.578125,-2 Q 11.28125,-1.125 7.125,6.203125 2.875,13.8125 5.515625,27.296875 q 2.828125,14.5 10.25,21.09375 8.359375,7.375 18.078125,7.515625 z"
       id="DejaVuSans-Oblique-945" /><path
       d="M 47.015625,60.890625 29.5,51.421875 47.015625,41.890625 44.1875,37.109375 27.78125,47.015625 v -18.40625 h -5.5625 v 18.40625 l -16.40625,-9.90625 -2.828125,4.78125 17.53125,9.53125 -17.53125,9.46875 L 5.8125,65.71875 22.21875,55.8125 v 18.40625 h 5.5625 V 55.8125 l 16.40625,9.90625 z"
       id="DejaVuSans-42" /><clipPath
       id="pd511c771fe"><rect
         height="217.44"
         width="334.79999"
         x="54"
         y="34.560001"
         id="rect1821" /></clipPath></defs><g
     inkscape:label="Layer 1"
     inkscape:groupmode="layer"
     id="layer1"
     transform="translate(-28.882627,-98.329237)"><g
       id="figure_1"
       transform="matrix(0.35277778,0,0,0.35277778,28.882627,98.329237)"><g
         id="patch_1"><path
           d="M 0,288 H 432 V 0 H 0 Z"
           style="fill:none"
           id="path1511" /></g><g
         id="axes_1"><g
           id="patch_2"><path
             d="M 54,252 H 388.8 V 34.56 H 54 Z"
             style="fill:#ffffff"
             id="path1514" /></g><g
           id="matplotlib.axis_1"><g
             id="xtick_1"><g
               id="line2d_1"><defs
                 id="defs1518"><path
                   d="M 0,0 V 3.5"
                   id="path1851"
                   style="stroke:#000000;stroke-width:0.8" /></defs><g
                 id="g1522"><use
                   style="stroke:#000000;stroke-width:0.8"
                   x="204.94954"
                   xlink:href="#m752bc1824b"
                   y="252"
                   id="use1520" /></g></g><g
               id="text_1"><!-- $\mathdefault{10^{-1}}$ --><g
                 transform="matrix(0.1,0,0,-0.1,193.19954,266.59844)"
                 id="g1538"><defs
                   id="defs1528"><path
                     d="m 12.40625,8.296875 h 16.109375 v 55.625 L 10.984375,60.40625 v 8.984375 l 17.4375,3.515625 H 38.28125 V 8.296875 H 54.390625 V 0 H 12.40625 Z"
                     id="path1857" /><path
                     d="m 31.78125,66.40625 q -7.609375,0 -11.453125,-7.5 Q 16.5,51.421875 16.5,36.375 q 0,-14.984375 3.828125,-22.484375 3.84375,-7.5 11.453125,-7.5 7.671875,0 11.5,7.5 3.84375,7.5 3.84375,22.484375 0,15.046875 -3.84375,22.53125 -3.828125,7.5 -11.5,7.5 z m 0,7.8125 q 12.265625,0 18.734375,-9.703125 6.46875,-9.6875 6.46875,-28.140625 0,-18.40625 -6.46875,-28.109375 -6.46875,-9.6875 -18.734375,-9.6875 -12.25,0 -18.71875,9.6875 Q 6.59375,17.96875 6.59375,36.375 q 0,18.453125 6.46875,28.140625 6.46875,9.703125 18.71875,9.703125 z"
                     id="path1859" /><path
                     d="M 10.59375,35.5 H 73.1875 V 27.203125 H 10.59375 Z"
                     id="path1861" /></defs><use
                   transform="translate(0,0.684375)"
                   xlink:href="#DejaVuSans-49"
                   id="use1530" /><use
                   transform="translate(63.623047,0.684375)"
                   xlink:href="#DejaVuSans-48"
                   id="use1532" /><use
                   transform="matrix(0.7,0,0,0.7,128.20312,38.965625)"
                   xlink:href="#DejaVuSans-8722"
                   id="use1534" /><use
                   transform="matrix(0.7,0,0,0.7,186.85547,38.965625)"
                   xlink:href="#DejaVuSans-49"
                   id="use1536" /></g></g></g><g
             id="xtick_2"><g
               id="line2d_2"><g
                 id="g1544"><use
                   style="stroke:#000000;stroke-width:0.8"
                   x="375.31061"
                   xlink:href="#m752bc1824b"
                   y="252"
                   id="use1542" /></g></g><g
               id="text_2"><!-- $\mathdefault{10^{0}}$ --><g
                 transform="matrix(0.1,0,0,-0.1,366.5106,266.59844)"
                 id="g1553"><use
                   transform="translate(0,0.765625)"
                   xlink:href="#DejaVuSans-49"
                   id="use1547" /><use
                   transform="translate(63.623047,0.765625)"
                   xlink:href="#DejaVuSans-48"
                   id="use1549" /><use
                   transform="matrix(0.7,0,0,0.7,128.20312,39.046875)"
                   xlink:href="#DejaVuSans-48"
                   id="use1551" /></g></g></g><g
             id="xtick_3"><g
               id="line2d_3"><defs
                 id="defs1558"><path
                   d="M 0,0 V 2"
                   id="path1880"
                   style="stroke:#000000;stroke-width:0.6" /></defs><g
                 id="g1562"><use
                   style="stroke:#000000;stroke-width:0.6"
                   x="85.872276"
                   xlink:href="#m4e41242ccf"
                   y="252"
                   id="use1560" /></g></g></g><g
             id="xtick_4"><g
               id="line2d_4"><g
                 id="g1568"><use
                   style="stroke:#000000;stroke-width:0.6"
                   x="115.87137"
                   xlink:href="#m4e41242ccf"
                   y="252"
                   id="use1566" /></g></g></g><g
             id="xtick_5"><g
               id="line2d_5"><g
                 id="g1574"><use
                   style="stroke:#000000;stroke-width:0.6"
                   x="137.15607"
                   xlink:href="#m4e41242ccf"
                   y="252"
                   id="use1572" /></g></g></g><g
             id="xtick_6"><g
               id="line2d_6"><g
                 id="g1580"><use
                   style="stroke:#000000;stroke-width:0.6"
                   x="153.66576"
                   xlink:href="#m4e41242ccf"
                   y="252"
                   id="use1578" /></g></g></g><g
             id="xtick_7"><g
               id="line2d_7"><g
                 id="g1586"><use
                   style="stroke:#000000;stroke-width:0.6"
                   x="167.15515"
                   xlink:href="#m4e41242ccf"
                   y="252"
                   id="use1584" /></g></g></g><g
             id="xtick_8"><g
               id="line2d_8"><g
                 id="g1592"><use
                   style="stroke:#000000;stroke-width:0.6"
                   x="178.56029"
                   xlink:href="#m4e41242ccf"
                   y="252"
                   id="use1590" /></g></g></g><g
             id="xtick_9"><g
               id="line2d_9"><g
                 id="g1598"><use
                   style="stroke:#000000;stroke-width:0.6"
                   x="188.43985"
                   xlink:href="#m4e41242ccf"
                   y="252"
                   id="use1596" /></g></g></g><g
             id="xtick_10"><g
               id="line2d_10"><g
                 id="g1604"><use
                   style="stroke:#000000;stroke-width:0.6"
                   x="197.15425"
                   xlink:href="#m4e41242ccf"
                   y="252"
                   id="use1602" /></g></g></g><g
             id="xtick_11"><g
               id="line2d_11"><g
                 id="g1610"><use
                   style="stroke:#000000;stroke-width:0.6"
                   x="256.23334"
                   xlink:href="#m4e41242ccf"
                   y="252"
                   id="use1608" /></g></g></g><g
             id="xtick_12"><g
               id="line2d_12"><g
                 id="g1616"><use
                   style="stroke:#000000;stroke-width:0.6"
                   x="286.23242"
                   xlink:href="#m4e41242ccf"
                   y="252"
                   id="use1614" /></g></g></g><g
             id="xtick_13"><g
               id="line2d_13"><g
                 id="g1622"><use
                   style="stroke:#000000;stroke-width:0.6"
                   x="307.51712"
                   xlink:href="#m4e41242ccf"
                   y="252"
                   id="use1620" /></g></g></g><g
             id="xtick_14"><g
               id="line2d_14"><g
                 id="g1628"><use
                   style="stroke:#000000;stroke-width:0.6"
                   x="324.02682"
                   xlink:href="#m4e41242ccf"
                   y="252"
                   id="use1626" /></g></g></g><g
             id="xtick_15"><g
               id="line2d_15"><g
                 id="g1634"><use
                   style="stroke:#000000;stroke-width:0.6"
                   x="337.5162"
                   xlink:href="#m4e41242ccf"
                   y="252"
                   id="use1632" /></g></g></g><g
             id="xtick_16"><g
               id="line2d_16"><g
                 id="g1640"><use
                   style="stroke:#000000;stroke-width:0.6"
                   x="348.92133"
                   xlink:href="#m4e41242ccf"
                   y="252"
                   id="use1638" /></g></g></g><g
             id="xtick_17"><g
               id="line2d_17"><g
                 id="g1646"><use
                   style="stroke:#000000;stroke-width:0.6"
                   x="358.8009"
                   xlink:href="#m4e41242ccf"
                   y="252"
                   id="use1644" /></g></g></g><g
             id="xtick_18"><g
               id="line2d_18"><g
                 id="g1652"><use
                   style="stroke:#000000;stroke-width:0.6"
                   x="367.51532"
                   xlink:href="#m4e41242ccf"
                   y="252"
                   id="use1650" /></g></g></g><g
             id="text_3"><!-- $r_0$ --><g
               transform="matrix(0.12,0,0,-0.12,216.06,281.79625)"
               id="g1663"><defs
                 id="defs1657"><path
                   d="m 44.578125,46.390625 q -1.359375,0.734375 -3.125,1.125 -1.75,0.390625 -3.75,0.390625 -7.1875,0 -12.5625,-5.453125 -5.359375,-5.4375 -7.125,-14.578125 L 12.5,0 H 3.515625 l 10.6875,54.6875 H 23.1875 l -1.703125,-8.5 Q 25.046875,50.921875 30,53.453125 34.96875,56 40.578125,56 q 1.46875,0 2.875,-0.171875 1.421875,-0.15625 2.84375,-0.546875 z"
                   id="path1947" /></defs><use
                 xlink:href="#DejaVuSans-Oblique-114"
                 id="use1659" /><use
                 transform="matrix(0.7,0,0,0.7,41.113281,-16.40625)"
                 xlink:href="#DejaVuSans-48"
                 id="use1661" /></g></g></g><g
           id="matplotlib.axis_2"><g
             id="ytick_1"><g
               id="line2d_19"><defs
                 id="defs1668"><path
                   d="M 0,0 H -3.5"
                   id="path1955"
                   style="stroke:#000000;stroke-width:0.8" /></defs><g
                 id="g1672"><use
                   style="stroke:#000000;stroke-width:0.8"
                   x="54"
                   xlink:href="#m0bab330fea"
                   y="227.35757"
                   id="use1670" /></g></g><g
               id="text_4"><!-- 0.6 --><g
                 transform="matrix(0.1,0,0,-0.1,31.096875,231.15679)"
                 id="g1685"><defs
                   id="defs1677"><path
                     d="M 10.6875,12.40625 H 21 V 0 H 10.6875 Z"
                     id="path1961" /><path
                     d="m 33.015625,40.375 q -6.640625,0 -10.53125,-4.546875 -3.875,-4.53125 -3.875,-12.4375 0,-7.859375 3.875,-12.4375 3.890625,-4.5625 10.53125,-4.5625 6.640625,0 10.515625,4.5625 3.875,4.578125 3.875,12.4375 0,7.90625 -3.875,12.4375 Q 39.65625,40.375 33.015625,40.375 Z M 52.59375,71.296875 V 62.3125 q -3.71875,1.75 -7.5,2.671875 -3.78125,0.9375 -7.5,0.9375 -9.765625,0 -14.921875,-6.59375 -5.140625,-6.59375 -5.875,-19.921875 2.875,4.25 7.21875,6.515625 4.359375,2.265625 9.578125,2.265625 10.984375,0 17.359375,-6.671875 6.375,-6.65625 6.375,-18.125 0,-11.234375 -6.640625,-18.03125 -6.640625,-6.78125 -17.671875,-6.78125 -12.65625,0 -19.34375,9.6875 -6.6875,9.703125 -6.6875,28.109375 0,17.28125 8.203125,27.5625 8.203125,10.28125 22.015625,10.28125 3.71875,0 7.5,-0.734375 3.78125,-0.734375 7.890625,-2.1875 z"
                     id="path1963" /></defs><use
                   xlink:href="#DejaVuSans-48"
                   id="use1679" /><use
                   x="63.623047"
                   xlink:href="#DejaVuSans-46"
                   id="use1681" /><use
                   x="95.410156"
                   xlink:href="#DejaVuSans-54"
                   id="use1683" /></g></g></g><g
             id="ytick_2"><g
               id="line2d_20"><g
                 id="g1691"><use
                   style="stroke:#000000;stroke-width:0.8"
                   x="54"
                   xlink:href="#m0bab330fea"
                   y="183.57639"
                   id="use1689" /></g></g><g
               id="text_5"><!-- 0.7 --><g
                 transform="matrix(0.1,0,0,-0.1,31.096875,187.37561)"
                 id="g1703"><defs
                   id="defs1695"><path
                     d="m 8.203125,72.90625 h 46.875 V 68.703125 L 28.609375,0 H 18.3125 L 43.21875,64.59375 H 8.203125 Z"
                     id="path1975" /></defs><use
                   xlink:href="#DejaVuSans-48"
                   id="use1697" /><use
                   x="63.623047"
                   xlink:href="#DejaVuSans-46"
                   id="use1699" /><use
                   x="95.410156"
                   xlink:href="#DejaVuSans-55"
                   id="use1701" /></g></g></g><g
             id="ytick_3"><g
               id="line2d_21"><g
                 id="g1709"><use
                   style="stroke:#000000;stroke-width:0.8"
                   x="54"
                   xlink:href="#m0bab330fea"
                   y="139.79521"
                   id="use1707" /></g></g><g
               id="text_6"><!-- 0.8 --><g
                 transform="matrix(0.1,0,0,-0.1,31.096875,143.59443)"
                 id="g1721"><defs
                   id="defs1713"><path
                     d="m 31.78125,34.625 q -7.03125,0 -11.0625,-3.765625 -4.015625,-3.765625 -4.015625,-10.34375 0,-6.59375 4.015625,-10.359375 4.03125,-3.765625 11.0625,-3.765625 7.03125,0 11.078125,3.78125 4.0625,3.796875 4.0625,10.34375 0,6.578125 -4.03125,10.34375 Q 38.875,34.625 31.78125,34.625 Z m -9.859375,4.1875 Q 15.578125,40.375 12.03125,44.71875 8.5,49.078125 8.5,55.328125 q 0,8.734375 6.21875,13.8125 6.234375,5.078125 17.0625,5.078125 10.890625,0 17.09375,-5.078125 6.203125,-5.078125 6.203125,-13.8125 0,-6.25 -3.546875,-10.609375 Q 48,40.375 41.703125,38.8125 q 7.125,-1.65625 11.09375,-6.5 3.984375,-4.828125 3.984375,-11.796875 0,-10.609375 -6.46875,-16.28125 -6.46875,-5.65625 -18.53125,-5.65625 -12.046875,0 -18.53125,5.65625 -6.46875,5.671875 -6.46875,16.28125 0,6.96875 4,11.796875 4.015625,4.84375 11.140625,6.5 z M 18.3125,54.390625 q 0,-5.65625 3.53125,-8.828125 3.546875,-3.171875 9.9375,-3.171875 6.359375,0 9.9375,3.171875 3.59375,3.171875 3.59375,8.828125 0,5.671875 -3.59375,8.84375 -3.578125,3.171875 -9.9375,3.171875 -6.390625,0 -9.9375,-3.171875 Q 18.3125,60.0625 18.3125,54.390625 Z"
                     id="path1987" /></defs><use
                   xlink:href="#DejaVuSans-48"
                   id="use1715" /><use
                   x="63.623047"
                   xlink:href="#DejaVuSans-46"
                   id="use1717" /><use
                   x="95.410156"
                   xlink:href="#DejaVuSans-56"
                   id="use1719" /></g></g></g><g
             id="ytick_4"><g
               id="line2d_22"><g
                 id="g1727"><use
                   style="stroke:#000000;stroke-width:0.8"
                   x="54"
                   xlink:href="#m0bab330fea"
                   y="96.01403"
                   id="use1725" /></g></g><g
               id="text_7"><!-- 0.9 --><g
                 transform="matrix(0.1,0,0,-0.1,31.096875,99.813252)"
                 id="g1739"><defs
                   id="defs1731"><path
                     d="M 10.984375,1.515625 V 10.5 Q 14.703125,8.734375 18.5,7.8125 q 3.8125,-0.921875 7.484375,-0.921875 9.765625,0 14.90625,6.5625 5.15625,6.5625 5.890625,19.953125 -2.828125,-4.203125 -7.1875,-6.453125 -4.34375,-2.25 -9.609375,-2.25 -10.9375,0 -17.3125,6.609375 -6.375,6.625 -6.375,18.109375 0,11.21875 6.640625,18 6.640625,6.796875 17.671875,6.796875 12.65625,0 19.3125,-9.703125 6.671875,-9.6875 6.671875,-28.140625 0,-17.234375 -8.1875,-27.515625 -8.171875,-10.28125 -21.984375,-10.28125 -3.71875,0 -7.53125,0.734375 -3.796875,0.734375 -7.90625,2.203125 z m 19.625,30.90625 q 6.640625,0 10.515625,4.53125 3.890625,4.546875 3.890625,12.46875 0,7.859375 -3.890625,12.421875 -3.875,4.5625 -10.515625,4.5625 -6.640625,0 -10.515625,-4.5625 -3.875,-4.5625 -3.875,-12.421875 0,-7.921875 3.875,-12.46875 3.875,-4.53125 10.515625,-4.53125 z"
                     id="path1999" /></defs><use
                   xlink:href="#DejaVuSans-48"
                   id="use1733" /><use
                   x="63.623047"
                   xlink:href="#DejaVuSans-46"
                   id="use1735" /><use
                   x="95.410156"
                   xlink:href="#DejaVuSans-57"
                   id="use1737" /></g></g></g><g
             id="ytick_5"><g
               id="line2d_23"><g
                 id="g1745"><use
                   style="stroke:#000000;stroke-width:0.8"
                   x="54"
                   xlink:href="#m0bab330fea"
                   y="52.232857"
                   id="use1743" /></g></g><g
               id="text_8"><!-- 1.0 --><g
                 transform="matrix(0.1,0,0,-0.1,31.096875,56.032073)"
                 id="g1754"><use
                   xlink:href="#DejaVuSans-49"
                   id="use1748" /><use
                   x="63.623047"
                   xlink:href="#DejaVuSans-46"
                   id="use1750" /><use
                   x="95.410156"
                   xlink:href="#DejaVuSans-48"
                   id="use1752" /></g></g></g><g
             id="text_9"><!-- $\alpha^*$ --><g
               transform="matrix(0,-0.12,-0.12,0,24.60125,151.44)"
               id="g1766"><defs
                 id="defs1760"><path
                   d="m 40.921875,25.4375 0.04687,11.28125 q 0.04687,11.53125 -8.640625,11.578125 -6.5,0.04687 -10.546875,-5.375 -5.078125,-6.6875 -6.796875,-15.625 -2.09375,-10.75 0.546875,-15.875 2.734375,-5.21875 8.640625,-5.21875 6.546875,0 12.0625,10.40625 z M 33.84375,55.90625 q 15.234375,0.25 15.03125,-15.53125 0,0 7.625,14.3125 h 8 l -15.765625,-29.640625 -0.15625,-10.6875 q 0,-2.390625 1.328125,-4.390625 Q 51.421875,7.625 52.984375,7.625 h 4.34375 L 55.859375,0 H 50.4375 Q 45.84375,0 42.53125,4.109375 40.96875,6.15625 40.921875,10.453125 37.75,5.21875 32.28125,0.78125 q -2.59375,-2.046875 -9.578125,-2 Q 11.28125,-1.125 7.125,6.203125 2.875,13.8125 5.515625,27.296875 q 2.828125,14.5 10.25,21.09375 8.359375,7.375 18.078125,7.515625 z"
                   id="path2017" /><path
                   d="M 47.015625,60.890625 29.5,51.421875 47.015625,41.890625 44.1875,37.109375 27.78125,47.015625 v -18.40625 h -5.5625 v 18.40625 l -16.40625,-9.90625 -2.828125,4.78125 17.53125,9.53125 -17.53125,9.46875 L 5.8125,65.71875 22.21875,55.8125 v 18.40625 h 5.5625 V 55.8125 l 16.40625,9.90625 z"
                   id="path2019" /></defs><use
                 transform="translate(0,0.765625)"
                 xlink:href="#DejaVuSans-Oblique-945"
                 id="use1762" /><use
                 transform="matrix(0.7,0,0,0.7,84.227435,39.046875)"
                 xlink:href="#DejaVuSans-42"
                 id="use1764" /></g></g></g><g
           id="LineCollection_1"><path
             clip-path="url(#pd511c771fe)"
             d="M 64.587583,65.808298 V 45.07995"
             style="fill:none;stroke:#000000;stroke-width:1.5"
             id="path1770" /><path
             clip-path="url(#pd511c771fe)"
             d="M 86.782084,67.705702 V 48.007923"
             style="fill:none;stroke:#000000;stroke-width:1.5"
             id="path1772" /><path
             clip-path="url(#pd511c771fe)"
             d="M 108.97659,75.026623 V 44.443636"
             style="fill:none;stroke:#000000;stroke-width:1.5"
             id="path1774" /><path
             clip-path="url(#pd511c771fe)"
             d="M 131.17109,82.549431 V 48.498129"
             style="fill:none;stroke:#000000;stroke-width:1.5"
             id="path1776" /><path
             clip-path="url(#pd511c771fe)"
             d="M 153.36559,98.613477 V 55.141988"
             style="fill:none;stroke:#000000;stroke-width:1.5"
             id="path1778" /><path
             clip-path="url(#pd511c771fe)"
             d="M 175.56009,100.20014 V 59.982074"
             style="fill:none;stroke:#000000;stroke-width:1.5"
             id="path1780" /><path
             clip-path="url(#pd511c771fe)"
             d="M 197.75459,115.64988 V 80.340586"
             style="fill:none;stroke:#000000;stroke-width:1.5"
             id="path1782" /><path
             clip-path="url(#pd511c771fe)"
             d="M 219.94909,127.21039 V 75.403557"
             style="fill:none;stroke:#000000;stroke-width:1.5"
             id="path1784" /><path
             clip-path="url(#pd511c771fe)"
             d="M 242.14359,144.24168 V 92.181523"
             style="fill:none;stroke:#000000;stroke-width:1.5"
             id="path1786" /><path
             clip-path="url(#pd511c771fe)"
             d="M 264.33809,168.51683 V 123.28577"
             style="fill:none;stroke:#000000;stroke-width:1.5"
             id="path1788" /><path
             clip-path="url(#pd511c771fe)"
             d="M 286.5326,178.00083 V 136.03329"
             style="fill:none;stroke:#000000;stroke-width:1.5"
             id="path1790" /><path
             clip-path="url(#pd511c771fe)"
             d="M 308.7271,199.73654 V 161.92961"
             style="fill:none;stroke:#000000;stroke-width:1.5"
             id="path1792" /><path
             clip-path="url(#pd511c771fe)"
             d="M 330.9216,213.65782 V 171.30015"
             style="fill:none;stroke:#000000;stroke-width:1.5"
             id="path1794" /><path
             clip-path="url(#pd511c771fe)"
             d="M 353.1161,227.15463 V 191.49466"
             style="fill:none;stroke:#000000;stroke-width:1.5"
             id="path1796" /><path
             clip-path="url(#pd511c771fe)"
             d="M 375.3106,242.11636 V 210.65049"
             style="fill:none;stroke:#000000;stroke-width:1.5"
             id="path1798" /></g><g
           id="line2d_24"><path
             clip-path="url(#pd511c771fe)"
             d="m 64.587583,53.007243 22.194501,1.249652 22.194506,2.691086 22.1945,4.515699 22.1945,7.138603 22.1945,9.664631 22.1945,13.092269 22.1945,15.331417 22.1945,17.36351 22.1945,18.70104 22.19451,17.55233 22.1945,17.40245 22.1945,15.16494 22.1945,13.86894 22.1945,11.90753"
             style="fill:none;stroke:#1f77b4;stroke-width:2;stroke-linecap:square"
             id="path1801" /></g><g
           id="line2d_25"><path
             clip-path="url(#pd511c771fe)"
             d="m 64.587583,55.444124 22.194501,2.412688 22.194506,1.878318 22.1945,5.78865 22.1945,11.353953 22.1945,3.213376 22.1945,17.904126 22.1945,3.311735 22.1945,16.90463 22.1945,27.6897 22.19451,11.11576 22.1945,23.81602 22.1945,11.6459 22.1945,16.84567 22.1945,17.05878"
             style="fill:none;stroke:#000000;stroke-width:1.5;stroke-linecap:square"
             id="path1804" /></g><g
           id="patch_3"><path
             d="M 54,252 V 34.56"
             style="fill:none;stroke:#000000;stroke-width:0.8;stroke-linecap:square;stroke-linejoin:miter"
             id="path1807" /></g><g
           id="patch_4"><path
             d="M 388.8,252 V 34.56"
             style="fill:none;stroke:#000000;stroke-width:0.8;stroke-linecap:square;stroke-linejoin:miter"
             id="path1810" /></g><g
           id="patch_5"><path
             d="M 54,252 H 388.8"
             style="fill:none;stroke:#000000;stroke-width:0.8;stroke-linecap:square;stroke-linejoin:miter"
             id="path1813" /></g><g
           id="patch_6"><path
             d="M 54,34.56 H 388.8"
             style="fill:none;stroke:#000000;stroke-width:0.8;stroke-linecap:square;stroke-linejoin:miter"
             id="path1816" /></g></g></g></g></svg>
